M48
METRIC,TZ
T01C0.3000
T02C0.5080
T03C2.7500
T04C1.0160
T05C1.5000
T06C3.2000
T07C1.6510
T08C1.5240
%
T01
X+84000Y-59000
X+84000Y-56500
X+84000Y-54000
X+84000Y-51500
X+84000Y-49000
X+84000Y-46500
X+84000Y-11000
X+84000Y-28500
X+84000Y-26000
X+84000Y-23500
X+84000Y-21000
X+84000Y-18500
X+84000Y-16000
X+84000Y-13500
X+23485Y-72135
X+70473Y-22527
X+70380Y-42535
X+73000Y-24000
X+42500Y-24000
X+41646Y-14512
X+43500Y-12000
X+80540Y-38040
X+84000Y-44000
X+84000Y-41500
X+80000Y-38040
X+79500Y-38040
X+29988Y-67844
X+45500Y-17500
X+39117Y-18565
X+41000Y-28500
X+39500Y-25000
X+47000Y-43000
X+57000Y-47000
X+55500Y-47500
X+58000Y-12500
X+63500Y-35000
X+62000Y-35000
X+59000Y-36000
X+66500Y-37000
X+50000Y-44000
X+44000Y-15500
X+60500Y-36000
X+73000Y-44000
X+46000Y-58000
X+46000Y-56000
X+45000Y-13500
X+72500Y-56000
X+75000Y-56000
T02
X+16654Y-36600
T03
X+5000Y-15000
X+63000Y-15000
X+63000Y-63000
X+5000Y-63000
T04
X+10000Y-8040
X+12540Y-8040
X+15080Y-8040
X+17620Y-8040
X+20160Y-8040
X+22700Y-8040
X+25240Y-8040
X+27780Y-8040
X+30320Y-8040
X+32860Y-8040
X+35400Y-8040
X+37940Y-8040
X+40480Y-8040
X+43020Y-8040
X+45560Y-8040
X+48100Y-8040
X+50640Y-8040
X+53180Y-8040
X+55720Y-8040
X+58260Y-8040
X+58260Y-5500
X+55720Y-5500
X+53180Y-5500
X+50640Y-5500
X+48100Y-5500
X+45560Y-5500
X+43020Y-5500
X+40480Y-5500
X+37940Y-5500
X+35400Y-5500
X+32860Y-5500
X+30320Y-5500
X+27780Y-5500
X+25240Y-5500
X+22700Y-5500
X+20160Y-5500
X+17620Y-5500
X+15080Y-5500
X+12540Y-5500
X+10000Y-5500
X+5485Y-81715
X+5485Y-79175
X+5485Y-76635
X+5485Y-74095
X+10485Y-81715
X+10485Y-79175
X+10485Y-76635
X+10485Y-74095
X+15485Y-81715
X+15485Y-79175
X+15485Y-76635
X+15485Y-74095
X+20485Y-81715
X+20485Y-79175
X+20485Y-76635
X+20485Y-74095
X+25485Y-81715
X+25485Y-79175
X+25485Y-76635
X+25485Y-74095
X+30485Y-81715
X+30485Y-79175
X+30485Y-76635
X+30485Y-74095
X+35485Y-81715
X+35485Y-79175
X+35485Y-76635
X+35485Y-74095
X+40985Y-81715
X+40985Y-79175
X+40985Y-76635
X+40985Y-74095
X+48485Y-80215
X+48485Y-77675
X+48485Y-75135
X+53485Y-80215
X+53485Y-77675
X+53485Y-75135
X+58485Y-80215
X+58485Y-77675
X+58485Y-75135
X+63485Y-80215
X+63485Y-77675
X+63485Y-75135
X+68485Y-80215
X+68485Y-77675
X+68485Y-75135
X+73485Y-80215
X+73485Y-77675
X+73485Y-75135
X+78485Y-80215
X+78485Y-77675
X+78485Y-75135
X+83985Y-80215
X+83985Y-77675
X+83985Y-75135
X+11985Y-94135
X+11985Y-91595
X+11985Y-89055
X+14485Y-94135
X+14485Y-91595
X+14485Y-89055
X+16985Y-94135
X+16985Y-91595
X+16985Y-89055
X+19485Y-94135
X+19485Y-91595
X+19485Y-89055
X+21985Y-94135
X+21985Y-91595
X+21985Y-89055
X+26985Y-94135
X+26985Y-91595
X+26985Y-89055
X+29485Y-94135
X+29485Y-91595
X+29485Y-89055
X+31985Y-94135
X+31985Y-91595
X+31985Y-89055
X+34485Y-94135
X+34485Y-91595
X+34485Y-89055
X+36985Y-94135
X+36985Y-91595
X+36985Y-89055
X+41985Y-94135
X+41985Y-91595
X+41985Y-89055
X+44485Y-94135
X+44485Y-91595
X+44485Y-89055
X+46985Y-94135
X+46985Y-91595
X+46985Y-89055
X+49485Y-94135
X+49485Y-91595
X+49485Y-89055
X+51985Y-94135
X+51985Y-91595
X+51985Y-89055
X+56985Y-94135
X+56985Y-91595
X+56985Y-89055
X+59485Y-94135
X+59485Y-91595
X+59485Y-89055
X+61985Y-94135
X+61985Y-91595
X+61985Y-89055
X+64485Y-94135
X+64485Y-91595
X+64485Y-89055
X+66985Y-94135
X+66985Y-91595
X+66985Y-89055
X+71985Y-94135
X+71985Y-91595
X+71985Y-89055
X+74485Y-94135
X+74485Y-91595
X+74485Y-89055
X+76985Y-94135
X+76985Y-91595
X+76985Y-89055
X+79485Y-94135
X+79485Y-91595
X+79485Y-89055
X+81985Y-94135
X+81985Y-91595
X+81985Y-89055
X+86985Y-94135
X+86985Y-91595
X+86985Y-89055
X+97000Y-34000
X+97000Y-31460
X+97000Y-28920
X+97000Y-26380
X+97000Y-23840
X+97000Y-21300
X+97000Y-18760
X+97000Y-16220
X+97000Y-13680
X+97000Y-11140
X+97000Y-64500
X+97000Y-61960
X+97000Y-59420
X+97000Y-56880
X+97000Y-54340
X+97000Y-51800
X+97000Y-49260
X+97000Y-46720
X+97000Y-44180
X+97000Y-41640
X+91385Y-87035
X+93925Y-87035
X+96465Y-87035
X+7248Y-86972
X+4708Y-86972
X+2168Y-86972
T05
X+26000Y-36500
X+8500Y-28000
X+8500Y-45000
X+22000Y-36500
X+6000Y-36500
T06
X+4500Y-4500
X+95500Y-4500
X+95500Y-94000
X+4500Y-94000
T07
X+72500Y-5600
T08
X+77580Y-5600
M30
