G04 PROTEUS RS274X GERBER FILE*
%FSLAX45Y45*%
%MOMM*%
G01*
%ADD72C,0.203200*%
%ADD49C,0.316990*%
%ADD50C,0.522030*%
%ADD51C,0.164590*%
%ADD52C,0.241300*%
%ADD53C,0.270000*%
%ADD54C,0.078740*%
%ADD55C,0.085340*%
%ADD56C,0.050000*%
%ADD57C,0.093000*%
%ADD58C,0.076250*%
%ADD59C,0.192190*%
%ADD60C,0.259080*%
D72*
X+862840Y-941160D02*
X+5963160Y-941160D01*
X+5963160Y-412840D01*
X+862840Y-412840D01*
X+862840Y-941160D01*
D49*
X+1891442Y-772098D02*
X+1891442Y-581903D01*
X+2049937Y-581903D01*
X+2081636Y-613602D01*
X+2081636Y-645301D01*
X+2049937Y-677000D01*
X+1891442Y-677000D01*
X+2049937Y-677000D02*
X+2081636Y-708700D01*
X+2081636Y-772098D01*
X+2145035Y-772098D02*
X+2145035Y-645301D01*
X+2208433Y-581903D01*
X+2271831Y-581903D01*
X+2335229Y-645301D01*
X+2335229Y-772098D01*
X+2145035Y-708700D02*
X+2335229Y-708700D01*
X+2398628Y-740399D02*
X+2430327Y-772098D01*
X+2557123Y-772098D01*
X+2588822Y-740399D01*
X+2588822Y-708700D01*
X+2557123Y-677000D01*
X+2430327Y-677000D01*
X+2398628Y-645301D01*
X+2398628Y-613602D01*
X+2430327Y-581903D01*
X+2557123Y-581903D01*
X+2588822Y-613602D01*
X+2652221Y-772098D02*
X+2652221Y-581903D01*
X+2810716Y-581903D01*
X+2842415Y-613602D01*
X+2842415Y-645301D01*
X+2810716Y-677000D01*
X+2652221Y-677000D01*
X+2905814Y-772098D02*
X+2905814Y-581903D01*
X+3064309Y-581903D01*
X+3096008Y-613602D01*
X+3096008Y-645301D01*
X+3064309Y-677000D01*
X+3096008Y-708700D01*
X+3096008Y-740399D01*
X+3064309Y-772098D01*
X+2905814Y-772098D01*
X+2905814Y-677000D02*
X+3064309Y-677000D01*
X+3349601Y-772098D02*
X+3159407Y-772098D01*
X+3159407Y-581903D01*
X+3349601Y-581903D01*
X+3159407Y-677000D02*
X+3286203Y-677000D01*
X+3413000Y-772098D02*
X+3413000Y-581903D01*
X+3571495Y-581903D01*
X+3603194Y-613602D01*
X+3603194Y-645301D01*
X+3571495Y-677000D01*
X+3413000Y-677000D01*
X+3571495Y-677000D02*
X+3603194Y-708700D01*
X+3603194Y-772098D01*
X+3856787Y-581903D02*
X+3666593Y-772098D01*
X+3666593Y-581903D02*
X+3761690Y-677000D01*
X+4205478Y-581903D02*
X+4332274Y-581903D01*
X+4268876Y-581903D02*
X+4268876Y-772098D01*
X+4205478Y-772098D02*
X+4332274Y-772098D01*
X+4617566Y-581903D02*
X+4427372Y-772098D01*
X+4680965Y-645301D02*
X+4744363Y-581903D01*
X+4807761Y-581903D01*
X+4871159Y-645301D01*
X+4871159Y-708700D01*
X+4807761Y-772098D01*
X+4744363Y-772098D01*
X+4680965Y-708700D01*
X+4680965Y-645301D01*
D72*
X+239840Y-4760160D02*
X+2850000Y-4760160D01*
X+2850000Y-2539840D01*
X+239840Y-2539840D01*
X+239840Y-4760160D01*
D50*
X+709670Y-3806610D02*
X+709670Y-3493391D01*
X+970685Y-3493391D01*
X+1022888Y-3545594D01*
X+1022888Y-3597797D01*
X+970685Y-3650000D01*
X+1022888Y-3702204D01*
X+1022888Y-3754407D01*
X+970685Y-3806610D01*
X+709670Y-3806610D01*
X+709670Y-3650000D02*
X+970685Y-3650000D01*
X+1127295Y-3806610D02*
X+1127295Y-3597797D01*
X+1231701Y-3493391D01*
X+1336107Y-3493391D01*
X+1440513Y-3597797D01*
X+1440513Y-3806610D01*
X+1127295Y-3702204D02*
X+1440513Y-3702204D01*
X+1544920Y-3493391D02*
X+1858138Y-3493391D01*
X+1701529Y-3493391D02*
X+1701529Y-3806610D01*
X+2066951Y-3597797D02*
X+2171357Y-3493391D01*
X+2171357Y-3806610D01*
D72*
X+411298Y-8308660D02*
X+685618Y-8308660D01*
X+685618Y-7272340D01*
X+411298Y-7272340D01*
X+411298Y-8308660D01*
D51*
X+564918Y-7922173D02*
X+581377Y-7922173D01*
X+597836Y-7905714D01*
X+597836Y-7839878D01*
X+581377Y-7823419D01*
X+499081Y-7823419D01*
X+531999Y-7757582D02*
X+499081Y-7724664D01*
X+597836Y-7724664D01*
D72*
X+911298Y-8308660D02*
X+1185618Y-8308660D01*
X+1185618Y-7272340D01*
X+911298Y-7272340D01*
X+911298Y-8308660D01*
D51*
X+1064918Y-7922173D02*
X+1081377Y-7922173D01*
X+1097836Y-7905714D01*
X+1097836Y-7839878D01*
X+1081377Y-7823419D01*
X+999081Y-7823419D01*
X+1015540Y-7774041D02*
X+999081Y-7757582D01*
X+999081Y-7708205D01*
X+1015540Y-7691746D01*
X+1031999Y-7691746D01*
X+1048458Y-7708205D01*
X+1048458Y-7757582D01*
X+1064918Y-7774041D01*
X+1097836Y-7774041D01*
X+1097836Y-7691746D01*
D72*
X+1411298Y-8308660D02*
X+1685618Y-8308660D01*
X+1685618Y-7272340D01*
X+1411298Y-7272340D01*
X+1411298Y-8308660D01*
D51*
X+1564918Y-7922173D02*
X+1581377Y-7922173D01*
X+1597836Y-7905714D01*
X+1597836Y-7839878D01*
X+1581377Y-7823419D01*
X+1499081Y-7823419D01*
X+1515540Y-7774041D02*
X+1499081Y-7757582D01*
X+1499081Y-7708205D01*
X+1515540Y-7691746D01*
X+1531999Y-7691746D01*
X+1548458Y-7708205D01*
X+1564918Y-7691746D01*
X+1581377Y-7691746D01*
X+1597836Y-7708205D01*
X+1597836Y-7757582D01*
X+1581377Y-7774041D01*
X+1548458Y-7741123D02*
X+1548458Y-7708205D01*
D72*
X+1911298Y-8308660D02*
X+2185618Y-8308660D01*
X+2185618Y-7272340D01*
X+1911298Y-7272340D01*
X+1911298Y-8308660D01*
D51*
X+2064918Y-7922173D02*
X+2081377Y-7922173D01*
X+2097836Y-7905714D01*
X+2097836Y-7839878D01*
X+2081377Y-7823419D01*
X+1999081Y-7823419D01*
X+2064918Y-7691746D02*
X+2064918Y-7790500D01*
X+1999081Y-7724664D01*
X+2097836Y-7724664D01*
D72*
X+2411298Y-8308660D02*
X+2685618Y-8308660D01*
X+2685618Y-7272340D01*
X+2411298Y-7272340D01*
X+2411298Y-8308660D01*
D51*
X+2564918Y-7922173D02*
X+2581377Y-7922173D01*
X+2597836Y-7905714D01*
X+2597836Y-7839878D01*
X+2581377Y-7823419D01*
X+2499081Y-7823419D01*
X+2499081Y-7774041D02*
X+2499081Y-7691746D01*
X+2515540Y-7691746D01*
X+2597836Y-7774041D01*
D72*
X+2911298Y-8308660D02*
X+3185618Y-8308660D01*
X+3185618Y-7272340D01*
X+2911298Y-7272340D01*
X+2911298Y-8308660D01*
D51*
X+3064918Y-7922173D02*
X+3081377Y-7922173D01*
X+3097836Y-7905714D01*
X+3097836Y-7839878D01*
X+3081377Y-7823419D01*
X+2999081Y-7823419D01*
X+3048458Y-7757582D02*
X+3031999Y-7774041D01*
X+3015540Y-7774041D01*
X+2999081Y-7757582D01*
X+2999081Y-7708205D01*
X+3015540Y-7691746D01*
X+3031999Y-7691746D01*
X+3048458Y-7708205D01*
X+3048458Y-7757582D01*
X+3064918Y-7774041D01*
X+3081377Y-7774041D01*
X+3097836Y-7757582D01*
X+3097836Y-7708205D01*
X+3081377Y-7691746D01*
X+3064918Y-7691746D01*
X+3048458Y-7708205D01*
D72*
X+3411298Y-8308660D02*
X+3685618Y-8308660D01*
X+3685618Y-7272340D01*
X+3411298Y-7272340D01*
X+3411298Y-8308660D01*
D51*
X+3564918Y-7922173D02*
X+3581377Y-7922173D01*
X+3597836Y-7905714D01*
X+3597836Y-7839878D01*
X+3581377Y-7823419D01*
X+3499081Y-7823419D01*
X+3531999Y-7691746D02*
X+3548458Y-7708205D01*
X+3548458Y-7757582D01*
X+3531999Y-7774041D01*
X+3515540Y-7774041D01*
X+3499081Y-7757582D01*
X+3499081Y-7708205D01*
X+3515540Y-7691746D01*
X+3581377Y-7691746D01*
X+3597836Y-7708205D01*
X+3597836Y-7757582D01*
D72*
X+3961298Y-8308660D02*
X+4235618Y-8308660D01*
X+4235618Y-7272340D01*
X+3961298Y-7272340D01*
X+3961298Y-8308660D01*
D51*
X+4114918Y-7988009D02*
X+4131377Y-7988009D01*
X+4147836Y-7971550D01*
X+4147836Y-7905714D01*
X+4131377Y-7889255D01*
X+4049081Y-7889255D01*
X+4081999Y-7823418D02*
X+4049081Y-7790500D01*
X+4147836Y-7790500D01*
X+4131377Y-7724663D02*
X+4065540Y-7724663D01*
X+4049081Y-7708204D01*
X+4049081Y-7642368D01*
X+4065540Y-7625909D01*
X+4131377Y-7625909D01*
X+4147836Y-7642368D01*
X+4147836Y-7708204D01*
X+4131377Y-7724663D01*
X+4147836Y-7724663D02*
X+4049081Y-7625909D01*
D72*
X+4711298Y-8158660D02*
X+4985618Y-8158660D01*
X+4985618Y-7376340D01*
X+4711298Y-7376340D01*
X+4711298Y-8158660D01*
D51*
X+4864918Y-7965009D02*
X+4881377Y-7965009D01*
X+4897836Y-7948550D01*
X+4897836Y-7882714D01*
X+4881377Y-7866255D01*
X+4799081Y-7866255D01*
X+4831999Y-7800418D02*
X+4799081Y-7767500D01*
X+4897836Y-7767500D01*
X+4831999Y-7668745D02*
X+4799081Y-7635827D01*
X+4897836Y-7635827D01*
D72*
X+5211298Y-8158660D02*
X+5485618Y-8158660D01*
X+5485618Y-7376340D01*
X+5211298Y-7376340D01*
X+5211298Y-8158660D01*
D51*
X+5364918Y-7965009D02*
X+5381377Y-7965009D01*
X+5397836Y-7948550D01*
X+5397836Y-7882714D01*
X+5381377Y-7866255D01*
X+5299081Y-7866255D01*
X+5331999Y-7800418D02*
X+5299081Y-7767500D01*
X+5397836Y-7767500D01*
X+5315540Y-7685204D02*
X+5299081Y-7668745D01*
X+5299081Y-7619368D01*
X+5315540Y-7602909D01*
X+5331999Y-7602909D01*
X+5348458Y-7619368D01*
X+5348458Y-7668745D01*
X+5364918Y-7685204D01*
X+5397836Y-7685204D01*
X+5397836Y-7602909D01*
D72*
X+5711298Y-8158660D02*
X+5985618Y-8158660D01*
X+5985618Y-7376340D01*
X+5711298Y-7376340D01*
X+5711298Y-8158660D01*
D51*
X+5864918Y-7965009D02*
X+5881377Y-7965009D01*
X+5897836Y-7948550D01*
X+5897836Y-7882714D01*
X+5881377Y-7866255D01*
X+5799081Y-7866255D01*
X+5831999Y-7800418D02*
X+5799081Y-7767500D01*
X+5897836Y-7767500D01*
X+5815540Y-7685204D02*
X+5799081Y-7668745D01*
X+5799081Y-7619368D01*
X+5815540Y-7602909D01*
X+5831999Y-7602909D01*
X+5848458Y-7619368D01*
X+5864918Y-7602909D01*
X+5881377Y-7602909D01*
X+5897836Y-7619368D01*
X+5897836Y-7668745D01*
X+5881377Y-7685204D01*
X+5848458Y-7652286D02*
X+5848458Y-7619368D01*
D72*
X+6211298Y-8158660D02*
X+6485618Y-8158660D01*
X+6485618Y-7376340D01*
X+6211298Y-7376340D01*
X+6211298Y-8158660D01*
D51*
X+6364918Y-7965009D02*
X+6381377Y-7965009D01*
X+6397836Y-7948550D01*
X+6397836Y-7882714D01*
X+6381377Y-7866255D01*
X+6299081Y-7866255D01*
X+6331999Y-7800418D02*
X+6299081Y-7767500D01*
X+6397836Y-7767500D01*
X+6364918Y-7602909D02*
X+6364918Y-7701663D01*
X+6299081Y-7635827D01*
X+6397836Y-7635827D01*
D72*
X+6711298Y-8158660D02*
X+6985618Y-8158660D01*
X+6985618Y-7376340D01*
X+6711298Y-7376340D01*
X+6711298Y-8158660D01*
D51*
X+6864918Y-7965009D02*
X+6881377Y-7965009D01*
X+6897836Y-7948550D01*
X+6897836Y-7882714D01*
X+6881377Y-7866255D01*
X+6799081Y-7866255D01*
X+6831999Y-7800418D02*
X+6799081Y-7767500D01*
X+6897836Y-7767500D01*
X+6799081Y-7602909D02*
X+6799081Y-7685204D01*
X+6831999Y-7685204D01*
X+6831999Y-7619368D01*
X+6848458Y-7602909D01*
X+6881377Y-7602909D01*
X+6897836Y-7619368D01*
X+6897836Y-7668745D01*
X+6881377Y-7685204D01*
D72*
X+7211298Y-8158660D02*
X+7485618Y-8158660D01*
X+7485618Y-7376340D01*
X+7211298Y-7376340D01*
X+7211298Y-8158660D01*
D51*
X+7364918Y-7965009D02*
X+7381377Y-7965009D01*
X+7397836Y-7948550D01*
X+7397836Y-7882714D01*
X+7381377Y-7866255D01*
X+7299081Y-7866255D01*
X+7331999Y-7800418D02*
X+7299081Y-7767500D01*
X+7397836Y-7767500D01*
X+7315540Y-7602909D02*
X+7299081Y-7619368D01*
X+7299081Y-7668745D01*
X+7315540Y-7685204D01*
X+7381377Y-7685204D01*
X+7397836Y-7668745D01*
X+7397836Y-7619368D01*
X+7381377Y-7602909D01*
X+7364918Y-7602909D01*
X+7348458Y-7619368D01*
X+7348458Y-7685204D01*
D72*
X+7711298Y-8158660D02*
X+7985618Y-8158660D01*
X+7985618Y-7376340D01*
X+7711298Y-7376340D01*
X+7711298Y-8158660D01*
D51*
X+7864918Y-7965009D02*
X+7881377Y-7965009D01*
X+7897836Y-7948550D01*
X+7897836Y-7882714D01*
X+7881377Y-7866255D01*
X+7799081Y-7866255D01*
X+7831999Y-7800418D02*
X+7799081Y-7767500D01*
X+7897836Y-7767500D01*
X+7799081Y-7685204D02*
X+7799081Y-7602909D01*
X+7815540Y-7602909D01*
X+7897836Y-7685204D01*
D72*
X+8261298Y-8158660D02*
X+8535618Y-8158660D01*
X+8535618Y-7376340D01*
X+8261298Y-7376340D01*
X+8261298Y-8158660D01*
D51*
X+8414918Y-7965009D02*
X+8431377Y-7965009D01*
X+8447836Y-7948550D01*
X+8447836Y-7882714D01*
X+8431377Y-7866255D01*
X+8349081Y-7866255D01*
X+8381999Y-7800418D02*
X+8349081Y-7767500D01*
X+8447836Y-7767500D01*
X+8398458Y-7668745D02*
X+8381999Y-7685204D01*
X+8365540Y-7685204D01*
X+8349081Y-7668745D01*
X+8349081Y-7619368D01*
X+8365540Y-7602909D01*
X+8381999Y-7602909D01*
X+8398458Y-7619368D01*
X+8398458Y-7668745D01*
X+8414918Y-7685204D01*
X+8431377Y-7685204D01*
X+8447836Y-7668745D01*
X+8447836Y-7619368D01*
X+8431377Y-7602909D01*
X+8414918Y-7602909D01*
X+8398458Y-7619368D01*
D72*
X+1061298Y-9550660D02*
X+1335618Y-9550660D01*
X+1335618Y-8768340D01*
X+1061298Y-8768340D01*
X+1061298Y-9550660D01*
D51*
X+1214918Y-9357009D02*
X+1231377Y-9357009D01*
X+1247836Y-9340550D01*
X+1247836Y-9274714D01*
X+1231377Y-9258255D01*
X+1149081Y-9258255D01*
X+1181999Y-9192418D02*
X+1149081Y-9159500D01*
X+1247836Y-9159500D01*
X+1181999Y-8994909D02*
X+1198458Y-9011368D01*
X+1198458Y-9060745D01*
X+1181999Y-9077204D01*
X+1165540Y-9077204D01*
X+1149081Y-9060745D01*
X+1149081Y-9011368D01*
X+1165540Y-8994909D01*
X+1231377Y-8994909D01*
X+1247836Y-9011368D01*
X+1247836Y-9060745D01*
D72*
X+1311298Y-9550660D02*
X+1585618Y-9550660D01*
X+1585618Y-8768340D01*
X+1311298Y-8768340D01*
X+1311298Y-9550660D01*
D51*
X+1464918Y-9357009D02*
X+1481377Y-9357009D01*
X+1497836Y-9340550D01*
X+1497836Y-9274714D01*
X+1481377Y-9258255D01*
X+1399081Y-9258255D01*
X+1415540Y-9208877D02*
X+1399081Y-9192418D01*
X+1399081Y-9143041D01*
X+1415540Y-9126582D01*
X+1431999Y-9126582D01*
X+1448458Y-9143041D01*
X+1448458Y-9192418D01*
X+1464918Y-9208877D01*
X+1497836Y-9208877D01*
X+1497836Y-9126582D01*
X+1481377Y-9093663D02*
X+1415540Y-9093663D01*
X+1399081Y-9077204D01*
X+1399081Y-9011368D01*
X+1415540Y-8994909D01*
X+1481377Y-8994909D01*
X+1497836Y-9011368D01*
X+1497836Y-9077204D01*
X+1481377Y-9093663D01*
X+1497836Y-9093663D02*
X+1399081Y-8994909D01*
D72*
X+1561298Y-9550660D02*
X+1835618Y-9550660D01*
X+1835618Y-8768340D01*
X+1561298Y-8768340D01*
X+1561298Y-9550660D01*
D51*
X+1714918Y-9357009D02*
X+1731377Y-9357009D01*
X+1747836Y-9340550D01*
X+1747836Y-9274714D01*
X+1731377Y-9258255D01*
X+1649081Y-9258255D01*
X+1665540Y-9208877D02*
X+1649081Y-9192418D01*
X+1649081Y-9143041D01*
X+1665540Y-9126582D01*
X+1681999Y-9126582D01*
X+1698458Y-9143041D01*
X+1698458Y-9192418D01*
X+1714918Y-9208877D01*
X+1747836Y-9208877D01*
X+1747836Y-9126582D01*
X+1681999Y-9060745D02*
X+1649081Y-9027827D01*
X+1747836Y-9027827D01*
D72*
X+1811298Y-9550660D02*
X+2085618Y-9550660D01*
X+2085618Y-8768340D01*
X+1811298Y-8768340D01*
X+1811298Y-9550660D01*
D51*
X+1964918Y-9357009D02*
X+1981377Y-9357009D01*
X+1997836Y-9340550D01*
X+1997836Y-9274714D01*
X+1981377Y-9258255D01*
X+1899081Y-9258255D01*
X+1915540Y-9208877D02*
X+1899081Y-9192418D01*
X+1899081Y-9143041D01*
X+1915540Y-9126582D01*
X+1931999Y-9126582D01*
X+1948458Y-9143041D01*
X+1948458Y-9192418D01*
X+1964918Y-9208877D01*
X+1997836Y-9208877D01*
X+1997836Y-9126582D01*
X+1915540Y-9077204D02*
X+1899081Y-9060745D01*
X+1899081Y-9011368D01*
X+1915540Y-8994909D01*
X+1931999Y-8994909D01*
X+1948458Y-9011368D01*
X+1948458Y-9060745D01*
X+1964918Y-9077204D01*
X+1997836Y-9077204D01*
X+1997836Y-8994909D01*
D72*
X+2061298Y-9550660D02*
X+2335618Y-9550660D01*
X+2335618Y-8768340D01*
X+2061298Y-8768340D01*
X+2061298Y-9550660D01*
D51*
X+2214918Y-9357009D02*
X+2231377Y-9357009D01*
X+2247836Y-9340550D01*
X+2247836Y-9274714D01*
X+2231377Y-9258255D01*
X+2149081Y-9258255D01*
X+2165540Y-9208877D02*
X+2149081Y-9192418D01*
X+2149081Y-9143041D01*
X+2165540Y-9126582D01*
X+2181999Y-9126582D01*
X+2198458Y-9143041D01*
X+2198458Y-9192418D01*
X+2214918Y-9208877D01*
X+2247836Y-9208877D01*
X+2247836Y-9126582D01*
X+2165540Y-9077204D02*
X+2149081Y-9060745D01*
X+2149081Y-9011368D01*
X+2165540Y-8994909D01*
X+2181999Y-8994909D01*
X+2198458Y-9011368D01*
X+2214918Y-8994909D01*
X+2231377Y-8994909D01*
X+2247836Y-9011368D01*
X+2247836Y-9060745D01*
X+2231377Y-9077204D01*
X+2198458Y-9044286D02*
X+2198458Y-9011368D01*
D72*
X+2561298Y-9550660D02*
X+2835618Y-9550660D01*
X+2835618Y-8768340D01*
X+2561298Y-8768340D01*
X+2561298Y-9550660D01*
D51*
X+2714918Y-9357009D02*
X+2731377Y-9357009D01*
X+2747836Y-9340550D01*
X+2747836Y-9274714D01*
X+2731377Y-9258255D01*
X+2649081Y-9258255D01*
X+2665540Y-9208877D02*
X+2649081Y-9192418D01*
X+2649081Y-9143041D01*
X+2665540Y-9126582D01*
X+2681999Y-9126582D01*
X+2698458Y-9143041D01*
X+2698458Y-9192418D01*
X+2714918Y-9208877D01*
X+2747836Y-9208877D01*
X+2747836Y-9126582D01*
X+2714918Y-8994909D02*
X+2714918Y-9093663D01*
X+2649081Y-9027827D01*
X+2747836Y-9027827D01*
D72*
X+2811298Y-9550660D02*
X+3085618Y-9550660D01*
X+3085618Y-8768340D01*
X+2811298Y-8768340D01*
X+2811298Y-9550660D01*
D51*
X+2964918Y-9357009D02*
X+2981377Y-9357009D01*
X+2997836Y-9340550D01*
X+2997836Y-9274714D01*
X+2981377Y-9258255D01*
X+2899081Y-9258255D01*
X+2915540Y-9208877D02*
X+2899081Y-9192418D01*
X+2899081Y-9143041D01*
X+2915540Y-9126582D01*
X+2931999Y-9126582D01*
X+2948458Y-9143041D01*
X+2948458Y-9192418D01*
X+2964918Y-9208877D01*
X+2997836Y-9208877D01*
X+2997836Y-9126582D01*
X+2899081Y-8994909D02*
X+2899081Y-9077204D01*
X+2931999Y-9077204D01*
X+2931999Y-9011368D01*
X+2948458Y-8994909D01*
X+2981377Y-8994909D01*
X+2997836Y-9011368D01*
X+2997836Y-9060745D01*
X+2981377Y-9077204D01*
D72*
X+3061298Y-9550660D02*
X+3335618Y-9550660D01*
X+3335618Y-8768340D01*
X+3061298Y-8768340D01*
X+3061298Y-9550660D01*
D51*
X+3214918Y-9357009D02*
X+3231377Y-9357009D01*
X+3247836Y-9340550D01*
X+3247836Y-9274714D01*
X+3231377Y-9258255D01*
X+3149081Y-9258255D01*
X+3165540Y-9208877D02*
X+3149081Y-9192418D01*
X+3149081Y-9143041D01*
X+3165540Y-9126582D01*
X+3181999Y-9126582D01*
X+3198458Y-9143041D01*
X+3198458Y-9192418D01*
X+3214918Y-9208877D01*
X+3247836Y-9208877D01*
X+3247836Y-9126582D01*
X+3165540Y-8994909D02*
X+3149081Y-9011368D01*
X+3149081Y-9060745D01*
X+3165540Y-9077204D01*
X+3231377Y-9077204D01*
X+3247836Y-9060745D01*
X+3247836Y-9011368D01*
X+3231377Y-8994909D01*
X+3214918Y-8994909D01*
X+3198458Y-9011368D01*
X+3198458Y-9077204D01*
D72*
X+3311298Y-9550660D02*
X+3585618Y-9550660D01*
X+3585618Y-8768340D01*
X+3311298Y-8768340D01*
X+3311298Y-9550660D01*
D51*
X+3464918Y-9357009D02*
X+3481377Y-9357009D01*
X+3497836Y-9340550D01*
X+3497836Y-9274714D01*
X+3481377Y-9258255D01*
X+3399081Y-9258255D01*
X+3415540Y-9208877D02*
X+3399081Y-9192418D01*
X+3399081Y-9143041D01*
X+3415540Y-9126582D01*
X+3431999Y-9126582D01*
X+3448458Y-9143041D01*
X+3448458Y-9192418D01*
X+3464918Y-9208877D01*
X+3497836Y-9208877D01*
X+3497836Y-9126582D01*
X+3399081Y-9077204D02*
X+3399081Y-8994909D01*
X+3415540Y-8994909D01*
X+3497836Y-9077204D01*
D72*
X+3561298Y-9550660D02*
X+3835618Y-9550660D01*
X+3835618Y-8768340D01*
X+3561298Y-8768340D01*
X+3561298Y-9550660D01*
D51*
X+3714918Y-9357009D02*
X+3731377Y-9357009D01*
X+3747836Y-9340550D01*
X+3747836Y-9274714D01*
X+3731377Y-9258255D01*
X+3649081Y-9258255D01*
X+3665540Y-9208877D02*
X+3649081Y-9192418D01*
X+3649081Y-9143041D01*
X+3665540Y-9126582D01*
X+3681999Y-9126582D01*
X+3698458Y-9143041D01*
X+3698458Y-9192418D01*
X+3714918Y-9208877D01*
X+3747836Y-9208877D01*
X+3747836Y-9126582D01*
X+3698458Y-9060745D02*
X+3681999Y-9077204D01*
X+3665540Y-9077204D01*
X+3649081Y-9060745D01*
X+3649081Y-9011368D01*
X+3665540Y-8994909D01*
X+3681999Y-8994909D01*
X+3698458Y-9011368D01*
X+3698458Y-9060745D01*
X+3714918Y-9077204D01*
X+3731377Y-9077204D01*
X+3747836Y-9060745D01*
X+3747836Y-9011368D01*
X+3731377Y-8994909D01*
X+3714918Y-8994909D01*
X+3698458Y-9011368D01*
D72*
X+4061298Y-9550660D02*
X+4335618Y-9550660D01*
X+4335618Y-8768340D01*
X+4061298Y-8768340D01*
X+4061298Y-9550660D01*
D51*
X+4214918Y-9357009D02*
X+4231377Y-9357009D01*
X+4247836Y-9340550D01*
X+4247836Y-9274714D01*
X+4231377Y-9258255D01*
X+4149081Y-9258255D01*
X+4165540Y-9208877D02*
X+4149081Y-9192418D01*
X+4149081Y-9143041D01*
X+4165540Y-9126582D01*
X+4181999Y-9126582D01*
X+4198458Y-9143041D01*
X+4198458Y-9192418D01*
X+4214918Y-9208877D01*
X+4247836Y-9208877D01*
X+4247836Y-9126582D01*
X+4181999Y-8994909D02*
X+4198458Y-9011368D01*
X+4198458Y-9060745D01*
X+4181999Y-9077204D01*
X+4165540Y-9077204D01*
X+4149081Y-9060745D01*
X+4149081Y-9011368D01*
X+4165540Y-8994909D01*
X+4231377Y-8994909D01*
X+4247836Y-9011368D01*
X+4247836Y-9060745D01*
D72*
X+4311298Y-9550660D02*
X+4585618Y-9550660D01*
X+4585618Y-8768340D01*
X+4311298Y-8768340D01*
X+4311298Y-9550660D01*
D51*
X+4464918Y-9357009D02*
X+4481377Y-9357009D01*
X+4497836Y-9340550D01*
X+4497836Y-9274714D01*
X+4481377Y-9258255D01*
X+4399081Y-9258255D01*
X+4415540Y-9208877D02*
X+4399081Y-9192418D01*
X+4399081Y-9143041D01*
X+4415540Y-9126582D01*
X+4431999Y-9126582D01*
X+4448458Y-9143041D01*
X+4464918Y-9126582D01*
X+4481377Y-9126582D01*
X+4497836Y-9143041D01*
X+4497836Y-9192418D01*
X+4481377Y-9208877D01*
X+4448458Y-9175959D02*
X+4448458Y-9143041D01*
X+4481377Y-9093663D02*
X+4415540Y-9093663D01*
X+4399081Y-9077204D01*
X+4399081Y-9011368D01*
X+4415540Y-8994909D01*
X+4481377Y-8994909D01*
X+4497836Y-9011368D01*
X+4497836Y-9077204D01*
X+4481377Y-9093663D01*
X+4497836Y-9093663D02*
X+4399081Y-8994909D01*
D72*
X+4561298Y-9550660D02*
X+4835618Y-9550660D01*
X+4835618Y-8768340D01*
X+4561298Y-8768340D01*
X+4561298Y-9550660D01*
D51*
X+4714918Y-9357009D02*
X+4731377Y-9357009D01*
X+4747836Y-9340550D01*
X+4747836Y-9274714D01*
X+4731377Y-9258255D01*
X+4649081Y-9258255D01*
X+4665540Y-9208877D02*
X+4649081Y-9192418D01*
X+4649081Y-9143041D01*
X+4665540Y-9126582D01*
X+4681999Y-9126582D01*
X+4698458Y-9143041D01*
X+4714918Y-9126582D01*
X+4731377Y-9126582D01*
X+4747836Y-9143041D01*
X+4747836Y-9192418D01*
X+4731377Y-9208877D01*
X+4698458Y-9175959D02*
X+4698458Y-9143041D01*
X+4681999Y-9060745D02*
X+4649081Y-9027827D01*
X+4747836Y-9027827D01*
D72*
X+4811298Y-9550660D02*
X+5085618Y-9550660D01*
X+5085618Y-8768340D01*
X+4811298Y-8768340D01*
X+4811298Y-9550660D01*
D51*
X+4964918Y-9357009D02*
X+4981377Y-9357009D01*
X+4997836Y-9340550D01*
X+4997836Y-9274714D01*
X+4981377Y-9258255D01*
X+4899081Y-9258255D01*
X+4915540Y-9208877D02*
X+4899081Y-9192418D01*
X+4899081Y-9143041D01*
X+4915540Y-9126582D01*
X+4931999Y-9126582D01*
X+4948458Y-9143041D01*
X+4964918Y-9126582D01*
X+4981377Y-9126582D01*
X+4997836Y-9143041D01*
X+4997836Y-9192418D01*
X+4981377Y-9208877D01*
X+4948458Y-9175959D02*
X+4948458Y-9143041D01*
X+4915540Y-9077204D02*
X+4899081Y-9060745D01*
X+4899081Y-9011368D01*
X+4915540Y-8994909D01*
X+4931999Y-8994909D01*
X+4948458Y-9011368D01*
X+4948458Y-9060745D01*
X+4964918Y-9077204D01*
X+4997836Y-9077204D01*
X+4997836Y-8994909D01*
D72*
X+5061298Y-9550660D02*
X+5335618Y-9550660D01*
X+5335618Y-8768340D01*
X+5061298Y-8768340D01*
X+5061298Y-9550660D01*
D51*
X+5214918Y-9357009D02*
X+5231377Y-9357009D01*
X+5247836Y-9340550D01*
X+5247836Y-9274714D01*
X+5231377Y-9258255D01*
X+5149081Y-9258255D01*
X+5165540Y-9208877D02*
X+5149081Y-9192418D01*
X+5149081Y-9143041D01*
X+5165540Y-9126582D01*
X+5181999Y-9126582D01*
X+5198458Y-9143041D01*
X+5214918Y-9126582D01*
X+5231377Y-9126582D01*
X+5247836Y-9143041D01*
X+5247836Y-9192418D01*
X+5231377Y-9208877D01*
X+5198458Y-9175959D02*
X+5198458Y-9143041D01*
X+5165540Y-9077204D02*
X+5149081Y-9060745D01*
X+5149081Y-9011368D01*
X+5165540Y-8994909D01*
X+5181999Y-8994909D01*
X+5198458Y-9011368D01*
X+5214918Y-8994909D01*
X+5231377Y-8994909D01*
X+5247836Y-9011368D01*
X+5247836Y-9060745D01*
X+5231377Y-9077204D01*
X+5198458Y-9044286D02*
X+5198458Y-9011368D01*
D72*
X+5561298Y-9550660D02*
X+5835618Y-9550660D01*
X+5835618Y-8768340D01*
X+5561298Y-8768340D01*
X+5561298Y-9550660D01*
D51*
X+5714918Y-9357009D02*
X+5731377Y-9357009D01*
X+5747836Y-9340550D01*
X+5747836Y-9274714D01*
X+5731377Y-9258255D01*
X+5649081Y-9258255D01*
X+5665540Y-9208877D02*
X+5649081Y-9192418D01*
X+5649081Y-9143041D01*
X+5665540Y-9126582D01*
X+5681999Y-9126582D01*
X+5698458Y-9143041D01*
X+5714918Y-9126582D01*
X+5731377Y-9126582D01*
X+5747836Y-9143041D01*
X+5747836Y-9192418D01*
X+5731377Y-9208877D01*
X+5698458Y-9175959D02*
X+5698458Y-9143041D01*
X+5714918Y-8994909D02*
X+5714918Y-9093663D01*
X+5649081Y-9027827D01*
X+5747836Y-9027827D01*
D72*
X+5811298Y-9550660D02*
X+6085618Y-9550660D01*
X+6085618Y-8768340D01*
X+5811298Y-8768340D01*
X+5811298Y-9550660D01*
D51*
X+5964918Y-9357009D02*
X+5981377Y-9357009D01*
X+5997836Y-9340550D01*
X+5997836Y-9274714D01*
X+5981377Y-9258255D01*
X+5899081Y-9258255D01*
X+5915540Y-9208877D02*
X+5899081Y-9192418D01*
X+5899081Y-9143041D01*
X+5915540Y-9126582D01*
X+5931999Y-9126582D01*
X+5948458Y-9143041D01*
X+5964918Y-9126582D01*
X+5981377Y-9126582D01*
X+5997836Y-9143041D01*
X+5997836Y-9192418D01*
X+5981377Y-9208877D01*
X+5948458Y-9175959D02*
X+5948458Y-9143041D01*
X+5899081Y-8994909D02*
X+5899081Y-9077204D01*
X+5931999Y-9077204D01*
X+5931999Y-9011368D01*
X+5948458Y-8994909D01*
X+5981377Y-8994909D01*
X+5997836Y-9011368D01*
X+5997836Y-9060745D01*
X+5981377Y-9077204D01*
D72*
X+6061298Y-9550660D02*
X+6335618Y-9550660D01*
X+6335618Y-8768340D01*
X+6061298Y-8768340D01*
X+6061298Y-9550660D01*
D51*
X+6214918Y-9357009D02*
X+6231377Y-9357009D01*
X+6247836Y-9340550D01*
X+6247836Y-9274714D01*
X+6231377Y-9258255D01*
X+6149081Y-9258255D01*
X+6165540Y-9208877D02*
X+6149081Y-9192418D01*
X+6149081Y-9143041D01*
X+6165540Y-9126582D01*
X+6181999Y-9126582D01*
X+6198458Y-9143041D01*
X+6214918Y-9126582D01*
X+6231377Y-9126582D01*
X+6247836Y-9143041D01*
X+6247836Y-9192418D01*
X+6231377Y-9208877D01*
X+6198458Y-9175959D02*
X+6198458Y-9143041D01*
X+6165540Y-8994909D02*
X+6149081Y-9011368D01*
X+6149081Y-9060745D01*
X+6165540Y-9077204D01*
X+6231377Y-9077204D01*
X+6247836Y-9060745D01*
X+6247836Y-9011368D01*
X+6231377Y-8994909D01*
X+6214918Y-8994909D01*
X+6198458Y-9011368D01*
X+6198458Y-9077204D01*
D72*
X+6311298Y-9550660D02*
X+6585618Y-9550660D01*
X+6585618Y-8768340D01*
X+6311298Y-8768340D01*
X+6311298Y-9550660D01*
D51*
X+6464918Y-9357009D02*
X+6481377Y-9357009D01*
X+6497836Y-9340550D01*
X+6497836Y-9274714D01*
X+6481377Y-9258255D01*
X+6399081Y-9258255D01*
X+6415540Y-9208877D02*
X+6399081Y-9192418D01*
X+6399081Y-9143041D01*
X+6415540Y-9126582D01*
X+6431999Y-9126582D01*
X+6448458Y-9143041D01*
X+6464918Y-9126582D01*
X+6481377Y-9126582D01*
X+6497836Y-9143041D01*
X+6497836Y-9192418D01*
X+6481377Y-9208877D01*
X+6448458Y-9175959D02*
X+6448458Y-9143041D01*
X+6399081Y-9077204D02*
X+6399081Y-8994909D01*
X+6415540Y-8994909D01*
X+6497836Y-9077204D01*
D72*
X+6561298Y-9550660D02*
X+6835618Y-9550660D01*
X+6835618Y-8768340D01*
X+6561298Y-8768340D01*
X+6561298Y-9550660D01*
D51*
X+6714918Y-9357009D02*
X+6731377Y-9357009D01*
X+6747836Y-9340550D01*
X+6747836Y-9274714D01*
X+6731377Y-9258255D01*
X+6649081Y-9258255D01*
X+6665540Y-9208877D02*
X+6649081Y-9192418D01*
X+6649081Y-9143041D01*
X+6665540Y-9126582D01*
X+6681999Y-9126582D01*
X+6698458Y-9143041D01*
X+6714918Y-9126582D01*
X+6731377Y-9126582D01*
X+6747836Y-9143041D01*
X+6747836Y-9192418D01*
X+6731377Y-9208877D01*
X+6698458Y-9175959D02*
X+6698458Y-9143041D01*
X+6698458Y-9060745D02*
X+6681999Y-9077204D01*
X+6665540Y-9077204D01*
X+6649081Y-9060745D01*
X+6649081Y-9011368D01*
X+6665540Y-8994909D01*
X+6681999Y-8994909D01*
X+6698458Y-9011368D01*
X+6698458Y-9060745D01*
X+6714918Y-9077204D01*
X+6731377Y-9077204D01*
X+6747836Y-9060745D01*
X+6747836Y-9011368D01*
X+6731377Y-8994909D01*
X+6714918Y-8994909D01*
X+6698458Y-9011368D01*
D72*
X+7061298Y-9550660D02*
X+7335618Y-9550660D01*
X+7335618Y-8768340D01*
X+7061298Y-8768340D01*
X+7061298Y-9550660D01*
D51*
X+7214918Y-9357009D02*
X+7231377Y-9357009D01*
X+7247836Y-9340550D01*
X+7247836Y-9274714D01*
X+7231377Y-9258255D01*
X+7149081Y-9258255D01*
X+7165540Y-9208877D02*
X+7149081Y-9192418D01*
X+7149081Y-9143041D01*
X+7165540Y-9126582D01*
X+7181999Y-9126582D01*
X+7198458Y-9143041D01*
X+7214918Y-9126582D01*
X+7231377Y-9126582D01*
X+7247836Y-9143041D01*
X+7247836Y-9192418D01*
X+7231377Y-9208877D01*
X+7198458Y-9175959D02*
X+7198458Y-9143041D01*
X+7181999Y-8994909D02*
X+7198458Y-9011368D01*
X+7198458Y-9060745D01*
X+7181999Y-9077204D01*
X+7165540Y-9077204D01*
X+7149081Y-9060745D01*
X+7149081Y-9011368D01*
X+7165540Y-8994909D01*
X+7231377Y-8994909D01*
X+7247836Y-9011368D01*
X+7247836Y-9060745D01*
D72*
X+7311298Y-9550660D02*
X+7585618Y-9550660D01*
X+7585618Y-8768340D01*
X+7311298Y-8768340D01*
X+7311298Y-9550660D01*
D51*
X+7464918Y-9357009D02*
X+7481377Y-9357009D01*
X+7497836Y-9340550D01*
X+7497836Y-9274714D01*
X+7481377Y-9258255D01*
X+7399081Y-9258255D01*
X+7464918Y-9126582D02*
X+7464918Y-9225336D01*
X+7399081Y-9159500D01*
X+7497836Y-9159500D01*
X+7481377Y-9093663D02*
X+7415540Y-9093663D01*
X+7399081Y-9077204D01*
X+7399081Y-9011368D01*
X+7415540Y-8994909D01*
X+7481377Y-8994909D01*
X+7497836Y-9011368D01*
X+7497836Y-9077204D01*
X+7481377Y-9093663D01*
X+7497836Y-9093663D02*
X+7399081Y-8994909D01*
D72*
X+7561298Y-9550660D02*
X+7835618Y-9550660D01*
X+7835618Y-8768340D01*
X+7561298Y-8768340D01*
X+7561298Y-9550660D01*
D51*
X+7714918Y-9357009D02*
X+7731377Y-9357009D01*
X+7747836Y-9340550D01*
X+7747836Y-9274714D01*
X+7731377Y-9258255D01*
X+7649081Y-9258255D01*
X+7714918Y-9126582D02*
X+7714918Y-9225336D01*
X+7649081Y-9159500D01*
X+7747836Y-9159500D01*
X+7681999Y-9060745D02*
X+7649081Y-9027827D01*
X+7747836Y-9027827D01*
D72*
X+7811298Y-9550660D02*
X+8085618Y-9550660D01*
X+8085618Y-8768340D01*
X+7811298Y-8768340D01*
X+7811298Y-9550660D01*
D51*
X+7964918Y-9357009D02*
X+7981377Y-9357009D01*
X+7997836Y-9340550D01*
X+7997836Y-9274714D01*
X+7981377Y-9258255D01*
X+7899081Y-9258255D01*
X+7964918Y-9126582D02*
X+7964918Y-9225336D01*
X+7899081Y-9159500D01*
X+7997836Y-9159500D01*
X+7915540Y-9077204D02*
X+7899081Y-9060745D01*
X+7899081Y-9011368D01*
X+7915540Y-8994909D01*
X+7931999Y-8994909D01*
X+7948458Y-9011368D01*
X+7948458Y-9060745D01*
X+7964918Y-9077204D01*
X+7997836Y-9077204D01*
X+7997836Y-8994909D01*
D72*
X+8061298Y-9550660D02*
X+8335618Y-9550660D01*
X+8335618Y-8768340D01*
X+8061298Y-8768340D01*
X+8061298Y-9550660D01*
D51*
X+8214918Y-9357009D02*
X+8231377Y-9357009D01*
X+8247836Y-9340550D01*
X+8247836Y-9274714D01*
X+8231377Y-9258255D01*
X+8149081Y-9258255D01*
X+8214918Y-9126582D02*
X+8214918Y-9225336D01*
X+8149081Y-9159500D01*
X+8247836Y-9159500D01*
X+8165540Y-9077204D02*
X+8149081Y-9060745D01*
X+8149081Y-9011368D01*
X+8165540Y-8994909D01*
X+8181999Y-8994909D01*
X+8198458Y-9011368D01*
X+8214918Y-8994909D01*
X+8231377Y-8994909D01*
X+8247836Y-9011368D01*
X+8247836Y-9060745D01*
X+8231377Y-9077204D01*
X+8198458Y-9044286D02*
X+8198458Y-9011368D01*
D72*
X+8561298Y-9550660D02*
X+8835618Y-9550660D01*
X+8835618Y-8768340D01*
X+8561298Y-8768340D01*
X+8561298Y-9550660D01*
D51*
X+8714918Y-9357009D02*
X+8731377Y-9357009D01*
X+8747836Y-9340550D01*
X+8747836Y-9274714D01*
X+8731377Y-9258255D01*
X+8649081Y-9258255D01*
X+8714918Y-9126582D02*
X+8714918Y-9225336D01*
X+8649081Y-9159500D01*
X+8747836Y-9159500D01*
X+8714918Y-8994909D02*
X+8714918Y-9093663D01*
X+8649081Y-9027827D01*
X+8747836Y-9027827D01*
D72*
X+9562840Y-3537160D02*
X+9837160Y-3537160D01*
X+9837160Y-976840D01*
X+9562840Y-976840D01*
X+9562840Y-3537160D01*
D51*
X+9716460Y-2388673D02*
X+9732919Y-2388673D01*
X+9749378Y-2372214D01*
X+9749378Y-2306378D01*
X+9732919Y-2289919D01*
X+9650623Y-2289919D01*
X+9650623Y-2158246D02*
X+9650623Y-2240541D01*
X+9683541Y-2240541D01*
X+9683541Y-2174705D01*
X+9700000Y-2158246D01*
X+9732919Y-2158246D01*
X+9749378Y-2174705D01*
X+9749378Y-2224082D01*
X+9732919Y-2240541D01*
D72*
X+9562840Y-6587160D02*
X+9837160Y-6587160D01*
X+9837160Y-4026840D01*
X+9562840Y-4026840D01*
X+9562840Y-6587160D01*
D51*
X+9716460Y-5438673D02*
X+9732919Y-5438673D01*
X+9749378Y-5422214D01*
X+9749378Y-5356378D01*
X+9732919Y-5339919D01*
X+9650623Y-5339919D01*
X+9667082Y-5208246D02*
X+9650623Y-5224705D01*
X+9650623Y-5274082D01*
X+9667082Y-5290541D01*
X+9732919Y-5290541D01*
X+9749378Y-5274082D01*
X+9749378Y-5224705D01*
X+9732919Y-5208246D01*
X+9716460Y-5208246D01*
X+9700000Y-5224705D01*
X+9700000Y-5290541D01*
D72*
X+400000Y-50000D02*
X+9600000Y-50000D01*
X+9950000Y-400000D02*
X+9950000Y-9400000D01*
X+50000Y-9400000D02*
X+50000Y-450000D01*
X+2516320Y-5011950D02*
X+2983680Y-5011950D01*
X+2983680Y-4288050D01*
X+2516320Y-4288050D01*
X+2516320Y-5011950D01*
D52*
X+2677610Y-4843040D02*
X+2798260Y-4843040D01*
X+2822390Y-4818910D01*
X+2822390Y-4722390D01*
X+2798260Y-4698260D01*
X+2677610Y-4698260D01*
X+2701740Y-4625870D02*
X+2677610Y-4601740D01*
X+2677610Y-4529350D01*
X+2701740Y-4505220D01*
X+2725870Y-4505220D01*
X+2750000Y-4529350D01*
X+2774130Y-4505220D01*
X+2798260Y-4505220D01*
X+2822390Y-4529350D01*
X+2822390Y-4601740D01*
X+2798260Y-4625870D01*
X+2750000Y-4577610D02*
X+2750000Y-4529350D01*
D72*
X+7095000Y-2830160D02*
X+7905000Y-2830160D01*
X+7905000Y-2149840D01*
X+7095000Y-2149840D01*
X+7095000Y-2830160D01*
D53*
X+7284000Y-2409000D02*
X+7284000Y-2544000D01*
X+7311000Y-2571000D01*
X+7419000Y-2571000D01*
X+7446000Y-2544000D01*
X+7446000Y-2409000D01*
X+7527000Y-2436000D02*
X+7554000Y-2409000D01*
X+7635000Y-2409000D01*
X+7662000Y-2436000D01*
X+7662000Y-2463000D01*
X+7635000Y-2490000D01*
X+7554000Y-2490000D01*
X+7527000Y-2517000D01*
X+7527000Y-2571000D01*
X+7662000Y-2571000D01*
D72*
X+7095000Y-4830160D02*
X+7905000Y-4830160D01*
X+7905000Y-4149840D01*
X+7095000Y-4149840D01*
X+7095000Y-4830160D01*
D53*
X+7284000Y-4409000D02*
X+7284000Y-4544000D01*
X+7311000Y-4571000D01*
X+7419000Y-4571000D01*
X+7446000Y-4544000D01*
X+7446000Y-4409000D01*
X+7554000Y-4463000D02*
X+7608000Y-4409000D01*
X+7608000Y-4571000D01*
D72*
X+8679878Y-7764300D02*
X+8822118Y-7764300D01*
X+8822118Y-7449340D01*
X+8679878Y-7449340D01*
X+8679878Y-7764300D01*
D54*
X+8774620Y-7701308D02*
X+8727376Y-7701308D01*
X+8727376Y-7661938D01*
X+8735250Y-7654064D01*
X+8743124Y-7654064D01*
X+8750998Y-7661938D01*
X+8750998Y-7701308D01*
X+8750998Y-7661938D02*
X+8758872Y-7654064D01*
X+8774620Y-7654064D01*
X+8743124Y-7622568D02*
X+8727376Y-7606820D01*
X+8774620Y-7606820D01*
X+8750998Y-7559576D02*
X+8743124Y-7567450D01*
X+8735250Y-7567450D01*
X+8727376Y-7559576D01*
X+8727376Y-7535954D01*
X+8735250Y-7528080D01*
X+8743124Y-7528080D01*
X+8750998Y-7535954D01*
X+8750998Y-7559576D01*
X+8758872Y-7567450D01*
X+8766746Y-7567450D01*
X+8774620Y-7559576D01*
X+8774620Y-7535954D01*
X+8766746Y-7528080D01*
X+8758872Y-7528080D01*
X+8750998Y-7535954D01*
D72*
X+6276340Y-4514160D02*
X+6418580Y-4514160D01*
X+6418580Y-4199200D01*
X+6276340Y-4199200D01*
X+6276340Y-4514160D01*
D55*
X+6373064Y-4424955D02*
X+6321857Y-4424955D01*
X+6321857Y-4382284D01*
X+6330392Y-4373749D01*
X+6338926Y-4373749D01*
X+6347460Y-4382284D01*
X+6347460Y-4424955D01*
X+6347460Y-4382284D02*
X+6355995Y-4373749D01*
X+6373064Y-4373749D01*
X+6338926Y-4339612D02*
X+6321857Y-4322543D01*
X+6373064Y-4322543D01*
D72*
X+6676340Y-4514160D02*
X+6818580Y-4514160D01*
X+6818580Y-4199200D01*
X+6676340Y-4199200D01*
X+6676340Y-4514160D01*
D55*
X+6773064Y-4424955D02*
X+6721857Y-4424955D01*
X+6721857Y-4382284D01*
X+6730392Y-4373749D01*
X+6738926Y-4373749D01*
X+6747460Y-4382284D01*
X+6747460Y-4424955D01*
X+6747460Y-4382284D02*
X+6755995Y-4373749D01*
X+6773064Y-4373749D01*
X+6730392Y-4348146D02*
X+6721857Y-4339612D01*
X+6721857Y-4314009D01*
X+6730392Y-4305474D01*
X+6738926Y-4305474D01*
X+6747460Y-4314009D01*
X+6747460Y-4339612D01*
X+6755995Y-4348146D01*
X+6773064Y-4348146D01*
X+6773064Y-4305474D01*
D72*
X+6476340Y-4514160D02*
X+6618580Y-4514160D01*
X+6618580Y-4199200D01*
X+6476340Y-4199200D01*
X+6476340Y-4514160D01*
D55*
X+6573064Y-4424955D02*
X+6521857Y-4424955D01*
X+6521857Y-4382284D01*
X+6530392Y-4373749D01*
X+6538926Y-4373749D01*
X+6547460Y-4382284D01*
X+6547460Y-4424955D01*
X+6547460Y-4382284D02*
X+6555995Y-4373749D01*
X+6573064Y-4373749D01*
X+6530392Y-4348146D02*
X+6521857Y-4339612D01*
X+6521857Y-4314009D01*
X+6530392Y-4305474D01*
X+6538926Y-4305474D01*
X+6547460Y-4314009D01*
X+6555995Y-4305474D01*
X+6564529Y-4305474D01*
X+6573064Y-4314009D01*
X+6573064Y-4339612D01*
X+6564529Y-4348146D01*
X+6547460Y-4331077D02*
X+6547460Y-4314009D01*
D72*
X+6281420Y-4850800D02*
X+6423660Y-4850800D01*
X+6423660Y-4535840D01*
X+6281420Y-4535840D01*
X+6281420Y-4850800D01*
D55*
X+6378144Y-4761595D02*
X+6326937Y-4761595D01*
X+6326937Y-4718924D01*
X+6335472Y-4710389D01*
X+6344006Y-4710389D01*
X+6352540Y-4718924D01*
X+6352540Y-4761595D01*
X+6352540Y-4718924D02*
X+6361075Y-4710389D01*
X+6378144Y-4710389D01*
X+6361075Y-4642114D02*
X+6361075Y-4693320D01*
X+6326937Y-4659183D01*
X+6378144Y-4659183D01*
D72*
X+6681420Y-4850800D02*
X+6823660Y-4850800D01*
X+6823660Y-4535840D01*
X+6681420Y-4535840D01*
X+6681420Y-4850800D01*
D55*
X+6778144Y-4761595D02*
X+6726937Y-4761595D01*
X+6726937Y-4718924D01*
X+6735472Y-4710389D01*
X+6744006Y-4710389D01*
X+6752540Y-4718924D01*
X+6752540Y-4761595D01*
X+6752540Y-4718924D02*
X+6761075Y-4710389D01*
X+6778144Y-4710389D01*
X+6726937Y-4642114D02*
X+6726937Y-4684786D01*
X+6744006Y-4684786D01*
X+6744006Y-4650649D01*
X+6752540Y-4642114D01*
X+6769609Y-4642114D01*
X+6778144Y-4650649D01*
X+6778144Y-4676252D01*
X+6769609Y-4684786D01*
D72*
X+6481420Y-4850800D02*
X+6623660Y-4850800D01*
X+6623660Y-4535840D01*
X+6481420Y-4535840D01*
X+6481420Y-4850800D01*
D55*
X+6578144Y-4761595D02*
X+6526937Y-4761595D01*
X+6526937Y-4718924D01*
X+6535472Y-4710389D01*
X+6544006Y-4710389D01*
X+6552540Y-4718924D01*
X+6552540Y-4761595D01*
X+6552540Y-4718924D02*
X+6561075Y-4710389D01*
X+6578144Y-4710389D01*
X+6535472Y-4642114D02*
X+6526937Y-4650649D01*
X+6526937Y-4676252D01*
X+6535472Y-4684786D01*
X+6569609Y-4684786D01*
X+6578144Y-4676252D01*
X+6578144Y-4650649D01*
X+6569609Y-4642114D01*
X+6561075Y-4642114D01*
X+6552540Y-4650649D01*
X+6552540Y-4684786D01*
D72*
X+6276340Y-2514160D02*
X+6418580Y-2514160D01*
X+6418580Y-2199200D01*
X+6276340Y-2199200D01*
X+6276340Y-2514160D01*
D55*
X+6373064Y-2424955D02*
X+6321857Y-2424955D01*
X+6321857Y-2382284D01*
X+6330392Y-2373749D01*
X+6338926Y-2373749D01*
X+6347460Y-2382284D01*
X+6347460Y-2424955D01*
X+6347460Y-2382284D02*
X+6355995Y-2373749D01*
X+6373064Y-2373749D01*
X+6321857Y-2348146D02*
X+6321857Y-2305474D01*
X+6330392Y-2305474D01*
X+6373064Y-2348146D01*
D72*
X+6676340Y-2514160D02*
X+6818580Y-2514160D01*
X+6818580Y-2199200D01*
X+6676340Y-2199200D01*
X+6676340Y-2514160D01*
D55*
X+6773064Y-2424955D02*
X+6721857Y-2424955D01*
X+6721857Y-2382284D01*
X+6730392Y-2373749D01*
X+6738926Y-2373749D01*
X+6747460Y-2382284D01*
X+6747460Y-2424955D01*
X+6747460Y-2382284D02*
X+6755995Y-2373749D01*
X+6773064Y-2373749D01*
X+6747460Y-2339612D02*
X+6738926Y-2348146D01*
X+6730392Y-2348146D01*
X+6721857Y-2339612D01*
X+6721857Y-2314009D01*
X+6730392Y-2305474D01*
X+6738926Y-2305474D01*
X+6747460Y-2314009D01*
X+6747460Y-2339612D01*
X+6755995Y-2348146D01*
X+6764529Y-2348146D01*
X+6773064Y-2339612D01*
X+6773064Y-2314009D01*
X+6764529Y-2305474D01*
X+6755995Y-2305474D01*
X+6747460Y-2314009D01*
D72*
X+6476340Y-2514160D02*
X+6618580Y-2514160D01*
X+6618580Y-2199200D01*
X+6476340Y-2199200D01*
X+6476340Y-2514160D01*
D55*
X+6573064Y-2424955D02*
X+6521857Y-2424955D01*
X+6521857Y-2382284D01*
X+6530392Y-2373749D01*
X+6538926Y-2373749D01*
X+6547460Y-2382284D01*
X+6547460Y-2424955D01*
X+6547460Y-2382284D02*
X+6555995Y-2373749D01*
X+6573064Y-2373749D01*
X+6538926Y-2305474D02*
X+6547460Y-2314009D01*
X+6547460Y-2339612D01*
X+6538926Y-2348146D01*
X+6530392Y-2348146D01*
X+6521857Y-2339612D01*
X+6521857Y-2314009D01*
X+6530392Y-2305474D01*
X+6564529Y-2305474D01*
X+6573064Y-2314009D01*
X+6573064Y-2339612D01*
D72*
X+6281420Y-2850800D02*
X+6423660Y-2850800D01*
X+6423660Y-2535840D01*
X+6281420Y-2535840D01*
X+6281420Y-2850800D01*
D54*
X+6376162Y-2787808D02*
X+6328918Y-2787808D01*
X+6328918Y-2748438D01*
X+6336792Y-2740564D01*
X+6344666Y-2740564D01*
X+6352540Y-2748438D01*
X+6352540Y-2787808D01*
X+6352540Y-2748438D02*
X+6360414Y-2740564D01*
X+6376162Y-2740564D01*
X+6344666Y-2709068D02*
X+6328918Y-2693320D01*
X+6376162Y-2693320D01*
X+6368288Y-2661824D02*
X+6336792Y-2661824D01*
X+6328918Y-2653950D01*
X+6328918Y-2622454D01*
X+6336792Y-2614580D01*
X+6368288Y-2614580D01*
X+6376162Y-2622454D01*
X+6376162Y-2653950D01*
X+6368288Y-2661824D01*
X+6376162Y-2661824D02*
X+6328918Y-2614580D01*
D72*
X+6681420Y-2850800D02*
X+6823660Y-2850800D01*
X+6823660Y-2535840D01*
X+6681420Y-2535840D01*
X+6681420Y-2850800D01*
D54*
X+6776162Y-2787808D02*
X+6728918Y-2787808D01*
X+6728918Y-2748438D01*
X+6736792Y-2740564D01*
X+6744666Y-2740564D01*
X+6752540Y-2748438D01*
X+6752540Y-2787808D01*
X+6752540Y-2748438D02*
X+6760414Y-2740564D01*
X+6776162Y-2740564D01*
X+6744666Y-2709068D02*
X+6728918Y-2693320D01*
X+6776162Y-2693320D01*
X+6744666Y-2646076D02*
X+6728918Y-2630328D01*
X+6776162Y-2630328D01*
D72*
X+6481420Y-2850800D02*
X+6623660Y-2850800D01*
X+6623660Y-2535840D01*
X+6481420Y-2535840D01*
X+6481420Y-2850800D01*
D54*
X+6576162Y-2787808D02*
X+6528918Y-2787808D01*
X+6528918Y-2748438D01*
X+6536792Y-2740564D01*
X+6544666Y-2740564D01*
X+6552540Y-2748438D01*
X+6552540Y-2787808D01*
X+6552540Y-2748438D02*
X+6560414Y-2740564D01*
X+6576162Y-2740564D01*
X+6544666Y-2709068D02*
X+6528918Y-2693320D01*
X+6576162Y-2693320D01*
X+6536792Y-2653950D02*
X+6528918Y-2646076D01*
X+6528918Y-2622454D01*
X+6536792Y-2614580D01*
X+6544666Y-2614580D01*
X+6552540Y-2622454D01*
X+6552540Y-2646076D01*
X+6560414Y-2653950D01*
X+6576162Y-2653950D01*
X+6576162Y-2614580D01*
D72*
X+6899200Y-2023660D02*
X+7214160Y-2023660D01*
X+7214160Y-1881420D01*
X+6899200Y-1881420D01*
X+6899200Y-2023660D01*
D54*
X+6962192Y-1976162D02*
X+6962192Y-1928918D01*
X+7001562Y-1928918D01*
X+7009436Y-1936792D01*
X+7009436Y-1944666D01*
X+7001562Y-1952540D01*
X+6962192Y-1952540D01*
X+7001562Y-1952540D02*
X+7009436Y-1960414D01*
X+7009436Y-1976162D01*
X+7040932Y-1944666D02*
X+7056680Y-1928918D01*
X+7056680Y-1976162D01*
X+7096050Y-1936792D02*
X+7103924Y-1928918D01*
X+7127546Y-1928918D01*
X+7135420Y-1936792D01*
X+7135420Y-1944666D01*
X+7127546Y-1952540D01*
X+7135420Y-1960414D01*
X+7135420Y-1968288D01*
X+7127546Y-1976162D01*
X+7103924Y-1976162D01*
X+7096050Y-1968288D01*
X+7111798Y-1952540D02*
X+7127546Y-1952540D01*
D72*
X+6899200Y-4023660D02*
X+7214160Y-4023660D01*
X+7214160Y-3881420D01*
X+6899200Y-3881420D01*
X+6899200Y-4023660D01*
D54*
X+6962192Y-3976162D02*
X+6962192Y-3928918D01*
X+7001562Y-3928918D01*
X+7009436Y-3936792D01*
X+7009436Y-3944666D01*
X+7001562Y-3952540D01*
X+6962192Y-3952540D01*
X+7001562Y-3952540D02*
X+7009436Y-3960414D01*
X+7009436Y-3976162D01*
X+7040932Y-3944666D02*
X+7056680Y-3928918D01*
X+7056680Y-3976162D01*
X+7135420Y-3960414D02*
X+7088176Y-3960414D01*
X+7119672Y-3928918D01*
X+7119672Y-3976162D01*
D56*
X+9170000Y-1025000D02*
X+8870000Y-1025000D01*
X+8870000Y-1175000D01*
X+9170000Y-1175000D01*
X+9170000Y-1025000D01*
X+9020000Y-1150000D02*
X+9020000Y-1050000D01*
X+8970000Y-1100000D02*
X+9070000Y-1100000D01*
D57*
X+8945600Y-1127900D02*
X+8945600Y-1072100D01*
X+8982800Y-1072100D01*
X+9001400Y-1090700D01*
X+9001400Y-1109300D01*
X+8982800Y-1127900D01*
X+8945600Y-1127900D01*
X+9038600Y-1090700D02*
X+9057200Y-1072100D01*
X+9057200Y-1127900D01*
D56*
X+9170000Y-1275000D02*
X+8870000Y-1275000D01*
X+8870000Y-1425000D01*
X+9170000Y-1425000D01*
X+9170000Y-1275000D01*
X+9020000Y-1400000D02*
X+9020000Y-1300000D01*
X+8970000Y-1350000D02*
X+9070000Y-1350000D01*
D57*
X+8945600Y-1377900D02*
X+8945600Y-1322100D01*
X+8982800Y-1322100D01*
X+9001400Y-1340700D01*
X+9001400Y-1359300D01*
X+8982800Y-1377900D01*
X+8945600Y-1377900D01*
X+9029300Y-1331400D02*
X+9038600Y-1322100D01*
X+9066500Y-1322100D01*
X+9075800Y-1331400D01*
X+9075800Y-1340700D01*
X+9066500Y-1350000D01*
X+9038600Y-1350000D01*
X+9029300Y-1359300D01*
X+9029300Y-1377900D01*
X+9075800Y-1377900D01*
D56*
X+9170000Y-1525000D02*
X+8870000Y-1525000D01*
X+8870000Y-1675000D01*
X+9170000Y-1675000D01*
X+9170000Y-1525000D01*
X+9020000Y-1650000D02*
X+9020000Y-1550000D01*
X+8970000Y-1600000D02*
X+9070000Y-1600000D01*
D57*
X+8945600Y-1627900D02*
X+8945600Y-1572100D01*
X+8982800Y-1572100D01*
X+9001400Y-1590700D01*
X+9001400Y-1609300D01*
X+8982800Y-1627900D01*
X+8945600Y-1627900D01*
X+9029300Y-1581400D02*
X+9038600Y-1572100D01*
X+9066500Y-1572100D01*
X+9075800Y-1581400D01*
X+9075800Y-1590700D01*
X+9066500Y-1600000D01*
X+9075800Y-1609300D01*
X+9075800Y-1618600D01*
X+9066500Y-1627900D01*
X+9038600Y-1627900D01*
X+9029300Y-1618600D01*
X+9047900Y-1600000D02*
X+9066500Y-1600000D01*
D56*
X+9170000Y-1775000D02*
X+8870000Y-1775000D01*
X+8870000Y-1925000D01*
X+9170000Y-1925000D01*
X+9170000Y-1775000D01*
X+9020000Y-1900000D02*
X+9020000Y-1800000D01*
X+8970000Y-1850000D02*
X+9070000Y-1850000D01*
D57*
X+8945600Y-1877900D02*
X+8945600Y-1822100D01*
X+8982800Y-1822100D01*
X+9001400Y-1840700D01*
X+9001400Y-1859300D01*
X+8982800Y-1877900D01*
X+8945600Y-1877900D01*
X+9075800Y-1859300D02*
X+9020000Y-1859300D01*
X+9057200Y-1822100D01*
X+9057200Y-1877900D01*
D56*
X+9170000Y-2025000D02*
X+8870000Y-2025000D01*
X+8870000Y-2175000D01*
X+9170000Y-2175000D01*
X+9170000Y-2025000D01*
X+9020000Y-2150000D02*
X+9020000Y-2050000D01*
X+8970000Y-2100000D02*
X+9070000Y-2100000D01*
D57*
X+8945600Y-2127900D02*
X+8945600Y-2072100D01*
X+8982800Y-2072100D01*
X+9001400Y-2090700D01*
X+9001400Y-2109300D01*
X+8982800Y-2127900D01*
X+8945600Y-2127900D01*
X+9075800Y-2072100D02*
X+9029300Y-2072100D01*
X+9029300Y-2090700D01*
X+9066500Y-2090700D01*
X+9075800Y-2100000D01*
X+9075800Y-2118600D01*
X+9066500Y-2127900D01*
X+9038600Y-2127900D01*
X+9029300Y-2118600D01*
D56*
X+9170000Y-2275000D02*
X+8870000Y-2275000D01*
X+8870000Y-2425000D01*
X+9170000Y-2425000D01*
X+9170000Y-2275000D01*
X+9020000Y-2400000D02*
X+9020000Y-2300000D01*
X+8970000Y-2350000D02*
X+9070000Y-2350000D01*
D57*
X+8945600Y-2377900D02*
X+8945600Y-2322100D01*
X+8982800Y-2322100D01*
X+9001400Y-2340700D01*
X+9001400Y-2359300D01*
X+8982800Y-2377900D01*
X+8945600Y-2377900D01*
X+9075800Y-2331400D02*
X+9066500Y-2322100D01*
X+9038600Y-2322100D01*
X+9029300Y-2331400D01*
X+9029300Y-2368600D01*
X+9038600Y-2377900D01*
X+9066500Y-2377900D01*
X+9075800Y-2368600D01*
X+9075800Y-2359300D01*
X+9066500Y-2350000D01*
X+9029300Y-2350000D01*
D56*
X+9170000Y-2525000D02*
X+8870000Y-2525000D01*
X+8870000Y-2675000D01*
X+9170000Y-2675000D01*
X+9170000Y-2525000D01*
X+9020000Y-2650000D02*
X+9020000Y-2550000D01*
X+8970000Y-2600000D02*
X+9070000Y-2600000D01*
D57*
X+8945600Y-2627900D02*
X+8945600Y-2572100D01*
X+8982800Y-2572100D01*
X+9001400Y-2590700D01*
X+9001400Y-2609300D01*
X+8982800Y-2627900D01*
X+8945600Y-2627900D01*
X+9029300Y-2572100D02*
X+9075800Y-2572100D01*
X+9075800Y-2581400D01*
X+9029300Y-2627900D01*
D56*
X+9170000Y-2775000D02*
X+8870000Y-2775000D01*
X+8870000Y-2925000D01*
X+9170000Y-2925000D01*
X+9170000Y-2775000D01*
X+9020000Y-2900000D02*
X+9020000Y-2800000D01*
X+8970000Y-2850000D02*
X+9070000Y-2850000D01*
D57*
X+8945600Y-2877900D02*
X+8945600Y-2822100D01*
X+8982800Y-2822100D01*
X+9001400Y-2840700D01*
X+9001400Y-2859300D01*
X+8982800Y-2877900D01*
X+8945600Y-2877900D01*
X+9038600Y-2850000D02*
X+9029300Y-2840700D01*
X+9029300Y-2831400D01*
X+9038600Y-2822100D01*
X+9066500Y-2822100D01*
X+9075800Y-2831400D01*
X+9075800Y-2840700D01*
X+9066500Y-2850000D01*
X+9038600Y-2850000D01*
X+9029300Y-2859300D01*
X+9029300Y-2868600D01*
X+9038600Y-2877900D01*
X+9066500Y-2877900D01*
X+9075800Y-2868600D01*
X+9075800Y-2859300D01*
X+9066500Y-2850000D01*
D56*
X+9170000Y-4075000D02*
X+8870000Y-4075000D01*
X+8870000Y-4225000D01*
X+9170000Y-4225000D01*
X+9170000Y-4075000D01*
X+9020000Y-4200000D02*
X+9020000Y-4100000D01*
X+8970000Y-4150000D02*
X+9070000Y-4150000D01*
D57*
X+8945600Y-4177900D02*
X+8945600Y-4122100D01*
X+8982800Y-4122100D01*
X+9001400Y-4140700D01*
X+9001400Y-4159300D01*
X+8982800Y-4177900D01*
X+8945600Y-4177900D01*
X+9075800Y-4140700D02*
X+9066500Y-4150000D01*
X+9038600Y-4150000D01*
X+9029300Y-4140700D01*
X+9029300Y-4131400D01*
X+9038600Y-4122100D01*
X+9066500Y-4122100D01*
X+9075800Y-4131400D01*
X+9075800Y-4168600D01*
X+9066500Y-4177900D01*
X+9038600Y-4177900D01*
D56*
X+9170000Y-4325000D02*
X+8870000Y-4325000D01*
X+8870000Y-4475000D01*
X+9170000Y-4475000D01*
X+9170000Y-4325000D01*
X+9020000Y-4450000D02*
X+9020000Y-4350000D01*
X+8970000Y-4400000D02*
X+9070000Y-4400000D01*
D58*
X+8928500Y-4422875D02*
X+8928500Y-4377125D01*
X+8959000Y-4377125D01*
X+8974250Y-4392375D01*
X+8974250Y-4407625D01*
X+8959000Y-4422875D01*
X+8928500Y-4422875D01*
X+9004750Y-4392375D02*
X+9020000Y-4377125D01*
X+9020000Y-4422875D01*
X+9050500Y-4415250D02*
X+9050500Y-4384750D01*
X+9058125Y-4377125D01*
X+9088625Y-4377125D01*
X+9096250Y-4384750D01*
X+9096250Y-4415250D01*
X+9088625Y-4422875D01*
X+9058125Y-4422875D01*
X+9050500Y-4415250D01*
X+9050500Y-4422875D02*
X+9096250Y-4377125D01*
D56*
X+9170000Y-4575000D02*
X+8870000Y-4575000D01*
X+8870000Y-4725000D01*
X+9170000Y-4725000D01*
X+9170000Y-4575000D01*
X+9020000Y-4700000D02*
X+9020000Y-4600000D01*
X+8970000Y-4650000D02*
X+9070000Y-4650000D01*
D58*
X+8928500Y-4672875D02*
X+8928500Y-4627125D01*
X+8959000Y-4627125D01*
X+8974250Y-4642375D01*
X+8974250Y-4657625D01*
X+8959000Y-4672875D01*
X+8928500Y-4672875D01*
X+9004750Y-4642375D02*
X+9020000Y-4627125D01*
X+9020000Y-4672875D01*
X+9065750Y-4642375D02*
X+9081000Y-4627125D01*
X+9081000Y-4672875D01*
D56*
X+9170000Y-4825000D02*
X+8870000Y-4825000D01*
X+8870000Y-4975000D01*
X+9170000Y-4975000D01*
X+9170000Y-4825000D01*
X+9020000Y-4950000D02*
X+9020000Y-4850000D01*
X+8970000Y-4900000D02*
X+9070000Y-4900000D01*
D58*
X+8928500Y-4922875D02*
X+8928500Y-4877125D01*
X+8959000Y-4877125D01*
X+8974250Y-4892375D01*
X+8974250Y-4907625D01*
X+8959000Y-4922875D01*
X+8928500Y-4922875D01*
X+9004750Y-4892375D02*
X+9020000Y-4877125D01*
X+9020000Y-4922875D01*
X+9058125Y-4884750D02*
X+9065750Y-4877125D01*
X+9088625Y-4877125D01*
X+9096250Y-4884750D01*
X+9096250Y-4892375D01*
X+9088625Y-4900000D01*
X+9065750Y-4900000D01*
X+9058125Y-4907625D01*
X+9058125Y-4922875D01*
X+9096250Y-4922875D01*
D56*
X+9170000Y-5075000D02*
X+8870000Y-5075000D01*
X+8870000Y-5225000D01*
X+9170000Y-5225000D01*
X+9170000Y-5075000D01*
X+9020000Y-5200000D02*
X+9020000Y-5100000D01*
X+8970000Y-5150000D02*
X+9070000Y-5150000D01*
D58*
X+8928500Y-5172875D02*
X+8928500Y-5127125D01*
X+8959000Y-5127125D01*
X+8974250Y-5142375D01*
X+8974250Y-5157625D01*
X+8959000Y-5172875D01*
X+8928500Y-5172875D01*
X+9004750Y-5142375D02*
X+9020000Y-5127125D01*
X+9020000Y-5172875D01*
X+9058125Y-5134750D02*
X+9065750Y-5127125D01*
X+9088625Y-5127125D01*
X+9096250Y-5134750D01*
X+9096250Y-5142375D01*
X+9088625Y-5150000D01*
X+9096250Y-5157625D01*
X+9096250Y-5165250D01*
X+9088625Y-5172875D01*
X+9065750Y-5172875D01*
X+9058125Y-5165250D01*
X+9073375Y-5150000D02*
X+9088625Y-5150000D01*
D56*
X+9170000Y-5325000D02*
X+8870000Y-5325000D01*
X+8870000Y-5475000D01*
X+9170000Y-5475000D01*
X+9170000Y-5325000D01*
X+9020000Y-5450000D02*
X+9020000Y-5350000D01*
X+8970000Y-5400000D02*
X+9070000Y-5400000D01*
D58*
X+8928500Y-5422875D02*
X+8928500Y-5377125D01*
X+8959000Y-5377125D01*
X+8974250Y-5392375D01*
X+8974250Y-5407625D01*
X+8959000Y-5422875D01*
X+8928500Y-5422875D01*
X+9004750Y-5392375D02*
X+9020000Y-5377125D01*
X+9020000Y-5422875D01*
X+9096250Y-5407625D02*
X+9050500Y-5407625D01*
X+9081000Y-5377125D01*
X+9081000Y-5422875D01*
D56*
X+9170000Y-5575000D02*
X+8870000Y-5575000D01*
X+8870000Y-5725000D01*
X+9170000Y-5725000D01*
X+9170000Y-5575000D01*
X+9020000Y-5700000D02*
X+9020000Y-5600000D01*
X+8970000Y-5650000D02*
X+9070000Y-5650000D01*
D58*
X+8928500Y-5672875D02*
X+8928500Y-5627125D01*
X+8959000Y-5627125D01*
X+8974250Y-5642375D01*
X+8974250Y-5657625D01*
X+8959000Y-5672875D01*
X+8928500Y-5672875D01*
X+9004750Y-5642375D02*
X+9020000Y-5627125D01*
X+9020000Y-5672875D01*
X+9096250Y-5627125D02*
X+9058125Y-5627125D01*
X+9058125Y-5642375D01*
X+9088625Y-5642375D01*
X+9096250Y-5650000D01*
X+9096250Y-5665250D01*
X+9088625Y-5672875D01*
X+9065750Y-5672875D01*
X+9058125Y-5665250D01*
D56*
X+9170000Y-5825000D02*
X+8870000Y-5825000D01*
X+8870000Y-5975000D01*
X+9170000Y-5975000D01*
X+9170000Y-5825000D01*
X+9020000Y-5950000D02*
X+9020000Y-5850000D01*
X+8970000Y-5900000D02*
X+9070000Y-5900000D01*
D58*
X+8928500Y-5922875D02*
X+8928500Y-5877125D01*
X+8959000Y-5877125D01*
X+8974250Y-5892375D01*
X+8974250Y-5907625D01*
X+8959000Y-5922875D01*
X+8928500Y-5922875D01*
X+9004750Y-5892375D02*
X+9020000Y-5877125D01*
X+9020000Y-5922875D01*
X+9096250Y-5884750D02*
X+9088625Y-5877125D01*
X+9065750Y-5877125D01*
X+9058125Y-5884750D01*
X+9058125Y-5915250D01*
X+9065750Y-5922875D01*
X+9088625Y-5922875D01*
X+9096250Y-5915250D01*
X+9096250Y-5907625D01*
X+9088625Y-5900000D01*
X+9058125Y-5900000D01*
D72*
X+8499200Y-1168580D02*
X+8814160Y-1168580D01*
X+8814160Y-1026340D01*
X+8499200Y-1026340D01*
X+8499200Y-1168580D01*
D54*
X+8562192Y-1121082D02*
X+8562192Y-1073838D01*
X+8601562Y-1073838D01*
X+8609436Y-1081712D01*
X+8609436Y-1089586D01*
X+8601562Y-1097460D01*
X+8562192Y-1097460D01*
X+8601562Y-1097460D02*
X+8609436Y-1105334D01*
X+8609436Y-1121082D01*
X+8640932Y-1089586D02*
X+8656680Y-1073838D01*
X+8656680Y-1121082D01*
X+8735420Y-1089586D02*
X+8727546Y-1097460D01*
X+8703924Y-1097460D01*
X+8696050Y-1089586D01*
X+8696050Y-1081712D01*
X+8703924Y-1073838D01*
X+8727546Y-1073838D01*
X+8735420Y-1081712D01*
X+8735420Y-1113208D01*
X+8727546Y-1121082D01*
X+8703924Y-1121082D01*
D72*
X+8485840Y-1418580D02*
X+8800800Y-1418580D01*
X+8800800Y-1276340D01*
X+8485840Y-1276340D01*
X+8485840Y-1418580D01*
D54*
X+8548832Y-1371082D02*
X+8548832Y-1323838D01*
X+8588202Y-1323838D01*
X+8596076Y-1331712D01*
X+8596076Y-1339586D01*
X+8588202Y-1347460D01*
X+8548832Y-1347460D01*
X+8588202Y-1347460D02*
X+8596076Y-1355334D01*
X+8596076Y-1371082D01*
X+8619698Y-1331712D02*
X+8627572Y-1323838D01*
X+8651194Y-1323838D01*
X+8659068Y-1331712D01*
X+8659068Y-1339586D01*
X+8651194Y-1347460D01*
X+8627572Y-1347460D01*
X+8619698Y-1355334D01*
X+8619698Y-1371082D01*
X+8659068Y-1371082D01*
X+8674816Y-1363208D02*
X+8674816Y-1331712D01*
X+8682690Y-1323838D01*
X+8714186Y-1323838D01*
X+8722060Y-1331712D01*
X+8722060Y-1363208D01*
X+8714186Y-1371082D01*
X+8682690Y-1371082D01*
X+8674816Y-1363208D01*
X+8674816Y-1371082D02*
X+8722060Y-1323838D01*
D72*
X+8485840Y-1668580D02*
X+8800800Y-1668580D01*
X+8800800Y-1526340D01*
X+8485840Y-1526340D01*
X+8485840Y-1668580D01*
D54*
X+8548832Y-1621082D02*
X+8548832Y-1573838D01*
X+8588202Y-1573838D01*
X+8596076Y-1581712D01*
X+8596076Y-1589586D01*
X+8588202Y-1597460D01*
X+8548832Y-1597460D01*
X+8588202Y-1597460D02*
X+8596076Y-1605334D01*
X+8596076Y-1621082D01*
X+8619698Y-1581712D02*
X+8627572Y-1573838D01*
X+8651194Y-1573838D01*
X+8659068Y-1581712D01*
X+8659068Y-1589586D01*
X+8651194Y-1597460D01*
X+8627572Y-1597460D01*
X+8619698Y-1605334D01*
X+8619698Y-1621082D01*
X+8659068Y-1621082D01*
X+8690564Y-1589586D02*
X+8706312Y-1573838D01*
X+8706312Y-1621082D01*
D72*
X+8485840Y-1918580D02*
X+8800800Y-1918580D01*
X+8800800Y-1776340D01*
X+8485840Y-1776340D01*
X+8485840Y-1918580D01*
D54*
X+8548832Y-1871082D02*
X+8548832Y-1823838D01*
X+8588202Y-1823838D01*
X+8596076Y-1831712D01*
X+8596076Y-1839586D01*
X+8588202Y-1847460D01*
X+8548832Y-1847460D01*
X+8588202Y-1847460D02*
X+8596076Y-1855334D01*
X+8596076Y-1871082D01*
X+8619698Y-1831712D02*
X+8627572Y-1823838D01*
X+8651194Y-1823838D01*
X+8659068Y-1831712D01*
X+8659068Y-1839586D01*
X+8651194Y-1847460D01*
X+8627572Y-1847460D01*
X+8619698Y-1855334D01*
X+8619698Y-1871082D01*
X+8659068Y-1871082D01*
X+8682690Y-1831712D02*
X+8690564Y-1823838D01*
X+8714186Y-1823838D01*
X+8722060Y-1831712D01*
X+8722060Y-1839586D01*
X+8714186Y-1847460D01*
X+8690564Y-1847460D01*
X+8682690Y-1855334D01*
X+8682690Y-1871082D01*
X+8722060Y-1871082D01*
D72*
X+8485840Y-2168580D02*
X+8800800Y-2168580D01*
X+8800800Y-2026340D01*
X+8485840Y-2026340D01*
X+8485840Y-2168580D01*
D54*
X+8548832Y-2121082D02*
X+8548832Y-2073838D01*
X+8588202Y-2073838D01*
X+8596076Y-2081712D01*
X+8596076Y-2089586D01*
X+8588202Y-2097460D01*
X+8548832Y-2097460D01*
X+8588202Y-2097460D02*
X+8596076Y-2105334D01*
X+8596076Y-2121082D01*
X+8619698Y-2081712D02*
X+8627572Y-2073838D01*
X+8651194Y-2073838D01*
X+8659068Y-2081712D01*
X+8659068Y-2089586D01*
X+8651194Y-2097460D01*
X+8627572Y-2097460D01*
X+8619698Y-2105334D01*
X+8619698Y-2121082D01*
X+8659068Y-2121082D01*
X+8682690Y-2081712D02*
X+8690564Y-2073838D01*
X+8714186Y-2073838D01*
X+8722060Y-2081712D01*
X+8722060Y-2089586D01*
X+8714186Y-2097460D01*
X+8722060Y-2105334D01*
X+8722060Y-2113208D01*
X+8714186Y-2121082D01*
X+8690564Y-2121082D01*
X+8682690Y-2113208D01*
X+8698438Y-2097460D02*
X+8714186Y-2097460D01*
D72*
X+8485840Y-2418580D02*
X+8800800Y-2418580D01*
X+8800800Y-2276340D01*
X+8485840Y-2276340D01*
X+8485840Y-2418580D01*
D54*
X+8548832Y-2371082D02*
X+8548832Y-2323838D01*
X+8588202Y-2323838D01*
X+8596076Y-2331712D01*
X+8596076Y-2339586D01*
X+8588202Y-2347460D01*
X+8548832Y-2347460D01*
X+8588202Y-2347460D02*
X+8596076Y-2355334D01*
X+8596076Y-2371082D01*
X+8619698Y-2331712D02*
X+8627572Y-2323838D01*
X+8651194Y-2323838D01*
X+8659068Y-2331712D01*
X+8659068Y-2339586D01*
X+8651194Y-2347460D01*
X+8627572Y-2347460D01*
X+8619698Y-2355334D01*
X+8619698Y-2371082D01*
X+8659068Y-2371082D01*
X+8722060Y-2355334D02*
X+8674816Y-2355334D01*
X+8706312Y-2323838D01*
X+8706312Y-2371082D01*
D72*
X+8485840Y-2668580D02*
X+8800800Y-2668580D01*
X+8800800Y-2526340D01*
X+8485840Y-2526340D01*
X+8485840Y-2668580D01*
D54*
X+8548832Y-2621082D02*
X+8548832Y-2573838D01*
X+8588202Y-2573838D01*
X+8596076Y-2581712D01*
X+8596076Y-2589586D01*
X+8588202Y-2597460D01*
X+8548832Y-2597460D01*
X+8588202Y-2597460D02*
X+8596076Y-2605334D01*
X+8596076Y-2621082D01*
X+8619698Y-2581712D02*
X+8627572Y-2573838D01*
X+8651194Y-2573838D01*
X+8659068Y-2581712D01*
X+8659068Y-2589586D01*
X+8651194Y-2597460D01*
X+8627572Y-2597460D01*
X+8619698Y-2605334D01*
X+8619698Y-2621082D01*
X+8659068Y-2621082D01*
X+8722060Y-2573838D02*
X+8682690Y-2573838D01*
X+8682690Y-2589586D01*
X+8714186Y-2589586D01*
X+8722060Y-2597460D01*
X+8722060Y-2613208D01*
X+8714186Y-2621082D01*
X+8690564Y-2621082D01*
X+8682690Y-2613208D01*
D72*
X+8485840Y-2918580D02*
X+8800800Y-2918580D01*
X+8800800Y-2776340D01*
X+8485840Y-2776340D01*
X+8485840Y-2918580D01*
D54*
X+8548832Y-2871082D02*
X+8548832Y-2823838D01*
X+8588202Y-2823838D01*
X+8596076Y-2831712D01*
X+8596076Y-2839586D01*
X+8588202Y-2847460D01*
X+8548832Y-2847460D01*
X+8588202Y-2847460D02*
X+8596076Y-2855334D01*
X+8596076Y-2871082D01*
X+8619698Y-2831712D02*
X+8627572Y-2823838D01*
X+8651194Y-2823838D01*
X+8659068Y-2831712D01*
X+8659068Y-2839586D01*
X+8651194Y-2847460D01*
X+8627572Y-2847460D01*
X+8619698Y-2855334D01*
X+8619698Y-2871082D01*
X+8659068Y-2871082D01*
X+8722060Y-2831712D02*
X+8714186Y-2823838D01*
X+8690564Y-2823838D01*
X+8682690Y-2831712D01*
X+8682690Y-2863208D01*
X+8690564Y-2871082D01*
X+8714186Y-2871082D01*
X+8722060Y-2863208D01*
X+8722060Y-2855334D01*
X+8714186Y-2847460D01*
X+8682690Y-2847460D01*
D72*
X+8485840Y-4218580D02*
X+8800800Y-4218580D01*
X+8800800Y-4076340D01*
X+8485840Y-4076340D01*
X+8485840Y-4218580D01*
D54*
X+8548832Y-4171082D02*
X+8548832Y-4123838D01*
X+8588202Y-4123838D01*
X+8596076Y-4131712D01*
X+8596076Y-4139586D01*
X+8588202Y-4147460D01*
X+8548832Y-4147460D01*
X+8588202Y-4147460D02*
X+8596076Y-4155334D01*
X+8596076Y-4171082D01*
X+8619698Y-4131712D02*
X+8627572Y-4123838D01*
X+8651194Y-4123838D01*
X+8659068Y-4131712D01*
X+8659068Y-4139586D01*
X+8651194Y-4147460D01*
X+8627572Y-4147460D01*
X+8619698Y-4155334D01*
X+8619698Y-4171082D01*
X+8659068Y-4171082D01*
X+8682690Y-4123838D02*
X+8722060Y-4123838D01*
X+8722060Y-4131712D01*
X+8682690Y-4171082D01*
D72*
X+8485840Y-4468580D02*
X+8800800Y-4468580D01*
X+8800800Y-4326340D01*
X+8485840Y-4326340D01*
X+8485840Y-4468580D01*
D54*
X+8548832Y-4421082D02*
X+8548832Y-4373838D01*
X+8588202Y-4373838D01*
X+8596076Y-4381712D01*
X+8596076Y-4389586D01*
X+8588202Y-4397460D01*
X+8548832Y-4397460D01*
X+8588202Y-4397460D02*
X+8596076Y-4405334D01*
X+8596076Y-4421082D01*
X+8619698Y-4381712D02*
X+8627572Y-4373838D01*
X+8651194Y-4373838D01*
X+8659068Y-4381712D01*
X+8659068Y-4389586D01*
X+8651194Y-4397460D01*
X+8627572Y-4397460D01*
X+8619698Y-4405334D01*
X+8619698Y-4421082D01*
X+8659068Y-4421082D01*
X+8690564Y-4397460D02*
X+8682690Y-4389586D01*
X+8682690Y-4381712D01*
X+8690564Y-4373838D01*
X+8714186Y-4373838D01*
X+8722060Y-4381712D01*
X+8722060Y-4389586D01*
X+8714186Y-4397460D01*
X+8690564Y-4397460D01*
X+8682690Y-4405334D01*
X+8682690Y-4413208D01*
X+8690564Y-4421082D01*
X+8714186Y-4421082D01*
X+8722060Y-4413208D01*
X+8722060Y-4405334D01*
X+8714186Y-4397460D01*
D72*
X+8485840Y-4718580D02*
X+8800800Y-4718580D01*
X+8800800Y-4576340D01*
X+8485840Y-4576340D01*
X+8485840Y-4718580D01*
D54*
X+8548832Y-4671082D02*
X+8548832Y-4623838D01*
X+8588202Y-4623838D01*
X+8596076Y-4631712D01*
X+8596076Y-4639586D01*
X+8588202Y-4647460D01*
X+8548832Y-4647460D01*
X+8588202Y-4647460D02*
X+8596076Y-4655334D01*
X+8596076Y-4671082D01*
X+8619698Y-4631712D02*
X+8627572Y-4623838D01*
X+8651194Y-4623838D01*
X+8659068Y-4631712D01*
X+8659068Y-4639586D01*
X+8651194Y-4647460D01*
X+8627572Y-4647460D01*
X+8619698Y-4655334D01*
X+8619698Y-4671082D01*
X+8659068Y-4671082D01*
X+8722060Y-4639586D02*
X+8714186Y-4647460D01*
X+8690564Y-4647460D01*
X+8682690Y-4639586D01*
X+8682690Y-4631712D01*
X+8690564Y-4623838D01*
X+8714186Y-4623838D01*
X+8722060Y-4631712D01*
X+8722060Y-4663208D01*
X+8714186Y-4671082D01*
X+8690564Y-4671082D01*
D72*
X+8485840Y-4968580D02*
X+8800800Y-4968580D01*
X+8800800Y-4826340D01*
X+8485840Y-4826340D01*
X+8485840Y-4968580D01*
D54*
X+8548832Y-4921082D02*
X+8548832Y-4873838D01*
X+8588202Y-4873838D01*
X+8596076Y-4881712D01*
X+8596076Y-4889586D01*
X+8588202Y-4897460D01*
X+8548832Y-4897460D01*
X+8588202Y-4897460D02*
X+8596076Y-4905334D01*
X+8596076Y-4921082D01*
X+8619698Y-4881712D02*
X+8627572Y-4873838D01*
X+8651194Y-4873838D01*
X+8659068Y-4881712D01*
X+8659068Y-4889586D01*
X+8651194Y-4897460D01*
X+8659068Y-4905334D01*
X+8659068Y-4913208D01*
X+8651194Y-4921082D01*
X+8627572Y-4921082D01*
X+8619698Y-4913208D01*
X+8635446Y-4897460D02*
X+8651194Y-4897460D01*
X+8674816Y-4913208D02*
X+8674816Y-4881712D01*
X+8682690Y-4873838D01*
X+8714186Y-4873838D01*
X+8722060Y-4881712D01*
X+8722060Y-4913208D01*
X+8714186Y-4921082D01*
X+8682690Y-4921082D01*
X+8674816Y-4913208D01*
X+8674816Y-4921082D02*
X+8722060Y-4873838D01*
D72*
X+8485840Y-5218580D02*
X+8800800Y-5218580D01*
X+8800800Y-5076340D01*
X+8485840Y-5076340D01*
X+8485840Y-5218580D01*
D54*
X+8548832Y-5171082D02*
X+8548832Y-5123838D01*
X+8588202Y-5123838D01*
X+8596076Y-5131712D01*
X+8596076Y-5139586D01*
X+8588202Y-5147460D01*
X+8548832Y-5147460D01*
X+8588202Y-5147460D02*
X+8596076Y-5155334D01*
X+8596076Y-5171082D01*
X+8619698Y-5131712D02*
X+8627572Y-5123838D01*
X+8651194Y-5123838D01*
X+8659068Y-5131712D01*
X+8659068Y-5139586D01*
X+8651194Y-5147460D01*
X+8659068Y-5155334D01*
X+8659068Y-5163208D01*
X+8651194Y-5171082D01*
X+8627572Y-5171082D01*
X+8619698Y-5163208D01*
X+8635446Y-5147460D02*
X+8651194Y-5147460D01*
X+8690564Y-5139586D02*
X+8706312Y-5123838D01*
X+8706312Y-5171082D01*
D72*
X+8485840Y-5468580D02*
X+8800800Y-5468580D01*
X+8800800Y-5326340D01*
X+8485840Y-5326340D01*
X+8485840Y-5468580D01*
D54*
X+8548832Y-5421082D02*
X+8548832Y-5373838D01*
X+8588202Y-5373838D01*
X+8596076Y-5381712D01*
X+8596076Y-5389586D01*
X+8588202Y-5397460D01*
X+8548832Y-5397460D01*
X+8588202Y-5397460D02*
X+8596076Y-5405334D01*
X+8596076Y-5421082D01*
X+8619698Y-5381712D02*
X+8627572Y-5373838D01*
X+8651194Y-5373838D01*
X+8659068Y-5381712D01*
X+8659068Y-5389586D01*
X+8651194Y-5397460D01*
X+8659068Y-5405334D01*
X+8659068Y-5413208D01*
X+8651194Y-5421082D01*
X+8627572Y-5421082D01*
X+8619698Y-5413208D01*
X+8635446Y-5397460D02*
X+8651194Y-5397460D01*
X+8682690Y-5381712D02*
X+8690564Y-5373838D01*
X+8714186Y-5373838D01*
X+8722060Y-5381712D01*
X+8722060Y-5389586D01*
X+8714186Y-5397460D01*
X+8690564Y-5397460D01*
X+8682690Y-5405334D01*
X+8682690Y-5421082D01*
X+8722060Y-5421082D01*
D72*
X+8485840Y-5718580D02*
X+8800800Y-5718580D01*
X+8800800Y-5576340D01*
X+8485840Y-5576340D01*
X+8485840Y-5718580D01*
D54*
X+8548832Y-5671082D02*
X+8548832Y-5623838D01*
X+8588202Y-5623838D01*
X+8596076Y-5631712D01*
X+8596076Y-5639586D01*
X+8588202Y-5647460D01*
X+8548832Y-5647460D01*
X+8588202Y-5647460D02*
X+8596076Y-5655334D01*
X+8596076Y-5671082D01*
X+8619698Y-5631712D02*
X+8627572Y-5623838D01*
X+8651194Y-5623838D01*
X+8659068Y-5631712D01*
X+8659068Y-5639586D01*
X+8651194Y-5647460D01*
X+8659068Y-5655334D01*
X+8659068Y-5663208D01*
X+8651194Y-5671082D01*
X+8627572Y-5671082D01*
X+8619698Y-5663208D01*
X+8635446Y-5647460D02*
X+8651194Y-5647460D01*
X+8682690Y-5631712D02*
X+8690564Y-5623838D01*
X+8714186Y-5623838D01*
X+8722060Y-5631712D01*
X+8722060Y-5639586D01*
X+8714186Y-5647460D01*
X+8722060Y-5655334D01*
X+8722060Y-5663208D01*
X+8714186Y-5671082D01*
X+8690564Y-5671082D01*
X+8682690Y-5663208D01*
X+8698438Y-5647460D02*
X+8714186Y-5647460D01*
D72*
X+8485840Y-5968580D02*
X+8800800Y-5968580D01*
X+8800800Y-5826340D01*
X+8485840Y-5826340D01*
X+8485840Y-5968580D01*
D54*
X+8548832Y-5921082D02*
X+8548832Y-5873838D01*
X+8588202Y-5873838D01*
X+8596076Y-5881712D01*
X+8596076Y-5889586D01*
X+8588202Y-5897460D01*
X+8548832Y-5897460D01*
X+8588202Y-5897460D02*
X+8596076Y-5905334D01*
X+8596076Y-5921082D01*
X+8619698Y-5881712D02*
X+8627572Y-5873838D01*
X+8651194Y-5873838D01*
X+8659068Y-5881712D01*
X+8659068Y-5889586D01*
X+8651194Y-5897460D01*
X+8659068Y-5905334D01*
X+8659068Y-5913208D01*
X+8651194Y-5921082D01*
X+8627572Y-5921082D01*
X+8619698Y-5913208D01*
X+8635446Y-5897460D02*
X+8651194Y-5897460D01*
X+8722060Y-5905334D02*
X+8674816Y-5905334D01*
X+8706312Y-5873838D01*
X+8706312Y-5921082D01*
D72*
X+3273000Y-4810160D02*
X+4310160Y-4810160D01*
X+4310160Y-4489840D01*
X+3273000Y-4489840D01*
X+3273000Y-4810160D01*
D59*
X+3637827Y-4592343D02*
X+3753141Y-4707658D01*
X+3637827Y-4707658D02*
X+3753141Y-4592343D01*
X+3830018Y-4630781D02*
X+3868456Y-4592343D01*
X+3868456Y-4707658D01*
D72*
X+3231420Y-6604160D02*
X+3373660Y-6604160D01*
X+3373660Y-6289200D01*
X+3231420Y-6289200D01*
X+3231420Y-6604160D01*
D54*
X+3326162Y-6541168D02*
X+3278918Y-6541168D01*
X+3278918Y-6501798D01*
X+3286792Y-6493924D01*
X+3294666Y-6493924D01*
X+3302540Y-6501798D01*
X+3302540Y-6541168D01*
X+3302540Y-6501798D02*
X+3310414Y-6493924D01*
X+3326162Y-6493924D01*
X+3294666Y-6462428D02*
X+3278918Y-6446680D01*
X+3326162Y-6446680D01*
X+3278918Y-6367940D02*
X+3278918Y-6407310D01*
X+3294666Y-6407310D01*
X+3294666Y-6375814D01*
X+3302540Y-6367940D01*
X+3318288Y-6367940D01*
X+3326162Y-6375814D01*
X+3326162Y-6399436D01*
X+3318288Y-6407310D01*
D72*
X+2926340Y-6604160D02*
X+3068580Y-6604160D01*
X+3068580Y-6289200D01*
X+2926340Y-6289200D01*
X+2926340Y-6604160D01*
D54*
X+3021082Y-6541168D02*
X+2973838Y-6541168D01*
X+2973838Y-6501798D01*
X+2981712Y-6493924D01*
X+2989586Y-6493924D01*
X+2997460Y-6501798D01*
X+2997460Y-6541168D01*
X+2997460Y-6501798D02*
X+3005334Y-6493924D01*
X+3021082Y-6493924D01*
X+2989586Y-6462428D02*
X+2973838Y-6446680D01*
X+3021082Y-6446680D01*
X+2981712Y-6367940D02*
X+2973838Y-6375814D01*
X+2973838Y-6399436D01*
X+2981712Y-6407310D01*
X+3013208Y-6407310D01*
X+3021082Y-6399436D01*
X+3021082Y-6375814D01*
X+3013208Y-6367940D01*
X+3005334Y-6367940D01*
X+2997460Y-6375814D01*
X+2997460Y-6407310D01*
D72*
X+2735840Y-5868580D02*
X+3050800Y-5868580D01*
X+3050800Y-5726340D01*
X+2735840Y-5726340D01*
X+2735840Y-5868580D01*
D54*
X+2798832Y-5821082D02*
X+2798832Y-5773838D01*
X+2838202Y-5773838D01*
X+2846076Y-5781712D01*
X+2846076Y-5789586D01*
X+2838202Y-5797460D01*
X+2798832Y-5797460D01*
X+2838202Y-5797460D02*
X+2846076Y-5805334D01*
X+2846076Y-5821082D01*
X+2877572Y-5789586D02*
X+2893320Y-5773838D01*
X+2893320Y-5821082D01*
X+2932690Y-5773838D02*
X+2972060Y-5773838D01*
X+2972060Y-5781712D01*
X+2932690Y-5821082D01*
D72*
X+6985840Y-1078160D02*
X+8022160Y-1078160D01*
X+8022160Y-41840D01*
X+6985840Y-41840D01*
X+6985840Y-1078160D01*
D60*
X+7193104Y-585908D02*
X+7193104Y-611816D01*
X+7219012Y-637724D01*
X+7322644Y-637724D01*
X+7348552Y-611816D01*
X+7348552Y-482276D01*
X+7555816Y-585908D02*
X+7400368Y-585908D01*
X+7504000Y-482276D01*
X+7504000Y-637724D01*
X+7763080Y-482276D02*
X+7633540Y-482276D01*
X+7633540Y-534092D01*
X+7737172Y-534092D01*
X+7763080Y-560000D01*
X+7763080Y-611816D01*
X+7737172Y-637724D01*
X+7659448Y-637724D01*
X+7633540Y-611816D01*
D72*
X+9001298Y-8840660D02*
X+9783618Y-8840660D01*
X+9783618Y-8566340D01*
X+9001298Y-8566340D01*
X+9001298Y-8840660D01*
D51*
X+9194949Y-8719960D02*
X+9194949Y-8736419D01*
X+9211408Y-8752878D01*
X+9277244Y-8752878D01*
X+9293703Y-8736419D01*
X+9293703Y-8654123D01*
X+9326622Y-8752878D02*
X+9326622Y-8654123D01*
X+9408917Y-8654123D01*
X+9425376Y-8670582D01*
X+9425376Y-8687041D01*
X+9408917Y-8703500D01*
X+9326622Y-8703500D01*
X+9491213Y-8687041D02*
X+9524131Y-8654123D01*
X+9524131Y-8752878D01*
D72*
X+79610Y-8834348D02*
X+861930Y-8834348D01*
X+861930Y-8560028D01*
X+79610Y-8560028D01*
X+79610Y-8834348D01*
D51*
X+273261Y-8713648D02*
X+273261Y-8730107D01*
X+289720Y-8746566D01*
X+355556Y-8746566D01*
X+372015Y-8730107D01*
X+372015Y-8647811D01*
X+404934Y-8746566D02*
X+404934Y-8647811D01*
X+487229Y-8647811D01*
X+503688Y-8664270D01*
X+503688Y-8680729D01*
X+487229Y-8697188D01*
X+404934Y-8697188D01*
X+553066Y-8664270D02*
X+569525Y-8647811D01*
X+618902Y-8647811D01*
X+635361Y-8664270D01*
X+635361Y-8680729D01*
X+618902Y-8697188D01*
X+569525Y-8697188D01*
X+553066Y-8713648D01*
X+553066Y-8746566D01*
X+635361Y-8746566D01*
D72*
X+9600000Y-50000D02*
X+9671564Y-56964D01*
X+9737744Y-77002D01*
X+9797259Y-108832D01*
X+9848828Y-151172D01*
X+9891168Y-202740D01*
X+9922998Y-262256D01*
X+9943036Y-328436D01*
X+9950000Y-400000D01*
X+400000Y-50000D02*
X+363625Y-52020D01*
X+328436Y-57959D01*
X+294593Y-67633D01*
X+262256Y-80859D01*
X+202741Y-117236D01*
X+151172Y-165625D01*
X+108832Y-224561D01*
X+77002Y-292578D01*
X+56964Y-368213D01*
X+50000Y-450000D01*
X+450000Y-9800000D02*
X+9550000Y-9800000D01*
X+50000Y-9400000D02*
X+52020Y-9441571D01*
X+57959Y-9481787D01*
X+67633Y-9520465D01*
X+80859Y-9557422D01*
X+97455Y-9592474D01*
X+117236Y-9625439D01*
X+165625Y-9684375D01*
X+224561Y-9732764D01*
X+257526Y-9752545D01*
X+292578Y-9769141D01*
X+329535Y-9782367D01*
X+368213Y-9792041D01*
X+408429Y-9797980D01*
X+450000Y-9800000D01*
X+9550000Y-9800000D02*
X+9591571Y-9797980D01*
X+9631787Y-9792041D01*
X+9670465Y-9782367D01*
X+9707422Y-9769141D01*
X+9742474Y-9752545D01*
X+9775439Y-9732764D01*
X+9834375Y-9684375D01*
X+9882764Y-9625439D01*
X+9902545Y-9592474D01*
X+9919141Y-9557422D01*
X+9932367Y-9520465D01*
X+9942041Y-9481787D01*
X+9947980Y-9441571D01*
X+9950000Y-9400000D01*
M02*
