G04 PROTEUS RS274X GERBER FILE*
%FSLAX45Y45*%
%MOMM*%
G01*
%ADD72C,0.203200*%
D72*
X+400000Y-50000D02*
X+9600000Y-50000D01*
X+9950000Y-400000D02*
X+9950000Y-9400000D01*
X+50000Y-9400000D02*
X+50000Y-450000D01*
X+9600000Y-50000D02*
X+9671564Y-56964D01*
X+9737744Y-77002D01*
X+9797259Y-108832D01*
X+9848828Y-151172D01*
X+9891168Y-202740D01*
X+9922998Y-262256D01*
X+9943036Y-328436D01*
X+9950000Y-400000D01*
X+400000Y-50000D02*
X+363625Y-52020D01*
X+328436Y-57959D01*
X+294593Y-67633D01*
X+262256Y-80859D01*
X+202741Y-117236D01*
X+151172Y-165625D01*
X+108832Y-224561D01*
X+77002Y-292578D01*
X+56964Y-368213D01*
X+50000Y-450000D01*
X+450000Y-9800000D02*
X+9550000Y-9800000D01*
X+50000Y-9400000D02*
X+52020Y-9441571D01*
X+57959Y-9481787D01*
X+67633Y-9520465D01*
X+80859Y-9557422D01*
X+97455Y-9592474D01*
X+117236Y-9625439D01*
X+165625Y-9684375D01*
X+224561Y-9732764D01*
X+257526Y-9752545D01*
X+292578Y-9769141D01*
X+329535Y-9782367D01*
X+368213Y-9792041D01*
X+408429Y-9797980D01*
X+450000Y-9800000D01*
X+9550000Y-9800000D02*
X+9591571Y-9797980D01*
X+9631787Y-9792041D01*
X+9670465Y-9782367D01*
X+9707422Y-9769141D01*
X+9742474Y-9752545D01*
X+9775439Y-9732764D01*
X+9834375Y-9684375D01*
X+9882764Y-9625439D01*
X+9902545Y-9592474D01*
X+9919141Y-9557422D01*
X+9932367Y-9520465D01*
X+9942041Y-9481787D01*
X+9947980Y-9441571D01*
X+9950000Y-9400000D01*
M02*
