G04 PROTEUS RS274X GERBER FILE*
%FSLAX45Y45*%
%MOMM*%
G01*
%ADD12C,1.016000*%
%ADD10C,0.300000*%
%ADD11C,0.635000*%
%ADD13C,0.700000*%
%ADD14C,1.270000*%
%ADD15C,6.200000*%
%ADD16R,1.905000X1.905000*%
%ADD17C,1.524000*%
%ADD18C,2.032000*%
%ADD19C,5.000000*%
%ADD70C,2.000000*%
%ADD71R,2.032000X2.032000*%
%ADD20C,7.000000*%
%ADD28R,3.810000X3.810000*%
%ADD29C,3.810000*%
%ADD72C,0.203200*%
G36*
X+9659168Y-119558D02*
X+9713333Y-135958D01*
X+9761798Y-161878D01*
X+9803711Y-196290D01*
X+9838122Y-238202D01*
X+9864042Y-286667D01*
X+9880442Y-340832D01*
X+9886500Y-403082D01*
X+9886500Y-9398458D01*
X+9884706Y-9435377D01*
X+9879679Y-9469415D01*
X+9871525Y-9502018D01*
X+9860409Y-9533078D01*
X+9846489Y-9562479D01*
X+9830720Y-9588757D01*
X+9789257Y-9639257D01*
X+9738757Y-9680720D01*
X+9712479Y-9696489D01*
X+9683078Y-9710409D01*
X+9652018Y-9721525D01*
X+9619415Y-9729679D01*
X+9585377Y-9734706D01*
X+9548458Y-9736500D01*
X+451542Y-9736500D01*
X+414623Y-9734706D01*
X+380585Y-9729679D01*
X+347982Y-9721525D01*
X+316922Y-9710409D01*
X+287521Y-9696489D01*
X+261243Y-9680720D01*
X+210743Y-9639257D01*
X+169280Y-9588757D01*
X+153511Y-9562479D01*
X+139591Y-9533078D01*
X+128475Y-9502018D01*
X+120321Y-9469415D01*
X+115294Y-9435377D01*
X+113500Y-9398458D01*
X+113500Y-8839187D01*
X+866769Y-8839187D01*
X+866769Y-8555189D01*
X+799235Y-8555189D01*
X+635397Y-8391351D01*
X+428343Y-8391351D01*
X+356022Y-8319030D01*
X+356022Y-7346012D01*
X+406459Y-7295575D01*
X+406459Y-8059499D01*
X+673059Y-8059499D01*
X+673059Y-8356447D01*
X+1080113Y-8763501D01*
X+1056459Y-8763501D01*
X+1056459Y-9301499D01*
X+2340457Y-9301499D01*
X+2340457Y-8763501D01*
X+2150043Y-8763501D01*
X+1903857Y-8517315D01*
X+1903857Y-6874488D01*
X+3553857Y-5224488D01*
X+3553857Y-1822947D01*
X+3971405Y-1405399D01*
X+4014713Y-1405399D01*
X+3593059Y-1827053D01*
X+3593059Y-5217053D01*
X+2643059Y-6167053D01*
X+2643059Y-7267501D01*
X+2406459Y-7267501D01*
X+2406459Y-7455236D01*
X+2403857Y-7452634D01*
X+2403857Y-7264731D01*
X+2423857Y-7244731D01*
X+2423857Y-7182269D01*
X+2379689Y-7138101D01*
X+2317227Y-7138101D01*
X+2273059Y-7182269D01*
X+2273059Y-7244731D01*
X+2293059Y-7264731D01*
X+2293059Y-7498528D01*
X+2406459Y-7611928D01*
X+2406459Y-8059499D01*
X+2643059Y-8059499D01*
X+2643059Y-8763501D01*
X+2556459Y-8763501D01*
X+2556459Y-9301499D01*
X+3840457Y-9301499D01*
X+3840457Y-8763501D01*
X+3753857Y-8763501D01*
X+3753857Y-5982947D01*
X+4303857Y-5432947D01*
X+4303857Y-2452773D01*
X+4325399Y-2431231D01*
X+4325399Y-2368769D01*
X+4281231Y-2324601D01*
X+4218769Y-2324601D01*
X+4174601Y-2368769D01*
X+4174601Y-2431231D01*
X+4193059Y-2449689D01*
X+4193059Y-5387053D01*
X+3643059Y-5937053D01*
X+3643059Y-7267501D01*
X+3433857Y-7267501D01*
X+3433857Y-6102948D01*
X+4153857Y-5382948D01*
X+4153857Y-2902773D01*
X+4175399Y-2881231D01*
X+4175399Y-2818769D01*
X+4131231Y-2774601D01*
X+4068769Y-2774601D01*
X+4024601Y-2818769D01*
X+4024601Y-2881231D01*
X+4043059Y-2899689D01*
X+4043059Y-5337054D01*
X+3323059Y-6057054D01*
X+3323059Y-8294138D01*
X+3393059Y-8364138D01*
X+3393059Y-8763501D01*
X+3313857Y-8763501D01*
X+3313857Y-6042948D01*
X+4003857Y-5352948D01*
X+4003857Y-2552773D01*
X+4025399Y-2531231D01*
X+4025399Y-2468769D01*
X+3981231Y-2424601D01*
X+3918769Y-2424601D01*
X+3874601Y-2468769D01*
X+3874601Y-2531231D01*
X+3893059Y-2549689D01*
X+3893059Y-5307054D01*
X+3203059Y-5997054D01*
X+3203059Y-8763501D01*
X+3003857Y-8763501D01*
X+3003857Y-8321129D01*
X+2843857Y-8161129D01*
X+2843857Y-7551159D01*
X+2906459Y-7613761D01*
X+2906459Y-8059499D01*
X+3190457Y-8059499D01*
X+3190457Y-7267501D01*
X+2947112Y-7267501D01*
X+2947112Y-7176459D01*
X+3020226Y-7103345D01*
X+3021768Y-7103345D01*
X+3054220Y-7070893D01*
X+3054220Y-6835677D01*
X+3074220Y-6815677D01*
X+3074220Y-6753215D01*
X+3030052Y-6709047D01*
X+2967590Y-6709047D01*
X+2923422Y-6753215D01*
X+2923422Y-6815677D01*
X+2943422Y-6835677D01*
X+2943422Y-7023457D01*
X+2843857Y-7123022D01*
X+2843857Y-6312947D01*
X+3853857Y-5302947D01*
X+3853857Y-1991141D01*
X+3913081Y-1931917D01*
X+3942907Y-1931917D01*
X+3987075Y-1887749D01*
X+3987075Y-1825287D01*
X+3942907Y-1781119D01*
X+3880445Y-1781119D01*
X+3836277Y-1825287D01*
X+3836277Y-1852029D01*
X+3743059Y-1945247D01*
X+3743059Y-5257053D01*
X+2753857Y-6246255D01*
X+2753857Y-6212947D01*
X+3703857Y-5262947D01*
X+3703857Y-1872947D01*
X+4070250Y-1506554D01*
X+4113319Y-1506554D01*
X+4133319Y-1526554D01*
X+4195781Y-1526554D01*
X+4239949Y-1482386D01*
X+4239949Y-1419924D01*
X+4225424Y-1405399D01*
X+4448769Y-1405399D01*
X+4468769Y-1425399D01*
X+4531231Y-1425399D01*
X+4575399Y-1381231D01*
X+4575399Y-1318769D01*
X+4531231Y-1274601D01*
X+4468769Y-1274601D01*
X+4448769Y-1294601D01*
X+3925511Y-1294601D01*
X+3443059Y-1777053D01*
X+3443059Y-5178594D01*
X+1803857Y-6817796D01*
X+1803857Y-6782947D01*
X+3403857Y-5182947D01*
X+3403857Y-1722947D01*
X+3871405Y-1255399D01*
X+4298769Y-1255399D01*
X+4318769Y-1275399D01*
X+4381231Y-1275399D01*
X+4425399Y-1231231D01*
X+4425399Y-1168769D01*
X+4381231Y-1124601D01*
X+4318769Y-1124601D01*
X+4298769Y-1144601D01*
X+3825511Y-1144601D01*
X+3293059Y-1677053D01*
X+3293059Y-5137053D01*
X+1693059Y-6737053D01*
X+1693059Y-8586447D01*
X+1870113Y-8763501D01*
X+1400051Y-8763501D01*
X+883857Y-8247307D01*
X+883857Y-7633242D01*
X+690457Y-7439842D01*
X+690457Y-7267501D01*
X+434533Y-7267501D01*
X+579885Y-7122149D01*
X+1279885Y-7122149D01*
X+1901009Y-6501025D01*
X+1901009Y-1610517D01*
X+1312641Y-1022149D01*
X+2915885Y-1022149D01*
X+3017435Y-920599D01*
X+3080297Y-920599D01*
X+3148599Y-852297D01*
X+3148599Y-755703D01*
X+3080297Y-687401D01*
X+2983703Y-687401D01*
X+2915401Y-755703D01*
X+2915401Y-818565D01*
X+2894599Y-839367D01*
X+2894599Y-755703D01*
X+2826297Y-687401D01*
X+2729703Y-687401D01*
X+2661401Y-755703D01*
X+2661401Y-852297D01*
X+2686955Y-877851D01*
X+2615045Y-877851D01*
X+2640599Y-852297D01*
X+2640599Y-755703D01*
X+2572297Y-687401D01*
X+2475703Y-687401D01*
X+2407401Y-755703D01*
X+2407401Y-852297D01*
X+2432955Y-877851D01*
X+2361045Y-877851D01*
X+2386599Y-852297D01*
X+2386599Y-755703D01*
X+2318297Y-687401D01*
X+2221703Y-687401D01*
X+2153401Y-755703D01*
X+2153401Y-852297D01*
X+2178955Y-877851D01*
X+1853045Y-877851D01*
X+1878599Y-852297D01*
X+1878599Y-755703D01*
X+1810297Y-687401D01*
X+1713703Y-687401D01*
X+1645401Y-755703D01*
X+1645401Y-852297D01*
X+1670955Y-877851D01*
X+1599045Y-877851D01*
X+1624599Y-852297D01*
X+1624599Y-755703D01*
X+1556297Y-687401D01*
X+1459703Y-687401D01*
X+1391401Y-755703D01*
X+1391401Y-852297D01*
X+1416955Y-877851D01*
X+1345045Y-877851D01*
X+1370599Y-852297D01*
X+1370599Y-755703D01*
X+1306895Y-691999D01*
X+1312818Y-691999D01*
X+1395999Y-608818D01*
X+1395999Y-491182D01*
X+1312818Y-408001D01*
X+1220064Y-408001D01*
X+1220064Y-391614D01*
X+1370479Y-241199D01*
X+7362225Y-241199D01*
X+7556243Y-435217D01*
X+7527101Y-464359D01*
X+7527101Y-655641D01*
X+7662359Y-790899D01*
X+7853641Y-790899D01*
X+7902783Y-741757D01*
X+8308801Y-1147776D01*
X+8308801Y-3712801D01*
X+7912224Y-3712801D01*
X+7858801Y-3766224D01*
X+7858801Y-3841776D01*
X+7912224Y-3895199D01*
X+8308801Y-3895199D01*
X+8308801Y-5937776D01*
X+8362225Y-5991199D01*
X+8658225Y-6287199D01*
X+9314662Y-6287199D01*
X+9314662Y-6860262D01*
X+9555259Y-7100859D01*
X+9555259Y-8561501D01*
X+8996459Y-8561501D01*
X+8996459Y-8845499D01*
X+9788457Y-8845499D01*
X+9788457Y-8561501D01*
X+9737657Y-8561501D01*
X+9737657Y-7025309D01*
X+9497060Y-6784712D01*
X+9497060Y-6287199D01*
X+9558001Y-6287199D01*
X+9558001Y-6337999D01*
X+9841999Y-6337999D01*
X+9841999Y-4022001D01*
X+9558001Y-4022001D01*
X+9558001Y-6104801D01*
X+8733775Y-6104801D01*
X+8491199Y-5862225D01*
X+8491199Y-3241199D01*
X+9558001Y-3241199D01*
X+9558001Y-3287999D01*
X+9841999Y-3287999D01*
X+9841999Y-972001D01*
X+9558001Y-972001D01*
X+9558001Y-3058801D01*
X+8491199Y-3058801D01*
X+8491199Y-1062224D01*
X+8437776Y-1008801D01*
X+8427775Y-1008801D01*
X+7988899Y-569925D01*
X+7988899Y-464359D01*
X+7853641Y-329101D01*
X+7708075Y-329101D01*
X+7492474Y-113500D01*
X+9596918Y-113500D01*
X+9659168Y-119558D01*
G37*
%LPC*%
G36*
X+6147500Y-1563168D02*
X+6147500Y-1436832D01*
X+6236832Y-1347500D01*
X+6363168Y-1347500D01*
X+6452500Y-1436832D01*
X+6452500Y-1563168D01*
X+6363168Y-1652500D01*
X+6236832Y-1652500D01*
X+6147500Y-1563168D01*
G37*
G36*
X+1950200Y-831255D02*
X+1950200Y-776745D01*
X+1988745Y-738200D01*
X+2043255Y-738200D01*
X+2081800Y-776745D01*
X+2081800Y-831255D01*
X+2043255Y-869800D01*
X+1988745Y-869800D01*
X+1950200Y-831255D01*
G37*
G36*
X+3169401Y-852297D02*
X+3169401Y-755703D01*
X+3237703Y-687401D01*
X+3334297Y-687401D01*
X+3402599Y-755703D01*
X+3402599Y-852297D01*
X+3334297Y-920599D01*
X+3237703Y-920599D01*
X+3169401Y-852297D01*
G37*
G36*
X+3423401Y-852297D02*
X+3423401Y-755703D01*
X+3491703Y-687401D01*
X+3588297Y-687401D01*
X+3656599Y-755703D01*
X+3656599Y-852297D01*
X+3588297Y-920599D01*
X+3491703Y-920599D01*
X+3423401Y-852297D01*
G37*
G36*
X+3677401Y-852297D02*
X+3677401Y-755703D01*
X+3745703Y-687401D01*
X+3842297Y-687401D01*
X+3910599Y-755703D01*
X+3910599Y-852297D01*
X+3842297Y-920599D01*
X+3745703Y-920599D01*
X+3677401Y-852297D01*
G37*
G36*
X+3982200Y-831255D02*
X+3982200Y-776745D01*
X+4020745Y-738200D01*
X+4075255Y-738200D01*
X+4113800Y-776745D01*
X+4113800Y-831255D01*
X+4075255Y-869800D01*
X+4020745Y-869800D01*
X+3982200Y-831255D01*
G37*
G36*
X+4185401Y-852297D02*
X+4185401Y-755703D01*
X+4253703Y-687401D01*
X+4350297Y-687401D01*
X+4418599Y-755703D01*
X+4418599Y-852297D01*
X+4350297Y-920599D01*
X+4253703Y-920599D01*
X+4185401Y-852297D01*
G37*
G36*
X+4439401Y-852297D02*
X+4439401Y-755703D01*
X+4507703Y-687401D01*
X+4604297Y-687401D01*
X+4672599Y-755703D01*
X+4672599Y-852297D01*
X+4604297Y-920599D01*
X+4507703Y-920599D01*
X+4439401Y-852297D01*
G37*
G36*
X+4693401Y-852297D02*
X+4693401Y-755703D01*
X+4761703Y-687401D01*
X+4858297Y-687401D01*
X+4926599Y-755703D01*
X+4926599Y-852297D01*
X+4858297Y-920599D01*
X+4761703Y-920599D01*
X+4693401Y-852297D01*
G37*
G36*
X+5942599Y-501703D02*
X+5942599Y-598297D01*
X+5874297Y-666599D01*
X+5786205Y-666599D01*
X+5755399Y-697405D01*
X+5755399Y-1187971D01*
X+5768769Y-1174601D01*
X+5831231Y-1174601D01*
X+5875399Y-1218769D01*
X+5875399Y-1281231D01*
X+5855399Y-1301231D01*
X+5855399Y-3227053D01*
X+5922947Y-3294601D01*
X+6381405Y-3294601D01*
X+6553857Y-3467053D01*
X+6553857Y-3677053D01*
X+6574601Y-3697797D01*
X+6574601Y-3668769D01*
X+6618769Y-3624601D01*
X+6681231Y-3624601D01*
X+6725399Y-3668769D01*
X+6725399Y-3698595D01*
X+6948458Y-3921654D01*
X+6948458Y-5431654D01*
X+8183651Y-6666847D01*
X+8183651Y-8180347D01*
X+8753857Y-8750553D01*
X+8753857Y-8763501D01*
X+8840457Y-8763501D01*
X+8840457Y-9301499D01*
X+8556459Y-9301499D01*
X+8556459Y-8763501D01*
X+8610113Y-8763501D01*
X+8072853Y-8226241D01*
X+8072853Y-6712741D01*
X+6837660Y-5477548D01*
X+6837660Y-3967548D01*
X+6783857Y-3913745D01*
X+6783857Y-5457053D01*
X+7668319Y-6341515D01*
X+7668319Y-8135014D01*
X+8253857Y-8720552D01*
X+8253857Y-8763501D01*
X+8340457Y-8763501D01*
X+8340457Y-9301499D01*
X+7056459Y-9301499D01*
X+7056459Y-8763501D01*
X+7120113Y-8763501D01*
X+6603857Y-8247245D01*
X+6603857Y-8500553D01*
X+6753857Y-8650553D01*
X+6753857Y-8763501D01*
X+6840457Y-8763501D01*
X+6840457Y-9301499D01*
X+5556459Y-9301499D01*
X+5556459Y-8763501D01*
X+5643059Y-8763501D01*
X+5643059Y-8696447D01*
X+5493059Y-8546447D01*
X+5493059Y-4799689D01*
X+5474601Y-4781231D01*
X+5474601Y-4718769D01*
X+5518769Y-4674601D01*
X+5581231Y-4674601D01*
X+5624601Y-4717971D01*
X+5624601Y-4668769D01*
X+5668769Y-4624601D01*
X+5731231Y-4624601D01*
X+5743059Y-4636429D01*
X+5743059Y-4222947D01*
X+5261059Y-3740947D01*
X+5261059Y-911955D01*
X+5254933Y-905829D01*
X+5254933Y-2821905D01*
X+5253857Y-2822981D01*
X+5253857Y-7371501D01*
X+5490457Y-7371501D01*
X+5490457Y-7909499D01*
X+5253857Y-7909499D01*
X+5253857Y-8763501D01*
X+5340457Y-8763501D01*
X+5340457Y-9301499D01*
X+4056459Y-9301499D01*
X+4056459Y-8841847D01*
X+3763059Y-8548447D01*
X+3763059Y-6007054D01*
X+4343059Y-5427054D01*
X+4343059Y-1599689D01*
X+4324601Y-1581231D01*
X+4324601Y-1518769D01*
X+4368769Y-1474601D01*
X+4431231Y-1474601D01*
X+4475399Y-1518769D01*
X+4475399Y-1581231D01*
X+4453857Y-1602773D01*
X+4453857Y-5472948D01*
X+3873857Y-6052948D01*
X+3873857Y-8502553D01*
X+4134805Y-8763501D01*
X+4393059Y-8763501D01*
X+4393059Y-8736447D01*
X+4325511Y-8668899D01*
X+4075511Y-8668899D01*
X+3898568Y-8491956D01*
X+3898568Y-6041544D01*
X+4493059Y-5447053D01*
X+4493059Y-1799689D01*
X+4474601Y-1781231D01*
X+4474601Y-1718769D01*
X+4518769Y-1674601D01*
X+4581231Y-1674601D01*
X+4625399Y-1718769D01*
X+4625399Y-1781231D01*
X+4603857Y-1802773D01*
X+4603857Y-5492947D01*
X+4572203Y-5524601D01*
X+4631231Y-5524601D01*
X+4643059Y-5536429D01*
X+4643059Y-4349689D01*
X+4624601Y-4331231D01*
X+4624601Y-4268769D01*
X+4668769Y-4224601D01*
X+4731231Y-4224601D01*
X+4775399Y-4268769D01*
X+4775399Y-4331231D01*
X+4753857Y-4352773D01*
X+4753857Y-7371501D01*
X+4983059Y-7371501D01*
X+4983059Y-4475399D01*
X+4968769Y-4475399D01*
X+4924601Y-4431231D01*
X+4924601Y-4368769D01*
X+4968769Y-4324601D01*
X+5031231Y-4324601D01*
X+5075399Y-4368769D01*
X+5075399Y-4398595D01*
X+5093857Y-4417053D01*
X+5093857Y-8296447D01*
X+5003857Y-8386447D01*
X+5003857Y-8763501D01*
X+5143059Y-8763501D01*
X+5143059Y-2777019D01*
X+5144135Y-2775943D01*
X+5144135Y-888761D01*
X+5112297Y-920599D01*
X+5015703Y-920599D01*
X+4947401Y-852297D01*
X+4947401Y-755703D01*
X+5015703Y-687401D01*
X+5112297Y-687401D01*
X+5144135Y-719239D01*
X+5144135Y-643977D01*
X+5201401Y-586711D01*
X+5201401Y-501703D01*
X+5269703Y-433401D01*
X+5366297Y-433401D01*
X+5434599Y-501703D01*
X+5434599Y-598297D01*
X+5366297Y-666599D01*
X+5278205Y-666599D01*
X+5254933Y-689871D01*
X+5254933Y-702171D01*
X+5269703Y-687401D01*
X+5366297Y-687401D01*
X+5398494Y-719598D01*
X+5398494Y-643618D01*
X+5455401Y-586711D01*
X+5455401Y-501703D01*
X+5523703Y-433401D01*
X+5620297Y-433401D01*
X+5688599Y-501703D01*
X+5688599Y-598297D01*
X+5620297Y-666599D01*
X+5532205Y-666599D01*
X+5509292Y-689512D01*
X+5509292Y-701812D01*
X+5523703Y-687401D01*
X+5620297Y-687401D01*
X+5644601Y-711705D01*
X+5644601Y-651511D01*
X+5709401Y-586711D01*
X+5709401Y-501703D01*
X+5777703Y-433401D01*
X+5874297Y-433401D01*
X+5942599Y-501703D01*
G37*
G36*
X+5760200Y-831255D02*
X+5760200Y-776745D01*
X+5798745Y-738200D01*
X+5853255Y-738200D01*
X+5891800Y-776745D01*
X+5891800Y-831255D01*
X+5853255Y-869800D01*
X+5798745Y-869800D01*
X+5760200Y-831255D01*
G37*
G36*
X+4998200Y-577255D02*
X+4998200Y-522745D01*
X+5036745Y-484200D01*
X+5091255Y-484200D01*
X+5129800Y-522745D01*
X+5129800Y-577255D01*
X+5091255Y-615800D01*
X+5036745Y-615800D01*
X+4998200Y-577255D01*
G37*
G36*
X+4693401Y-598297D02*
X+4693401Y-501703D01*
X+4761703Y-433401D01*
X+4858297Y-433401D01*
X+4926599Y-501703D01*
X+4926599Y-598297D01*
X+4858297Y-666599D01*
X+4761703Y-666599D01*
X+4693401Y-598297D01*
G37*
G36*
X+4490200Y-577255D02*
X+4490200Y-522745D01*
X+4528745Y-484200D01*
X+4583255Y-484200D01*
X+4621800Y-522745D01*
X+4621800Y-577255D01*
X+4583255Y-615800D01*
X+4528745Y-615800D01*
X+4490200Y-577255D01*
G37*
G36*
X+4185401Y-598297D02*
X+4185401Y-501703D01*
X+4253703Y-433401D01*
X+4350297Y-433401D01*
X+4418599Y-501703D01*
X+4418599Y-598297D01*
X+4350297Y-666599D01*
X+4253703Y-666599D01*
X+4185401Y-598297D01*
G37*
G36*
X+3931401Y-598297D02*
X+3931401Y-501703D01*
X+3999703Y-433401D01*
X+4096297Y-433401D01*
X+4164599Y-501703D01*
X+4164599Y-598297D01*
X+4096297Y-666599D01*
X+3999703Y-666599D01*
X+3931401Y-598297D01*
G37*
G36*
X+3677401Y-598297D02*
X+3677401Y-501703D01*
X+3745703Y-433401D01*
X+3842297Y-433401D01*
X+3910599Y-501703D01*
X+3910599Y-598297D01*
X+3842297Y-666599D01*
X+3745703Y-666599D01*
X+3677401Y-598297D01*
G37*
G36*
X+3423401Y-598297D02*
X+3423401Y-501703D01*
X+3491703Y-433401D01*
X+3588297Y-433401D01*
X+3656599Y-501703D01*
X+3656599Y-598297D01*
X+3588297Y-666599D01*
X+3491703Y-666599D01*
X+3423401Y-598297D01*
G37*
G36*
X+3220200Y-577255D02*
X+3220200Y-522745D01*
X+3258745Y-484200D01*
X+3313255Y-484200D01*
X+3351800Y-522745D01*
X+3351800Y-577255D01*
X+3313255Y-615800D01*
X+3258745Y-615800D01*
X+3220200Y-577255D01*
G37*
G36*
X+2915401Y-598297D02*
X+2915401Y-501703D01*
X+2983703Y-433401D01*
X+3080297Y-433401D01*
X+3148599Y-501703D01*
X+3148599Y-598297D01*
X+3080297Y-666599D01*
X+2983703Y-666599D01*
X+2915401Y-598297D01*
G37*
G36*
X+2661401Y-598297D02*
X+2661401Y-501703D01*
X+2729703Y-433401D01*
X+2826297Y-433401D01*
X+2894599Y-501703D01*
X+2894599Y-598297D01*
X+2826297Y-666599D01*
X+2729703Y-666599D01*
X+2661401Y-598297D01*
G37*
G36*
X+2458200Y-577255D02*
X+2458200Y-522745D01*
X+2496745Y-484200D01*
X+2551255Y-484200D01*
X+2589800Y-522745D01*
X+2589800Y-577255D01*
X+2551255Y-615800D01*
X+2496745Y-615800D01*
X+2458200Y-577255D01*
G37*
G36*
X+2153401Y-598297D02*
X+2153401Y-501703D01*
X+2221703Y-433401D01*
X+2318297Y-433401D01*
X+2386599Y-501703D01*
X+2386599Y-598297D01*
X+2318297Y-666599D01*
X+2221703Y-666599D01*
X+2153401Y-598297D01*
G37*
G36*
X+1899401Y-598297D02*
X+1899401Y-501703D01*
X+1967703Y-433401D01*
X+2064297Y-433401D01*
X+2132599Y-501703D01*
X+2132599Y-598297D01*
X+2064297Y-666599D01*
X+1967703Y-666599D01*
X+1899401Y-598297D01*
G37*
G36*
X+1645401Y-598297D02*
X+1645401Y-501703D01*
X+1713703Y-433401D01*
X+1810297Y-433401D01*
X+1878599Y-501703D01*
X+1878599Y-598297D01*
X+1810297Y-666599D01*
X+1713703Y-666599D01*
X+1645401Y-598297D01*
G37*
G36*
X+1442200Y-577255D02*
X+1442200Y-522745D01*
X+1480745Y-484200D01*
X+1535255Y-484200D01*
X+1573800Y-522745D01*
X+1573800Y-577255D01*
X+1535255Y-615800D01*
X+1480745Y-615800D01*
X+1442200Y-577255D01*
G37*
G36*
X+2720287Y-3940399D02*
X+2479713Y-3940399D01*
X+2309601Y-3770287D01*
X+2309601Y-3529713D01*
X+2479713Y-3359601D01*
X+2720287Y-3359601D01*
X+2890399Y-3529713D01*
X+2890399Y-3770287D01*
X+2720287Y-3940399D01*
G37*
G36*
X+2237279Y-3740000D02*
X+2162721Y-3740000D01*
X+2110000Y-3687279D01*
X+2110000Y-3612721D01*
X+2162721Y-3560000D01*
X+2237279Y-3560000D01*
X+2290000Y-3612721D01*
X+2290000Y-3687279D01*
X+2237279Y-3740000D01*
G37*
G36*
X+575713Y-8237300D02*
X+521203Y-8237300D01*
X+482658Y-8198755D01*
X+482658Y-8144245D01*
X+521203Y-8105700D01*
X+575713Y-8105700D01*
X+614258Y-8144245D01*
X+614258Y-8198755D01*
X+575713Y-8237300D01*
G37*
G36*
X+1075713Y-8237300D02*
X+1021203Y-8237300D01*
X+982658Y-8198755D01*
X+982658Y-8144245D01*
X+1021203Y-8105700D01*
X+1075713Y-8105700D01*
X+1114258Y-8144245D01*
X+1114258Y-8198755D01*
X+1075713Y-8237300D01*
G37*
G36*
X+1190457Y-7551499D02*
X+1190457Y-8059499D01*
X+906459Y-8059499D01*
X+906459Y-7267501D01*
X+1190457Y-7267501D01*
X+1190457Y-7551499D01*
G37*
G36*
X+1575713Y-8237300D02*
X+1521203Y-8237300D01*
X+1482658Y-8198755D01*
X+1482658Y-8144245D01*
X+1521203Y-8105700D01*
X+1575713Y-8105700D01*
X+1614258Y-8144245D01*
X+1614258Y-8198755D01*
X+1575713Y-8237300D01*
G37*
G36*
X+1690457Y-7551499D02*
X+1690457Y-8059499D01*
X+1406459Y-8059499D01*
X+1406459Y-7267501D01*
X+1690457Y-7267501D01*
X+1690457Y-7551499D01*
G37*
G36*
X+2075713Y-8237300D02*
X+2021203Y-8237300D01*
X+1982658Y-8198755D01*
X+1982658Y-8144245D01*
X+2021203Y-8105700D01*
X+2075713Y-8105700D01*
X+2114258Y-8144245D01*
X+2114258Y-8198755D01*
X+2075713Y-8237300D01*
G37*
G36*
X+2190457Y-7551499D02*
X+2190457Y-8059499D01*
X+1906459Y-8059499D01*
X+1906459Y-7267501D01*
X+2190457Y-7267501D01*
X+2190457Y-7551499D01*
G37*
G36*
X+2575713Y-8237300D02*
X+2521203Y-8237300D01*
X+2482658Y-8198755D01*
X+2482658Y-8144245D01*
X+2521203Y-8105700D01*
X+2575713Y-8105700D01*
X+2614258Y-8144245D01*
X+2614258Y-8198755D01*
X+2575713Y-8237300D01*
G37*
G36*
X+3075713Y-8237300D02*
X+3021203Y-8237300D01*
X+2982658Y-8198755D01*
X+2982658Y-8144245D01*
X+3021203Y-8105700D01*
X+3075713Y-8105700D01*
X+3114258Y-8144245D01*
X+3114258Y-8198755D01*
X+3075713Y-8237300D01*
G37*
G36*
X+5375713Y-8087300D02*
X+5321203Y-8087300D01*
X+5282658Y-8048755D01*
X+5282658Y-7994245D01*
X+5321203Y-7955700D01*
X+5375713Y-7955700D01*
X+5414258Y-7994245D01*
X+5414258Y-8048755D01*
X+5375713Y-8087300D01*
G37*
G36*
X+7875713Y-8087300D02*
X+7821203Y-8087300D01*
X+7782658Y-8048755D01*
X+7782658Y-7994245D01*
X+7821203Y-7955700D01*
X+7875713Y-7955700D01*
X+7914258Y-7994245D01*
X+7914258Y-8048755D01*
X+7875713Y-8087300D01*
G37*
G36*
X+7990457Y-7655499D02*
X+7990457Y-7909499D01*
X+7706459Y-7909499D01*
X+7706459Y-7371501D01*
X+7990457Y-7371501D01*
X+7990457Y-7655499D01*
G37*
G36*
X+8425713Y-8087300D02*
X+8371203Y-8087300D01*
X+8332658Y-8048755D01*
X+8332658Y-7994245D01*
X+8371203Y-7955700D01*
X+8425713Y-7955700D01*
X+8464258Y-7994245D01*
X+8464258Y-8048755D01*
X+8425713Y-8087300D01*
G37*
G36*
X+8540457Y-7655499D02*
X+8540457Y-7909499D01*
X+8256459Y-7909499D01*
X+8256459Y-7371501D01*
X+8540457Y-7371501D01*
X+8540457Y-7655499D01*
G37*
G36*
X+1225713Y-9479300D02*
X+1171203Y-9479300D01*
X+1132658Y-9440755D01*
X+1132658Y-9386245D01*
X+1171203Y-9347700D01*
X+1225713Y-9347700D01*
X+1264258Y-9386245D01*
X+1264258Y-9440755D01*
X+1225713Y-9479300D01*
G37*
G36*
X+1475713Y-9479300D02*
X+1421203Y-9479300D01*
X+1382658Y-9440755D01*
X+1382658Y-9386245D01*
X+1421203Y-9347700D01*
X+1475713Y-9347700D01*
X+1514258Y-9386245D01*
X+1514258Y-9440755D01*
X+1475713Y-9479300D01*
G37*
G36*
X+1725713Y-9479300D02*
X+1671203Y-9479300D01*
X+1632658Y-9440755D01*
X+1632658Y-9386245D01*
X+1671203Y-9347700D01*
X+1725713Y-9347700D01*
X+1764258Y-9386245D01*
X+1764258Y-9440755D01*
X+1725713Y-9479300D01*
G37*
G36*
X+1975713Y-9479300D02*
X+1921203Y-9479300D01*
X+1882658Y-9440755D01*
X+1882658Y-9386245D01*
X+1921203Y-9347700D01*
X+1975713Y-9347700D01*
X+2014258Y-9386245D01*
X+2014258Y-9440755D01*
X+1975713Y-9479300D01*
G37*
G36*
X+2225713Y-9479300D02*
X+2171203Y-9479300D01*
X+2132658Y-9440755D01*
X+2132658Y-9386245D01*
X+2171203Y-9347700D01*
X+2225713Y-9347700D01*
X+2264258Y-9386245D01*
X+2264258Y-9440755D01*
X+2225713Y-9479300D01*
G37*
G36*
X+2725713Y-9479300D02*
X+2671203Y-9479300D01*
X+2632658Y-9440755D01*
X+2632658Y-9386245D01*
X+2671203Y-9347700D01*
X+2725713Y-9347700D01*
X+2764258Y-9386245D01*
X+2764258Y-9440755D01*
X+2725713Y-9479300D01*
G37*
G36*
X+2975713Y-9479300D02*
X+2921203Y-9479300D01*
X+2882658Y-9440755D01*
X+2882658Y-9386245D01*
X+2921203Y-9347700D01*
X+2975713Y-9347700D01*
X+3014258Y-9386245D01*
X+3014258Y-9440755D01*
X+2975713Y-9479300D01*
G37*
G36*
X+3225713Y-9479300D02*
X+3171203Y-9479300D01*
X+3132658Y-9440755D01*
X+3132658Y-9386245D01*
X+3171203Y-9347700D01*
X+3225713Y-9347700D01*
X+3264258Y-9386245D01*
X+3264258Y-9440755D01*
X+3225713Y-9479300D01*
G37*
G36*
X+3475713Y-9479300D02*
X+3421203Y-9479300D01*
X+3382658Y-9440755D01*
X+3382658Y-9386245D01*
X+3421203Y-9347700D01*
X+3475713Y-9347700D01*
X+3514258Y-9386245D01*
X+3514258Y-9440755D01*
X+3475713Y-9479300D01*
G37*
G36*
X+3725713Y-9479300D02*
X+3671203Y-9479300D01*
X+3632658Y-9440755D01*
X+3632658Y-9386245D01*
X+3671203Y-9347700D01*
X+3725713Y-9347700D01*
X+3764258Y-9386245D01*
X+3764258Y-9440755D01*
X+3725713Y-9479300D01*
G37*
G36*
X+4225713Y-9479300D02*
X+4171203Y-9479300D01*
X+4132658Y-9440755D01*
X+4132658Y-9386245D01*
X+4171203Y-9347700D01*
X+4225713Y-9347700D01*
X+4264258Y-9386245D01*
X+4264258Y-9440755D01*
X+4225713Y-9479300D01*
G37*
G36*
X+4475713Y-9479300D02*
X+4421203Y-9479300D01*
X+4382658Y-9440755D01*
X+4382658Y-9386245D01*
X+4421203Y-9347700D01*
X+4475713Y-9347700D01*
X+4514258Y-9386245D01*
X+4514258Y-9440755D01*
X+4475713Y-9479300D01*
G37*
G36*
X+4725713Y-9479300D02*
X+4671203Y-9479300D01*
X+4632658Y-9440755D01*
X+4632658Y-9386245D01*
X+4671203Y-9347700D01*
X+4725713Y-9347700D01*
X+4764258Y-9386245D01*
X+4764258Y-9440755D01*
X+4725713Y-9479300D01*
G37*
G36*
X+4975713Y-9479300D02*
X+4921203Y-9479300D01*
X+4882658Y-9440755D01*
X+4882658Y-9386245D01*
X+4921203Y-9347700D01*
X+4975713Y-9347700D01*
X+5014258Y-9386245D01*
X+5014258Y-9440755D01*
X+4975713Y-9479300D01*
G37*
G36*
X+5225713Y-9479300D02*
X+5171203Y-9479300D01*
X+5132658Y-9440755D01*
X+5132658Y-9386245D01*
X+5171203Y-9347700D01*
X+5225713Y-9347700D01*
X+5264258Y-9386245D01*
X+5264258Y-9440755D01*
X+5225713Y-9479300D01*
G37*
G36*
X+5725713Y-9479300D02*
X+5671203Y-9479300D01*
X+5632658Y-9440755D01*
X+5632658Y-9386245D01*
X+5671203Y-9347700D01*
X+5725713Y-9347700D01*
X+5764258Y-9386245D01*
X+5764258Y-9440755D01*
X+5725713Y-9479300D01*
G37*
G36*
X+5975713Y-9479300D02*
X+5921203Y-9479300D01*
X+5882658Y-9440755D01*
X+5882658Y-9386245D01*
X+5921203Y-9347700D01*
X+5975713Y-9347700D01*
X+6014258Y-9386245D01*
X+6014258Y-9440755D01*
X+5975713Y-9479300D01*
G37*
G36*
X+6225713Y-9479300D02*
X+6171203Y-9479300D01*
X+6132658Y-9440755D01*
X+6132658Y-9386245D01*
X+6171203Y-9347700D01*
X+6225713Y-9347700D01*
X+6264258Y-9386245D01*
X+6264258Y-9440755D01*
X+6225713Y-9479300D01*
G37*
G36*
X+6475713Y-9479300D02*
X+6421203Y-9479300D01*
X+6382658Y-9440755D01*
X+6382658Y-9386245D01*
X+6421203Y-9347700D01*
X+6475713Y-9347700D01*
X+6514258Y-9386245D01*
X+6514258Y-9440755D01*
X+6475713Y-9479300D01*
G37*
G36*
X+6725713Y-9479300D02*
X+6671203Y-9479300D01*
X+6632658Y-9440755D01*
X+6632658Y-9386245D01*
X+6671203Y-9347700D01*
X+6725713Y-9347700D01*
X+6764258Y-9386245D01*
X+6764258Y-9440755D01*
X+6725713Y-9479300D01*
G37*
G36*
X+7225713Y-9479300D02*
X+7171203Y-9479300D01*
X+7132658Y-9440755D01*
X+7132658Y-9386245D01*
X+7171203Y-9347700D01*
X+7225713Y-9347700D01*
X+7264258Y-9386245D01*
X+7264258Y-9440755D01*
X+7225713Y-9479300D01*
G37*
G36*
X+7475713Y-9479300D02*
X+7421203Y-9479300D01*
X+7382658Y-9440755D01*
X+7382658Y-9386245D01*
X+7421203Y-9347700D01*
X+7475713Y-9347700D01*
X+7514258Y-9386245D01*
X+7514258Y-9440755D01*
X+7475713Y-9479300D01*
G37*
G36*
X+7725713Y-9479300D02*
X+7671203Y-9479300D01*
X+7632658Y-9440755D01*
X+7632658Y-9386245D01*
X+7671203Y-9347700D01*
X+7725713Y-9347700D01*
X+7764258Y-9386245D01*
X+7764258Y-9440755D01*
X+7725713Y-9479300D01*
G37*
G36*
X+7975713Y-9479300D02*
X+7921203Y-9479300D01*
X+7882658Y-9440755D01*
X+7882658Y-9386245D01*
X+7921203Y-9347700D01*
X+7975713Y-9347700D01*
X+8014258Y-9386245D01*
X+8014258Y-9440755D01*
X+7975713Y-9479300D01*
G37*
G36*
X+8225713Y-9479300D02*
X+8171203Y-9479300D01*
X+8132658Y-9440755D01*
X+8132658Y-9386245D01*
X+8171203Y-9347700D01*
X+8225713Y-9347700D01*
X+8264258Y-9386245D01*
X+8264258Y-9440755D01*
X+8225713Y-9479300D01*
G37*
G36*
X+8725713Y-9479300D02*
X+8671203Y-9479300D01*
X+8632658Y-9440755D01*
X+8632658Y-9386245D01*
X+8671203Y-9347700D01*
X+8725713Y-9347700D01*
X+8764258Y-9386245D01*
X+8764258Y-9440755D01*
X+8725713Y-9479300D01*
G37*
G36*
X+9727255Y-3465800D02*
X+9672745Y-3465800D01*
X+9634200Y-3427255D01*
X+9634200Y-3372745D01*
X+9672745Y-3334200D01*
X+9727255Y-3334200D01*
X+9765800Y-3372745D01*
X+9765800Y-3427255D01*
X+9727255Y-3465800D01*
G37*
G36*
X+9727255Y-6515800D02*
X+9672745Y-6515800D01*
X+9634200Y-6477255D01*
X+9634200Y-6422745D01*
X+9672745Y-6384200D01*
X+9727255Y-6384200D01*
X+9765800Y-6422745D01*
X+9765800Y-6477255D01*
X+9727255Y-6515800D01*
G37*
G36*
X+9375000Y-522487D02*
X+9375000Y-377513D01*
X+9477513Y-275000D01*
X+9622487Y-275000D01*
X+9725000Y-377513D01*
X+9725000Y-522487D01*
X+9622487Y-625000D01*
X+9477513Y-625000D01*
X+9375000Y-522487D01*
G37*
G36*
X+9375000Y-9472487D02*
X+9375000Y-9327513D01*
X+9477513Y-9225000D01*
X+9622487Y-9225000D01*
X+9725000Y-9327513D01*
X+9725000Y-9472487D01*
X+9622487Y-9575000D01*
X+9477513Y-9575000D01*
X+9375000Y-9472487D01*
G37*
G36*
X+275000Y-9472487D02*
X+275000Y-9327513D01*
X+377513Y-9225000D01*
X+522487Y-9225000D01*
X+625000Y-9327513D01*
X+625000Y-9472487D01*
X+522487Y-9575000D01*
X+377513Y-9575000D01*
X+275000Y-9472487D01*
G37*
G36*
X+7152450Y-600407D02*
X+7152450Y-519593D01*
X+7209593Y-462450D01*
X+7290407Y-462450D01*
X+7347550Y-519593D01*
X+7347550Y-600407D01*
X+7290407Y-657550D01*
X+7209593Y-657550D01*
X+7152450Y-600407D01*
G37*
G36*
X+7122748Y-2221420D02*
X+7122748Y-2283882D01*
X+7102748Y-2303882D01*
X+7102748Y-4211590D01*
X+7113383Y-4222225D01*
X+7113383Y-4284687D01*
X+7102748Y-4295322D01*
X+7102748Y-5374402D01*
X+7252947Y-5524601D01*
X+7281231Y-5524601D01*
X+7325399Y-5568769D01*
X+7325399Y-5631231D01*
X+7281231Y-5675399D01*
X+7218769Y-5675399D01*
X+7174601Y-5631231D01*
X+7174601Y-5602947D01*
X+6991950Y-5420296D01*
X+6991950Y-4314052D01*
X+6962585Y-4284687D01*
X+6962585Y-4222225D01*
X+6991950Y-4192860D01*
X+6991950Y-2303882D01*
X+6971950Y-2283882D01*
X+6971950Y-2221420D01*
X+7016118Y-2177252D01*
X+7078580Y-2177252D01*
X+7122748Y-2221420D01*
G37*
G36*
X+7375399Y-2368769D02*
X+7375399Y-2431231D01*
X+7355399Y-2451231D01*
X+7355399Y-4348769D01*
X+7375399Y-4368769D01*
X+7375399Y-4431231D01*
X+7355399Y-4451231D01*
X+7355399Y-5277052D01*
X+7555401Y-5477054D01*
X+7555401Y-5500002D01*
X+7555400Y-5548770D01*
X+7575399Y-5568769D01*
X+7575399Y-5631231D01*
X+7531231Y-5675399D01*
X+7468769Y-5675399D01*
X+7424601Y-5631231D01*
X+7424601Y-5568769D01*
X+7444602Y-5548768D01*
X+7444602Y-5522947D01*
X+7244601Y-5322946D01*
X+7244601Y-4451231D01*
X+7224601Y-4431231D01*
X+7224601Y-4368769D01*
X+7244601Y-4348769D01*
X+7244601Y-2451231D01*
X+7224601Y-2431231D01*
X+7224601Y-2368769D01*
X+7268769Y-2324601D01*
X+7331231Y-2324601D01*
X+7375399Y-2368769D01*
G37*
%LPD*%
G36*
X+5644601Y-3751542D02*
X+5644601Y-3774489D01*
X+5963059Y-4092947D01*
X+5963059Y-4106256D01*
X+5509292Y-3652489D01*
X+5509292Y-906188D01*
X+5523703Y-920599D01*
X+5620297Y-920599D01*
X+5644601Y-896295D01*
X+5644601Y-3751542D01*
G37*
G36*
X+5760827Y-3289173D02*
X+5877053Y-3405399D01*
X+6335511Y-3405399D01*
X+6354713Y-3424601D01*
X+6318769Y-3424601D01*
X+6275000Y-3468370D01*
X+6231231Y-3424601D01*
X+6168769Y-3424601D01*
X+6124601Y-3468769D01*
X+6124601Y-3531231D01*
X+6143059Y-3549689D01*
X+6143059Y-3716255D01*
X+6103857Y-3677053D01*
X+6103857Y-3652773D01*
X+6125399Y-3631231D01*
X+6125399Y-3568769D01*
X+6081231Y-3524601D01*
X+6018769Y-3524601D01*
X+5975000Y-3568370D01*
X+5931231Y-3524601D01*
X+5868769Y-3524601D01*
X+5824601Y-3568769D01*
X+5824601Y-3631231D01*
X+5843059Y-3649689D01*
X+5843059Y-3772947D01*
X+6093059Y-4022947D01*
X+6093059Y-5509759D01*
X+6073857Y-5490557D01*
X+6073857Y-4047053D01*
X+5755399Y-3728595D01*
X+5755399Y-3283745D01*
X+5760827Y-3289173D01*
G37*
G36*
X+6443059Y-3512947D02*
X+6443059Y-3716255D01*
X+6403857Y-3677053D01*
X+6403857Y-3552773D01*
X+6425399Y-3531231D01*
X+6425399Y-3495287D01*
X+6443059Y-3512947D01*
G37*
G36*
X+6293059Y-3549689D02*
X+6293059Y-3716255D01*
X+6253857Y-3677053D01*
X+6253857Y-3552773D01*
X+6275000Y-3531630D01*
X+6293059Y-3549689D01*
G37*
G36*
X+5398494Y-3675436D02*
X+5398494Y-3698383D01*
X+5853059Y-4152948D01*
X+5853059Y-4176255D01*
X+5371857Y-3695053D01*
X+5371857Y-915039D01*
X+5398494Y-888402D01*
X+5398494Y-3675436D01*
G37*
G36*
X+6363059Y-3942947D02*
X+6363059Y-5486255D01*
X+6323857Y-5447053D01*
X+6323857Y-3903745D01*
X+6363059Y-3942947D01*
G37*
G36*
X+5993059Y-3649689D02*
X+5993059Y-3722947D01*
X+6213059Y-3942947D01*
X+6213059Y-5486255D01*
X+6203857Y-5477053D01*
X+6203857Y-3977053D01*
X+5953857Y-3727053D01*
X+5953857Y-3652773D01*
X+5975000Y-3631630D01*
X+5993059Y-3649689D01*
G37*
G36*
X+6673059Y-3952947D02*
X+6673059Y-5496255D01*
X+6643857Y-5467053D01*
X+6643857Y-3923745D01*
X+6673059Y-3952947D01*
G37*
G36*
X+6533059Y-3962947D02*
X+6533059Y-5506255D01*
X+6473857Y-5447053D01*
X+6473857Y-3903745D01*
X+6533059Y-3962947D01*
G37*
G36*
X+4643059Y-5736429D02*
X+4631231Y-5724601D01*
X+4568769Y-5724601D01*
X+4524601Y-5768769D01*
X+4524601Y-5795511D01*
X+4213059Y-6107053D01*
X+4213059Y-7267501D01*
X+4153857Y-7267501D01*
X+4153857Y-6122947D01*
X+4601405Y-5675399D01*
X+4631231Y-5675399D01*
X+4643059Y-5663571D01*
X+4643059Y-5736429D01*
G37*
G36*
X+4524601Y-5595511D02*
X+4043059Y-6077053D01*
X+4043059Y-7267501D01*
X+4009366Y-7267501D01*
X+4009366Y-6087438D01*
X+4524601Y-5572203D01*
X+4524601Y-5595511D01*
G37*
G36*
X+6793059Y-6222947D02*
X+6793059Y-7090553D01*
X+6603857Y-7279755D01*
X+6603857Y-7186447D01*
X+6753857Y-7036447D01*
X+6753857Y-6183745D01*
X+6793059Y-6222947D01*
G37*
G36*
X+7143059Y-6272947D02*
X+7143059Y-7240553D01*
X+7053857Y-7329755D01*
X+7053857Y-6183745D01*
X+7143059Y-6272947D01*
G37*
G36*
X+7557521Y-6387409D02*
X+7557521Y-8180908D01*
X+8140114Y-8763501D01*
X+8003857Y-8763501D01*
X+8003857Y-8690552D01*
X+7550133Y-8236828D01*
X+7550133Y-6380021D01*
X+7557521Y-6387409D01*
G37*
G36*
X+7439335Y-6419223D02*
X+7439335Y-7371501D01*
X+7206459Y-7371501D01*
X+7206459Y-7909499D01*
X+7439335Y-7909499D01*
X+7439335Y-8282722D01*
X+7893059Y-8736446D01*
X+7893059Y-8763501D01*
X+7753857Y-8763501D01*
X+7753857Y-8740554D01*
X+7153857Y-8140554D01*
X+7153857Y-7386447D01*
X+7253857Y-7286447D01*
X+7253857Y-6233745D01*
X+7439335Y-6419223D01*
G37*
%LPC*%
G36*
X+7375713Y-8087300D02*
X+7321203Y-8087300D01*
X+7282658Y-8048755D01*
X+7282658Y-7994245D01*
X+7321203Y-7955700D01*
X+7375713Y-7955700D01*
X+7414258Y-7994245D01*
X+7414258Y-8048755D01*
X+7375713Y-8087300D01*
G37*
%LPD*%
G36*
X+7059285Y-8202674D02*
X+7620112Y-8763501D01*
X+7503857Y-8763501D01*
X+7503857Y-8730553D01*
X+7048402Y-8275098D01*
X+7048402Y-8191791D01*
X+7059285Y-8202674D01*
G37*
G36*
X+6943059Y-6222947D02*
X+6943059Y-7365784D01*
X+6937604Y-7371239D01*
X+6937604Y-7371501D01*
X+6706459Y-7371501D01*
X+6706459Y-7909499D01*
X+6937604Y-7909499D01*
X+6937604Y-8320992D01*
X+7380113Y-8763501D01*
X+7253857Y-8763501D01*
X+7253857Y-8740553D01*
X+6703857Y-8190553D01*
X+6703857Y-7336447D01*
X+6903857Y-7136447D01*
X+6903857Y-6183745D01*
X+6943059Y-6222947D01*
G37*
%LPC*%
G36*
X+6875713Y-8087300D02*
X+6821203Y-8087300D01*
X+6782658Y-8048755D01*
X+6782658Y-7994245D01*
X+6821203Y-7955700D01*
X+6875713Y-7955700D01*
X+6914258Y-7994245D01*
X+6914258Y-8048755D01*
X+6875713Y-8087300D01*
G37*
%LPD*%
G36*
X+5979285Y-5552677D02*
X+6643059Y-6216451D01*
X+6643059Y-6990553D01*
X+6493059Y-7140553D01*
X+6493059Y-8546447D01*
X+6643059Y-8696447D01*
X+6643059Y-8763501D01*
X+6493857Y-8763501D01*
X+6493857Y-8560553D01*
X+6203857Y-8270553D01*
X+6203857Y-7040553D01*
X+5963857Y-6800553D01*
X+5963857Y-5537249D01*
X+5979285Y-5552677D01*
G37*
%LPC*%
G36*
X+6147500Y-6363168D02*
X+6147500Y-6236832D01*
X+6236832Y-6147500D01*
X+6363168Y-6147500D01*
X+6452500Y-6236832D01*
X+6452500Y-6363168D01*
X+6363168Y-6452500D01*
X+6236832Y-6452500D01*
X+6147500Y-6363168D01*
G37*
G36*
X+6375713Y-8087300D02*
X+6321203Y-8087300D01*
X+6282658Y-8048755D01*
X+6282658Y-7994245D01*
X+6321203Y-7955700D01*
X+6375713Y-7955700D01*
X+6414258Y-7994245D01*
X+6414258Y-8048755D01*
X+6375713Y-8087300D01*
G37*
G36*
X+6490457Y-7655499D02*
X+6490457Y-7909499D01*
X+6206459Y-7909499D01*
X+6206459Y-7371501D01*
X+6490457Y-7371501D01*
X+6490457Y-7655499D01*
G37*
%LPD*%
G36*
X+6383059Y-8606447D02*
X+6383059Y-8763501D01*
X+6253857Y-8763501D01*
X+6253857Y-8530553D01*
X+6103857Y-8380553D01*
X+6103857Y-8327245D01*
X+6383059Y-8606447D01*
G37*
G36*
X+5993059Y-7136447D02*
X+5993059Y-8426447D01*
X+6143059Y-8576447D01*
X+6143059Y-8763501D01*
X+6003857Y-8763501D01*
X+6003857Y-8630553D01*
X+5753857Y-8380553D01*
X+5753857Y-7909499D01*
X+5990457Y-7909499D01*
X+5990457Y-7371501D01*
X+5753857Y-7371501D01*
X+5753857Y-6897245D01*
X+5993059Y-7136447D01*
G37*
%LPC*%
G36*
X+5875713Y-8087300D02*
X+5821203Y-8087300D01*
X+5782658Y-8048755D01*
X+5782658Y-7994245D01*
X+5821203Y-7955700D01*
X+5875713Y-7955700D01*
X+5914258Y-7994245D01*
X+5914258Y-8048755D01*
X+5875713Y-8087300D01*
G37*
%LPD*%
G36*
X+5643059Y-4749689D02*
X+5643059Y-8426447D01*
X+5893059Y-8676447D01*
X+5893059Y-8763501D01*
X+5753857Y-8763501D01*
X+5753857Y-8650553D01*
X+5603857Y-8500553D01*
X+5603857Y-4802773D01*
X+5625399Y-4781231D01*
X+5625399Y-4732029D01*
X+5643059Y-4749689D01*
G37*
G36*
X+4983059Y-8250553D02*
X+4893059Y-8340553D01*
X+4893059Y-8763501D01*
X+4753857Y-8763501D01*
X+4753857Y-7909499D01*
X+4983059Y-7909499D01*
X+4983059Y-8250553D01*
G37*
%LPC*%
G36*
X+4875713Y-8087300D02*
X+4821203Y-8087300D01*
X+4782658Y-8048755D01*
X+4782658Y-7994245D01*
X+4821203Y-7955700D01*
X+4875713Y-7955700D01*
X+4914258Y-7994245D01*
X+4914258Y-8048755D01*
X+4875713Y-8087300D01*
G37*
%LPD*%
G36*
X+4643059Y-8763501D02*
X+4503857Y-8763501D01*
X+4503857Y-8690553D01*
X+4371405Y-8558101D01*
X+4121405Y-8558101D01*
X+4009366Y-8446062D01*
X+4009366Y-8059499D01*
X+4240457Y-8059499D01*
X+4240457Y-7649847D01*
X+4323857Y-7566447D01*
X+4323857Y-6152947D01*
X+4601405Y-5875399D01*
X+4631231Y-5875399D01*
X+4643059Y-5863571D01*
X+4643059Y-8763501D01*
G37*
%LPC*%
G36*
X+4125713Y-8237300D02*
X+4071203Y-8237300D01*
X+4032658Y-8198755D01*
X+4032658Y-8144245D01*
X+4071203Y-8105700D01*
X+4125713Y-8105700D01*
X+4164258Y-8144245D01*
X+4164258Y-8198755D01*
X+4125713Y-8237300D01*
G37*
%LPD*%
G36*
X+1064378Y-289352D02*
X+1037666Y-316064D01*
X+1037666Y-408001D01*
X+941182Y-408001D01*
X+858001Y-491182D01*
X+858001Y-539965D01*
X+757851Y-640115D01*
X+757851Y-979885D01*
X+1593253Y-1815287D01*
X+1593253Y-3585214D01*
X+1561503Y-3616964D01*
X+1561503Y-3703036D01*
X+1593253Y-3734786D01*
X+1593253Y-6154713D01*
X+1020115Y-6727851D01*
X+568081Y-6727851D01*
X+113500Y-7182432D01*
X+113500Y-452699D01*
X+119765Y-379120D01*
X+136927Y-314340D01*
X+163845Y-256819D01*
X+199134Y-207698D01*
X+241430Y-168011D01*
X+291018Y-137701D01*
X+315401Y-127728D01*
X+342489Y-119985D01*
X+370691Y-115225D01*
X+401762Y-113500D01*
X+1240230Y-113500D01*
X+1064378Y-289352D01*
G37*
%LPC*%
G36*
X+347500Y-1563168D02*
X+347500Y-1436832D01*
X+436832Y-1347500D01*
X+563168Y-1347500D01*
X+652500Y-1436832D01*
X+652500Y-1563168D01*
X+563168Y-1652500D01*
X+436832Y-1652500D01*
X+347500Y-1563168D01*
G37*
G36*
X+347500Y-6363168D02*
X+347500Y-6236832D01*
X+436832Y-6147500D01*
X+563168Y-6147500D01*
X+652500Y-6236832D01*
X+652500Y-6363168D01*
X+563168Y-6452500D01*
X+436832Y-6452500D01*
X+347500Y-6363168D01*
G37*
G36*
X+887279Y-2890000D02*
X+812721Y-2890000D01*
X+760000Y-2837279D01*
X+760000Y-2762721D01*
X+812721Y-2710000D01*
X+887279Y-2710000D01*
X+940000Y-2762721D01*
X+940000Y-2837279D01*
X+887279Y-2890000D01*
G37*
G36*
X+887279Y-4590000D02*
X+812721Y-4590000D01*
X+760000Y-4537279D01*
X+760000Y-4462721D01*
X+812721Y-4410000D01*
X+887279Y-4410000D01*
X+940000Y-4462721D01*
X+940000Y-4537279D01*
X+887279Y-4590000D01*
G37*
G36*
X+637279Y-3740000D02*
X+562721Y-3740000D01*
X+510000Y-3687279D01*
X+510000Y-3612721D01*
X+562721Y-3560000D01*
X+637279Y-3560000D01*
X+690000Y-3612721D01*
X+690000Y-3687279D01*
X+637279Y-3740000D01*
G37*
G36*
X+275000Y-522487D02*
X+275000Y-377513D01*
X+377513Y-275000D01*
X+522487Y-275000D01*
X+625000Y-377513D01*
X+625000Y-522487D01*
X+522487Y-625000D01*
X+377513Y-625000D01*
X+275000Y-522487D01*
G37*
%LPD*%
G36*
X+1195182Y-691999D02*
X+1201105Y-691999D01*
X+1137401Y-755703D01*
X+1137401Y-839367D01*
X+1135649Y-837615D01*
X+1135649Y-668351D01*
X+1082466Y-668351D01*
X+1108392Y-642425D01*
X+1145608Y-642425D01*
X+1195182Y-691999D01*
G37*
G36*
X+1756711Y-1670287D02*
X+1756711Y-3604374D01*
X+1737551Y-3585214D01*
X+1737551Y-1755517D01*
X+921683Y-939649D01*
X+1026073Y-939649D01*
X+1756711Y-1670287D01*
G37*
G36*
X+1756711Y-6441255D02*
X+1220115Y-6977851D01*
X+522149Y-6977851D01*
X+627851Y-6872149D01*
X+1079885Y-6872149D01*
X+1737551Y-6214483D01*
X+1737551Y-3734786D01*
X+1756711Y-3715626D01*
X+1756711Y-6441255D01*
G37*
G36*
X+773059Y-7679136D02*
X+773059Y-7773653D01*
X+690457Y-7691051D01*
X+690457Y-7596534D01*
X+773059Y-7679136D01*
G37*
G36*
X+232856Y-8399932D02*
X+368573Y-8535649D01*
X+575627Y-8535649D01*
X+595167Y-8555189D01*
X+216770Y-8555189D01*
X+216770Y-8383846D01*
X+232856Y-8399932D01*
G37*
G36*
X+3643059Y-8763501D02*
X+3503857Y-8763501D01*
X+3503857Y-8318244D01*
X+3433857Y-8248244D01*
X+3433857Y-8059499D01*
X+3643059Y-8059499D01*
X+3643059Y-8763501D01*
G37*
%LPC*%
G36*
X+3575713Y-8237300D02*
X+3521203Y-8237300D01*
X+3482658Y-8198755D01*
X+3482658Y-8144245D01*
X+3521203Y-8105700D01*
X+3575713Y-8105700D01*
X+3614258Y-8144245D01*
X+3614258Y-8198755D01*
X+3575713Y-8237300D01*
G37*
%LPD*%
G36*
X+2893059Y-8367023D02*
X+2893059Y-8763501D01*
X+2753857Y-8763501D01*
X+2753857Y-8227821D01*
X+2893059Y-8367023D01*
G37*
G36*
X+1243359Y-8763501D02*
X+1236805Y-8763501D01*
X+783857Y-8310553D01*
X+783857Y-8303999D01*
X+1243359Y-8763501D01*
G37*
D12*
X+8400000Y-5650000D02*
X+8400000Y-5900000D01*
X+8400000Y-5400000D02*
X+8400000Y-5650000D01*
X+8400000Y-5150000D02*
X+8400000Y-5400000D01*
X+8400000Y-4900000D02*
X+8400000Y-5150000D01*
X+8400000Y-4650000D02*
X+8400000Y-4900000D01*
X+8400000Y-4400000D02*
X+8400000Y-4650000D01*
X+8400000Y-2600000D02*
X+8400000Y-2850000D01*
X+8400000Y-2350000D02*
X+8400000Y-2600000D01*
X+8400000Y-2100000D02*
X+8400000Y-2350000D01*
X+8400000Y-1850000D02*
X+8400000Y-2100000D01*
X+8400000Y-1600000D02*
X+8400000Y-1850000D01*
X+8400000Y-1350000D02*
X+8400000Y-1600000D01*
X+8400000Y-3150000D02*
X+8400000Y-2850000D01*
X+8400000Y-3150000D02*
X+9696000Y-3150000D01*
X+9700000Y-3146000D01*
X+1128865Y-547594D02*
X+1251594Y-547594D01*
X+1254000Y-550000D01*
X+1128865Y-547594D02*
X+1125233Y-551226D01*
X+1001226Y-551226D01*
X+1000000Y-550000D01*
D10*
X+2348458Y-7213500D02*
X+2348458Y-7475581D01*
X+2536377Y-7663500D01*
X+2548458Y-7663500D01*
X+1508000Y-550000D02*
X+1642943Y-684943D01*
X+1896943Y-684943D01*
X+2016000Y-804000D01*
X+2153330Y-666670D01*
X+2407330Y-666670D01*
X+2524000Y-550000D01*
X+2656332Y-682332D01*
X+3153668Y-682332D01*
X+3286000Y-550000D01*
X+3402575Y-666575D01*
X+3910575Y-666575D01*
X+4048000Y-804000D01*
X+4184058Y-667942D01*
X+4438058Y-667942D01*
X+4556000Y-550000D01*
X+4673592Y-667592D01*
X+4946408Y-667592D01*
X+5064000Y-550000D01*
X+7047349Y-4200000D02*
X+7047349Y-4244091D01*
X+7047349Y-2252651D02*
X+7047349Y-4200000D01*
X+7047349Y-4244091D02*
X+7037984Y-4253456D01*
X+7300000Y-4250000D02*
X+7300000Y-4400000D01*
X+7300000Y-2400000D02*
X+7300000Y-4250000D01*
D12*
X+8054000Y-3804000D02*
X+8396000Y-3804000D01*
X+8400000Y-3800000D01*
X+8400000Y-3150000D01*
X+8400000Y-4150000D02*
X+8400000Y-4400000D01*
X+8400000Y-4150000D02*
X+8400000Y-3800000D01*
X+8054000Y-3804000D02*
X+8000000Y-3804000D01*
X+7950000Y-3804000D01*
D11*
X+1000000Y-804000D02*
X+1146000Y-950000D01*
X+2886000Y-950000D01*
X+3032000Y-804000D01*
D10*
X+1448458Y-8905500D02*
X+1448458Y-8890254D01*
X+828458Y-8270254D01*
X+828458Y-7656189D01*
X+581769Y-7409500D01*
X+548458Y-7409500D01*
X+1198458Y-8905500D02*
X+1198458Y-8803500D01*
X+728458Y-8333500D01*
X+728458Y-7807398D01*
X+584560Y-7663500D01*
X+548458Y-7663500D01*
D11*
X+1000000Y-550000D02*
X+950000Y-550000D01*
X+830000Y-670000D01*
X+830000Y-950000D01*
X+1665402Y-1785402D01*
X+1665402Y-3660000D01*
D10*
X+5198458Y-8905500D02*
X+5198458Y-2800000D01*
X+5199534Y-2798924D01*
X+5199534Y-666924D01*
X+5316458Y-550000D01*
X+5318000Y-550000D01*
X+4700000Y-4300000D02*
X+4698458Y-4300000D01*
X+4698458Y-8905500D01*
X+6198458Y-8905500D02*
X+6198458Y-8553500D01*
X+6048458Y-8403500D01*
X+6048458Y-7113500D01*
X+5798458Y-6863500D01*
X+5798458Y-4200000D01*
X+5316458Y-3718000D01*
X+5316458Y-804000D01*
X+5318000Y-804000D01*
X+6448458Y-8905500D02*
X+6438458Y-8895500D01*
X+6438458Y-8583500D01*
X+6148458Y-8293500D01*
X+6148458Y-7063500D01*
X+5908458Y-6823500D01*
X+5908458Y-4130001D01*
X+5453893Y-3675436D01*
X+5453893Y-666565D01*
X+5570458Y-550000D01*
X+5572000Y-550000D01*
X+5550000Y-4750000D02*
X+5548458Y-4750000D01*
X+5548458Y-8523500D01*
X+5698458Y-8673500D01*
X+5698458Y-8905500D01*
X+5000000Y-4400000D02*
X+4998458Y-4400000D01*
X+5038458Y-4440000D01*
X+5038458Y-8273500D01*
X+4948458Y-8363500D01*
X+4948458Y-8905500D01*
X+5700000Y-4700000D02*
X+5698458Y-4700000D01*
X+5698458Y-8403500D01*
X+5948458Y-8653500D01*
X+5948458Y-8905500D01*
X+4600000Y-5800000D02*
X+4598458Y-5800000D01*
X+4268458Y-6130000D01*
X+4268458Y-7543500D01*
X+4148458Y-7663500D01*
X+4098458Y-7663500D01*
X+4600000Y-5600000D02*
X+4598458Y-5600000D01*
X+4098458Y-6100000D01*
X+4098458Y-7409500D01*
X+3048458Y-7663500D02*
X+3034544Y-7663500D01*
X+2891713Y-7520669D01*
X+2891713Y-7153512D01*
X+2997279Y-7047946D01*
X+2998821Y-7047946D01*
X+2998821Y-6784446D01*
X+4550000Y-1750000D02*
X+4548458Y-1750000D01*
X+4548458Y-5470000D01*
X+3953967Y-6064491D01*
X+3953967Y-8469009D01*
X+4098458Y-8613500D01*
X+4348458Y-8613500D01*
X+4448458Y-8713500D01*
X+4448458Y-8905500D01*
X+6200000Y-3500000D02*
X+6198458Y-3500000D01*
X+6198458Y-3700000D01*
X+6418458Y-3920000D01*
X+6418458Y-5470000D01*
X+7198458Y-6250000D01*
X+7198458Y-7263500D01*
X+7098458Y-7363500D01*
X+7098458Y-8163501D01*
X+7698458Y-8763501D01*
X+7698458Y-8905500D01*
X+7300000Y-4400000D02*
X+7300000Y-5299999D01*
X+7500002Y-5500001D01*
X+7500000Y-5600000D01*
X+7047349Y-4244091D02*
X+7047349Y-5397349D01*
X+7250000Y-5600000D01*
X+4250000Y-2400000D02*
X+4248458Y-2400000D01*
X+4248458Y-5410000D01*
X+3698458Y-5960000D01*
X+3698458Y-8905500D01*
X+5900000Y-3600000D02*
X+5898458Y-3600000D01*
X+5898458Y-3750000D01*
X+6148458Y-4000000D01*
X+6148458Y-5500000D01*
X+6848458Y-6200000D01*
X+6848458Y-7113500D01*
X+6648458Y-7313500D01*
X+6648458Y-8213500D01*
X+7198458Y-8763500D01*
X+7198458Y-8905500D01*
X+6650000Y-3700000D02*
X+6648458Y-3700000D01*
X+6893059Y-3944601D01*
X+6893059Y-5454601D01*
X+8128252Y-6689794D01*
X+8128252Y-8203294D01*
X+8698458Y-8773500D01*
X+8698458Y-8905500D01*
X+4400000Y-1550000D02*
X+4398458Y-1550000D01*
X+4398458Y-5450001D01*
X+3818458Y-6030001D01*
X+3818458Y-8525500D01*
X+4198458Y-8905500D01*
X+6050000Y-3600000D02*
X+6048458Y-3600000D01*
X+6048458Y-3700000D01*
X+6268458Y-3920000D01*
X+6268458Y-5470000D01*
X+6998458Y-6200000D01*
X+6998458Y-7388735D01*
X+6993003Y-7394190D01*
X+6993003Y-8298045D01*
X+7448458Y-8753500D01*
X+7448458Y-8905500D01*
X+5800000Y-1250000D02*
X+5800000Y-3250000D01*
X+5900000Y-3350000D01*
X+6358458Y-3350000D01*
X+6498458Y-3490000D01*
X+6498458Y-3700000D01*
X+6728458Y-3930000D01*
X+6728458Y-5480000D01*
X+7612920Y-6364462D01*
X+7612920Y-8157961D01*
X+8198458Y-8743499D01*
X+8198458Y-8905500D01*
X+6350000Y-3500000D02*
X+6348458Y-3500000D01*
X+6348458Y-3700000D01*
X+6588458Y-3940000D01*
X+6588458Y-5490000D01*
X+7494734Y-6396276D01*
X+7494734Y-8259775D01*
X+7948458Y-8713499D01*
X+7948458Y-8905500D01*
X+2198458Y-8905500D02*
X+2198458Y-8890262D01*
X+1848458Y-8540262D01*
X+1848458Y-6851541D01*
X+3498458Y-5201541D01*
X+3498458Y-1800000D01*
X+3948458Y-1350000D01*
X+4500000Y-1350000D01*
X+2698458Y-8905500D02*
X+2698458Y-6190000D01*
X+3648458Y-5240000D01*
X+3648458Y-1850000D01*
X+4047303Y-1451155D01*
X+4164550Y-1451155D01*
X+2948458Y-8905500D02*
X+2948458Y-8344076D01*
X+2788458Y-8184076D01*
X+2788458Y-6290000D01*
X+3798458Y-5280000D01*
X+3798458Y-1968194D01*
X+3910134Y-1856518D01*
X+3911676Y-1856518D01*
X+3448458Y-8905500D02*
X+3448458Y-8341191D01*
X+3378458Y-8271191D01*
X+3378458Y-6080001D01*
X+4098458Y-5360001D01*
X+4098458Y-2850000D01*
X+4100000Y-2850000D01*
X+3198458Y-8905500D02*
X+3258458Y-8845500D01*
X+3258458Y-6020001D01*
X+3948458Y-5330001D01*
X+3948458Y-2500000D01*
X+3950000Y-2500000D01*
D11*
X+1665402Y-3660000D02*
X+1665402Y-6184598D01*
X+1050000Y-6800000D01*
X+597966Y-6800000D01*
X+144621Y-7253345D01*
X+144621Y-8625039D01*
X+216770Y-8697188D01*
X+1000000Y-804000D02*
X+998458Y-804000D01*
X+998458Y-810000D01*
X+1828860Y-1640402D01*
X+1828860Y-6471140D01*
X+1250000Y-7050000D01*
X+550000Y-7050000D01*
X+283873Y-7316127D01*
X+283873Y-8348915D01*
X+398458Y-8463500D01*
X+605512Y-8463500D01*
X+728458Y-8586446D01*
X+728458Y-8693500D01*
X+724770Y-8697188D01*
D10*
X+1948458Y-8905500D02*
X+1948458Y-8763500D01*
X+1748458Y-8563500D01*
X+1748458Y-6760000D01*
X+3348458Y-5160000D01*
X+3348458Y-1700000D01*
X+3848458Y-1200000D01*
X+4350000Y-1200000D01*
X+5826000Y-550000D02*
X+5824458Y-550000D01*
X+5700000Y-674458D01*
X+5700000Y-3751542D01*
X+6018458Y-4070000D01*
X+6018458Y-5513504D01*
X+6698458Y-6193504D01*
X+6698458Y-7013500D01*
X+6548458Y-7163500D01*
X+6548458Y-8523500D01*
X+6698458Y-8673500D01*
X+6698458Y-8905500D01*
D12*
X+9646458Y-8703500D02*
X+9646458Y-7063084D01*
X+9405861Y-6822487D01*
X+9405861Y-6196000D01*
X+9700000Y-6196000D02*
X+9405861Y-6196000D01*
X+8696000Y-6196000D01*
X+8400000Y-5900000D01*
X+8400000Y-1160000D02*
X+8400000Y-1350000D01*
X+7758000Y-560000D02*
X+7770776Y-520776D01*
X+7400000Y-150000D01*
X+1332704Y-150000D01*
X+1128865Y-353839D01*
X+1128865Y-547594D01*
X+7758000Y-560000D02*
X+7850000Y-560000D01*
X+8400000Y-1110000D01*
X+8400000Y-1160000D01*
X+8400000Y-1110000D02*
X+8400000Y-1100000D01*
D13*
X+8400000Y-5900000D03*
X+8400000Y-5650000D03*
X+8400000Y-5400000D03*
X+8400000Y-5150000D03*
X+8400000Y-4900000D03*
X+8400000Y-4650000D03*
X+8400000Y-1100000D03*
X+8400000Y-2850000D03*
X+8400000Y-2600000D03*
X+8400000Y-2350000D03*
X+8400000Y-2100000D03*
X+8400000Y-1850000D03*
X+8400000Y-1600000D03*
X+8400000Y-1350000D03*
X+2348458Y-7213500D03*
X+7047349Y-2252651D03*
X+7037984Y-4253456D03*
X+7300000Y-2400000D03*
X+4250000Y-2400000D03*
X+4164550Y-1451155D03*
X+4350000Y-1200000D03*
X+8054000Y-3804000D03*
X+8400000Y-4400000D03*
X+8400000Y-4150000D03*
X+8000000Y-3804000D03*
X+7950000Y-3804000D03*
X+2998821Y-6784446D03*
X+4550000Y-1750000D03*
X+3911676Y-1856518D03*
X+4100000Y-2850000D03*
X+3950000Y-2500000D03*
X+4700000Y-4300000D03*
X+5700000Y-4700000D03*
X+5550000Y-4750000D03*
X+5800000Y-1250000D03*
X+6350000Y-3500000D03*
X+6200000Y-3500000D03*
X+5900000Y-3600000D03*
X+6650000Y-3700000D03*
X+5000000Y-4400000D03*
X+4400000Y-1550000D03*
X+6050000Y-3600000D03*
X+7300000Y-4400000D03*
X+4600000Y-5800000D03*
X+4600000Y-5600000D03*
X+4500000Y-1350000D03*
D14*
X+1665402Y-3660000D03*
D13*
X+7250000Y-5600000D03*
X+7500000Y-5600000D03*
D10*
X+9659168Y-119558D02*
X+9713333Y-135958D01*
X+9761798Y-161878D01*
X+9803711Y-196290D01*
X+9838122Y-238202D01*
X+9864042Y-286667D01*
X+9880442Y-340832D01*
X+9886500Y-403082D01*
X+9886500Y-9398458D01*
X+9884706Y-9435377D01*
X+9879679Y-9469415D01*
X+9871525Y-9502018D01*
X+9860409Y-9533078D01*
X+9846489Y-9562479D01*
X+9830720Y-9588757D01*
X+9789257Y-9639257D01*
X+9738757Y-9680720D01*
X+9712479Y-9696489D01*
X+9683078Y-9710409D01*
X+9652018Y-9721525D01*
X+9619415Y-9729679D01*
X+9585377Y-9734706D01*
X+9548458Y-9736500D01*
X+451542Y-9736500D01*
X+414623Y-9734706D01*
X+380585Y-9729679D01*
X+347982Y-9721525D01*
X+316922Y-9710409D01*
X+287521Y-9696489D01*
X+261243Y-9680720D01*
X+210743Y-9639257D01*
X+169280Y-9588757D01*
X+153511Y-9562479D01*
X+139591Y-9533078D01*
X+128475Y-9502018D01*
X+120321Y-9469415D01*
X+115294Y-9435377D01*
X+113500Y-9398458D01*
X+113500Y-8839187D01*
X+866769Y-8839187D01*
X+866769Y-8555189D01*
X+799235Y-8555189D01*
X+635397Y-8391351D01*
X+428343Y-8391351D01*
X+356022Y-8319030D01*
X+356022Y-7346012D01*
X+406459Y-7295575D01*
X+406459Y-8059499D01*
X+673059Y-8059499D01*
X+673059Y-8356447D01*
X+1080113Y-8763501D01*
X+1056459Y-8763501D01*
X+1056459Y-9301499D01*
X+2340457Y-9301499D01*
X+2340457Y-8763501D01*
X+2150043Y-8763501D01*
X+1903857Y-8517315D01*
X+1903857Y-6874488D01*
X+3553857Y-5224488D01*
X+3553857Y-1822947D01*
X+3971405Y-1405399D01*
X+4014713Y-1405399D01*
X+3593059Y-1827053D01*
X+3593059Y-5217053D01*
X+2643059Y-6167053D01*
X+2643059Y-7267501D01*
X+2406459Y-7267501D01*
X+2406459Y-7455236D01*
X+2403857Y-7452634D01*
X+2403857Y-7264731D01*
X+2423857Y-7244731D01*
X+2423857Y-7182269D01*
X+2379689Y-7138101D01*
X+2317227Y-7138101D01*
X+2273059Y-7182269D01*
X+2273059Y-7244731D01*
X+2293059Y-7264731D01*
X+2293059Y-7498528D01*
X+2406459Y-7611928D01*
X+2406459Y-8059499D01*
X+2643059Y-8059499D01*
X+2643059Y-8763501D01*
X+2556459Y-8763501D01*
X+2556459Y-9301499D01*
X+3840457Y-9301499D01*
X+3840457Y-8763501D01*
X+3753857Y-8763501D01*
X+3753857Y-5982947D01*
X+4303857Y-5432947D01*
X+4303857Y-2452773D01*
X+4325399Y-2431231D01*
X+4325399Y-2368769D01*
X+4281231Y-2324601D01*
X+4218769Y-2324601D01*
X+4174601Y-2368769D01*
X+4174601Y-2431231D01*
X+4193059Y-2449689D01*
X+4193059Y-5387053D01*
X+3643059Y-5937053D01*
X+3643059Y-7267501D01*
X+3433857Y-7267501D01*
X+3433857Y-6102948D01*
X+4153857Y-5382948D01*
X+4153857Y-2902773D01*
X+4175399Y-2881231D01*
X+4175399Y-2818769D01*
X+4131231Y-2774601D01*
X+4068769Y-2774601D01*
X+4024601Y-2818769D01*
X+4024601Y-2881231D01*
X+4043059Y-2899689D01*
X+4043059Y-5337054D01*
X+3323059Y-6057054D01*
X+3323059Y-8294138D01*
X+3393059Y-8364138D01*
X+3393059Y-8763501D01*
X+3313857Y-8763501D01*
X+3313857Y-6042948D01*
X+4003857Y-5352948D01*
X+4003857Y-2552773D01*
X+4025399Y-2531231D01*
X+4025399Y-2468769D01*
X+3981231Y-2424601D01*
X+3918769Y-2424601D01*
X+3874601Y-2468769D01*
X+3874601Y-2531231D01*
X+3893059Y-2549689D01*
X+3893059Y-5307054D01*
X+3203059Y-5997054D01*
X+3203059Y-8763501D01*
X+3003857Y-8763501D01*
X+3003857Y-8321129D01*
X+2843857Y-8161129D01*
X+2843857Y-7551159D01*
X+2906459Y-7613761D01*
X+2906459Y-8059499D01*
X+3190457Y-8059499D01*
X+3190457Y-7267501D01*
X+2947112Y-7267501D01*
X+2947112Y-7176459D01*
X+3020226Y-7103345D01*
X+3021768Y-7103345D01*
X+3054220Y-7070893D01*
X+3054220Y-6835677D01*
X+3074220Y-6815677D01*
X+3074220Y-6753215D01*
X+3030052Y-6709047D01*
X+2967590Y-6709047D01*
X+2923422Y-6753215D01*
X+2923422Y-6815677D01*
X+2943422Y-6835677D01*
X+2943422Y-7023457D01*
X+2843857Y-7123022D01*
X+2843857Y-6312947D01*
X+3853857Y-5302947D01*
X+3853857Y-1991141D01*
X+3913081Y-1931917D01*
X+3942907Y-1931917D01*
X+3987075Y-1887749D01*
X+3987075Y-1825287D01*
X+3942907Y-1781119D01*
X+3880445Y-1781119D01*
X+3836277Y-1825287D01*
X+3836277Y-1852029D01*
X+3743059Y-1945247D01*
X+3743059Y-5257053D01*
X+2753857Y-6246255D01*
X+2753857Y-6212947D01*
X+3703857Y-5262947D01*
X+3703857Y-1872947D01*
X+4070250Y-1506554D01*
X+4113319Y-1506554D01*
X+4133319Y-1526554D01*
X+4195781Y-1526554D01*
X+4239949Y-1482386D01*
X+4239949Y-1419924D01*
X+4225424Y-1405399D01*
X+4448769Y-1405399D01*
X+4468769Y-1425399D01*
X+4531231Y-1425399D01*
X+4575399Y-1381231D01*
X+4575399Y-1318769D01*
X+4531231Y-1274601D01*
X+4468769Y-1274601D01*
X+4448769Y-1294601D01*
X+3925511Y-1294601D01*
X+3443059Y-1777053D01*
X+3443059Y-5178594D01*
X+1803857Y-6817796D01*
X+1803857Y-6782947D01*
X+3403857Y-5182947D01*
X+3403857Y-1722947D01*
X+3871405Y-1255399D01*
X+4298769Y-1255399D01*
X+4318769Y-1275399D01*
X+4381231Y-1275399D01*
X+4425399Y-1231231D01*
X+4425399Y-1168769D01*
X+4381231Y-1124601D01*
X+4318769Y-1124601D01*
X+4298769Y-1144601D01*
X+3825511Y-1144601D01*
X+3293059Y-1677053D01*
X+3293059Y-5137053D01*
X+1693059Y-6737053D01*
X+1693059Y-8586447D01*
X+1870113Y-8763501D01*
X+1400051Y-8763501D01*
X+883857Y-8247307D01*
X+883857Y-7633242D01*
X+690457Y-7439842D01*
X+690457Y-7267501D01*
X+434533Y-7267501D01*
X+579885Y-7122149D01*
X+1279885Y-7122149D01*
X+1901009Y-6501025D01*
X+1901009Y-1610517D01*
X+1312641Y-1022149D01*
X+2915885Y-1022149D01*
X+3017435Y-920599D01*
X+3080297Y-920599D01*
X+3148599Y-852297D01*
X+3148599Y-755703D01*
X+3080297Y-687401D01*
X+2983703Y-687401D01*
X+2915401Y-755703D01*
X+2915401Y-818565D01*
X+2894599Y-839367D01*
X+2894599Y-755703D01*
X+2826297Y-687401D01*
X+2729703Y-687401D01*
X+2661401Y-755703D01*
X+2661401Y-852297D01*
X+2686955Y-877851D01*
X+2615045Y-877851D01*
X+2640599Y-852297D01*
X+2640599Y-755703D01*
X+2572297Y-687401D01*
X+2475703Y-687401D01*
X+2407401Y-755703D01*
X+2407401Y-852297D01*
X+2432955Y-877851D01*
X+2361045Y-877851D01*
X+2386599Y-852297D01*
X+2386599Y-755703D01*
X+2318297Y-687401D01*
X+2221703Y-687401D01*
X+2153401Y-755703D01*
X+2153401Y-852297D01*
X+2178955Y-877851D01*
X+1853045Y-877851D01*
X+1878599Y-852297D01*
X+1878599Y-755703D01*
X+1810297Y-687401D01*
X+1713703Y-687401D01*
X+1645401Y-755703D01*
X+1645401Y-852297D01*
X+1670955Y-877851D01*
X+1599045Y-877851D01*
X+1624599Y-852297D01*
X+1624599Y-755703D01*
X+1556297Y-687401D01*
X+1459703Y-687401D01*
X+1391401Y-755703D01*
X+1391401Y-852297D01*
X+1416955Y-877851D01*
X+1345045Y-877851D01*
X+1370599Y-852297D01*
X+1370599Y-755703D01*
X+1306895Y-691999D01*
X+1312818Y-691999D01*
X+1395999Y-608818D01*
X+1395999Y-491182D01*
X+1312818Y-408001D01*
X+1220064Y-408001D01*
X+1220064Y-391614D01*
X+1370479Y-241199D01*
X+7362225Y-241199D01*
X+7556243Y-435217D01*
X+7527101Y-464359D01*
X+7527101Y-655641D01*
X+7662359Y-790899D01*
X+7853641Y-790899D01*
X+7902783Y-741757D01*
X+8308801Y-1147776D01*
X+8308801Y-3712801D01*
X+7912224Y-3712801D01*
X+7858801Y-3766224D01*
X+7858801Y-3841776D01*
X+7912224Y-3895199D01*
X+8308801Y-3895199D01*
X+8308801Y-5937776D01*
X+8362225Y-5991199D01*
X+8658225Y-6287199D01*
X+9314662Y-6287199D01*
X+9314662Y-6860262D01*
X+9555259Y-7100859D01*
X+9555259Y-8561501D01*
X+8996459Y-8561501D01*
X+8996459Y-8845499D01*
X+9788457Y-8845499D01*
X+9788457Y-8561501D01*
X+9737657Y-8561501D01*
X+9737657Y-7025309D01*
X+9497060Y-6784712D01*
X+9497060Y-6287199D01*
X+9558001Y-6287199D01*
X+9558001Y-6337999D01*
X+9841999Y-6337999D01*
X+9841999Y-4022001D01*
X+9558001Y-4022001D01*
X+9558001Y-6104801D01*
X+8733775Y-6104801D01*
X+8491199Y-5862225D01*
X+8491199Y-3241199D01*
X+9558001Y-3241199D01*
X+9558001Y-3287999D01*
X+9841999Y-3287999D01*
X+9841999Y-972001D01*
X+9558001Y-972001D01*
X+9558001Y-3058801D01*
X+8491199Y-3058801D01*
X+8491199Y-1062224D01*
X+8437776Y-1008801D01*
X+8427775Y-1008801D01*
X+7988899Y-569925D01*
X+7988899Y-464359D01*
X+7853641Y-329101D01*
X+7708075Y-329101D01*
X+7492474Y-113500D01*
X+9596918Y-113500D01*
X+9659168Y-119558D01*
X+6147500Y-1563168D02*
X+6147500Y-1436832D01*
X+6236832Y-1347500D01*
X+6363168Y-1347500D01*
X+6452500Y-1436832D01*
X+6452500Y-1563168D01*
X+6363168Y-1652500D01*
X+6236832Y-1652500D01*
X+6147500Y-1563168D01*
X+1950200Y-831255D02*
X+1950200Y-776745D01*
X+1988745Y-738200D01*
X+2043255Y-738200D01*
X+2081800Y-776745D01*
X+2081800Y-831255D01*
X+2043255Y-869800D01*
X+1988745Y-869800D01*
X+1950200Y-831255D01*
X+3169401Y-852297D02*
X+3169401Y-755703D01*
X+3237703Y-687401D01*
X+3334297Y-687401D01*
X+3402599Y-755703D01*
X+3402599Y-852297D01*
X+3334297Y-920599D01*
X+3237703Y-920599D01*
X+3169401Y-852297D01*
X+3423401Y-852297D02*
X+3423401Y-755703D01*
X+3491703Y-687401D01*
X+3588297Y-687401D01*
X+3656599Y-755703D01*
X+3656599Y-852297D01*
X+3588297Y-920599D01*
X+3491703Y-920599D01*
X+3423401Y-852297D01*
X+3677401Y-852297D02*
X+3677401Y-755703D01*
X+3745703Y-687401D01*
X+3842297Y-687401D01*
X+3910599Y-755703D01*
X+3910599Y-852297D01*
X+3842297Y-920599D01*
X+3745703Y-920599D01*
X+3677401Y-852297D01*
X+3982200Y-831255D02*
X+3982200Y-776745D01*
X+4020745Y-738200D01*
X+4075255Y-738200D01*
X+4113800Y-776745D01*
X+4113800Y-831255D01*
X+4075255Y-869800D01*
X+4020745Y-869800D01*
X+3982200Y-831255D01*
X+4185401Y-852297D02*
X+4185401Y-755703D01*
X+4253703Y-687401D01*
X+4350297Y-687401D01*
X+4418599Y-755703D01*
X+4418599Y-852297D01*
X+4350297Y-920599D01*
X+4253703Y-920599D01*
X+4185401Y-852297D01*
X+4439401Y-852297D02*
X+4439401Y-755703D01*
X+4507703Y-687401D01*
X+4604297Y-687401D01*
X+4672599Y-755703D01*
X+4672599Y-852297D01*
X+4604297Y-920599D01*
X+4507703Y-920599D01*
X+4439401Y-852297D01*
X+4693401Y-852297D02*
X+4693401Y-755703D01*
X+4761703Y-687401D01*
X+4858297Y-687401D01*
X+4926599Y-755703D01*
X+4926599Y-852297D01*
X+4858297Y-920599D01*
X+4761703Y-920599D01*
X+4693401Y-852297D01*
X+5942599Y-501703D02*
X+5942599Y-598297D01*
X+5874297Y-666599D01*
X+5786205Y-666599D01*
X+5755399Y-697405D01*
X+5755399Y-1187971D01*
X+5768769Y-1174601D01*
X+5831231Y-1174601D01*
X+5875399Y-1218769D01*
X+5875399Y-1281231D01*
X+5855399Y-1301231D01*
X+5855399Y-3227053D01*
X+5922947Y-3294601D01*
X+6381405Y-3294601D01*
X+6553857Y-3467053D01*
X+6553857Y-3677053D01*
X+6574601Y-3697797D01*
X+6574601Y-3668769D01*
X+6618769Y-3624601D01*
X+6681231Y-3624601D01*
X+6725399Y-3668769D01*
X+6725399Y-3698595D01*
X+6948458Y-3921654D01*
X+6948458Y-5431654D01*
X+8183651Y-6666847D01*
X+8183651Y-8180347D01*
X+8753857Y-8750553D01*
X+8753857Y-8763501D01*
X+8840457Y-8763501D01*
X+8840457Y-9301499D01*
X+8556459Y-9301499D01*
X+8556459Y-8763501D01*
X+8610113Y-8763501D01*
X+8072853Y-8226241D01*
X+8072853Y-6712741D01*
X+6837660Y-5477548D01*
X+6837660Y-3967548D01*
X+6783857Y-3913745D01*
X+6783857Y-5457053D01*
X+7668319Y-6341515D01*
X+7668319Y-8135014D01*
X+8253857Y-8720552D01*
X+8253857Y-8763501D01*
X+8340457Y-8763501D01*
X+8340457Y-9301499D01*
X+7056459Y-9301499D01*
X+7056459Y-8763501D01*
X+7120113Y-8763501D01*
X+6603857Y-8247245D01*
X+6603857Y-8500553D01*
X+6753857Y-8650553D01*
X+6753857Y-8763501D01*
X+6840457Y-8763501D01*
X+6840457Y-9301499D01*
X+5556459Y-9301499D01*
X+5556459Y-8763501D01*
X+5643059Y-8763501D01*
X+5643059Y-8696447D01*
X+5493059Y-8546447D01*
X+5493059Y-4799689D01*
X+5474601Y-4781231D01*
X+5474601Y-4718769D01*
X+5518769Y-4674601D01*
X+5581231Y-4674601D01*
X+5624601Y-4717971D01*
X+5624601Y-4668769D01*
X+5668769Y-4624601D01*
X+5731231Y-4624601D01*
X+5743059Y-4636429D01*
X+5743059Y-4222947D01*
X+5261059Y-3740947D01*
X+5261059Y-911955D01*
X+5254933Y-905829D01*
X+5254933Y-2821905D01*
X+5253857Y-2822981D01*
X+5253857Y-7371501D01*
X+5490457Y-7371501D01*
X+5490457Y-7909499D01*
X+5253857Y-7909499D01*
X+5253857Y-8763501D01*
X+5340457Y-8763501D01*
X+5340457Y-9301499D01*
X+4056459Y-9301499D01*
X+4056459Y-8841847D01*
X+3763059Y-8548447D01*
X+3763059Y-6007054D01*
X+4343059Y-5427054D01*
X+4343059Y-1599689D01*
X+4324601Y-1581231D01*
X+4324601Y-1518769D01*
X+4368769Y-1474601D01*
X+4431231Y-1474601D01*
X+4475399Y-1518769D01*
X+4475399Y-1581231D01*
X+4453857Y-1602773D01*
X+4453857Y-5472948D01*
X+3873857Y-6052948D01*
X+3873857Y-8502553D01*
X+4134805Y-8763501D01*
X+4393059Y-8763501D01*
X+4393059Y-8736447D01*
X+4325511Y-8668899D01*
X+4075511Y-8668899D01*
X+3898568Y-8491956D01*
X+3898568Y-6041544D01*
X+4493059Y-5447053D01*
X+4493059Y-1799689D01*
X+4474601Y-1781231D01*
X+4474601Y-1718769D01*
X+4518769Y-1674601D01*
X+4581231Y-1674601D01*
X+4625399Y-1718769D01*
X+4625399Y-1781231D01*
X+4603857Y-1802773D01*
X+4603857Y-5492947D01*
X+4572203Y-5524601D01*
X+4631231Y-5524601D01*
X+4643059Y-5536429D01*
X+4643059Y-4349689D01*
X+4624601Y-4331231D01*
X+4624601Y-4268769D01*
X+4668769Y-4224601D01*
X+4731231Y-4224601D01*
X+4775399Y-4268769D01*
X+4775399Y-4331231D01*
X+4753857Y-4352773D01*
X+4753857Y-7371501D01*
X+4983059Y-7371501D01*
X+4983059Y-4475399D01*
X+4968769Y-4475399D01*
X+4924601Y-4431231D01*
X+4924601Y-4368769D01*
X+4968769Y-4324601D01*
X+5031231Y-4324601D01*
X+5075399Y-4368769D01*
X+5075399Y-4398595D01*
X+5093857Y-4417053D01*
X+5093857Y-8296447D01*
X+5003857Y-8386447D01*
X+5003857Y-8763501D01*
X+5143059Y-8763501D01*
X+5143059Y-2777019D01*
X+5144135Y-2775943D01*
X+5144135Y-888761D01*
X+5112297Y-920599D01*
X+5015703Y-920599D01*
X+4947401Y-852297D01*
X+4947401Y-755703D01*
X+5015703Y-687401D01*
X+5112297Y-687401D01*
X+5144135Y-719239D01*
X+5144135Y-643977D01*
X+5201401Y-586711D01*
X+5201401Y-501703D01*
X+5269703Y-433401D01*
X+5366297Y-433401D01*
X+5434599Y-501703D01*
X+5434599Y-598297D01*
X+5366297Y-666599D01*
X+5278205Y-666599D01*
X+5254933Y-689871D01*
X+5254933Y-702171D01*
X+5269703Y-687401D01*
X+5366297Y-687401D01*
X+5398494Y-719598D01*
X+5398494Y-643618D01*
X+5455401Y-586711D01*
X+5455401Y-501703D01*
X+5523703Y-433401D01*
X+5620297Y-433401D01*
X+5688599Y-501703D01*
X+5688599Y-598297D01*
X+5620297Y-666599D01*
X+5532205Y-666599D01*
X+5509292Y-689512D01*
X+5509292Y-701812D01*
X+5523703Y-687401D01*
X+5620297Y-687401D01*
X+5644601Y-711705D01*
X+5644601Y-651511D01*
X+5709401Y-586711D01*
X+5709401Y-501703D01*
X+5777703Y-433401D01*
X+5874297Y-433401D01*
X+5942599Y-501703D01*
X+5760200Y-831255D02*
X+5760200Y-776745D01*
X+5798745Y-738200D01*
X+5853255Y-738200D01*
X+5891800Y-776745D01*
X+5891800Y-831255D01*
X+5853255Y-869800D01*
X+5798745Y-869800D01*
X+5760200Y-831255D01*
X+4998200Y-577255D02*
X+4998200Y-522745D01*
X+5036745Y-484200D01*
X+5091255Y-484200D01*
X+5129800Y-522745D01*
X+5129800Y-577255D01*
X+5091255Y-615800D01*
X+5036745Y-615800D01*
X+4998200Y-577255D01*
X+4693401Y-598297D02*
X+4693401Y-501703D01*
X+4761703Y-433401D01*
X+4858297Y-433401D01*
X+4926599Y-501703D01*
X+4926599Y-598297D01*
X+4858297Y-666599D01*
X+4761703Y-666599D01*
X+4693401Y-598297D01*
X+4490200Y-577255D02*
X+4490200Y-522745D01*
X+4528745Y-484200D01*
X+4583255Y-484200D01*
X+4621800Y-522745D01*
X+4621800Y-577255D01*
X+4583255Y-615800D01*
X+4528745Y-615800D01*
X+4490200Y-577255D01*
X+4185401Y-598297D02*
X+4185401Y-501703D01*
X+4253703Y-433401D01*
X+4350297Y-433401D01*
X+4418599Y-501703D01*
X+4418599Y-598297D01*
X+4350297Y-666599D01*
X+4253703Y-666599D01*
X+4185401Y-598297D01*
X+3931401Y-598297D02*
X+3931401Y-501703D01*
X+3999703Y-433401D01*
X+4096297Y-433401D01*
X+4164599Y-501703D01*
X+4164599Y-598297D01*
X+4096297Y-666599D01*
X+3999703Y-666599D01*
X+3931401Y-598297D01*
X+3677401Y-598297D02*
X+3677401Y-501703D01*
X+3745703Y-433401D01*
X+3842297Y-433401D01*
X+3910599Y-501703D01*
X+3910599Y-598297D01*
X+3842297Y-666599D01*
X+3745703Y-666599D01*
X+3677401Y-598297D01*
X+3423401Y-598297D02*
X+3423401Y-501703D01*
X+3491703Y-433401D01*
X+3588297Y-433401D01*
X+3656599Y-501703D01*
X+3656599Y-598297D01*
X+3588297Y-666599D01*
X+3491703Y-666599D01*
X+3423401Y-598297D01*
X+3220200Y-577255D02*
X+3220200Y-522745D01*
X+3258745Y-484200D01*
X+3313255Y-484200D01*
X+3351800Y-522745D01*
X+3351800Y-577255D01*
X+3313255Y-615800D01*
X+3258745Y-615800D01*
X+3220200Y-577255D01*
X+2915401Y-598297D02*
X+2915401Y-501703D01*
X+2983703Y-433401D01*
X+3080297Y-433401D01*
X+3148599Y-501703D01*
X+3148599Y-598297D01*
X+3080297Y-666599D01*
X+2983703Y-666599D01*
X+2915401Y-598297D01*
X+2661401Y-598297D02*
X+2661401Y-501703D01*
X+2729703Y-433401D01*
X+2826297Y-433401D01*
X+2894599Y-501703D01*
X+2894599Y-598297D01*
X+2826297Y-666599D01*
X+2729703Y-666599D01*
X+2661401Y-598297D01*
X+2458200Y-577255D02*
X+2458200Y-522745D01*
X+2496745Y-484200D01*
X+2551255Y-484200D01*
X+2589800Y-522745D01*
X+2589800Y-577255D01*
X+2551255Y-615800D01*
X+2496745Y-615800D01*
X+2458200Y-577255D01*
X+2153401Y-598297D02*
X+2153401Y-501703D01*
X+2221703Y-433401D01*
X+2318297Y-433401D01*
X+2386599Y-501703D01*
X+2386599Y-598297D01*
X+2318297Y-666599D01*
X+2221703Y-666599D01*
X+2153401Y-598297D01*
X+1899401Y-598297D02*
X+1899401Y-501703D01*
X+1967703Y-433401D01*
X+2064297Y-433401D01*
X+2132599Y-501703D01*
X+2132599Y-598297D01*
X+2064297Y-666599D01*
X+1967703Y-666599D01*
X+1899401Y-598297D01*
X+1645401Y-598297D02*
X+1645401Y-501703D01*
X+1713703Y-433401D01*
X+1810297Y-433401D01*
X+1878599Y-501703D01*
X+1878599Y-598297D01*
X+1810297Y-666599D01*
X+1713703Y-666599D01*
X+1645401Y-598297D01*
X+1442200Y-577255D02*
X+1442200Y-522745D01*
X+1480745Y-484200D01*
X+1535255Y-484200D01*
X+1573800Y-522745D01*
X+1573800Y-577255D01*
X+1535255Y-615800D01*
X+1480745Y-615800D01*
X+1442200Y-577255D01*
X+2720287Y-3940399D02*
X+2479713Y-3940399D01*
X+2309601Y-3770287D01*
X+2309601Y-3529713D01*
X+2479713Y-3359601D01*
X+2720287Y-3359601D01*
X+2890399Y-3529713D01*
X+2890399Y-3770287D01*
X+2720287Y-3940399D01*
X+2237279Y-3740000D02*
X+2162721Y-3740000D01*
X+2110000Y-3687279D01*
X+2110000Y-3612721D01*
X+2162721Y-3560000D01*
X+2237279Y-3560000D01*
X+2290000Y-3612721D01*
X+2290000Y-3687279D01*
X+2237279Y-3740000D01*
X+575713Y-8237300D02*
X+521203Y-8237300D01*
X+482658Y-8198755D01*
X+482658Y-8144245D01*
X+521203Y-8105700D01*
X+575713Y-8105700D01*
X+614258Y-8144245D01*
X+614258Y-8198755D01*
X+575713Y-8237300D01*
X+1075713Y-8237300D02*
X+1021203Y-8237300D01*
X+982658Y-8198755D01*
X+982658Y-8144245D01*
X+1021203Y-8105700D01*
X+1075713Y-8105700D01*
X+1114258Y-8144245D01*
X+1114258Y-8198755D01*
X+1075713Y-8237300D01*
X+1190457Y-7551499D02*
X+1190457Y-8059499D01*
X+906459Y-8059499D01*
X+906459Y-7267501D01*
X+1190457Y-7267501D01*
X+1190457Y-7551499D01*
X+1575713Y-8237300D02*
X+1521203Y-8237300D01*
X+1482658Y-8198755D01*
X+1482658Y-8144245D01*
X+1521203Y-8105700D01*
X+1575713Y-8105700D01*
X+1614258Y-8144245D01*
X+1614258Y-8198755D01*
X+1575713Y-8237300D01*
X+1690457Y-7551499D02*
X+1690457Y-8059499D01*
X+1406459Y-8059499D01*
X+1406459Y-7267501D01*
X+1690457Y-7267501D01*
X+1690457Y-7551499D01*
X+2075713Y-8237300D02*
X+2021203Y-8237300D01*
X+1982658Y-8198755D01*
X+1982658Y-8144245D01*
X+2021203Y-8105700D01*
X+2075713Y-8105700D01*
X+2114258Y-8144245D01*
X+2114258Y-8198755D01*
X+2075713Y-8237300D01*
X+2190457Y-7551499D02*
X+2190457Y-8059499D01*
X+1906459Y-8059499D01*
X+1906459Y-7267501D01*
X+2190457Y-7267501D01*
X+2190457Y-7551499D01*
X+2575713Y-8237300D02*
X+2521203Y-8237300D01*
X+2482658Y-8198755D01*
X+2482658Y-8144245D01*
X+2521203Y-8105700D01*
X+2575713Y-8105700D01*
X+2614258Y-8144245D01*
X+2614258Y-8198755D01*
X+2575713Y-8237300D01*
X+3075713Y-8237300D02*
X+3021203Y-8237300D01*
X+2982658Y-8198755D01*
X+2982658Y-8144245D01*
X+3021203Y-8105700D01*
X+3075713Y-8105700D01*
X+3114258Y-8144245D01*
X+3114258Y-8198755D01*
X+3075713Y-8237300D01*
X+5375713Y-8087300D02*
X+5321203Y-8087300D01*
X+5282658Y-8048755D01*
X+5282658Y-7994245D01*
X+5321203Y-7955700D01*
X+5375713Y-7955700D01*
X+5414258Y-7994245D01*
X+5414258Y-8048755D01*
X+5375713Y-8087300D01*
X+7875713Y-8087300D02*
X+7821203Y-8087300D01*
X+7782658Y-8048755D01*
X+7782658Y-7994245D01*
X+7821203Y-7955700D01*
X+7875713Y-7955700D01*
X+7914258Y-7994245D01*
X+7914258Y-8048755D01*
X+7875713Y-8087300D01*
X+7990457Y-7655499D02*
X+7990457Y-7909499D01*
X+7706459Y-7909499D01*
X+7706459Y-7371501D01*
X+7990457Y-7371501D01*
X+7990457Y-7655499D01*
X+8425713Y-8087300D02*
X+8371203Y-8087300D01*
X+8332658Y-8048755D01*
X+8332658Y-7994245D01*
X+8371203Y-7955700D01*
X+8425713Y-7955700D01*
X+8464258Y-7994245D01*
X+8464258Y-8048755D01*
X+8425713Y-8087300D01*
X+8540457Y-7655499D02*
X+8540457Y-7909499D01*
X+8256459Y-7909499D01*
X+8256459Y-7371501D01*
X+8540457Y-7371501D01*
X+8540457Y-7655499D01*
X+1225713Y-9479300D02*
X+1171203Y-9479300D01*
X+1132658Y-9440755D01*
X+1132658Y-9386245D01*
X+1171203Y-9347700D01*
X+1225713Y-9347700D01*
X+1264258Y-9386245D01*
X+1264258Y-9440755D01*
X+1225713Y-9479300D01*
X+1475713Y-9479300D02*
X+1421203Y-9479300D01*
X+1382658Y-9440755D01*
X+1382658Y-9386245D01*
X+1421203Y-9347700D01*
X+1475713Y-9347700D01*
X+1514258Y-9386245D01*
X+1514258Y-9440755D01*
X+1475713Y-9479300D01*
X+1725713Y-9479300D02*
X+1671203Y-9479300D01*
X+1632658Y-9440755D01*
X+1632658Y-9386245D01*
X+1671203Y-9347700D01*
X+1725713Y-9347700D01*
X+1764258Y-9386245D01*
X+1764258Y-9440755D01*
X+1725713Y-9479300D01*
X+1975713Y-9479300D02*
X+1921203Y-9479300D01*
X+1882658Y-9440755D01*
X+1882658Y-9386245D01*
X+1921203Y-9347700D01*
X+1975713Y-9347700D01*
X+2014258Y-9386245D01*
X+2014258Y-9440755D01*
X+1975713Y-9479300D01*
X+2225713Y-9479300D02*
X+2171203Y-9479300D01*
X+2132658Y-9440755D01*
X+2132658Y-9386245D01*
X+2171203Y-9347700D01*
X+2225713Y-9347700D01*
X+2264258Y-9386245D01*
X+2264258Y-9440755D01*
X+2225713Y-9479300D01*
X+2725713Y-9479300D02*
X+2671203Y-9479300D01*
X+2632658Y-9440755D01*
X+2632658Y-9386245D01*
X+2671203Y-9347700D01*
X+2725713Y-9347700D01*
X+2764258Y-9386245D01*
X+2764258Y-9440755D01*
X+2725713Y-9479300D01*
X+2975713Y-9479300D02*
X+2921203Y-9479300D01*
X+2882658Y-9440755D01*
X+2882658Y-9386245D01*
X+2921203Y-9347700D01*
X+2975713Y-9347700D01*
X+3014258Y-9386245D01*
X+3014258Y-9440755D01*
X+2975713Y-9479300D01*
X+3225713Y-9479300D02*
X+3171203Y-9479300D01*
X+3132658Y-9440755D01*
X+3132658Y-9386245D01*
X+3171203Y-9347700D01*
X+3225713Y-9347700D01*
X+3264258Y-9386245D01*
X+3264258Y-9440755D01*
X+3225713Y-9479300D01*
X+3475713Y-9479300D02*
X+3421203Y-9479300D01*
X+3382658Y-9440755D01*
X+3382658Y-9386245D01*
X+3421203Y-9347700D01*
X+3475713Y-9347700D01*
X+3514258Y-9386245D01*
X+3514258Y-9440755D01*
X+3475713Y-9479300D01*
X+3725713Y-9479300D02*
X+3671203Y-9479300D01*
X+3632658Y-9440755D01*
X+3632658Y-9386245D01*
X+3671203Y-9347700D01*
X+3725713Y-9347700D01*
X+3764258Y-9386245D01*
X+3764258Y-9440755D01*
X+3725713Y-9479300D01*
X+4225713Y-9479300D02*
X+4171203Y-9479300D01*
X+4132658Y-9440755D01*
X+4132658Y-9386245D01*
X+4171203Y-9347700D01*
X+4225713Y-9347700D01*
X+4264258Y-9386245D01*
X+4264258Y-9440755D01*
X+4225713Y-9479300D01*
X+4475713Y-9479300D02*
X+4421203Y-9479300D01*
X+4382658Y-9440755D01*
X+4382658Y-9386245D01*
X+4421203Y-9347700D01*
X+4475713Y-9347700D01*
X+4514258Y-9386245D01*
X+4514258Y-9440755D01*
X+4475713Y-9479300D01*
X+4725713Y-9479300D02*
X+4671203Y-9479300D01*
X+4632658Y-9440755D01*
X+4632658Y-9386245D01*
X+4671203Y-9347700D01*
X+4725713Y-9347700D01*
X+4764258Y-9386245D01*
X+4764258Y-9440755D01*
X+4725713Y-9479300D01*
X+4975713Y-9479300D02*
X+4921203Y-9479300D01*
X+4882658Y-9440755D01*
X+4882658Y-9386245D01*
X+4921203Y-9347700D01*
X+4975713Y-9347700D01*
X+5014258Y-9386245D01*
X+5014258Y-9440755D01*
X+4975713Y-9479300D01*
X+5225713Y-9479300D02*
X+5171203Y-9479300D01*
X+5132658Y-9440755D01*
X+5132658Y-9386245D01*
X+5171203Y-9347700D01*
X+5225713Y-9347700D01*
X+5264258Y-9386245D01*
X+5264258Y-9440755D01*
X+5225713Y-9479300D01*
X+5725713Y-9479300D02*
X+5671203Y-9479300D01*
X+5632658Y-9440755D01*
X+5632658Y-9386245D01*
X+5671203Y-9347700D01*
X+5725713Y-9347700D01*
X+5764258Y-9386245D01*
X+5764258Y-9440755D01*
X+5725713Y-9479300D01*
X+5975713Y-9479300D02*
X+5921203Y-9479300D01*
X+5882658Y-9440755D01*
X+5882658Y-9386245D01*
X+5921203Y-9347700D01*
X+5975713Y-9347700D01*
X+6014258Y-9386245D01*
X+6014258Y-9440755D01*
X+5975713Y-9479300D01*
X+6225713Y-9479300D02*
X+6171203Y-9479300D01*
X+6132658Y-9440755D01*
X+6132658Y-9386245D01*
X+6171203Y-9347700D01*
X+6225713Y-9347700D01*
X+6264258Y-9386245D01*
X+6264258Y-9440755D01*
X+6225713Y-9479300D01*
X+6475713Y-9479300D02*
X+6421203Y-9479300D01*
X+6382658Y-9440755D01*
X+6382658Y-9386245D01*
X+6421203Y-9347700D01*
X+6475713Y-9347700D01*
X+6514258Y-9386245D01*
X+6514258Y-9440755D01*
X+6475713Y-9479300D01*
X+6725713Y-9479300D02*
X+6671203Y-9479300D01*
X+6632658Y-9440755D01*
X+6632658Y-9386245D01*
X+6671203Y-9347700D01*
X+6725713Y-9347700D01*
X+6764258Y-9386245D01*
X+6764258Y-9440755D01*
X+6725713Y-9479300D01*
X+7225713Y-9479300D02*
X+7171203Y-9479300D01*
X+7132658Y-9440755D01*
X+7132658Y-9386245D01*
X+7171203Y-9347700D01*
X+7225713Y-9347700D01*
X+7264258Y-9386245D01*
X+7264258Y-9440755D01*
X+7225713Y-9479300D01*
X+7475713Y-9479300D02*
X+7421203Y-9479300D01*
X+7382658Y-9440755D01*
X+7382658Y-9386245D01*
X+7421203Y-9347700D01*
X+7475713Y-9347700D01*
X+7514258Y-9386245D01*
X+7514258Y-9440755D01*
X+7475713Y-9479300D01*
X+7725713Y-9479300D02*
X+7671203Y-9479300D01*
X+7632658Y-9440755D01*
X+7632658Y-9386245D01*
X+7671203Y-9347700D01*
X+7725713Y-9347700D01*
X+7764258Y-9386245D01*
X+7764258Y-9440755D01*
X+7725713Y-9479300D01*
X+7975713Y-9479300D02*
X+7921203Y-9479300D01*
X+7882658Y-9440755D01*
X+7882658Y-9386245D01*
X+7921203Y-9347700D01*
X+7975713Y-9347700D01*
X+8014258Y-9386245D01*
X+8014258Y-9440755D01*
X+7975713Y-9479300D01*
X+8225713Y-9479300D02*
X+8171203Y-9479300D01*
X+8132658Y-9440755D01*
X+8132658Y-9386245D01*
X+8171203Y-9347700D01*
X+8225713Y-9347700D01*
X+8264258Y-9386245D01*
X+8264258Y-9440755D01*
X+8225713Y-9479300D01*
X+8725713Y-9479300D02*
X+8671203Y-9479300D01*
X+8632658Y-9440755D01*
X+8632658Y-9386245D01*
X+8671203Y-9347700D01*
X+8725713Y-9347700D01*
X+8764258Y-9386245D01*
X+8764258Y-9440755D01*
X+8725713Y-9479300D01*
X+9727255Y-3465800D02*
X+9672745Y-3465800D01*
X+9634200Y-3427255D01*
X+9634200Y-3372745D01*
X+9672745Y-3334200D01*
X+9727255Y-3334200D01*
X+9765800Y-3372745D01*
X+9765800Y-3427255D01*
X+9727255Y-3465800D01*
X+9727255Y-6515800D02*
X+9672745Y-6515800D01*
X+9634200Y-6477255D01*
X+9634200Y-6422745D01*
X+9672745Y-6384200D01*
X+9727255Y-6384200D01*
X+9765800Y-6422745D01*
X+9765800Y-6477255D01*
X+9727255Y-6515800D01*
X+9375000Y-522487D02*
X+9375000Y-377513D01*
X+9477513Y-275000D01*
X+9622487Y-275000D01*
X+9725000Y-377513D01*
X+9725000Y-522487D01*
X+9622487Y-625000D01*
X+9477513Y-625000D01*
X+9375000Y-522487D01*
X+9375000Y-9472487D02*
X+9375000Y-9327513D01*
X+9477513Y-9225000D01*
X+9622487Y-9225000D01*
X+9725000Y-9327513D01*
X+9725000Y-9472487D01*
X+9622487Y-9575000D01*
X+9477513Y-9575000D01*
X+9375000Y-9472487D01*
X+275000Y-9472487D02*
X+275000Y-9327513D01*
X+377513Y-9225000D01*
X+522487Y-9225000D01*
X+625000Y-9327513D01*
X+625000Y-9472487D01*
X+522487Y-9575000D01*
X+377513Y-9575000D01*
X+275000Y-9472487D01*
X+7152450Y-600407D02*
X+7152450Y-519593D01*
X+7209593Y-462450D01*
X+7290407Y-462450D01*
X+7347550Y-519593D01*
X+7347550Y-600407D01*
X+7290407Y-657550D01*
X+7209593Y-657550D01*
X+7152450Y-600407D01*
X+7122748Y-2221420D02*
X+7122748Y-2283882D01*
X+7102748Y-2303882D01*
X+7102748Y-4211590D01*
X+7113383Y-4222225D01*
X+7113383Y-4284687D01*
X+7102748Y-4295322D01*
X+7102748Y-5374402D01*
X+7252947Y-5524601D01*
X+7281231Y-5524601D01*
X+7325399Y-5568769D01*
X+7325399Y-5631231D01*
X+7281231Y-5675399D01*
X+7218769Y-5675399D01*
X+7174601Y-5631231D01*
X+7174601Y-5602947D01*
X+6991950Y-5420296D01*
X+6991950Y-4314052D01*
X+6962585Y-4284687D01*
X+6962585Y-4222225D01*
X+6991950Y-4192860D01*
X+6991950Y-2303882D01*
X+6971950Y-2283882D01*
X+6971950Y-2221420D01*
X+7016118Y-2177252D01*
X+7078580Y-2177252D01*
X+7122748Y-2221420D01*
X+7375399Y-2368769D02*
X+7375399Y-2431231D01*
X+7355399Y-2451231D01*
X+7355399Y-4348769D01*
X+7375399Y-4368769D01*
X+7375399Y-4431231D01*
X+7355399Y-4451231D01*
X+7355399Y-5277052D01*
X+7555401Y-5477054D01*
X+7555401Y-5500002D01*
X+7555400Y-5548770D01*
X+7575399Y-5568769D01*
X+7575399Y-5631231D01*
X+7531231Y-5675399D01*
X+7468769Y-5675399D01*
X+7424601Y-5631231D01*
X+7424601Y-5568769D01*
X+7444602Y-5548768D01*
X+7444602Y-5522947D01*
X+7244601Y-5322946D01*
X+7244601Y-4451231D01*
X+7224601Y-4431231D01*
X+7224601Y-4368769D01*
X+7244601Y-4348769D01*
X+7244601Y-2451231D01*
X+7224601Y-2431231D01*
X+7224601Y-2368769D01*
X+7268769Y-2324601D01*
X+7331231Y-2324601D01*
X+7375399Y-2368769D01*
X+1064378Y-289352D02*
X+1037666Y-316064D01*
X+1037666Y-408001D01*
X+941182Y-408001D01*
X+858001Y-491182D01*
X+858001Y-539965D01*
X+757851Y-640115D01*
X+757851Y-979885D01*
X+1593253Y-1815287D01*
X+1593253Y-3585214D01*
X+1561503Y-3616964D01*
X+1561503Y-3703036D01*
X+1593253Y-3734786D01*
X+1593253Y-6154713D01*
X+1020115Y-6727851D01*
X+568081Y-6727851D01*
X+113500Y-7182432D01*
X+113500Y-452699D01*
X+119765Y-379120D01*
X+136927Y-314340D01*
X+163845Y-256819D01*
X+199134Y-207698D01*
X+241430Y-168011D01*
X+291018Y-137701D01*
X+315401Y-127728D01*
X+342489Y-119985D01*
X+370691Y-115225D01*
X+401762Y-113500D01*
X+1240230Y-113500D01*
X+1064378Y-289352D01*
X+347500Y-1563168D02*
X+347500Y-1436832D01*
X+436832Y-1347500D01*
X+563168Y-1347500D01*
X+652500Y-1436832D01*
X+652500Y-1563168D01*
X+563168Y-1652500D01*
X+436832Y-1652500D01*
X+347500Y-1563168D01*
X+347500Y-6363168D02*
X+347500Y-6236832D01*
X+436832Y-6147500D01*
X+563168Y-6147500D01*
X+652500Y-6236832D01*
X+652500Y-6363168D01*
X+563168Y-6452500D01*
X+436832Y-6452500D01*
X+347500Y-6363168D01*
X+887279Y-2890000D02*
X+812721Y-2890000D01*
X+760000Y-2837279D01*
X+760000Y-2762721D01*
X+812721Y-2710000D01*
X+887279Y-2710000D01*
X+940000Y-2762721D01*
X+940000Y-2837279D01*
X+887279Y-2890000D01*
X+887279Y-4590000D02*
X+812721Y-4590000D01*
X+760000Y-4537279D01*
X+760000Y-4462721D01*
X+812721Y-4410000D01*
X+887279Y-4410000D01*
X+940000Y-4462721D01*
X+940000Y-4537279D01*
X+887279Y-4590000D01*
X+637279Y-3740000D02*
X+562721Y-3740000D01*
X+510000Y-3687279D01*
X+510000Y-3612721D01*
X+562721Y-3560000D01*
X+637279Y-3560000D01*
X+690000Y-3612721D01*
X+690000Y-3687279D01*
X+637279Y-3740000D01*
X+275000Y-522487D02*
X+275000Y-377513D01*
X+377513Y-275000D01*
X+522487Y-275000D01*
X+625000Y-377513D01*
X+625000Y-522487D01*
X+522487Y-625000D01*
X+377513Y-625000D01*
X+275000Y-522487D01*
X+1195182Y-691999D02*
X+1201105Y-691999D01*
X+1137401Y-755703D01*
X+1137401Y-839367D01*
X+1135649Y-837615D01*
X+1135649Y-668351D01*
X+1082466Y-668351D01*
X+1108392Y-642425D01*
X+1145608Y-642425D01*
X+1195182Y-691999D01*
X+1756711Y-1670287D02*
X+1756711Y-3604374D01*
X+1737551Y-3585214D01*
X+1737551Y-1755517D01*
X+921683Y-939649D01*
X+1026073Y-939649D01*
X+1756711Y-1670287D01*
X+1756711Y-6441255D02*
X+1220115Y-6977851D01*
X+522149Y-6977851D01*
X+627851Y-6872149D01*
X+1079885Y-6872149D01*
X+1737551Y-6214483D01*
X+1737551Y-3734786D01*
X+1756711Y-3715626D01*
X+1756711Y-6441255D01*
X+773059Y-7679136D02*
X+773059Y-7773653D01*
X+690457Y-7691051D01*
X+690457Y-7596534D01*
X+773059Y-7679136D01*
X+232856Y-8399932D02*
X+368573Y-8535649D01*
X+575627Y-8535649D01*
X+595167Y-8555189D01*
X+216770Y-8555189D01*
X+216770Y-8383846D01*
X+232856Y-8399932D01*
X+3643059Y-8763501D02*
X+3503857Y-8763501D01*
X+3503857Y-8318244D01*
X+3433857Y-8248244D01*
X+3433857Y-8059499D01*
X+3643059Y-8059499D01*
X+3643059Y-8763501D01*
X+3575713Y-8237300D02*
X+3521203Y-8237300D01*
X+3482658Y-8198755D01*
X+3482658Y-8144245D01*
X+3521203Y-8105700D01*
X+3575713Y-8105700D01*
X+3614258Y-8144245D01*
X+3614258Y-8198755D01*
X+3575713Y-8237300D01*
X+2893059Y-8367023D02*
X+2893059Y-8763501D01*
X+2753857Y-8763501D01*
X+2753857Y-8227821D01*
X+2893059Y-8367023D01*
X+1243359Y-8763501D02*
X+1236805Y-8763501D01*
X+783857Y-8310553D01*
X+783857Y-8303999D01*
X+1243359Y-8763501D01*
X+5644601Y-3751542D02*
X+5644601Y-3774489D01*
X+5963059Y-4092947D01*
X+5963059Y-4106256D01*
X+5509292Y-3652489D01*
X+5509292Y-906188D01*
X+5523703Y-920599D01*
X+5620297Y-920599D01*
X+5644601Y-896295D01*
X+5644601Y-3751542D01*
X+5760827Y-3289173D02*
X+5877053Y-3405399D01*
X+6335511Y-3405399D01*
X+6354713Y-3424601D01*
X+6318769Y-3424601D01*
X+6275000Y-3468370D01*
X+6231231Y-3424601D01*
X+6168769Y-3424601D01*
X+6124601Y-3468769D01*
X+6124601Y-3531231D01*
X+6143059Y-3549689D01*
X+6143059Y-3716255D01*
X+6103857Y-3677053D01*
X+6103857Y-3652773D01*
X+6125399Y-3631231D01*
X+6125399Y-3568769D01*
X+6081231Y-3524601D01*
X+6018769Y-3524601D01*
X+5975000Y-3568370D01*
X+5931231Y-3524601D01*
X+5868769Y-3524601D01*
X+5824601Y-3568769D01*
X+5824601Y-3631231D01*
X+5843059Y-3649689D01*
X+5843059Y-3772947D01*
X+6093059Y-4022947D01*
X+6093059Y-5509759D01*
X+6073857Y-5490557D01*
X+6073857Y-4047053D01*
X+5755399Y-3728595D01*
X+5755399Y-3283745D01*
X+5760827Y-3289173D01*
X+6443059Y-3512947D02*
X+6443059Y-3716255D01*
X+6403857Y-3677053D01*
X+6403857Y-3552773D01*
X+6425399Y-3531231D01*
X+6425399Y-3495287D01*
X+6443059Y-3512947D01*
X+6293059Y-3549689D02*
X+6293059Y-3716255D01*
X+6253857Y-3677053D01*
X+6253857Y-3552773D01*
X+6275000Y-3531630D01*
X+6293059Y-3549689D01*
X+5398494Y-3675436D02*
X+5398494Y-3698383D01*
X+5853059Y-4152948D01*
X+5853059Y-4176255D01*
X+5371857Y-3695053D01*
X+5371857Y-915039D01*
X+5398494Y-888402D01*
X+5398494Y-3675436D01*
X+6363059Y-3942947D02*
X+6363059Y-5486255D01*
X+6323857Y-5447053D01*
X+6323857Y-3903745D01*
X+6363059Y-3942947D01*
X+5993059Y-3649689D02*
X+5993059Y-3722947D01*
X+6213059Y-3942947D01*
X+6213059Y-5486255D01*
X+6203857Y-5477053D01*
X+6203857Y-3977053D01*
X+5953857Y-3727053D01*
X+5953857Y-3652773D01*
X+5975000Y-3631630D01*
X+5993059Y-3649689D01*
X+6673059Y-3952947D02*
X+6673059Y-5496255D01*
X+6643857Y-5467053D01*
X+6643857Y-3923745D01*
X+6673059Y-3952947D01*
X+6533059Y-3962947D02*
X+6533059Y-5506255D01*
X+6473857Y-5447053D01*
X+6473857Y-3903745D01*
X+6533059Y-3962947D01*
X+4643059Y-5736429D02*
X+4631231Y-5724601D01*
X+4568769Y-5724601D01*
X+4524601Y-5768769D01*
X+4524601Y-5795511D01*
X+4213059Y-6107053D01*
X+4213059Y-7267501D01*
X+4153857Y-7267501D01*
X+4153857Y-6122947D01*
X+4601405Y-5675399D01*
X+4631231Y-5675399D01*
X+4643059Y-5663571D01*
X+4643059Y-5736429D01*
X+4524601Y-5595511D02*
X+4043059Y-6077053D01*
X+4043059Y-7267501D01*
X+4009366Y-7267501D01*
X+4009366Y-6087438D01*
X+4524601Y-5572203D01*
X+4524601Y-5595511D01*
X+6793059Y-6222947D02*
X+6793059Y-7090553D01*
X+6603857Y-7279755D01*
X+6603857Y-7186447D01*
X+6753857Y-7036447D01*
X+6753857Y-6183745D01*
X+6793059Y-6222947D01*
X+7143059Y-6272947D02*
X+7143059Y-7240553D01*
X+7053857Y-7329755D01*
X+7053857Y-6183745D01*
X+7143059Y-6272947D01*
X+7557521Y-6387409D02*
X+7557521Y-8180908D01*
X+8140114Y-8763501D01*
X+8003857Y-8763501D01*
X+8003857Y-8690552D01*
X+7550133Y-8236828D01*
X+7550133Y-6380021D01*
X+7557521Y-6387409D01*
X+7439335Y-6419223D02*
X+7439335Y-7371501D01*
X+7206459Y-7371501D01*
X+7206459Y-7909499D01*
X+7439335Y-7909499D01*
X+7439335Y-8282722D01*
X+7893059Y-8736446D01*
X+7893059Y-8763501D01*
X+7753857Y-8763501D01*
X+7753857Y-8740554D01*
X+7153857Y-8140554D01*
X+7153857Y-7386447D01*
X+7253857Y-7286447D01*
X+7253857Y-6233745D01*
X+7439335Y-6419223D01*
X+7375713Y-8087300D02*
X+7321203Y-8087300D01*
X+7282658Y-8048755D01*
X+7282658Y-7994245D01*
X+7321203Y-7955700D01*
X+7375713Y-7955700D01*
X+7414258Y-7994245D01*
X+7414258Y-8048755D01*
X+7375713Y-8087300D01*
X+7059285Y-8202674D02*
X+7620112Y-8763501D01*
X+7503857Y-8763501D01*
X+7503857Y-8730553D01*
X+7048402Y-8275098D01*
X+7048402Y-8191791D01*
X+7059285Y-8202674D01*
X+6943059Y-6222947D02*
X+6943059Y-7365784D01*
X+6937604Y-7371239D01*
X+6937604Y-7371501D01*
X+6706459Y-7371501D01*
X+6706459Y-7909499D01*
X+6937604Y-7909499D01*
X+6937604Y-8320992D01*
X+7380113Y-8763501D01*
X+7253857Y-8763501D01*
X+7253857Y-8740553D01*
X+6703857Y-8190553D01*
X+6703857Y-7336447D01*
X+6903857Y-7136447D01*
X+6903857Y-6183745D01*
X+6943059Y-6222947D01*
X+6875713Y-8087300D02*
X+6821203Y-8087300D01*
X+6782658Y-8048755D01*
X+6782658Y-7994245D01*
X+6821203Y-7955700D01*
X+6875713Y-7955700D01*
X+6914258Y-7994245D01*
X+6914258Y-8048755D01*
X+6875713Y-8087300D01*
X+5979285Y-5552677D02*
X+6643059Y-6216451D01*
X+6643059Y-6990553D01*
X+6493059Y-7140553D01*
X+6493059Y-8546447D01*
X+6643059Y-8696447D01*
X+6643059Y-8763501D01*
X+6493857Y-8763501D01*
X+6493857Y-8560553D01*
X+6203857Y-8270553D01*
X+6203857Y-7040553D01*
X+5963857Y-6800553D01*
X+5963857Y-5537249D01*
X+5979285Y-5552677D01*
X+6147500Y-6363168D02*
X+6147500Y-6236832D01*
X+6236832Y-6147500D01*
X+6363168Y-6147500D01*
X+6452500Y-6236832D01*
X+6452500Y-6363168D01*
X+6363168Y-6452500D01*
X+6236832Y-6452500D01*
X+6147500Y-6363168D01*
X+6375713Y-8087300D02*
X+6321203Y-8087300D01*
X+6282658Y-8048755D01*
X+6282658Y-7994245D01*
X+6321203Y-7955700D01*
X+6375713Y-7955700D01*
X+6414258Y-7994245D01*
X+6414258Y-8048755D01*
X+6375713Y-8087300D01*
X+6490457Y-7655499D02*
X+6490457Y-7909499D01*
X+6206459Y-7909499D01*
X+6206459Y-7371501D01*
X+6490457Y-7371501D01*
X+6490457Y-7655499D01*
X+6383059Y-8606447D02*
X+6383059Y-8763501D01*
X+6253857Y-8763501D01*
X+6253857Y-8530553D01*
X+6103857Y-8380553D01*
X+6103857Y-8327245D01*
X+6383059Y-8606447D01*
X+5993059Y-7136447D02*
X+5993059Y-8426447D01*
X+6143059Y-8576447D01*
X+6143059Y-8763501D01*
X+6003857Y-8763501D01*
X+6003857Y-8630553D01*
X+5753857Y-8380553D01*
X+5753857Y-7909499D01*
X+5990457Y-7909499D01*
X+5990457Y-7371501D01*
X+5753857Y-7371501D01*
X+5753857Y-6897245D01*
X+5993059Y-7136447D01*
X+5875713Y-8087300D02*
X+5821203Y-8087300D01*
X+5782658Y-8048755D01*
X+5782658Y-7994245D01*
X+5821203Y-7955700D01*
X+5875713Y-7955700D01*
X+5914258Y-7994245D01*
X+5914258Y-8048755D01*
X+5875713Y-8087300D01*
X+5643059Y-4749689D02*
X+5643059Y-8426447D01*
X+5893059Y-8676447D01*
X+5893059Y-8763501D01*
X+5753857Y-8763501D01*
X+5753857Y-8650553D01*
X+5603857Y-8500553D01*
X+5603857Y-4802773D01*
X+5625399Y-4781231D01*
X+5625399Y-4732029D01*
X+5643059Y-4749689D01*
X+4983059Y-8250553D02*
X+4893059Y-8340553D01*
X+4893059Y-8763501D01*
X+4753857Y-8763501D01*
X+4753857Y-7909499D01*
X+4983059Y-7909499D01*
X+4983059Y-8250553D01*
X+4875713Y-8087300D02*
X+4821203Y-8087300D01*
X+4782658Y-8048755D01*
X+4782658Y-7994245D01*
X+4821203Y-7955700D01*
X+4875713Y-7955700D01*
X+4914258Y-7994245D01*
X+4914258Y-8048755D01*
X+4875713Y-8087300D01*
X+4643059Y-8763501D02*
X+4503857Y-8763501D01*
X+4503857Y-8690553D01*
X+4371405Y-8558101D01*
X+4121405Y-8558101D01*
X+4009366Y-8446062D01*
X+4009366Y-8059499D01*
X+4240457Y-8059499D01*
X+4240457Y-7649847D01*
X+4323857Y-7566447D01*
X+4323857Y-6152947D01*
X+4601405Y-5875399D01*
X+4631231Y-5875399D01*
X+4643059Y-5863571D01*
X+4643059Y-8763501D01*
X+4125713Y-8237300D02*
X+4071203Y-8237300D01*
X+4032658Y-8198755D01*
X+4032658Y-8144245D01*
X+4071203Y-8105700D01*
X+4125713Y-8105700D01*
X+4164258Y-8144245D01*
X+4164258Y-8198755D01*
X+4125713Y-8237300D01*
X+347500Y-1500000D02*
X+500000Y-1500000D01*
X+652500Y-1500000D02*
X+500000Y-1500000D01*
X+500000Y-1652500D02*
X+500000Y-1500000D01*
X+500000Y-1347500D02*
X+500000Y-1500000D01*
X+6147500Y-1500000D02*
X+6300000Y-1500000D01*
X+6452500Y-1500000D02*
X+6300000Y-1500000D01*
X+6300000Y-1652500D02*
X+6300000Y-1500000D01*
X+6300000Y-1347500D02*
X+6300000Y-1500000D01*
X+6147500Y-6300000D02*
X+6300000Y-6300000D01*
X+6452500Y-6300000D02*
X+6300000Y-6300000D01*
X+6300000Y-6452500D02*
X+6300000Y-6300000D01*
X+6300000Y-6147500D02*
X+6300000Y-6300000D01*
X+347500Y-6300000D02*
X+500000Y-6300000D01*
X+652500Y-6300000D02*
X+500000Y-6300000D01*
X+500000Y-6452500D02*
X+500000Y-6300000D01*
X+500000Y-6147500D02*
X+500000Y-6300000D01*
X+1950200Y-804000D02*
X+2016000Y-804000D01*
X+2081800Y-804000D02*
X+2016000Y-804000D01*
X+2016000Y-869800D02*
X+2016000Y-804000D01*
X+2016000Y-738200D02*
X+2016000Y-804000D01*
X+3982200Y-804000D02*
X+4048000Y-804000D01*
X+4113800Y-804000D02*
X+4048000Y-804000D01*
X+4048000Y-869800D02*
X+4048000Y-804000D01*
X+4048000Y-738200D02*
X+4048000Y-804000D01*
X+5760200Y-804000D02*
X+5826000Y-804000D01*
X+5891800Y-804000D02*
X+5826000Y-804000D01*
X+5826000Y-869800D02*
X+5826000Y-804000D01*
X+5826000Y-738200D02*
X+5826000Y-804000D01*
X+4998200Y-550000D02*
X+5064000Y-550000D01*
X+5129800Y-550000D02*
X+5064000Y-550000D01*
X+5064000Y-615800D02*
X+5064000Y-550000D01*
X+5064000Y-484200D02*
X+5064000Y-550000D01*
X+4490200Y-550000D02*
X+4556000Y-550000D01*
X+4621800Y-550000D02*
X+4556000Y-550000D01*
X+4556000Y-615800D02*
X+4556000Y-550000D01*
X+4556000Y-484200D02*
X+4556000Y-550000D01*
X+3220200Y-550000D02*
X+3286000Y-550000D01*
X+3351800Y-550000D02*
X+3286000Y-550000D01*
X+3286000Y-615800D02*
X+3286000Y-550000D01*
X+3286000Y-484200D02*
X+3286000Y-550000D01*
X+2458200Y-550000D02*
X+2524000Y-550000D01*
X+2589800Y-550000D02*
X+2524000Y-550000D01*
X+2524000Y-615800D02*
X+2524000Y-550000D01*
X+2524000Y-484200D02*
X+2524000Y-550000D01*
X+1442200Y-550000D02*
X+1508000Y-550000D01*
X+1573800Y-550000D02*
X+1508000Y-550000D01*
X+1508000Y-615800D02*
X+1508000Y-550000D01*
X+1508000Y-484200D02*
X+1508000Y-550000D01*
X+850000Y-2890000D02*
X+850000Y-2800000D01*
X+850000Y-2710000D02*
X+850000Y-2800000D01*
X+940000Y-2800000D02*
X+850000Y-2800000D01*
X+760000Y-2800000D02*
X+850000Y-2800000D01*
X+850000Y-4590000D02*
X+850000Y-4500000D01*
X+850000Y-4410000D02*
X+850000Y-4500000D01*
X+940000Y-4500000D02*
X+850000Y-4500000D01*
X+760000Y-4500000D02*
X+850000Y-4500000D01*
X+2200000Y-3740000D02*
X+2200000Y-3650000D01*
X+2200000Y-3560000D02*
X+2200000Y-3650000D01*
X+2290000Y-3650000D02*
X+2200000Y-3650000D01*
X+2110000Y-3650000D02*
X+2200000Y-3650000D01*
X+600000Y-3740000D02*
X+600000Y-3650000D01*
X+600000Y-3560000D02*
X+600000Y-3650000D01*
X+690000Y-3650000D02*
X+600000Y-3650000D01*
X+510000Y-3650000D02*
X+600000Y-3650000D01*
X+548458Y-8237300D02*
X+548458Y-8171500D01*
X+548458Y-8105700D02*
X+548458Y-8171500D01*
X+614258Y-8171500D02*
X+548458Y-8171500D01*
X+482658Y-8171500D02*
X+548458Y-8171500D01*
X+1048458Y-8237300D02*
X+1048458Y-8171500D01*
X+1048458Y-8105700D02*
X+1048458Y-8171500D01*
X+1114258Y-8171500D02*
X+1048458Y-8171500D01*
X+982658Y-8171500D02*
X+1048458Y-8171500D01*
X+1548458Y-8237300D02*
X+1548458Y-8171500D01*
X+1548458Y-8105700D02*
X+1548458Y-8171500D01*
X+1614258Y-8171500D02*
X+1548458Y-8171500D01*
X+1482658Y-8171500D02*
X+1548458Y-8171500D01*
X+2048458Y-8237300D02*
X+2048458Y-8171500D01*
X+2048458Y-8105700D02*
X+2048458Y-8171500D01*
X+2114258Y-8171500D02*
X+2048458Y-8171500D01*
X+1982658Y-8171500D02*
X+2048458Y-8171500D01*
X+2548458Y-8237300D02*
X+2548458Y-8171500D01*
X+2548458Y-8105700D02*
X+2548458Y-8171500D01*
X+2614258Y-8171500D02*
X+2548458Y-8171500D01*
X+2482658Y-8171500D02*
X+2548458Y-8171500D01*
X+3048458Y-8237300D02*
X+3048458Y-8171500D01*
X+3048458Y-8105700D02*
X+3048458Y-8171500D01*
X+3114258Y-8171500D02*
X+3048458Y-8171500D01*
X+2982658Y-8171500D02*
X+3048458Y-8171500D01*
X+3548458Y-8237300D02*
X+3548458Y-8171500D01*
X+3548458Y-8105700D02*
X+3548458Y-8171500D01*
X+3614258Y-8171500D02*
X+3548458Y-8171500D01*
X+3482658Y-8171500D02*
X+3548458Y-8171500D01*
X+4098458Y-8237300D02*
X+4098458Y-8171500D01*
X+4098458Y-8105700D02*
X+4098458Y-8171500D01*
X+4164258Y-8171500D02*
X+4098458Y-8171500D01*
X+4032658Y-8171500D02*
X+4098458Y-8171500D01*
X+4848458Y-8087300D02*
X+4848458Y-8021500D01*
X+4848458Y-7955700D02*
X+4848458Y-8021500D01*
X+4914258Y-8021500D02*
X+4848458Y-8021500D01*
X+4782658Y-8021500D02*
X+4848458Y-8021500D01*
X+5348458Y-8087300D02*
X+5348458Y-8021500D01*
X+5348458Y-7955700D02*
X+5348458Y-8021500D01*
X+5414258Y-8021500D02*
X+5348458Y-8021500D01*
X+5282658Y-8021500D02*
X+5348458Y-8021500D01*
X+5848458Y-8087300D02*
X+5848458Y-8021500D01*
X+5848458Y-7955700D02*
X+5848458Y-8021500D01*
X+5914258Y-8021500D02*
X+5848458Y-8021500D01*
X+5782658Y-8021500D02*
X+5848458Y-8021500D01*
X+6348458Y-8087300D02*
X+6348458Y-8021500D01*
X+6348458Y-7955700D02*
X+6348458Y-8021500D01*
X+6414258Y-8021500D02*
X+6348458Y-8021500D01*
X+6282658Y-8021500D02*
X+6348458Y-8021500D01*
X+6848458Y-8087300D02*
X+6848458Y-8021500D01*
X+6848458Y-7955700D02*
X+6848458Y-8021500D01*
X+6914258Y-8021500D02*
X+6848458Y-8021500D01*
X+6782658Y-8021500D02*
X+6848458Y-8021500D01*
X+7348458Y-8087300D02*
X+7348458Y-8021500D01*
X+7348458Y-7955700D02*
X+7348458Y-8021500D01*
X+7414258Y-8021500D02*
X+7348458Y-8021500D01*
X+7282658Y-8021500D02*
X+7348458Y-8021500D01*
X+7848458Y-8087300D02*
X+7848458Y-8021500D01*
X+7848458Y-7955700D02*
X+7848458Y-8021500D01*
X+7914258Y-8021500D02*
X+7848458Y-8021500D01*
X+7782658Y-8021500D02*
X+7848458Y-8021500D01*
X+8398458Y-8087300D02*
X+8398458Y-8021500D01*
X+8398458Y-7955700D02*
X+8398458Y-8021500D01*
X+8464258Y-8021500D02*
X+8398458Y-8021500D01*
X+8332658Y-8021500D02*
X+8398458Y-8021500D01*
X+1198458Y-9479300D02*
X+1198458Y-9413500D01*
X+1198458Y-9347700D02*
X+1198458Y-9413500D01*
X+1264258Y-9413500D02*
X+1198458Y-9413500D01*
X+1132658Y-9413500D02*
X+1198458Y-9413500D01*
X+1448458Y-9479300D02*
X+1448458Y-9413500D01*
X+1448458Y-9347700D02*
X+1448458Y-9413500D01*
X+1514258Y-9413500D02*
X+1448458Y-9413500D01*
X+1382658Y-9413500D02*
X+1448458Y-9413500D01*
X+1698458Y-9479300D02*
X+1698458Y-9413500D01*
X+1698458Y-9347700D02*
X+1698458Y-9413500D01*
X+1764258Y-9413500D02*
X+1698458Y-9413500D01*
X+1632658Y-9413500D02*
X+1698458Y-9413500D01*
X+1948458Y-9479300D02*
X+1948458Y-9413500D01*
X+1948458Y-9347700D02*
X+1948458Y-9413500D01*
X+2014258Y-9413500D02*
X+1948458Y-9413500D01*
X+1882658Y-9413500D02*
X+1948458Y-9413500D01*
X+2198458Y-9479300D02*
X+2198458Y-9413500D01*
X+2198458Y-9347700D02*
X+2198458Y-9413500D01*
X+2264258Y-9413500D02*
X+2198458Y-9413500D01*
X+2132658Y-9413500D02*
X+2198458Y-9413500D01*
X+2698458Y-9479300D02*
X+2698458Y-9413500D01*
X+2698458Y-9347700D02*
X+2698458Y-9413500D01*
X+2764258Y-9413500D02*
X+2698458Y-9413500D01*
X+2632658Y-9413500D02*
X+2698458Y-9413500D01*
X+2948458Y-9479300D02*
X+2948458Y-9413500D01*
X+2948458Y-9347700D02*
X+2948458Y-9413500D01*
X+3014258Y-9413500D02*
X+2948458Y-9413500D01*
X+2882658Y-9413500D02*
X+2948458Y-9413500D01*
X+3198458Y-9479300D02*
X+3198458Y-9413500D01*
X+3198458Y-9347700D02*
X+3198458Y-9413500D01*
X+3264258Y-9413500D02*
X+3198458Y-9413500D01*
X+3132658Y-9413500D02*
X+3198458Y-9413500D01*
X+3448458Y-9479300D02*
X+3448458Y-9413500D01*
X+3448458Y-9347700D02*
X+3448458Y-9413500D01*
X+3514258Y-9413500D02*
X+3448458Y-9413500D01*
X+3382658Y-9413500D02*
X+3448458Y-9413500D01*
X+3698458Y-9479300D02*
X+3698458Y-9413500D01*
X+3698458Y-9347700D02*
X+3698458Y-9413500D01*
X+3764258Y-9413500D02*
X+3698458Y-9413500D01*
X+3632658Y-9413500D02*
X+3698458Y-9413500D01*
X+4198458Y-9479300D02*
X+4198458Y-9413500D01*
X+4198458Y-9347700D02*
X+4198458Y-9413500D01*
X+4264258Y-9413500D02*
X+4198458Y-9413500D01*
X+4132658Y-9413500D02*
X+4198458Y-9413500D01*
X+4448458Y-9479300D02*
X+4448458Y-9413500D01*
X+4448458Y-9347700D02*
X+4448458Y-9413500D01*
X+4514258Y-9413500D02*
X+4448458Y-9413500D01*
X+4382658Y-9413500D02*
X+4448458Y-9413500D01*
X+4698458Y-9479300D02*
X+4698458Y-9413500D01*
X+4698458Y-9347700D02*
X+4698458Y-9413500D01*
X+4764258Y-9413500D02*
X+4698458Y-9413500D01*
X+4632658Y-9413500D02*
X+4698458Y-9413500D01*
X+4948458Y-9479300D02*
X+4948458Y-9413500D01*
X+4948458Y-9347700D02*
X+4948458Y-9413500D01*
X+5014258Y-9413500D02*
X+4948458Y-9413500D01*
X+4882658Y-9413500D02*
X+4948458Y-9413500D01*
X+5198458Y-9479300D02*
X+5198458Y-9413500D01*
X+5198458Y-9347700D02*
X+5198458Y-9413500D01*
X+5264258Y-9413500D02*
X+5198458Y-9413500D01*
X+5132658Y-9413500D02*
X+5198458Y-9413500D01*
X+5698458Y-9479300D02*
X+5698458Y-9413500D01*
X+5698458Y-9347700D02*
X+5698458Y-9413500D01*
X+5764258Y-9413500D02*
X+5698458Y-9413500D01*
X+5632658Y-9413500D02*
X+5698458Y-9413500D01*
X+5948458Y-9479300D02*
X+5948458Y-9413500D01*
X+5948458Y-9347700D02*
X+5948458Y-9413500D01*
X+6014258Y-9413500D02*
X+5948458Y-9413500D01*
X+5882658Y-9413500D02*
X+5948458Y-9413500D01*
X+6198458Y-9479300D02*
X+6198458Y-9413500D01*
X+6198458Y-9347700D02*
X+6198458Y-9413500D01*
X+6264258Y-9413500D02*
X+6198458Y-9413500D01*
X+6132658Y-9413500D02*
X+6198458Y-9413500D01*
X+6448458Y-9479300D02*
X+6448458Y-9413500D01*
X+6448458Y-9347700D02*
X+6448458Y-9413500D01*
X+6514258Y-9413500D02*
X+6448458Y-9413500D01*
X+6382658Y-9413500D02*
X+6448458Y-9413500D01*
X+6698458Y-9479300D02*
X+6698458Y-9413500D01*
X+6698458Y-9347700D02*
X+6698458Y-9413500D01*
X+6764258Y-9413500D02*
X+6698458Y-9413500D01*
X+6632658Y-9413500D02*
X+6698458Y-9413500D01*
X+7198458Y-9479300D02*
X+7198458Y-9413500D01*
X+7198458Y-9347700D02*
X+7198458Y-9413500D01*
X+7264258Y-9413500D02*
X+7198458Y-9413500D01*
X+7132658Y-9413500D02*
X+7198458Y-9413500D01*
X+7448458Y-9479300D02*
X+7448458Y-9413500D01*
X+7448458Y-9347700D02*
X+7448458Y-9413500D01*
X+7514258Y-9413500D02*
X+7448458Y-9413500D01*
X+7382658Y-9413500D02*
X+7448458Y-9413500D01*
X+7698458Y-9479300D02*
X+7698458Y-9413500D01*
X+7698458Y-9347700D02*
X+7698458Y-9413500D01*
X+7764258Y-9413500D02*
X+7698458Y-9413500D01*
X+7632658Y-9413500D02*
X+7698458Y-9413500D01*
X+7948458Y-9479300D02*
X+7948458Y-9413500D01*
X+7948458Y-9347700D02*
X+7948458Y-9413500D01*
X+8014258Y-9413500D02*
X+7948458Y-9413500D01*
X+7882658Y-9413500D02*
X+7948458Y-9413500D01*
X+8198458Y-9479300D02*
X+8198458Y-9413500D01*
X+8198458Y-9347700D02*
X+8198458Y-9413500D01*
X+8264258Y-9413500D02*
X+8198458Y-9413500D01*
X+8132658Y-9413500D02*
X+8198458Y-9413500D01*
X+8698458Y-9479300D02*
X+8698458Y-9413500D01*
X+8698458Y-9347700D02*
X+8698458Y-9413500D01*
X+8764258Y-9413500D02*
X+8698458Y-9413500D01*
X+8632658Y-9413500D02*
X+8698458Y-9413500D01*
X+9700000Y-3465800D02*
X+9700000Y-3400000D01*
X+9700000Y-3334200D02*
X+9700000Y-3400000D01*
X+9765800Y-3400000D02*
X+9700000Y-3400000D01*
X+9634200Y-3400000D02*
X+9700000Y-3400000D01*
X+9700000Y-6515800D02*
X+9700000Y-6450000D01*
X+9700000Y-6384200D02*
X+9700000Y-6450000D01*
X+9765800Y-6450000D02*
X+9700000Y-6450000D01*
X+9634200Y-6450000D02*
X+9700000Y-6450000D01*
X+275000Y-450000D02*
X+450000Y-450000D01*
X+625000Y-450000D02*
X+450000Y-450000D01*
X+450000Y-625000D02*
X+450000Y-450000D01*
X+450000Y-275000D02*
X+450000Y-450000D01*
X+9375000Y-450000D02*
X+9550000Y-450000D01*
X+9725000Y-450000D02*
X+9550000Y-450000D01*
X+9550000Y-625000D02*
X+9550000Y-450000D01*
X+9550000Y-275000D02*
X+9550000Y-450000D01*
X+9375000Y-9400000D02*
X+9550000Y-9400000D01*
X+9725000Y-9400000D02*
X+9550000Y-9400000D01*
X+9550000Y-9575000D02*
X+9550000Y-9400000D01*
X+9550000Y-9225000D02*
X+9550000Y-9400000D01*
X+275000Y-9400000D02*
X+450000Y-9400000D01*
X+625000Y-9400000D02*
X+450000Y-9400000D01*
X+450000Y-9575000D02*
X+450000Y-9400000D01*
X+450000Y-9225000D02*
X+450000Y-9400000D01*
X+7152450Y-560000D02*
X+7250000Y-560000D01*
X+7347550Y-560000D02*
X+7250000Y-560000D01*
X+7250000Y-657550D02*
X+7250000Y-560000D01*
X+7250000Y-462450D02*
X+7250000Y-560000D01*
D15*
X+500000Y-1500000D03*
X+6300000Y-1500000D03*
X+6300000Y-6300000D03*
X+500000Y-6300000D03*
D16*
X+1000000Y-804000D03*
D17*
X+1254000Y-804000D03*
X+1508000Y-804000D03*
X+1762000Y-804000D03*
X+2016000Y-804000D03*
X+2270000Y-804000D03*
X+2524000Y-804000D03*
X+2778000Y-804000D03*
X+3032000Y-804000D03*
X+3286000Y-804000D03*
X+3540000Y-804000D03*
X+3794000Y-804000D03*
X+4048000Y-804000D03*
X+4302000Y-804000D03*
X+4556000Y-804000D03*
X+4810000Y-804000D03*
X+5064000Y-804000D03*
X+5318000Y-804000D03*
X+5572000Y-804000D03*
X+5826000Y-804000D03*
X+5826000Y-550000D03*
X+5572000Y-550000D03*
X+5318000Y-550000D03*
X+5064000Y-550000D03*
X+4810000Y-550000D03*
X+4556000Y-550000D03*
X+4302000Y-550000D03*
X+4048000Y-550000D03*
X+3794000Y-550000D03*
X+3540000Y-550000D03*
X+3286000Y-550000D03*
X+3032000Y-550000D03*
X+2778000Y-550000D03*
X+2524000Y-550000D03*
X+2270000Y-550000D03*
X+2016000Y-550000D03*
X+1762000Y-550000D03*
X+1508000Y-550000D03*
D18*
X+1254000Y-550000D03*
X+1000000Y-550000D03*
D19*
X+2600000Y-3650000D03*
D70*
X+850000Y-2800000D03*
X+850000Y-4500000D03*
X+2200000Y-3650000D03*
D19*
X+600000Y-3650000D03*
D71*
X+548458Y-8171500D03*
X+548458Y-7917500D03*
X+548458Y-7663500D03*
X+548458Y-7409500D03*
X+1048458Y-8171500D03*
X+1048458Y-7917500D03*
X+1048458Y-7663500D03*
X+1048458Y-7409500D03*
X+1548458Y-8171500D03*
X+1548458Y-7917500D03*
X+1548458Y-7663500D03*
X+1548458Y-7409500D03*
X+2048458Y-8171500D03*
X+2048458Y-7917500D03*
X+2048458Y-7663500D03*
X+2048458Y-7409500D03*
X+2548458Y-8171500D03*
X+2548458Y-7917500D03*
X+2548458Y-7663500D03*
X+2548458Y-7409500D03*
X+3048458Y-8171500D03*
X+3048458Y-7917500D03*
X+3048458Y-7663500D03*
X+3048458Y-7409500D03*
X+3548458Y-8171500D03*
X+3548458Y-7917500D03*
X+3548458Y-7663500D03*
X+3548458Y-7409500D03*
X+4098458Y-8171500D03*
X+4098458Y-7917500D03*
X+4098458Y-7663500D03*
X+4098458Y-7409500D03*
X+4848458Y-8021500D03*
X+4848458Y-7767500D03*
X+4848458Y-7513500D03*
X+5348458Y-8021500D03*
X+5348458Y-7767500D03*
X+5348458Y-7513500D03*
X+5848458Y-8021500D03*
X+5848458Y-7767500D03*
X+5848458Y-7513500D03*
X+6348458Y-8021500D03*
X+6348458Y-7767500D03*
X+6348458Y-7513500D03*
X+6848458Y-8021500D03*
X+6848458Y-7767500D03*
X+6848458Y-7513500D03*
X+7348458Y-8021500D03*
X+7348458Y-7767500D03*
X+7348458Y-7513500D03*
X+7848458Y-8021500D03*
X+7848458Y-7767500D03*
X+7848458Y-7513500D03*
X+8398458Y-8021500D03*
X+8398458Y-7767500D03*
X+8398458Y-7513500D03*
X+1198458Y-9413500D03*
X+1198458Y-9159500D03*
X+1198458Y-8905500D03*
X+1448458Y-9413500D03*
X+1448458Y-9159500D03*
X+1448458Y-8905500D03*
X+1698458Y-9413500D03*
X+1698458Y-9159500D03*
X+1698458Y-8905500D03*
X+1948458Y-9413500D03*
X+1948458Y-9159500D03*
X+1948458Y-8905500D03*
X+2198458Y-9413500D03*
X+2198458Y-9159500D03*
X+2198458Y-8905500D03*
X+2698458Y-9413500D03*
X+2698458Y-9159500D03*
X+2698458Y-8905500D03*
X+2948458Y-9413500D03*
X+2948458Y-9159500D03*
X+2948458Y-8905500D03*
X+3198458Y-9413500D03*
X+3198458Y-9159500D03*
X+3198458Y-8905500D03*
X+3448458Y-9413500D03*
X+3448458Y-9159500D03*
X+3448458Y-8905500D03*
X+3698458Y-9413500D03*
X+3698458Y-9159500D03*
X+3698458Y-8905500D03*
X+4198458Y-9413500D03*
X+4198458Y-9159500D03*
X+4198458Y-8905500D03*
X+4448458Y-9413500D03*
X+4448458Y-9159500D03*
X+4448458Y-8905500D03*
X+4698458Y-9413500D03*
X+4698458Y-9159500D03*
X+4698458Y-8905500D03*
X+4948458Y-9413500D03*
X+4948458Y-9159500D03*
X+4948458Y-8905500D03*
X+5198458Y-9413500D03*
X+5198458Y-9159500D03*
X+5198458Y-8905500D03*
X+5698458Y-9413500D03*
X+5698458Y-9159500D03*
X+5698458Y-8905500D03*
X+5948458Y-9413500D03*
X+5948458Y-9159500D03*
X+5948458Y-8905500D03*
X+6198458Y-9413500D03*
X+6198458Y-9159500D03*
X+6198458Y-8905500D03*
X+6448458Y-9413500D03*
X+6448458Y-9159500D03*
X+6448458Y-8905500D03*
X+6698458Y-9413500D03*
X+6698458Y-9159500D03*
X+6698458Y-8905500D03*
X+7198458Y-9413500D03*
X+7198458Y-9159500D03*
X+7198458Y-8905500D03*
X+7448458Y-9413500D03*
X+7448458Y-9159500D03*
X+7448458Y-8905500D03*
X+7698458Y-9413500D03*
X+7698458Y-9159500D03*
X+7698458Y-8905500D03*
X+7948458Y-9413500D03*
X+7948458Y-9159500D03*
X+7948458Y-8905500D03*
X+8198458Y-9413500D03*
X+8198458Y-9159500D03*
X+8198458Y-8905500D03*
X+8698458Y-9413500D03*
X+8698458Y-9159500D03*
X+8698458Y-8905500D03*
X+9700000Y-3400000D03*
X+9700000Y-3146000D03*
X+9700000Y-2892000D03*
X+9700000Y-2638000D03*
X+9700000Y-2384000D03*
X+9700000Y-2130000D03*
X+9700000Y-1876000D03*
X+9700000Y-1622000D03*
X+9700000Y-1368000D03*
X+9700000Y-1114000D03*
X+9700000Y-6450000D03*
X+9700000Y-6196000D03*
X+9700000Y-5942000D03*
X+9700000Y-5688000D03*
X+9700000Y-5434000D03*
X+9700000Y-5180000D03*
X+9700000Y-4926000D03*
X+9700000Y-4672000D03*
X+9700000Y-4418000D03*
X+9700000Y-4164000D03*
D20*
X+450000Y-450000D03*
X+9550000Y-450000D03*
X+9550000Y-9400000D03*
X+450000Y-9400000D03*
D28*
X+7250000Y-560000D03*
D29*
X+7758000Y-560000D03*
D71*
X+9138458Y-8703500D03*
X+9392458Y-8703500D03*
X+9646458Y-8703500D03*
X+724770Y-8697188D03*
X+470770Y-8697188D03*
X+216770Y-8697188D03*
D72*
X+400000Y-50000D02*
X+9600000Y-50000D01*
X+9950000Y-400000D02*
X+9950000Y-9400000D01*
X+50000Y-9400000D02*
X+50000Y-450000D01*
X+9600000Y-50000D02*
X+9671564Y-56964D01*
X+9737744Y-77002D01*
X+9797259Y-108832D01*
X+9848828Y-151172D01*
X+9891168Y-202740D01*
X+9922998Y-262256D01*
X+9943036Y-328436D01*
X+9950000Y-400000D01*
X+400000Y-50000D02*
X+363625Y-52020D01*
X+328436Y-57959D01*
X+294593Y-67633D01*
X+262256Y-80859D01*
X+202741Y-117236D01*
X+151172Y-165625D01*
X+108832Y-224561D01*
X+77002Y-292578D01*
X+56964Y-368213D01*
X+50000Y-450000D01*
X+450000Y-9800000D02*
X+9550000Y-9800000D01*
X+50000Y-9400000D02*
X+52020Y-9441571D01*
X+57959Y-9481787D01*
X+67633Y-9520465D01*
X+80859Y-9557422D01*
X+97455Y-9592474D01*
X+117236Y-9625439D01*
X+165625Y-9684375D01*
X+224561Y-9732764D01*
X+257526Y-9752545D01*
X+292578Y-9769141D01*
X+329535Y-9782367D01*
X+368213Y-9792041D01*
X+408429Y-9797980D01*
X+450000Y-9800000D01*
X+9550000Y-9800000D02*
X+9591571Y-9797980D01*
X+9631787Y-9792041D01*
X+9670465Y-9782367D01*
X+9707422Y-9769141D01*
X+9742474Y-9752545D01*
X+9775439Y-9732764D01*
X+9834375Y-9684375D01*
X+9882764Y-9625439D01*
X+9902545Y-9592474D01*
X+9919141Y-9557422D01*
X+9932367Y-9520465D01*
X+9942041Y-9481787D01*
X+9947980Y-9441571D01*
X+9950000Y-9400000D01*
M02*
