G04 PROTEUS RS274X GERBER FILE*
%FSLAX45Y45*%
%MOMM*%
G01*
%ADD21R,0.635000X2.032000*%
%ADD22R,1.100000X0.400000*%
%ADD23R,1.270000X1.016000*%
%ADD24R,1.016000X1.270000*%
%ADD25R,0.889000X0.939800*%
%ADD26R,2.540000X1.016000*%
%ADD27R,6.096000X2.032000*%
%ADD72C,0.203200*%
D21*
X+2940500Y-4389650D03*
X+2813500Y-4389650D03*
X+2686500Y-4389650D03*
X+2559500Y-4389650D03*
X+2559500Y-4910350D03*
X+2686500Y-4910350D03*
X+2813500Y-4910350D03*
X+2940500Y-4910350D03*
D22*
X+7150000Y-2200000D03*
X+7150000Y-2265000D03*
X+7150000Y-2330000D03*
X+7150000Y-2395000D03*
X+7150000Y-2460000D03*
X+7150000Y-2525000D03*
X+7150000Y-2590000D03*
X+7150000Y-2655000D03*
X+7150000Y-2720000D03*
X+7150000Y-2785000D03*
X+7850000Y-2785000D03*
X+7850000Y-2720000D03*
X+7850000Y-2655000D03*
X+7850000Y-2590000D03*
X+7850000Y-2525000D03*
X+7850000Y-2460000D03*
X+7850000Y-2395000D03*
X+7850000Y-2330000D03*
X+7850000Y-2265000D03*
X+7850000Y-2200000D03*
X+7150000Y-4200000D03*
X+7150000Y-4265000D03*
X+7150000Y-4330000D03*
X+7150000Y-4395000D03*
X+7150000Y-4460000D03*
X+7150000Y-4525000D03*
X+7150000Y-4590000D03*
X+7150000Y-4655000D03*
X+7150000Y-4720000D03*
X+7150000Y-4785000D03*
X+7850000Y-4785000D03*
X+7850000Y-4720000D03*
X+7850000Y-4655000D03*
X+7850000Y-4590000D03*
X+7850000Y-4525000D03*
X+7850000Y-4460000D03*
X+7850000Y-4395000D03*
X+7850000Y-4330000D03*
X+7850000Y-4265000D03*
X+7850000Y-4200000D03*
D23*
X+8748458Y-7713500D03*
X+8748458Y-7500140D03*
X+6350000Y-4250000D03*
X+6350000Y-4463360D03*
X+6750000Y-4250000D03*
X+6750000Y-4463360D03*
X+6550000Y-4250000D03*
X+6550000Y-4463360D03*
X+6350000Y-4800000D03*
X+6350000Y-4586640D03*
X+6750000Y-4800000D03*
X+6750000Y-4586640D03*
X+6550000Y-4800000D03*
X+6550000Y-4586640D03*
X+6350000Y-2250000D03*
X+6350000Y-2463360D03*
X+6750000Y-2250000D03*
X+6750000Y-2463360D03*
X+6550000Y-2250000D03*
X+6550000Y-2463360D03*
X+6350000Y-2800000D03*
X+6350000Y-2586640D03*
X+6750000Y-2800000D03*
X+6750000Y-2586640D03*
X+6550000Y-2800000D03*
X+6550000Y-2586640D03*
D24*
X+6950000Y-1950000D03*
X+7163360Y-1950000D03*
X+6950000Y-3950000D03*
X+7163360Y-3950000D03*
D25*
X+8940000Y-1100000D03*
X+9100000Y-1100000D03*
X+8940000Y-1350000D03*
X+9100000Y-1350000D03*
X+8940000Y-1600000D03*
X+9100000Y-1600000D03*
X+8940000Y-1850000D03*
X+9100000Y-1850000D03*
X+8940000Y-2100000D03*
X+9100000Y-2100000D03*
X+8940000Y-2350000D03*
X+9100000Y-2350000D03*
X+8940000Y-2600000D03*
X+9100000Y-2600000D03*
X+8940000Y-2850000D03*
X+9100000Y-2850000D03*
X+8940000Y-4150000D03*
X+9100000Y-4150000D03*
X+8940000Y-4400000D03*
X+9100000Y-4400000D03*
X+8940000Y-4650000D03*
X+9100000Y-4650000D03*
X+8940000Y-4900000D03*
X+9100000Y-4900000D03*
X+8940000Y-5150000D03*
X+9100000Y-5150000D03*
X+8940000Y-5400000D03*
X+9100000Y-5400000D03*
X+8940000Y-5650000D03*
X+9100000Y-5650000D03*
X+8940000Y-5900000D03*
X+9100000Y-5900000D03*
D24*
X+8763360Y-1100000D03*
X+8550000Y-1100000D03*
X+8750000Y-1350000D03*
X+8536640Y-1350000D03*
X+8750000Y-1600000D03*
X+8536640Y-1600000D03*
X+8750000Y-1850000D03*
X+8536640Y-1850000D03*
X+8750000Y-2100000D03*
X+8536640Y-2100000D03*
X+8750000Y-2350000D03*
X+8536640Y-2350000D03*
X+8750000Y-2600000D03*
X+8536640Y-2600000D03*
X+8750000Y-2850000D03*
X+8536640Y-2850000D03*
X+8750000Y-4150000D03*
X+8536640Y-4150000D03*
X+8750000Y-4400000D03*
X+8536640Y-4400000D03*
X+8750000Y-4650000D03*
X+8536640Y-4650000D03*
X+8750000Y-4900000D03*
X+8536640Y-4900000D03*
X+8750000Y-5150000D03*
X+8536640Y-5150000D03*
X+8750000Y-5400000D03*
X+8536640Y-5400000D03*
X+8750000Y-5650000D03*
X+8536640Y-5650000D03*
X+8750000Y-5900000D03*
X+8536640Y-5900000D03*
D26*
X+3400000Y-4750000D03*
X+3400000Y-4550000D03*
D27*
X+3950000Y-4650000D03*
D23*
X+3300000Y-6553360D03*
X+3300000Y-6340000D03*
X+3000000Y-6340000D03*
X+3000000Y-6553360D03*
D24*
X+3000000Y-5800000D03*
X+2786640Y-5800000D03*
D72*
X+400000Y-50000D02*
X+9600000Y-50000D01*
X+9950000Y-400000D02*
X+9950000Y-9400000D01*
X+50000Y-9400000D02*
X+50000Y-450000D01*
X+9600000Y-50000D02*
X+9671564Y-56964D01*
X+9737744Y-77002D01*
X+9797259Y-108832D01*
X+9848828Y-151172D01*
X+9891168Y-202740D01*
X+9922998Y-262256D01*
X+9943036Y-328436D01*
X+9950000Y-400000D01*
X+400000Y-50000D02*
X+363625Y-52020D01*
X+328436Y-57959D01*
X+294593Y-67633D01*
X+262256Y-80859D01*
X+202741Y-117236D01*
X+151172Y-165625D01*
X+108832Y-224561D01*
X+77002Y-292578D01*
X+56964Y-368213D01*
X+50000Y-450000D01*
X+450000Y-9800000D02*
X+9550000Y-9800000D01*
X+50000Y-9400000D02*
X+52020Y-9441571D01*
X+57959Y-9481787D01*
X+67633Y-9520465D01*
X+80859Y-9557422D01*
X+97455Y-9592474D01*
X+117236Y-9625439D01*
X+165625Y-9684375D01*
X+224561Y-9732764D01*
X+257526Y-9752545D01*
X+292578Y-9769141D01*
X+329535Y-9782367D01*
X+368213Y-9792041D01*
X+408429Y-9797980D01*
X+450000Y-9800000D01*
X+9550000Y-9800000D02*
X+9591571Y-9797980D01*
X+9631787Y-9792041D01*
X+9670465Y-9782367D01*
X+9707422Y-9769141D01*
X+9742474Y-9752545D01*
X+9775439Y-9732764D01*
X+9834375Y-9684375D01*
X+9882764Y-9625439D01*
X+9902545Y-9592474D01*
X+9919141Y-9557422D01*
X+9932367Y-9520465D01*
X+9942041Y-9481787D01*
X+9947980Y-9441571D01*
X+9950000Y-9400000D01*
M02*
