G04 PROTEUS RS274X GERBER FILE*
%FSLAX45Y45*%
%MOMM*%
G01*
%ADD72C,0.203200*%
%ADD73C,0.250000*%
%ADD30C,0.200000*%
D72*
X+150000Y-1450000D02*
X+155969Y-1388660D01*
X+173145Y-1331934D01*
X+200427Y-1280920D01*
X+236719Y-1236719D01*
X+280921Y-1200427D01*
X+331934Y-1173145D01*
X+388660Y-1155969D01*
X+450000Y-1150000D01*
X+150000Y-6350000D02*
X+155969Y-6411340D01*
X+173145Y-6468066D01*
X+200427Y-6519080D01*
X+236719Y-6563281D01*
X+280921Y-6599573D01*
X+331934Y-6626855D01*
X+388660Y-6644031D01*
X+450000Y-6650000D01*
X+150000Y-6350000D02*
X+150000Y-1450000D01*
X+450000Y-1150000D02*
X+8350000Y-1150000D01*
X+8411340Y-1155969D01*
X+8468066Y-1173145D01*
X+8519079Y-1200427D01*
X+8563281Y-1236719D01*
X+8599573Y-1280920D01*
X+8626855Y-1331934D01*
X+8644031Y-1388660D01*
X+8650000Y-1450000D01*
X+8650000Y-6350000D01*
X+450000Y-6650000D02*
X+8350000Y-6650000D01*
X+8411340Y-6644031D01*
X+8468066Y-6626855D01*
X+8519079Y-6599573D01*
X+8563281Y-6563281D01*
X+8599573Y-6519080D01*
X+8626855Y-6468066D01*
X+8644031Y-6411340D01*
X+8650000Y-6350000D01*
X+873000Y-931000D02*
X+5953000Y-931000D01*
X+5953000Y-423000D01*
X+873000Y-423000D01*
X+873000Y-931000D01*
X+2651000Y-382360D02*
X+2651000Y-290920D01*
X+2730375Y-290920D01*
X+2746250Y-306160D01*
X+2746250Y-321400D01*
X+2730375Y-336640D01*
X+2651000Y-336640D01*
X+2730375Y-336640D02*
X+2746250Y-351880D01*
X+2746250Y-382360D01*
X+2778000Y-382360D02*
X+2778000Y-321400D01*
X+2809750Y-290920D01*
X+2841500Y-290920D01*
X+2873250Y-321400D01*
X+2873250Y-382360D01*
X+2778000Y-351880D02*
X+2873250Y-351880D01*
X+2905000Y-367120D02*
X+2920875Y-382360D01*
X+2984375Y-382360D01*
X+3000250Y-367120D01*
X+3000250Y-351880D01*
X+2984375Y-336640D01*
X+2920875Y-336640D01*
X+2905000Y-321400D01*
X+2905000Y-306160D01*
X+2920875Y-290920D01*
X+2984375Y-290920D01*
X+3000250Y-306160D01*
X+3032000Y-382360D02*
X+3032000Y-290920D01*
X+3111375Y-290920D01*
X+3127250Y-306160D01*
X+3127250Y-321400D01*
X+3111375Y-336640D01*
X+3032000Y-336640D01*
X+3159000Y-382360D02*
X+3159000Y-290920D01*
X+3238375Y-290920D01*
X+3254250Y-306160D01*
X+3254250Y-321400D01*
X+3238375Y-336640D01*
X+3254250Y-351880D01*
X+3254250Y-367120D01*
X+3238375Y-382360D01*
X+3159000Y-382360D01*
X+3159000Y-336640D02*
X+3238375Y-336640D01*
X+3381250Y-382360D02*
X+3286000Y-382360D01*
X+3286000Y-290920D01*
X+3381250Y-290920D01*
X+3286000Y-336640D02*
X+3349500Y-336640D01*
X+3413000Y-382360D02*
X+3413000Y-290920D01*
X+3492375Y-290920D01*
X+3508250Y-306160D01*
X+3508250Y-321400D01*
X+3492375Y-336640D01*
X+3413000Y-336640D01*
X+3492375Y-336640D02*
X+3508250Y-351880D01*
X+3508250Y-382360D01*
X+3635250Y-290920D02*
X+3540000Y-382360D01*
X+3540000Y-290920D02*
X+3587625Y-336640D01*
X+3809875Y-290920D02*
X+3873375Y-290920D01*
X+3841625Y-290920D02*
X+3841625Y-382360D01*
X+3809875Y-382360D02*
X+3873375Y-382360D01*
X+4016250Y-290920D02*
X+3921000Y-382360D01*
X+4048000Y-321400D02*
X+4079750Y-290920D01*
X+4111500Y-290920D01*
X+4143250Y-321400D01*
X+4143250Y-351880D01*
X+4111500Y-382360D01*
X+4079750Y-382360D01*
X+4048000Y-351880D01*
X+4048000Y-321400D01*
X+900000Y-2550000D02*
X+900000Y-1250000D01*
X+5900000Y-2550000D02*
X+5900000Y-1250000D01*
X+1150000Y-1250000D02*
X+1150000Y-2550000D01*
X+1400000Y-1250000D02*
X+1400000Y-2550000D01*
X+1650000Y-1250000D02*
X+1650000Y-2550000D01*
X+1900000Y-1250000D02*
X+1900000Y-2550000D01*
X+2150000Y-1250000D02*
X+2150000Y-2550000D01*
X+2400000Y-1250000D02*
X+2400000Y-2550000D01*
X+2650000Y-1250000D02*
X+2650000Y-2550000D01*
X+2900000Y-1250000D02*
X+2900000Y-2550000D01*
X+3150000Y-1250000D02*
X+3150000Y-2550000D01*
X+3400000Y-1250000D02*
X+3400000Y-2550000D01*
X+3650000Y-1250000D02*
X+3650000Y-2550000D01*
X+3900000Y-1250000D02*
X+3900000Y-2550000D01*
X+4150000Y-1250000D02*
X+4150000Y-2550000D01*
X+4400000Y-1250000D02*
X+4400000Y-2550000D01*
X+4650000Y-1250000D02*
X+4650000Y-2550000D01*
X+4900000Y-1250000D02*
X+4900000Y-2550000D01*
X+5150000Y-1250000D02*
X+5150000Y-2550000D01*
X+5400000Y-1250000D02*
X+5400000Y-2550000D01*
X+5650000Y-1250000D02*
X+5650000Y-2550000D01*
X+950800Y-1754750D02*
X+950800Y-1834125D01*
X+1001600Y-1834125D01*
X+1001600Y-1770625D01*
X+1027000Y-1754750D01*
X+1077800Y-1754750D01*
X+1103200Y-1770625D01*
X+1103200Y-1818250D01*
X+1077800Y-1834125D01*
X+950800Y-1596000D02*
X+1027000Y-1596000D01*
X+1103200Y-1548375D01*
X+1027000Y-1500750D01*
X+950800Y-1500750D01*
X+850000Y-1900000D02*
X+5950000Y-1900000D01*
X+1200800Y-1754750D02*
X+1200800Y-1834125D01*
X+1251600Y-1834125D01*
X+1251600Y-1770625D01*
X+1277000Y-1754750D01*
X+1327800Y-1754750D01*
X+1353200Y-1770625D01*
X+1353200Y-1818250D01*
X+1327800Y-1834125D01*
X+1200800Y-1596000D02*
X+1277000Y-1596000D01*
X+1353200Y-1548375D01*
X+1277000Y-1500750D01*
X+1200800Y-1500750D01*
X+1552400Y-1786500D02*
X+1552400Y-1754750D01*
X+1603200Y-1754750D01*
X+1603200Y-1818250D01*
X+1552400Y-1850000D01*
X+1501600Y-1850000D01*
X+1450800Y-1818250D01*
X+1450800Y-1770625D01*
X+1476200Y-1754750D01*
X+1603200Y-1723000D02*
X+1450800Y-1723000D01*
X+1603200Y-1627750D01*
X+1450800Y-1627750D01*
X+1603200Y-1596000D02*
X+1450800Y-1596000D01*
X+1450800Y-1532500D01*
X+1501600Y-1500750D01*
X+1552400Y-1500750D01*
X+1603200Y-1532500D01*
X+1603200Y-1596000D01*
X+1751600Y-1818250D02*
X+1700800Y-1786500D01*
X+1853200Y-1786500D01*
X+1802400Y-1627750D02*
X+1802400Y-1723000D01*
X+1700800Y-1659500D01*
X+1853200Y-1659500D01*
X+2001600Y-1818250D02*
X+1950800Y-1786500D01*
X+2103200Y-1786500D01*
X+1950800Y-1627750D02*
X+1950800Y-1707125D01*
X+2001600Y-1707125D01*
X+2001600Y-1643625D01*
X+2027000Y-1627750D01*
X+2077800Y-1627750D01*
X+2103200Y-1643625D01*
X+2103200Y-1691250D01*
X+2077800Y-1707125D01*
X+2251600Y-1818250D02*
X+2200800Y-1786500D01*
X+2353200Y-1786500D01*
X+2277000Y-1691250D02*
X+2251600Y-1707125D01*
X+2226200Y-1707125D01*
X+2200800Y-1691250D01*
X+2200800Y-1643625D01*
X+2226200Y-1627750D01*
X+2251600Y-1627750D01*
X+2277000Y-1643625D01*
X+2277000Y-1691250D01*
X+2302400Y-1707125D01*
X+2327800Y-1707125D01*
X+2353200Y-1691250D01*
X+2353200Y-1643625D01*
X+2327800Y-1627750D01*
X+2302400Y-1627750D01*
X+2277000Y-1643625D01*
X+2552400Y-1786500D02*
X+2552400Y-1754750D01*
X+2603200Y-1754750D01*
X+2603200Y-1818250D01*
X+2552400Y-1850000D01*
X+2501600Y-1850000D01*
X+2450800Y-1818250D01*
X+2450800Y-1770625D01*
X+2476200Y-1754750D01*
X+2603200Y-1723000D02*
X+2450800Y-1723000D01*
X+2603200Y-1627750D01*
X+2450800Y-1627750D01*
X+2603200Y-1596000D02*
X+2450800Y-1596000D01*
X+2450800Y-1532500D01*
X+2501600Y-1500750D01*
X+2552400Y-1500750D01*
X+2603200Y-1532500D01*
X+2603200Y-1596000D01*
X+2726200Y-1834125D02*
X+2700800Y-1818250D01*
X+2700800Y-1770625D01*
X+2726200Y-1754750D01*
X+2751600Y-1754750D01*
X+2777000Y-1770625D01*
X+2777000Y-1818250D01*
X+2802400Y-1834125D01*
X+2853200Y-1834125D01*
X+2853200Y-1754750D01*
X+2726200Y-1707125D02*
X+2700800Y-1691250D01*
X+2700800Y-1643625D01*
X+2726200Y-1627750D01*
X+2751600Y-1627750D01*
X+2777000Y-1643625D01*
X+2802400Y-1627750D01*
X+2827800Y-1627750D01*
X+2853200Y-1643625D01*
X+2853200Y-1691250D01*
X+2827800Y-1707125D01*
X+2777000Y-1675375D02*
X+2777000Y-1643625D01*
X+2976200Y-1834125D02*
X+2950800Y-1818250D01*
X+2950800Y-1770625D01*
X+2976200Y-1754750D01*
X+3001600Y-1754750D01*
X+3027000Y-1770625D01*
X+3027000Y-1818250D01*
X+3052400Y-1834125D01*
X+3103200Y-1834125D01*
X+3103200Y-1754750D01*
X+3052400Y-1627750D02*
X+3052400Y-1723000D01*
X+2950800Y-1659500D01*
X+3103200Y-1659500D01*
X+3302400Y-1786500D02*
X+3302400Y-1754750D01*
X+3353200Y-1754750D01*
X+3353200Y-1818250D01*
X+3302400Y-1850000D01*
X+3251600Y-1850000D01*
X+3200800Y-1818250D01*
X+3200800Y-1770625D01*
X+3226200Y-1754750D01*
X+3353200Y-1723000D02*
X+3200800Y-1723000D01*
X+3353200Y-1627750D01*
X+3200800Y-1627750D01*
X+3353200Y-1596000D02*
X+3200800Y-1596000D01*
X+3200800Y-1532500D01*
X+3251600Y-1500750D01*
X+3302400Y-1500750D01*
X+3353200Y-1532500D01*
X+3353200Y-1596000D01*
X+3476200Y-1834125D02*
X+3450800Y-1818250D01*
X+3450800Y-1770625D01*
X+3476200Y-1754750D01*
X+3501600Y-1754750D01*
X+3527000Y-1770625D01*
X+3527000Y-1818250D01*
X+3552400Y-1834125D01*
X+3603200Y-1834125D01*
X+3603200Y-1754750D01*
X+3450800Y-1627750D02*
X+3450800Y-1707125D01*
X+3501600Y-1707125D01*
X+3501600Y-1643625D01*
X+3527000Y-1627750D01*
X+3577800Y-1627750D01*
X+3603200Y-1643625D01*
X+3603200Y-1691250D01*
X+3577800Y-1707125D01*
X+3777000Y-1818250D02*
X+3751600Y-1834125D01*
X+3726200Y-1834125D01*
X+3700800Y-1818250D01*
X+3700800Y-1770625D01*
X+3726200Y-1754750D01*
X+3751600Y-1754750D01*
X+3777000Y-1770625D01*
X+3777000Y-1818250D01*
X+3802400Y-1834125D01*
X+3827800Y-1834125D01*
X+3853200Y-1818250D01*
X+3853200Y-1770625D01*
X+3827800Y-1754750D01*
X+3802400Y-1754750D01*
X+3777000Y-1770625D01*
X+3950800Y-1834125D02*
X+3950800Y-1754750D01*
X+3976200Y-1754750D01*
X+4103200Y-1834125D01*
X+4200800Y-1834125D02*
X+4200800Y-1770625D01*
X+4200800Y-1802375D02*
X+4353200Y-1802375D01*
X+4353200Y-1834125D02*
X+4353200Y-1770625D01*
X+4353200Y-1723000D02*
X+4200800Y-1723000D01*
X+4200800Y-1659500D01*
X+4251600Y-1627750D01*
X+4302400Y-1627750D01*
X+4353200Y-1659500D01*
X+4353200Y-1723000D01*
X+4277000Y-1580125D02*
X+4277000Y-1500750D01*
X+4327800Y-1469000D02*
X+4353200Y-1453125D01*
X+4353200Y-1389625D01*
X+4327800Y-1373750D01*
X+4302400Y-1373750D01*
X+4277000Y-1389625D01*
X+4277000Y-1453125D01*
X+4251600Y-1469000D01*
X+4226200Y-1469000D01*
X+4200800Y-1453125D01*
X+4200800Y-1389625D01*
X+4226200Y-1373750D01*
X+4327800Y-1246750D02*
X+4353200Y-1262625D01*
X+4353200Y-1310250D01*
X+4302400Y-1342000D01*
X+4251600Y-1342000D01*
X+4200800Y-1310250D01*
X+4200800Y-1262625D01*
X+4226200Y-1246750D01*
X+4552400Y-1786500D02*
X+4552400Y-1754750D01*
X+4603200Y-1754750D01*
X+4603200Y-1818250D01*
X+4552400Y-1850000D01*
X+4501600Y-1850000D01*
X+4450800Y-1818250D01*
X+4450800Y-1770625D01*
X+4476200Y-1754750D01*
X+4603200Y-1723000D02*
X+4450800Y-1723000D01*
X+4603200Y-1627750D01*
X+4450800Y-1627750D01*
X+4603200Y-1596000D02*
X+4450800Y-1596000D01*
X+4450800Y-1532500D01*
X+4501600Y-1500750D01*
X+4552400Y-1500750D01*
X+4603200Y-1532500D01*
X+4603200Y-1596000D01*
X+4751600Y-1818250D02*
X+4700800Y-1786500D01*
X+4853200Y-1786500D01*
X+4726200Y-1707125D02*
X+4700800Y-1691250D01*
X+4700800Y-1643625D01*
X+4726200Y-1627750D01*
X+4751600Y-1627750D01*
X+4777000Y-1643625D01*
X+4777000Y-1691250D01*
X+4802400Y-1707125D01*
X+4853200Y-1707125D01*
X+4853200Y-1627750D01*
X+5052400Y-1786500D02*
X+5052400Y-1754750D01*
X+5103200Y-1754750D01*
X+5103200Y-1818250D01*
X+5052400Y-1850000D01*
X+5001600Y-1850000D01*
X+4950800Y-1818250D01*
X+4950800Y-1770625D01*
X+4976200Y-1754750D01*
X+5103200Y-1723000D02*
X+4950800Y-1723000D01*
X+5103200Y-1627750D01*
X+4950800Y-1627750D01*
X+5103200Y-1596000D02*
X+4950800Y-1596000D01*
X+4950800Y-1532500D01*
X+5001600Y-1500750D01*
X+5052400Y-1500750D01*
X+5103200Y-1532500D01*
X+5103200Y-1596000D01*
X+5251600Y-1818250D02*
X+5200800Y-1786500D01*
X+5353200Y-1786500D01*
X+5226200Y-1627750D02*
X+5200800Y-1643625D01*
X+5200800Y-1691250D01*
X+5226200Y-1707125D01*
X+5327800Y-1707125D01*
X+5353200Y-1691250D01*
X+5353200Y-1643625D01*
X+5327800Y-1627750D01*
X+5302400Y-1627750D01*
X+5277000Y-1643625D01*
X+5277000Y-1707125D01*
X+5476200Y-1834125D02*
X+5450800Y-1818250D01*
X+5450800Y-1770625D01*
X+5476200Y-1754750D01*
X+5501600Y-1754750D01*
X+5527000Y-1770625D01*
X+5527000Y-1818250D01*
X+5552400Y-1834125D01*
X+5603200Y-1834125D01*
X+5603200Y-1754750D01*
X+5577800Y-1723000D02*
X+5476200Y-1723000D01*
X+5450800Y-1707125D01*
X+5450800Y-1643625D01*
X+5476200Y-1627750D01*
X+5577800Y-1627750D01*
X+5603200Y-1643625D01*
X+5603200Y-1707125D01*
X+5577800Y-1723000D01*
X+5603200Y-1723000D02*
X+5450800Y-1627750D01*
X+5726200Y-1834125D02*
X+5700800Y-1818250D01*
X+5700800Y-1770625D01*
X+5726200Y-1754750D01*
X+5751600Y-1754750D01*
X+5777000Y-1770625D01*
X+5777000Y-1818250D01*
X+5802400Y-1834125D01*
X+5853200Y-1834125D01*
X+5853200Y-1754750D01*
X+5751600Y-1691250D02*
X+5700800Y-1659500D01*
X+5853200Y-1659500D01*
X+976200Y-2534125D02*
X+950800Y-2518250D01*
X+950800Y-2470625D01*
X+976200Y-2454750D01*
X+1001600Y-2454750D01*
X+1027000Y-2470625D01*
X+1052400Y-2454750D01*
X+1077800Y-2454750D01*
X+1103200Y-2470625D01*
X+1103200Y-2518250D01*
X+1077800Y-2534125D01*
X+1027000Y-2502375D02*
X+1027000Y-2470625D01*
X+950800Y-2423000D02*
X+1027000Y-2423000D01*
X+1103200Y-2375375D01*
X+1027000Y-2327750D01*
X+950800Y-2327750D01*
X+976200Y-2280125D02*
X+950800Y-2264250D01*
X+950800Y-2216625D01*
X+976200Y-2200750D01*
X+1001600Y-2200750D01*
X+1027000Y-2216625D01*
X+1052400Y-2200750D01*
X+1077800Y-2200750D01*
X+1103200Y-2216625D01*
X+1103200Y-2264250D01*
X+1077800Y-2280125D01*
X+1027000Y-2248375D02*
X+1027000Y-2216625D01*
X+1226200Y-2534125D02*
X+1200800Y-2518250D01*
X+1200800Y-2470625D01*
X+1226200Y-2454750D01*
X+1251600Y-2454750D01*
X+1277000Y-2470625D01*
X+1277000Y-2518250D01*
X+1302400Y-2534125D01*
X+1353200Y-2534125D01*
X+1353200Y-2454750D01*
X+1476200Y-2534125D02*
X+1450800Y-2518250D01*
X+1450800Y-2470625D01*
X+1476200Y-2454750D01*
X+1501600Y-2454750D01*
X+1527000Y-2470625D01*
X+1552400Y-2454750D01*
X+1577800Y-2454750D01*
X+1603200Y-2470625D01*
X+1603200Y-2518250D01*
X+1577800Y-2534125D01*
X+1527000Y-2502375D02*
X+1527000Y-2470625D01*
X+1802400Y-2454750D02*
X+1802400Y-2550000D01*
X+1700800Y-2486500D01*
X+1853200Y-2486500D01*
X+2052400Y-2486500D02*
X+2052400Y-2454750D01*
X+2103200Y-2454750D01*
X+2103200Y-2518250D01*
X+2052400Y-2550000D01*
X+2001600Y-2550000D01*
X+1950800Y-2518250D01*
X+1950800Y-2470625D01*
X+1976200Y-2454750D01*
X+2103200Y-2423000D02*
X+1950800Y-2423000D01*
X+2103200Y-2327750D01*
X+1950800Y-2327750D01*
X+2103200Y-2296000D02*
X+1950800Y-2296000D01*
X+1950800Y-2232500D01*
X+2001600Y-2200750D01*
X+2052400Y-2200750D01*
X+2103200Y-2232500D01*
X+2103200Y-2296000D01*
X+2251600Y-2518250D02*
X+2200800Y-2486500D01*
X+2353200Y-2486500D01*
X+2200800Y-2407125D02*
X+2200800Y-2327750D01*
X+2226200Y-2327750D01*
X+2353200Y-2407125D01*
X+2476200Y-2534125D02*
X+2450800Y-2518250D01*
X+2450800Y-2470625D01*
X+2476200Y-2454750D01*
X+2501600Y-2454750D01*
X+2527000Y-2470625D01*
X+2527000Y-2518250D01*
X+2552400Y-2534125D01*
X+2603200Y-2534125D01*
X+2603200Y-2454750D01*
X+2450800Y-2407125D02*
X+2450800Y-2327750D01*
X+2476200Y-2327750D01*
X+2603200Y-2407125D01*
X+2726200Y-2534125D02*
X+2700800Y-2518250D01*
X+2700800Y-2470625D01*
X+2726200Y-2454750D01*
X+2751600Y-2454750D01*
X+2777000Y-2470625D01*
X+2777000Y-2518250D01*
X+2802400Y-2534125D01*
X+2853200Y-2534125D01*
X+2853200Y-2454750D01*
X+2726200Y-2407125D02*
X+2700800Y-2391250D01*
X+2700800Y-2343625D01*
X+2726200Y-2327750D01*
X+2751600Y-2327750D01*
X+2777000Y-2343625D01*
X+2777000Y-2391250D01*
X+2802400Y-2407125D01*
X+2853200Y-2407125D01*
X+2853200Y-2327750D01*
X+2976200Y-2534125D02*
X+2950800Y-2518250D01*
X+2950800Y-2470625D01*
X+2976200Y-2454750D01*
X+3001600Y-2454750D01*
X+3027000Y-2470625D01*
X+3052400Y-2454750D01*
X+3077800Y-2454750D01*
X+3103200Y-2470625D01*
X+3103200Y-2518250D01*
X+3077800Y-2534125D01*
X+3027000Y-2502375D02*
X+3027000Y-2470625D01*
X+2950800Y-2423000D02*
X+3027000Y-2423000D01*
X+3103200Y-2375375D01*
X+3027000Y-2327750D01*
X+2950800Y-2327750D01*
X+2976200Y-2280125D02*
X+2950800Y-2264250D01*
X+2950800Y-2216625D01*
X+2976200Y-2200750D01*
X+3001600Y-2200750D01*
X+3027000Y-2216625D01*
X+3052400Y-2200750D01*
X+3077800Y-2200750D01*
X+3103200Y-2216625D01*
X+3103200Y-2264250D01*
X+3077800Y-2280125D01*
X+3027000Y-2248375D02*
X+3027000Y-2216625D01*
X+3251600Y-2518250D02*
X+3200800Y-2486500D01*
X+3353200Y-2486500D01*
X+3327800Y-2423000D02*
X+3226200Y-2423000D01*
X+3200800Y-2407125D01*
X+3200800Y-2343625D01*
X+3226200Y-2327750D01*
X+3327800Y-2327750D01*
X+3353200Y-2343625D01*
X+3353200Y-2407125D01*
X+3327800Y-2423000D01*
X+3353200Y-2423000D02*
X+3200800Y-2327750D01*
X+3501600Y-2454750D02*
X+3527000Y-2470625D01*
X+3527000Y-2518250D01*
X+3501600Y-2534125D01*
X+3476200Y-2534125D01*
X+3450800Y-2518250D01*
X+3450800Y-2470625D01*
X+3476200Y-2454750D01*
X+3577800Y-2454750D01*
X+3603200Y-2470625D01*
X+3603200Y-2518250D01*
X+3751600Y-2518250D02*
X+3700800Y-2486500D01*
X+3853200Y-2486500D01*
X+3751600Y-2391250D02*
X+3700800Y-2359500D01*
X+3853200Y-2359500D01*
X+4052400Y-2486500D02*
X+4052400Y-2454750D01*
X+4103200Y-2454750D01*
X+4103200Y-2518250D01*
X+4052400Y-2550000D01*
X+4001600Y-2550000D01*
X+3950800Y-2518250D01*
X+3950800Y-2470625D01*
X+3976200Y-2454750D01*
X+4103200Y-2423000D02*
X+3950800Y-2423000D01*
X+4103200Y-2327750D01*
X+3950800Y-2327750D01*
X+4103200Y-2296000D02*
X+3950800Y-2296000D01*
X+3950800Y-2232500D01*
X+4001600Y-2200750D01*
X+4052400Y-2200750D01*
X+4103200Y-2232500D01*
X+4103200Y-2296000D01*
X+4200800Y-2534125D02*
X+4200800Y-2470625D01*
X+4200800Y-2502375D02*
X+4353200Y-2502375D01*
X+4353200Y-2534125D02*
X+4353200Y-2470625D01*
X+4353200Y-2423000D02*
X+4200800Y-2423000D01*
X+4200800Y-2359500D01*
X+4251600Y-2327750D01*
X+4302400Y-2327750D01*
X+4353200Y-2359500D01*
X+4353200Y-2423000D01*
X+4277000Y-2280125D02*
X+4277000Y-2200750D01*
X+4327800Y-2169000D02*
X+4353200Y-2153125D01*
X+4353200Y-2089625D01*
X+4327800Y-2073750D01*
X+4302400Y-2073750D01*
X+4277000Y-2089625D01*
X+4277000Y-2153125D01*
X+4251600Y-2169000D01*
X+4226200Y-2169000D01*
X+4200800Y-2153125D01*
X+4200800Y-2089625D01*
X+4226200Y-2073750D01*
X+4353200Y-2042000D02*
X+4200800Y-2042000D01*
X+4200800Y-1978500D01*
X+4251600Y-1946750D01*
X+4302400Y-1946750D01*
X+4353200Y-1978500D01*
X+4353200Y-2042000D01*
X+4450800Y-2454750D02*
X+4450800Y-2534125D01*
X+4501600Y-2534125D01*
X+4501600Y-2470625D01*
X+4527000Y-2454750D01*
X+4577800Y-2454750D01*
X+4603200Y-2470625D01*
X+4603200Y-2518250D01*
X+4577800Y-2534125D01*
X+4726200Y-2454750D02*
X+4700800Y-2470625D01*
X+4700800Y-2518250D01*
X+4726200Y-2534125D01*
X+4827800Y-2534125D01*
X+4853200Y-2518250D01*
X+4853200Y-2470625D01*
X+4827800Y-2454750D01*
X+4802400Y-2454750D01*
X+4777000Y-2470625D01*
X+4777000Y-2534125D01*
X+5001600Y-2518250D02*
X+4950800Y-2486500D01*
X+5103200Y-2486500D01*
X+4976200Y-2407125D02*
X+4950800Y-2391250D01*
X+4950800Y-2343625D01*
X+4976200Y-2327750D01*
X+5001600Y-2327750D01*
X+5027000Y-2343625D01*
X+5052400Y-2327750D01*
X+5077800Y-2327750D01*
X+5103200Y-2343625D01*
X+5103200Y-2391250D01*
X+5077800Y-2407125D01*
X+5027000Y-2375375D02*
X+5027000Y-2343625D01*
X+5251600Y-2518250D02*
X+5200800Y-2486500D01*
X+5353200Y-2486500D01*
X+5251600Y-2327750D02*
X+5277000Y-2343625D01*
X+5277000Y-2391250D01*
X+5251600Y-2407125D01*
X+5226200Y-2407125D01*
X+5200800Y-2391250D01*
X+5200800Y-2343625D01*
X+5226200Y-2327750D01*
X+5327800Y-2327750D01*
X+5353200Y-2343625D01*
X+5353200Y-2391250D01*
X+5476200Y-2534125D02*
X+5450800Y-2518250D01*
X+5450800Y-2470625D01*
X+5476200Y-2454750D01*
X+5501600Y-2454750D01*
X+5527000Y-2470625D01*
X+5527000Y-2518250D01*
X+5552400Y-2534125D01*
X+5603200Y-2534125D01*
X+5603200Y-2454750D01*
X+5476200Y-2327750D02*
X+5450800Y-2343625D01*
X+5450800Y-2391250D01*
X+5476200Y-2407125D01*
X+5577800Y-2407125D01*
X+5603200Y-2391250D01*
X+5603200Y-2343625D01*
X+5577800Y-2327750D01*
X+5552400Y-2327750D01*
X+5527000Y-2343625D01*
X+5527000Y-2407125D01*
X+5802400Y-2486500D02*
X+5802400Y-2454750D01*
X+5853200Y-2454750D01*
X+5853200Y-2518250D01*
X+5802400Y-2550000D01*
X+5751600Y-2550000D01*
X+5700800Y-2518250D01*
X+5700800Y-2470625D01*
X+5726200Y-2454750D01*
X+5853200Y-2423000D02*
X+5700800Y-2423000D01*
X+5853200Y-2327750D01*
X+5700800Y-2327750D01*
X+5853200Y-2296000D02*
X+5700800Y-2296000D01*
X+5700800Y-2232500D01*
X+5751600Y-2200750D01*
X+5802400Y-2200750D01*
X+5853200Y-2232500D01*
X+5853200Y-2296000D01*
X+2350000Y-3650000D02*
X+2347283Y-3576335D01*
X+2325275Y-3429004D01*
X+2279696Y-3281673D01*
X+2206795Y-3134342D01*
X+2098629Y-2987011D01*
X+1953894Y-2852935D01*
X+1806563Y-2760309D01*
X+1659232Y-2699013D01*
X+1511901Y-2663193D01*
X+1364570Y-2650106D01*
X+1350000Y-2650000D01*
X+350000Y-3650000D02*
X+352717Y-3576335D01*
X+374725Y-3429004D01*
X+420304Y-3281673D01*
X+493205Y-3134342D01*
X+601371Y-2987011D01*
X+746106Y-2852935D01*
X+893437Y-2760309D01*
X+1040768Y-2699013D01*
X+1188099Y-2663193D01*
X+1335430Y-2650106D01*
X+1350000Y-2650000D01*
X+350000Y-3650000D02*
X+352717Y-3723665D01*
X+374725Y-3870996D01*
X+420304Y-4018327D01*
X+493205Y-4165658D01*
X+601371Y-4312989D01*
X+746106Y-4447065D01*
X+893437Y-4539691D01*
X+1040768Y-4600987D01*
X+1188099Y-4636807D01*
X+1335430Y-4649894D01*
X+1350000Y-4650000D01*
X+2350000Y-3650000D02*
X+2347283Y-3723665D01*
X+2325275Y-3870996D01*
X+2279696Y-4018327D01*
X+2206795Y-4165658D01*
X+2098629Y-4312989D01*
X+1953894Y-4447065D01*
X+1806563Y-4539691D01*
X+1659232Y-4600987D01*
X+1511901Y-4636807D01*
X+1364570Y-4649894D01*
X+1350000Y-4650000D01*
X+1350000Y-4750000D02*
X+1464320Y-4744444D01*
X+1574915Y-4728113D01*
X+1681279Y-4701509D01*
X+1782910Y-4665137D01*
X+1879304Y-4619499D01*
X+1969958Y-4565100D01*
X+2054368Y-4502443D01*
X+2132031Y-4432031D01*
X+2202443Y-4354369D01*
X+2265100Y-4269958D01*
X+2319499Y-4179305D01*
X+2365137Y-4082910D01*
X+2401509Y-3981279D01*
X+2428113Y-3874915D01*
X+2444444Y-3764320D01*
X+2450000Y-3650000D01*
X+2444444Y-3535680D01*
X+2428113Y-3425085D01*
X+2401509Y-3318721D01*
X+2365137Y-3217090D01*
X+2319499Y-3120695D01*
X+2265100Y-3030042D01*
X+2202443Y-2945631D01*
X+2132031Y-2867969D01*
X+2054368Y-2797557D01*
X+1969958Y-2734900D01*
X+1879304Y-2680501D01*
X+1782910Y-2634863D01*
X+1681279Y-2598491D01*
X+1574915Y-2571887D01*
X+1464320Y-2555556D01*
X+1350000Y-2550000D01*
X+1235680Y-2555556D01*
X+1125085Y-2571887D01*
X+1018721Y-2598491D01*
X+917090Y-2634863D01*
X+820696Y-2680501D01*
X+730042Y-2734900D01*
X+645632Y-2797557D01*
X+567969Y-2867969D01*
X+497557Y-2945631D01*
X+434900Y-3030042D01*
X+380501Y-3120695D01*
X+334863Y-3217090D01*
X+298491Y-3318721D01*
X+271887Y-3425085D01*
X+255556Y-3535680D01*
X+250000Y-3650000D01*
X+255556Y-3764320D01*
X+271887Y-3874915D01*
X+298491Y-3981279D01*
X+334863Y-4082910D01*
X+380501Y-4179305D01*
X+434900Y-4269958D01*
X+497557Y-4354369D01*
X+567969Y-4432031D01*
X+645632Y-4502443D01*
X+730042Y-4565100D01*
X+820696Y-4619499D01*
X+917090Y-4665137D01*
X+1018721Y-4701509D01*
X+1125085Y-4728113D01*
X+1235680Y-4744444D01*
X+1350000Y-4750000D01*
X+2750000Y-4000000D02*
X+2750000Y-3300000D01*
X+2400000Y-3300000D01*
X+2750000Y-4000000D02*
X+2400000Y-4000000D01*
X+1259360Y-3904000D02*
X+1167920Y-3904000D01*
X+1167920Y-3824625D01*
X+1183160Y-3808750D01*
X+1198400Y-3808750D01*
X+1213640Y-3824625D01*
X+1228880Y-3808750D01*
X+1244120Y-3808750D01*
X+1259360Y-3824625D01*
X+1259360Y-3904000D01*
X+1213640Y-3904000D02*
X+1213640Y-3824625D01*
X+1259360Y-3777000D02*
X+1198400Y-3777000D01*
X+1167920Y-3745250D01*
X+1167920Y-3713500D01*
X+1198400Y-3681750D01*
X+1259360Y-3681750D01*
X+1228880Y-3777000D02*
X+1228880Y-3681750D01*
X+1167920Y-3650000D02*
X+1167920Y-3554750D01*
X+1167920Y-3602375D02*
X+1259360Y-3602375D01*
X+1198400Y-3491250D02*
X+1167920Y-3459500D01*
X+1259360Y-3459500D01*
X+421458Y-8298500D02*
X+675458Y-8298500D01*
X+675458Y-7282500D01*
X+421458Y-7282500D01*
X+421458Y-8298500D01*
X+921458Y-8298500D02*
X+1175458Y-8298500D01*
X+1175458Y-7282500D01*
X+921458Y-7282500D01*
X+921458Y-8298500D01*
X+1421458Y-8298500D02*
X+1675458Y-8298500D01*
X+1675458Y-7282500D01*
X+1421458Y-7282500D01*
X+1421458Y-8298500D01*
X+1921458Y-8298500D02*
X+2175458Y-8298500D01*
X+2175458Y-7282500D01*
X+1921458Y-7282500D01*
X+1921458Y-8298500D01*
X+2421458Y-8298500D02*
X+2675458Y-8298500D01*
X+2675458Y-7282500D01*
X+2421458Y-7282500D01*
X+2421458Y-8298500D01*
X+2921458Y-8298500D02*
X+3175458Y-8298500D01*
X+3175458Y-7282500D01*
X+2921458Y-7282500D01*
X+2921458Y-8298500D01*
X+3421458Y-8298500D02*
X+3675458Y-8298500D01*
X+3675458Y-7282500D01*
X+3421458Y-7282500D01*
X+3421458Y-8298500D01*
X+3971458Y-8298500D02*
X+4225458Y-8298500D01*
X+4225458Y-7282500D01*
X+3971458Y-7282500D01*
X+3971458Y-8298500D01*
X+4721458Y-8148500D02*
X+4975458Y-8148500D01*
X+4975458Y-7386500D01*
X+4721458Y-7386500D01*
X+4721458Y-8148500D01*
X+5221458Y-8148500D02*
X+5475458Y-8148500D01*
X+5475458Y-7386500D01*
X+5221458Y-7386500D01*
X+5221458Y-8148500D01*
X+5721458Y-8148500D02*
X+5975458Y-8148500D01*
X+5975458Y-7386500D01*
X+5721458Y-7386500D01*
X+5721458Y-8148500D01*
X+6221458Y-8148500D02*
X+6475458Y-8148500D01*
X+6475458Y-7386500D01*
X+6221458Y-7386500D01*
X+6221458Y-8148500D01*
X+6721458Y-8148500D02*
X+6975458Y-8148500D01*
X+6975458Y-7386500D01*
X+6721458Y-7386500D01*
X+6721458Y-8148500D01*
X+7221458Y-8148500D02*
X+7475458Y-8148500D01*
X+7475458Y-7386500D01*
X+7221458Y-7386500D01*
X+7221458Y-8148500D01*
X+7721458Y-8148500D02*
X+7975458Y-8148500D01*
X+7975458Y-7386500D01*
X+7721458Y-7386500D01*
X+7721458Y-8148500D01*
X+8271458Y-8148500D02*
X+8525458Y-8148500D01*
X+8525458Y-7386500D01*
X+8271458Y-7386500D01*
X+8271458Y-8148500D01*
X+1071458Y-9540500D02*
X+1325458Y-9540500D01*
X+1325458Y-8778500D01*
X+1071458Y-8778500D01*
X+1071458Y-9540500D01*
X+1321458Y-9540500D02*
X+1575458Y-9540500D01*
X+1575458Y-8778500D01*
X+1321458Y-8778500D01*
X+1321458Y-9540500D01*
X+1571458Y-9540500D02*
X+1825458Y-9540500D01*
X+1825458Y-8778500D01*
X+1571458Y-8778500D01*
X+1571458Y-9540500D01*
X+1821458Y-9540500D02*
X+2075458Y-9540500D01*
X+2075458Y-8778500D01*
X+1821458Y-8778500D01*
X+1821458Y-9540500D01*
X+2071458Y-9540500D02*
X+2325458Y-9540500D01*
X+2325458Y-8778500D01*
X+2071458Y-8778500D01*
X+2071458Y-9540500D01*
X+2571458Y-9540500D02*
X+2825458Y-9540500D01*
X+2825458Y-8778500D01*
X+2571458Y-8778500D01*
X+2571458Y-9540500D01*
X+2821458Y-9540500D02*
X+3075458Y-9540500D01*
X+3075458Y-8778500D01*
X+2821458Y-8778500D01*
X+2821458Y-9540500D01*
X+3071458Y-9540500D02*
X+3325458Y-9540500D01*
X+3325458Y-8778500D01*
X+3071458Y-8778500D01*
X+3071458Y-9540500D01*
X+3321458Y-9540500D02*
X+3575458Y-9540500D01*
X+3575458Y-8778500D01*
X+3321458Y-8778500D01*
X+3321458Y-9540500D01*
X+3571458Y-9540500D02*
X+3825458Y-9540500D01*
X+3825458Y-8778500D01*
X+3571458Y-8778500D01*
X+3571458Y-9540500D01*
X+4071458Y-9540500D02*
X+4325458Y-9540500D01*
X+4325458Y-8778500D01*
X+4071458Y-8778500D01*
X+4071458Y-9540500D01*
X+4321458Y-9540500D02*
X+4575458Y-9540500D01*
X+4575458Y-8778500D01*
X+4321458Y-8778500D01*
X+4321458Y-9540500D01*
X+4571458Y-9540500D02*
X+4825458Y-9540500D01*
X+4825458Y-8778500D01*
X+4571458Y-8778500D01*
X+4571458Y-9540500D01*
X+4821458Y-9540500D02*
X+5075458Y-9540500D01*
X+5075458Y-8778500D01*
X+4821458Y-8778500D01*
X+4821458Y-9540500D01*
X+5071458Y-9540500D02*
X+5325458Y-9540500D01*
X+5325458Y-8778500D01*
X+5071458Y-8778500D01*
X+5071458Y-9540500D01*
X+5571458Y-9540500D02*
X+5825458Y-9540500D01*
X+5825458Y-8778500D01*
X+5571458Y-8778500D01*
X+5571458Y-9540500D01*
X+5821458Y-9540500D02*
X+6075458Y-9540500D01*
X+6075458Y-8778500D01*
X+5821458Y-8778500D01*
X+5821458Y-9540500D01*
X+6071458Y-9540500D02*
X+6325458Y-9540500D01*
X+6325458Y-8778500D01*
X+6071458Y-8778500D01*
X+6071458Y-9540500D01*
X+6321458Y-9540500D02*
X+6575458Y-9540500D01*
X+6575458Y-8778500D01*
X+6321458Y-8778500D01*
X+6321458Y-9540500D01*
X+6571458Y-9540500D02*
X+6825458Y-9540500D01*
X+6825458Y-8778500D01*
X+6571458Y-8778500D01*
X+6571458Y-9540500D01*
X+7071458Y-9540500D02*
X+7325458Y-9540500D01*
X+7325458Y-8778500D01*
X+7071458Y-8778500D01*
X+7071458Y-9540500D01*
X+7321458Y-9540500D02*
X+7575458Y-9540500D01*
X+7575458Y-8778500D01*
X+7321458Y-8778500D01*
X+7321458Y-9540500D01*
X+7571458Y-9540500D02*
X+7825458Y-9540500D01*
X+7825458Y-8778500D01*
X+7571458Y-8778500D01*
X+7571458Y-9540500D01*
X+7821458Y-9540500D02*
X+8075458Y-9540500D01*
X+8075458Y-8778500D01*
X+7821458Y-8778500D01*
X+7821458Y-9540500D01*
X+8071458Y-9540500D02*
X+8325458Y-9540500D01*
X+8325458Y-8778500D01*
X+8071458Y-8778500D01*
X+8071458Y-9540500D01*
X+8571458Y-9540500D02*
X+8825458Y-9540500D01*
X+8825458Y-8778500D01*
X+8571458Y-8778500D01*
X+8571458Y-9540500D01*
X+9573000Y-3527000D02*
X+9827000Y-3527000D01*
X+9827000Y-987000D01*
X+9573000Y-987000D01*
X+9573000Y-3527000D01*
X+9501880Y-2384000D02*
X+9517120Y-2384000D01*
X+9532360Y-2368125D01*
X+9532360Y-2304625D01*
X+9517120Y-2288750D01*
X+9440920Y-2288750D01*
X+9440920Y-2161750D02*
X+9440920Y-2241125D01*
X+9471400Y-2241125D01*
X+9471400Y-2177625D01*
X+9486640Y-2161750D01*
X+9517120Y-2161750D01*
X+9532360Y-2177625D01*
X+9532360Y-2225250D01*
X+9517120Y-2241125D01*
X+9573000Y-6577000D02*
X+9827000Y-6577000D01*
X+9827000Y-4037000D01*
X+9573000Y-4037000D01*
X+9573000Y-6577000D01*
X+9501880Y-5434000D02*
X+9517120Y-5434000D01*
X+9532360Y-5418125D01*
X+9532360Y-5354625D01*
X+9517120Y-5338750D01*
X+9440920Y-5338750D01*
X+9456160Y-5211750D02*
X+9440920Y-5227625D01*
X+9440920Y-5275250D01*
X+9456160Y-5291125D01*
X+9517120Y-5291125D01*
X+9532360Y-5275250D01*
X+9532360Y-5227625D01*
X+9517120Y-5211750D01*
X+9501880Y-5211750D01*
X+9486640Y-5227625D01*
X+9486640Y-5291125D01*
X+1985400Y-7084800D02*
X+2087000Y-7084800D01*
X+2036200Y-7084800D02*
X+2036200Y-7237200D01*
X+1985400Y-7237200D02*
X+2087000Y-7237200D01*
X+2188600Y-7110200D02*
X+2214000Y-7084800D01*
X+2290200Y-7084800D01*
X+2315600Y-7110200D01*
X+2315600Y-7135600D01*
X+2290200Y-7161000D01*
X+2214000Y-7161000D01*
X+2188600Y-7186400D01*
X+2188600Y-7237200D01*
X+2315600Y-7237200D01*
X+2518800Y-7211800D02*
X+2493400Y-7237200D01*
X+2417200Y-7237200D01*
X+2366400Y-7186400D01*
X+2366400Y-7135600D01*
X+2417200Y-7084800D01*
X+2493400Y-7084800D01*
X+2518800Y-7110200D01*
X+1898458Y-7167500D02*
X+548458Y-7167500D01*
X+548458Y-7267500D01*
X+1048458Y-7167500D02*
X+1048458Y-7267500D01*
X+1548458Y-7167500D02*
X+1548458Y-7267500D01*
X+2598458Y-7167500D02*
X+4098458Y-7167500D01*
X+4098458Y-7267500D01*
X+3548458Y-7267500D02*
X+3548458Y-7167500D01*
X+3048458Y-7167500D02*
X+3048458Y-7267500D01*
X+5999258Y-7169100D02*
X+6050058Y-7118300D01*
X+6050058Y-7270700D01*
X+6177058Y-7194500D02*
X+6304058Y-7194500D01*
X+6354858Y-7118300D02*
X+6354858Y-7270700D01*
X+6431058Y-7194500D01*
X+6507258Y-7270700D01*
X+6507258Y-7118300D01*
X+6634258Y-7169100D02*
X+6634258Y-7270700D01*
X+6634258Y-7118300D02*
X+6634258Y-7118300D01*
X+6761258Y-7270700D02*
X+6761258Y-7169100D01*
X+6761258Y-7194500D02*
X+6786658Y-7169100D01*
X+6888258Y-7169100D01*
X+6913658Y-7194500D01*
X+6964458Y-7219900D02*
X+7116858Y-7219900D01*
X+7116858Y-7194500D01*
X+7091458Y-7169100D01*
X+6989858Y-7169100D01*
X+6964458Y-7194500D01*
X+6964458Y-7245300D01*
X+6989858Y-7270700D01*
X+7091458Y-7270700D01*
X+5898458Y-7217500D02*
X+4848458Y-7217500D01*
X+4848458Y-7367500D01*
X+5348458Y-7367500D02*
X+5348458Y-7217500D01*
X+5848458Y-7217500D02*
X+5848458Y-7367500D01*
X+7198458Y-7217500D02*
X+8398458Y-7217500D01*
X+8398458Y-7367500D01*
X+7848458Y-7367500D02*
X+7848458Y-7217500D01*
X+7348458Y-7217500D02*
X+7348458Y-7367500D01*
X+1130481Y-8623077D02*
X+1155881Y-8597677D01*
X+1232081Y-8597677D01*
X+1257481Y-8623077D01*
X+1257481Y-8648477D01*
X+1232081Y-8673877D01*
X+1155881Y-8673877D01*
X+1130481Y-8699277D01*
X+1130481Y-8750077D01*
X+1257481Y-8750077D01*
X+2250858Y-8619700D02*
X+2225458Y-8594300D01*
X+2149258Y-8594300D01*
X+2123858Y-8619700D01*
X+2123858Y-8721300D01*
X+2149258Y-8746700D01*
X+2225458Y-8746700D01*
X+2250858Y-8721300D01*
X+2250858Y-8695900D01*
X+2225458Y-8670500D01*
X+2123858Y-8670500D01*
X+2633858Y-8594300D02*
X+2760858Y-8594300D01*
X+2760858Y-8619700D01*
X+2633858Y-8746700D01*
X+3549258Y-8635100D02*
X+3600058Y-8584300D01*
X+3600058Y-8736700D01*
X+3752458Y-8635100D02*
X+3803258Y-8584300D01*
X+3803258Y-8736700D01*
X+4019258Y-8635100D02*
X+4070058Y-8584300D01*
X+4070058Y-8736700D01*
X+4197058Y-8609700D02*
X+4222458Y-8584300D01*
X+4298658Y-8584300D01*
X+4324058Y-8609700D01*
X+4324058Y-8635100D01*
X+4298658Y-8660500D01*
X+4222458Y-8660500D01*
X+4197058Y-8685900D01*
X+4197058Y-8736700D01*
X+4324058Y-8736700D01*
X+5029258Y-8635100D02*
X+5080058Y-8584300D01*
X+5080058Y-8736700D01*
X+5334058Y-8609700D02*
X+5308658Y-8584300D01*
X+5232458Y-8584300D01*
X+5207058Y-8609700D01*
X+5207058Y-8711300D01*
X+5232458Y-8736700D01*
X+5308658Y-8736700D01*
X+5334058Y-8711300D01*
X+5334058Y-8685900D01*
X+5308658Y-8660500D01*
X+5207058Y-8660500D01*
X+5549258Y-8645100D02*
X+5600058Y-8594300D01*
X+5600058Y-8746700D01*
X+5727058Y-8594300D02*
X+5854058Y-8594300D01*
X+5854058Y-8619700D01*
X+5727058Y-8746700D01*
X+6583858Y-8619700D02*
X+6609258Y-8594300D01*
X+6685458Y-8594300D01*
X+6710858Y-8619700D01*
X+6710858Y-8645100D01*
X+6685458Y-8670500D01*
X+6609258Y-8670500D01*
X+6583858Y-8695900D01*
X+6583858Y-8746700D01*
X+6710858Y-8746700D01*
X+6812458Y-8645100D02*
X+6863258Y-8594300D01*
X+6863258Y-8746700D01*
X+7043858Y-8619700D02*
X+7069258Y-8594300D01*
X+7145458Y-8594300D01*
X+7170858Y-8619700D01*
X+7170858Y-8645100D01*
X+7145458Y-8670500D01*
X+7069258Y-8670500D01*
X+7043858Y-8695900D01*
X+7043858Y-8746700D01*
X+7170858Y-8746700D01*
X+7247058Y-8619700D02*
X+7272458Y-8594300D01*
X+7348658Y-8594300D01*
X+7374058Y-8619700D01*
X+7374058Y-8645100D01*
X+7348658Y-8670500D01*
X+7272458Y-8670500D01*
X+7247058Y-8695900D01*
X+7247058Y-8746700D01*
X+7374058Y-8746700D01*
X+8043858Y-8619700D02*
X+8069258Y-8594300D01*
X+8145458Y-8594300D01*
X+8170858Y-8619700D01*
X+8170858Y-8645100D01*
X+8145458Y-8670500D01*
X+8069258Y-8670500D01*
X+8043858Y-8695900D01*
X+8043858Y-8746700D01*
X+8170858Y-8746700D01*
X+8374058Y-8619700D02*
X+8348658Y-8594300D01*
X+8272458Y-8594300D01*
X+8247058Y-8619700D01*
X+8247058Y-8721300D01*
X+8272458Y-8746700D01*
X+8348658Y-8746700D01*
X+8374058Y-8721300D01*
X+8374058Y-8695900D01*
X+8348658Y-8670500D01*
X+8247058Y-8670500D01*
X+8543858Y-8619700D02*
X+8569258Y-8594300D01*
X+8645458Y-8594300D01*
X+8670858Y-8619700D01*
X+8670858Y-8645100D01*
X+8645458Y-8670500D01*
X+8569258Y-8670500D01*
X+8543858Y-8695900D01*
X+8543858Y-8746700D01*
X+8670858Y-8746700D01*
X+8747058Y-8594300D02*
X+8874058Y-8594300D01*
X+8874058Y-8619700D01*
X+8747058Y-8746700D01*
X+400000Y-50000D02*
X+9600000Y-50000D01*
X+9950000Y-400000D02*
X+9950000Y-9400000D01*
X+50000Y-9400000D02*
X+50000Y-450000D01*
X+2973520Y-4542050D02*
X+2973520Y-4623012D01*
X+2962899Y-4625094D01*
X+2954333Y-4630814D01*
X+2948614Y-4639379D01*
X+2946532Y-4650000D01*
X+2973520Y-4676988D02*
X+2962899Y-4674906D01*
X+2954333Y-4669186D01*
X+2948614Y-4660621D01*
X+2946532Y-4650000D01*
X+2973520Y-4676988D02*
X+2973520Y-4757950D01*
X+2526480Y-4618250D02*
X+2526480Y-4681750D01*
X+2940500Y-4542050D02*
X+2559500Y-4542050D01*
X+2940500Y-4757950D02*
X+2559500Y-4757950D01*
X+2940500Y-4542050D02*
X+2973520Y-4542050D01*
X+2973520Y-4757950D02*
X+2940500Y-4757950D01*
X+2526480Y-4681750D02*
X+2526480Y-4757950D01*
X+2559500Y-4757950D01*
X+2559500Y-4542050D02*
X+2526480Y-4542050D01*
X+2526480Y-4618250D01*
X+2934404Y-4577610D02*
X+2934369Y-4576765D01*
X+2934082Y-4575074D01*
X+2933483Y-4573383D01*
X+2932503Y-4571692D01*
X+2931003Y-4570024D01*
X+2929312Y-4568804D01*
X+2927621Y-4568028D01*
X+2925930Y-4567591D01*
X+2924244Y-4567450D01*
X+2914084Y-4577610D02*
X+2914119Y-4576765D01*
X+2914406Y-4575074D01*
X+2915005Y-4573383D01*
X+2915985Y-4571692D01*
X+2917485Y-4570024D01*
X+2919176Y-4568804D01*
X+2920867Y-4568028D01*
X+2922558Y-4567591D01*
X+2924244Y-4567450D01*
X+2914084Y-4577610D02*
X+2914119Y-4578455D01*
X+2914406Y-4580146D01*
X+2915005Y-4581837D01*
X+2915985Y-4583528D01*
X+2917485Y-4585196D01*
X+2919176Y-4586416D01*
X+2920867Y-4587192D01*
X+2922558Y-4587629D01*
X+2924244Y-4587770D01*
X+2934404Y-4577610D02*
X+2934369Y-4578455D01*
X+2934082Y-4580146D01*
X+2933483Y-4581837D01*
X+2932503Y-4583528D01*
X+2931003Y-4585196D01*
X+2929312Y-4586416D01*
X+2927621Y-4587192D01*
X+2925930Y-4587629D01*
X+2924244Y-4587770D01*
X+3049580Y-4777000D02*
X+3125780Y-4777000D01*
X+3141020Y-4761125D01*
X+3141020Y-4697625D01*
X+3125780Y-4681750D01*
X+3049580Y-4681750D01*
X+3064820Y-4634125D02*
X+3049580Y-4618250D01*
X+3049580Y-4570625D01*
X+3064820Y-4554750D01*
X+3080060Y-4554750D01*
X+3095300Y-4570625D01*
X+3110540Y-4554750D01*
X+3125780Y-4554750D01*
X+3141020Y-4570625D01*
X+3141020Y-4618250D01*
X+3125780Y-4634125D01*
X+3095300Y-4602375D02*
X+3095300Y-4570625D01*
X+7230000Y-2820000D02*
X+7770000Y-2820000D01*
X+7770000Y-2160000D01*
X+7230000Y-2160000D01*
X+7230000Y-2820000D01*
X+7280000Y-2200000D02*
X+7279965Y-2199169D01*
X+7279684Y-2197505D01*
X+7279094Y-2195841D01*
X+7278130Y-2194177D01*
X+7276655Y-2192536D01*
X+7274991Y-2191335D01*
X+7273327Y-2190570D01*
X+7271663Y-2190139D01*
X+7270000Y-2190000D01*
X+7260000Y-2200000D02*
X+7260035Y-2199169D01*
X+7260316Y-2197505D01*
X+7260906Y-2195841D01*
X+7261870Y-2194177D01*
X+7263345Y-2192536D01*
X+7265009Y-2191335D01*
X+7266673Y-2190570D01*
X+7268337Y-2190139D01*
X+7270000Y-2190000D01*
X+7260000Y-2200000D02*
X+7260035Y-2200831D01*
X+7260316Y-2202495D01*
X+7260906Y-2204159D01*
X+7261870Y-2205823D01*
X+7263345Y-2207464D01*
X+7265009Y-2208665D01*
X+7266673Y-2209430D01*
X+7268337Y-2209861D01*
X+7270000Y-2210000D01*
X+7280000Y-2200000D02*
X+7279965Y-2200831D01*
X+7279684Y-2202495D01*
X+7279094Y-2204159D01*
X+7278130Y-2205823D01*
X+7276655Y-2207464D01*
X+7274991Y-2208665D01*
X+7273327Y-2209430D01*
X+7271663Y-2209861D01*
X+7270000Y-2210000D01*
X+7373000Y-2027920D02*
X+7373000Y-2104120D01*
X+7388875Y-2119360D01*
X+7452375Y-2119360D01*
X+7468250Y-2104120D01*
X+7468250Y-2027920D01*
X+7515875Y-2043160D02*
X+7531750Y-2027920D01*
X+7579375Y-2027920D01*
X+7595250Y-2043160D01*
X+7595250Y-2058400D01*
X+7579375Y-2073640D01*
X+7531750Y-2073640D01*
X+7515875Y-2088880D01*
X+7515875Y-2119360D01*
X+7595250Y-2119360D01*
X+7230000Y-4820000D02*
X+7770000Y-4820000D01*
X+7770000Y-4160000D01*
X+7230000Y-4160000D01*
X+7230000Y-4820000D01*
X+7280000Y-4200000D02*
X+7279965Y-4199169D01*
X+7279684Y-4197505D01*
X+7279094Y-4195841D01*
X+7278130Y-4194177D01*
X+7276655Y-4192536D01*
X+7274991Y-4191335D01*
X+7273327Y-4190570D01*
X+7271663Y-4190139D01*
X+7270000Y-4190000D01*
X+7260000Y-4200000D02*
X+7260035Y-4199169D01*
X+7260316Y-4197505D01*
X+7260906Y-4195841D01*
X+7261870Y-4194177D01*
X+7263345Y-4192536D01*
X+7265009Y-4191335D01*
X+7266673Y-4190570D01*
X+7268337Y-4190139D01*
X+7270000Y-4190000D01*
X+7260000Y-4200000D02*
X+7260035Y-4200831D01*
X+7260316Y-4202495D01*
X+7260906Y-4204159D01*
X+7261870Y-4205823D01*
X+7263345Y-4207464D01*
X+7265009Y-4208665D01*
X+7266673Y-4209430D01*
X+7268337Y-4209861D01*
X+7270000Y-4210000D01*
X+7280000Y-4200000D02*
X+7279965Y-4200831D01*
X+7279684Y-4202495D01*
X+7279094Y-4204159D01*
X+7278130Y-4205823D01*
X+7276655Y-4207464D01*
X+7274991Y-4208665D01*
X+7273327Y-4209430D01*
X+7271663Y-4209861D01*
X+7270000Y-4210000D01*
X+7373000Y-4027920D02*
X+7373000Y-4104120D01*
X+7388875Y-4119360D01*
X+7452375Y-4119360D01*
X+7468250Y-4104120D01*
X+7468250Y-4027920D01*
X+7531750Y-4058400D02*
X+7563500Y-4027920D01*
X+7563500Y-4119360D01*
X+8690038Y-7639840D02*
X+8690038Y-7571260D01*
X+8811958Y-7639840D02*
X+8811958Y-7568720D01*
X+8649398Y-7797320D02*
X+8557958Y-7797320D01*
X+8557958Y-7717945D01*
X+8573198Y-7702070D01*
X+8588438Y-7702070D01*
X+8603678Y-7717945D01*
X+8603678Y-7797320D01*
X+8603678Y-7717945D02*
X+8618918Y-7702070D01*
X+8649398Y-7702070D01*
X+8588438Y-7638570D02*
X+8557958Y-7606820D01*
X+8649398Y-7606820D01*
X+8603678Y-7511570D02*
X+8588438Y-7527445D01*
X+8573198Y-7527445D01*
X+8557958Y-7511570D01*
X+8557958Y-7463945D01*
X+8573198Y-7448070D01*
X+8588438Y-7448070D01*
X+8603678Y-7463945D01*
X+8603678Y-7511570D01*
X+8618918Y-7527445D01*
X+8634158Y-7527445D01*
X+8649398Y-7511570D01*
X+8649398Y-7463945D01*
X+8634158Y-7448070D01*
X+8618918Y-7448070D01*
X+8603678Y-7463945D01*
X+6408420Y-4323660D02*
X+6408420Y-4392240D01*
X+6286500Y-4323660D02*
X+6286500Y-4394780D01*
X+6390500Y-4183680D02*
X+6299060Y-4183680D01*
X+6299060Y-4104305D01*
X+6314300Y-4088430D01*
X+6329540Y-4088430D01*
X+6344780Y-4104305D01*
X+6344780Y-4183680D01*
X+6344780Y-4104305D02*
X+6360020Y-4088430D01*
X+6390500Y-4088430D01*
X+6329540Y-4024930D02*
X+6299060Y-3993180D01*
X+6390500Y-3993180D01*
X+6808420Y-4323660D02*
X+6808420Y-4392240D01*
X+6686500Y-4323660D02*
X+6686500Y-4394780D01*
X+6790500Y-4183680D02*
X+6699060Y-4183680D01*
X+6699060Y-4104305D01*
X+6714300Y-4088430D01*
X+6729540Y-4088430D01*
X+6744780Y-4104305D01*
X+6744780Y-4183680D01*
X+6744780Y-4104305D02*
X+6760020Y-4088430D01*
X+6790500Y-4088430D01*
X+6714300Y-4040805D02*
X+6699060Y-4024930D01*
X+6699060Y-3977305D01*
X+6714300Y-3961430D01*
X+6729540Y-3961430D01*
X+6744780Y-3977305D01*
X+6744780Y-4024930D01*
X+6760020Y-4040805D01*
X+6790500Y-4040805D01*
X+6790500Y-3961430D01*
X+6608420Y-4323660D02*
X+6608420Y-4392240D01*
X+6486500Y-4323660D02*
X+6486500Y-4394780D01*
X+6590500Y-4183680D02*
X+6499060Y-4183680D01*
X+6499060Y-4104305D01*
X+6514300Y-4088430D01*
X+6529540Y-4088430D01*
X+6544780Y-4104305D01*
X+6544780Y-4183680D01*
X+6544780Y-4104305D02*
X+6560020Y-4088430D01*
X+6590500Y-4088430D01*
X+6514300Y-4040805D02*
X+6499060Y-4024930D01*
X+6499060Y-3977305D01*
X+6514300Y-3961430D01*
X+6529540Y-3961430D01*
X+6544780Y-3977305D01*
X+6560020Y-3961430D01*
X+6575260Y-3961430D01*
X+6590500Y-3977305D01*
X+6590500Y-4024930D01*
X+6575260Y-4040805D01*
X+6544780Y-4009055D02*
X+6544780Y-3977305D01*
X+6291580Y-4726340D02*
X+6291580Y-4657760D01*
X+6413500Y-4726340D02*
X+6413500Y-4655220D01*
X+6400940Y-5120320D02*
X+6309500Y-5120320D01*
X+6309500Y-5040945D01*
X+6324740Y-5025070D01*
X+6339980Y-5025070D01*
X+6355220Y-5040945D01*
X+6355220Y-5120320D01*
X+6355220Y-5040945D02*
X+6370460Y-5025070D01*
X+6400940Y-5025070D01*
X+6370460Y-4898070D02*
X+6370460Y-4993320D01*
X+6309500Y-4929820D01*
X+6400940Y-4929820D01*
X+6691580Y-4726340D02*
X+6691580Y-4657760D01*
X+6813500Y-4726340D02*
X+6813500Y-4655220D01*
X+6800940Y-5120320D02*
X+6709500Y-5120320D01*
X+6709500Y-5040945D01*
X+6724740Y-5025070D01*
X+6739980Y-5025070D01*
X+6755220Y-5040945D01*
X+6755220Y-5120320D01*
X+6755220Y-5040945D02*
X+6770460Y-5025070D01*
X+6800940Y-5025070D01*
X+6709500Y-4898070D02*
X+6709500Y-4977445D01*
X+6739980Y-4977445D01*
X+6739980Y-4913945D01*
X+6755220Y-4898070D01*
X+6785700Y-4898070D01*
X+6800940Y-4913945D01*
X+6800940Y-4961570D01*
X+6785700Y-4977445D01*
X+6491580Y-4726340D02*
X+6491580Y-4657760D01*
X+6613500Y-4726340D02*
X+6613500Y-4655220D01*
X+6600940Y-5120320D02*
X+6509500Y-5120320D01*
X+6509500Y-5040945D01*
X+6524740Y-5025070D01*
X+6539980Y-5025070D01*
X+6555220Y-5040945D01*
X+6555220Y-5120320D01*
X+6555220Y-5040945D02*
X+6570460Y-5025070D01*
X+6600940Y-5025070D01*
X+6524740Y-4898070D02*
X+6509500Y-4913945D01*
X+6509500Y-4961570D01*
X+6524740Y-4977445D01*
X+6585700Y-4977445D01*
X+6600940Y-4961570D01*
X+6600940Y-4913945D01*
X+6585700Y-4898070D01*
X+6570460Y-4898070D01*
X+6555220Y-4913945D01*
X+6555220Y-4977445D01*
X+6408420Y-2323660D02*
X+6408420Y-2392240D01*
X+6286500Y-2323660D02*
X+6286500Y-2394780D01*
X+6390500Y-2133680D02*
X+6299060Y-2133680D01*
X+6299060Y-2054305D01*
X+6314300Y-2038430D01*
X+6329540Y-2038430D01*
X+6344780Y-2054305D01*
X+6344780Y-2133680D01*
X+6344780Y-2054305D02*
X+6360020Y-2038430D01*
X+6390500Y-2038430D01*
X+6299060Y-1990805D02*
X+6299060Y-1911430D01*
X+6314300Y-1911430D01*
X+6390500Y-1990805D01*
X+6808420Y-2323660D02*
X+6808420Y-2392240D01*
X+6686500Y-2323660D02*
X+6686500Y-2394780D01*
X+6790500Y-2133680D02*
X+6699060Y-2133680D01*
X+6699060Y-2054305D01*
X+6714300Y-2038430D01*
X+6729540Y-2038430D01*
X+6744780Y-2054305D01*
X+6744780Y-2133680D01*
X+6744780Y-2054305D02*
X+6760020Y-2038430D01*
X+6790500Y-2038430D01*
X+6744780Y-1974930D02*
X+6729540Y-1990805D01*
X+6714300Y-1990805D01*
X+6699060Y-1974930D01*
X+6699060Y-1927305D01*
X+6714300Y-1911430D01*
X+6729540Y-1911430D01*
X+6744780Y-1927305D01*
X+6744780Y-1974930D01*
X+6760020Y-1990805D01*
X+6775260Y-1990805D01*
X+6790500Y-1974930D01*
X+6790500Y-1927305D01*
X+6775260Y-1911430D01*
X+6760020Y-1911430D01*
X+6744780Y-1927305D01*
X+6608420Y-2323660D02*
X+6608420Y-2392240D01*
X+6486500Y-2323660D02*
X+6486500Y-2394780D01*
X+6590500Y-2133680D02*
X+6499060Y-2133680D01*
X+6499060Y-2054305D01*
X+6514300Y-2038430D01*
X+6529540Y-2038430D01*
X+6544780Y-2054305D01*
X+6544780Y-2133680D01*
X+6544780Y-2054305D02*
X+6560020Y-2038430D01*
X+6590500Y-2038430D01*
X+6529540Y-1911430D02*
X+6544780Y-1927305D01*
X+6544780Y-1974930D01*
X+6529540Y-1990805D01*
X+6514300Y-1990805D01*
X+6499060Y-1974930D01*
X+6499060Y-1927305D01*
X+6514300Y-1911430D01*
X+6575260Y-1911430D01*
X+6590500Y-1927305D01*
X+6590500Y-1974930D01*
X+6291580Y-2726340D02*
X+6291580Y-2657760D01*
X+6413500Y-2726340D02*
X+6413500Y-2655220D01*
X+6400940Y-3283820D02*
X+6309500Y-3283820D01*
X+6309500Y-3204445D01*
X+6324740Y-3188570D01*
X+6339980Y-3188570D01*
X+6355220Y-3204445D01*
X+6355220Y-3283820D01*
X+6355220Y-3204445D02*
X+6370460Y-3188570D01*
X+6400940Y-3188570D01*
X+6339980Y-3125070D02*
X+6309500Y-3093320D01*
X+6400940Y-3093320D01*
X+6385700Y-3029820D02*
X+6324740Y-3029820D01*
X+6309500Y-3013945D01*
X+6309500Y-2950445D01*
X+6324740Y-2934570D01*
X+6385700Y-2934570D01*
X+6400940Y-2950445D01*
X+6400940Y-3013945D01*
X+6385700Y-3029820D01*
X+6400940Y-3029820D02*
X+6309500Y-2934570D01*
X+6691580Y-2726340D02*
X+6691580Y-2657760D01*
X+6813500Y-2726340D02*
X+6813500Y-2655220D01*
X+6800940Y-3283820D02*
X+6709500Y-3283820D01*
X+6709500Y-3204445D01*
X+6724740Y-3188570D01*
X+6739980Y-3188570D01*
X+6755220Y-3204445D01*
X+6755220Y-3283820D01*
X+6755220Y-3204445D02*
X+6770460Y-3188570D01*
X+6800940Y-3188570D01*
X+6739980Y-3125070D02*
X+6709500Y-3093320D01*
X+6800940Y-3093320D01*
X+6739980Y-2998070D02*
X+6709500Y-2966320D01*
X+6800940Y-2966320D01*
X+6491580Y-2726340D02*
X+6491580Y-2657760D01*
X+6613500Y-2726340D02*
X+6613500Y-2655220D01*
X+6600940Y-3283820D02*
X+6509500Y-3283820D01*
X+6509500Y-3204445D01*
X+6524740Y-3188570D01*
X+6539980Y-3188570D01*
X+6555220Y-3204445D01*
X+6555220Y-3283820D01*
X+6555220Y-3204445D02*
X+6570460Y-3188570D01*
X+6600940Y-3188570D01*
X+6539980Y-3125070D02*
X+6509500Y-3093320D01*
X+6600940Y-3093320D01*
X+6524740Y-3013945D02*
X+6509500Y-2998070D01*
X+6509500Y-2950445D01*
X+6524740Y-2934570D01*
X+6539980Y-2934570D01*
X+6555220Y-2950445D01*
X+6555220Y-2998070D01*
X+6570460Y-3013945D01*
X+6600940Y-3013945D01*
X+6600940Y-2934570D01*
X+7023660Y-1891580D02*
X+7092240Y-1891580D01*
X+7023660Y-2013500D02*
X+7094780Y-2013500D01*
X+6866180Y-1850940D02*
X+6866180Y-1759500D01*
X+6945555Y-1759500D01*
X+6961430Y-1774740D01*
X+6961430Y-1789980D01*
X+6945555Y-1805220D01*
X+6866180Y-1805220D01*
X+6945555Y-1805220D02*
X+6961430Y-1820460D01*
X+6961430Y-1850940D01*
X+7024930Y-1789980D02*
X+7056680Y-1759500D01*
X+7056680Y-1850940D01*
X+7136055Y-1774740D02*
X+7151930Y-1759500D01*
X+7199555Y-1759500D01*
X+7215430Y-1774740D01*
X+7215430Y-1789980D01*
X+7199555Y-1805220D01*
X+7215430Y-1820460D01*
X+7215430Y-1835700D01*
X+7199555Y-1850940D01*
X+7151930Y-1850940D01*
X+7136055Y-1835700D01*
X+7167805Y-1805220D02*
X+7199555Y-1805220D01*
X+7023660Y-3891580D02*
X+7092240Y-3891580D01*
X+7023660Y-4013500D02*
X+7094780Y-4013500D01*
X+6866180Y-3850940D02*
X+6866180Y-3759500D01*
X+6945555Y-3759500D01*
X+6961430Y-3774740D01*
X+6961430Y-3789980D01*
X+6945555Y-3805220D01*
X+6866180Y-3805220D01*
X+6945555Y-3805220D02*
X+6961430Y-3820460D01*
X+6961430Y-3850940D01*
X+7024930Y-3789980D02*
X+7056680Y-3759500D01*
X+7056680Y-3850940D01*
X+7215430Y-3820460D02*
X+7120180Y-3820460D01*
X+7183680Y-3759500D01*
X+7183680Y-3850940D01*
D73*
X+9207500Y-1100000D02*
X+9207457Y-1098961D01*
X+9207105Y-1096882D01*
X+9206368Y-1094803D01*
X+9205164Y-1092724D01*
X+9203323Y-1090674D01*
X+9201244Y-1089171D01*
X+9199165Y-1088214D01*
X+9197086Y-1087675D01*
X+9195007Y-1087500D01*
X+9195000Y-1087500D01*
X+9182500Y-1100000D02*
X+9182543Y-1098961D01*
X+9182895Y-1096882D01*
X+9183632Y-1094803D01*
X+9184836Y-1092724D01*
X+9186677Y-1090674D01*
X+9188756Y-1089171D01*
X+9190835Y-1088214D01*
X+9192914Y-1087675D01*
X+9194993Y-1087500D01*
X+9195000Y-1087500D01*
X+9182500Y-1100000D02*
X+9182543Y-1101039D01*
X+9182895Y-1103118D01*
X+9183632Y-1105197D01*
X+9184836Y-1107276D01*
X+9186677Y-1109326D01*
X+9188756Y-1110829D01*
X+9190835Y-1111786D01*
X+9192914Y-1112325D01*
X+9194993Y-1112500D01*
X+9195000Y-1112500D01*
X+9207500Y-1100000D02*
X+9207457Y-1101039D01*
X+9207105Y-1103118D01*
X+9206368Y-1105197D01*
X+9205164Y-1107276D01*
X+9203323Y-1109326D01*
X+9201244Y-1110829D01*
X+9199165Y-1111786D01*
X+9197086Y-1112325D01*
X+9195007Y-1112500D01*
X+9195000Y-1112500D01*
D30*
X+9020000Y-1135000D02*
X+9020000Y-1065000D01*
D72*
X+8866750Y-966920D02*
X+8866750Y-875480D01*
X+8930250Y-875480D01*
X+8962000Y-905960D01*
X+8962000Y-936440D01*
X+8930250Y-966920D01*
X+8866750Y-966920D01*
X+9025500Y-905960D02*
X+9057250Y-875480D01*
X+9057250Y-966920D01*
D73*
X+9207500Y-1350000D02*
X+9207457Y-1348961D01*
X+9207105Y-1346882D01*
X+9206368Y-1344803D01*
X+9205164Y-1342724D01*
X+9203323Y-1340674D01*
X+9201244Y-1339171D01*
X+9199165Y-1338214D01*
X+9197086Y-1337675D01*
X+9195007Y-1337500D01*
X+9195000Y-1337500D01*
X+9182500Y-1350000D02*
X+9182543Y-1348961D01*
X+9182895Y-1346882D01*
X+9183632Y-1344803D01*
X+9184836Y-1342724D01*
X+9186677Y-1340674D01*
X+9188756Y-1339171D01*
X+9190835Y-1338214D01*
X+9192914Y-1337675D01*
X+9194993Y-1337500D01*
X+9195000Y-1337500D01*
X+9182500Y-1350000D02*
X+9182543Y-1351039D01*
X+9182895Y-1353118D01*
X+9183632Y-1355197D01*
X+9184836Y-1357276D01*
X+9186677Y-1359326D01*
X+9188756Y-1360829D01*
X+9190835Y-1361786D01*
X+9192914Y-1362325D01*
X+9194993Y-1362500D01*
X+9195000Y-1362500D01*
X+9207500Y-1350000D02*
X+9207457Y-1351039D01*
X+9207105Y-1353118D01*
X+9206368Y-1355197D01*
X+9205164Y-1357276D01*
X+9203323Y-1359326D01*
X+9201244Y-1360829D01*
X+9199165Y-1361786D01*
X+9197086Y-1362325D01*
X+9195007Y-1362500D01*
X+9195000Y-1362500D01*
D30*
X+9020000Y-1385000D02*
X+9020000Y-1315000D01*
D73*
X+9207500Y-1600000D02*
X+9207457Y-1598961D01*
X+9207105Y-1596882D01*
X+9206368Y-1594803D01*
X+9205164Y-1592724D01*
X+9203323Y-1590674D01*
X+9201244Y-1589171D01*
X+9199165Y-1588214D01*
X+9197086Y-1587675D01*
X+9195007Y-1587500D01*
X+9195000Y-1587500D01*
X+9182500Y-1600000D02*
X+9182543Y-1598961D01*
X+9182895Y-1596882D01*
X+9183632Y-1594803D01*
X+9184836Y-1592724D01*
X+9186677Y-1590674D01*
X+9188756Y-1589171D01*
X+9190835Y-1588214D01*
X+9192914Y-1587675D01*
X+9194993Y-1587500D01*
X+9195000Y-1587500D01*
X+9182500Y-1600000D02*
X+9182543Y-1601039D01*
X+9182895Y-1603118D01*
X+9183632Y-1605197D01*
X+9184836Y-1607276D01*
X+9186677Y-1609326D01*
X+9188756Y-1610829D01*
X+9190835Y-1611786D01*
X+9192914Y-1612325D01*
X+9194993Y-1612500D01*
X+9195000Y-1612500D01*
X+9207500Y-1600000D02*
X+9207457Y-1601039D01*
X+9207105Y-1603118D01*
X+9206368Y-1605197D01*
X+9205164Y-1607276D01*
X+9203323Y-1609326D01*
X+9201244Y-1610829D01*
X+9199165Y-1611786D01*
X+9197086Y-1612325D01*
X+9195007Y-1612500D01*
X+9195000Y-1612500D01*
D30*
X+9020000Y-1635000D02*
X+9020000Y-1565000D01*
D73*
X+9207500Y-1850000D02*
X+9207457Y-1848961D01*
X+9207105Y-1846882D01*
X+9206368Y-1844803D01*
X+9205164Y-1842724D01*
X+9203323Y-1840674D01*
X+9201244Y-1839171D01*
X+9199165Y-1838214D01*
X+9197086Y-1837675D01*
X+9195007Y-1837500D01*
X+9195000Y-1837500D01*
X+9182500Y-1850000D02*
X+9182543Y-1848961D01*
X+9182895Y-1846882D01*
X+9183632Y-1844803D01*
X+9184836Y-1842724D01*
X+9186677Y-1840674D01*
X+9188756Y-1839171D01*
X+9190835Y-1838214D01*
X+9192914Y-1837675D01*
X+9194993Y-1837500D01*
X+9195000Y-1837500D01*
X+9182500Y-1850000D02*
X+9182543Y-1851039D01*
X+9182895Y-1853118D01*
X+9183632Y-1855197D01*
X+9184836Y-1857276D01*
X+9186677Y-1859326D01*
X+9188756Y-1860829D01*
X+9190835Y-1861786D01*
X+9192914Y-1862325D01*
X+9194993Y-1862500D01*
X+9195000Y-1862500D01*
X+9207500Y-1850000D02*
X+9207457Y-1851039D01*
X+9207105Y-1853118D01*
X+9206368Y-1855197D01*
X+9205164Y-1857276D01*
X+9203323Y-1859326D01*
X+9201244Y-1860829D01*
X+9199165Y-1861786D01*
X+9197086Y-1862325D01*
X+9195007Y-1862500D01*
X+9195000Y-1862500D01*
D30*
X+9020000Y-1885000D02*
X+9020000Y-1815000D01*
D73*
X+9207500Y-2100000D02*
X+9207457Y-2098961D01*
X+9207105Y-2096882D01*
X+9206368Y-2094803D01*
X+9205164Y-2092724D01*
X+9203323Y-2090674D01*
X+9201244Y-2089171D01*
X+9199165Y-2088214D01*
X+9197086Y-2087675D01*
X+9195007Y-2087500D01*
X+9195000Y-2087500D01*
X+9182500Y-2100000D02*
X+9182543Y-2098961D01*
X+9182895Y-2096882D01*
X+9183632Y-2094803D01*
X+9184836Y-2092724D01*
X+9186677Y-2090674D01*
X+9188756Y-2089171D01*
X+9190835Y-2088214D01*
X+9192914Y-2087675D01*
X+9194993Y-2087500D01*
X+9195000Y-2087500D01*
X+9182500Y-2100000D02*
X+9182543Y-2101039D01*
X+9182895Y-2103118D01*
X+9183632Y-2105197D01*
X+9184836Y-2107276D01*
X+9186677Y-2109326D01*
X+9188756Y-2110829D01*
X+9190835Y-2111786D01*
X+9192914Y-2112325D01*
X+9194993Y-2112500D01*
X+9195000Y-2112500D01*
X+9207500Y-2100000D02*
X+9207457Y-2101039D01*
X+9207105Y-2103118D01*
X+9206368Y-2105197D01*
X+9205164Y-2107276D01*
X+9203323Y-2109326D01*
X+9201244Y-2110829D01*
X+9199165Y-2111786D01*
X+9197086Y-2112325D01*
X+9195007Y-2112500D01*
X+9195000Y-2112500D01*
D30*
X+9020000Y-2135000D02*
X+9020000Y-2065000D01*
D73*
X+9207500Y-2350000D02*
X+9207457Y-2348961D01*
X+9207105Y-2346882D01*
X+9206368Y-2344803D01*
X+9205164Y-2342724D01*
X+9203323Y-2340674D01*
X+9201244Y-2339171D01*
X+9199165Y-2338214D01*
X+9197086Y-2337675D01*
X+9195007Y-2337500D01*
X+9195000Y-2337500D01*
X+9182500Y-2350000D02*
X+9182543Y-2348961D01*
X+9182895Y-2346882D01*
X+9183632Y-2344803D01*
X+9184836Y-2342724D01*
X+9186677Y-2340674D01*
X+9188756Y-2339171D01*
X+9190835Y-2338214D01*
X+9192914Y-2337675D01*
X+9194993Y-2337500D01*
X+9195000Y-2337500D01*
X+9182500Y-2350000D02*
X+9182543Y-2351039D01*
X+9182895Y-2353118D01*
X+9183632Y-2355197D01*
X+9184836Y-2357276D01*
X+9186677Y-2359326D01*
X+9188756Y-2360829D01*
X+9190835Y-2361786D01*
X+9192914Y-2362325D01*
X+9194993Y-2362500D01*
X+9195000Y-2362500D01*
X+9207500Y-2350000D02*
X+9207457Y-2351039D01*
X+9207105Y-2353118D01*
X+9206368Y-2355197D01*
X+9205164Y-2357276D01*
X+9203323Y-2359326D01*
X+9201244Y-2360829D01*
X+9199165Y-2361786D01*
X+9197086Y-2362325D01*
X+9195007Y-2362500D01*
X+9195000Y-2362500D01*
D30*
X+9020000Y-2385000D02*
X+9020000Y-2315000D01*
D73*
X+9207500Y-2600000D02*
X+9207457Y-2598961D01*
X+9207105Y-2596882D01*
X+9206368Y-2594803D01*
X+9205164Y-2592724D01*
X+9203323Y-2590674D01*
X+9201244Y-2589171D01*
X+9199165Y-2588214D01*
X+9197086Y-2587675D01*
X+9195007Y-2587500D01*
X+9195000Y-2587500D01*
X+9182500Y-2600000D02*
X+9182543Y-2598961D01*
X+9182895Y-2596882D01*
X+9183632Y-2594803D01*
X+9184836Y-2592724D01*
X+9186677Y-2590674D01*
X+9188756Y-2589171D01*
X+9190835Y-2588214D01*
X+9192914Y-2587675D01*
X+9194993Y-2587500D01*
X+9195000Y-2587500D01*
X+9182500Y-2600000D02*
X+9182543Y-2601039D01*
X+9182895Y-2603118D01*
X+9183632Y-2605197D01*
X+9184836Y-2607276D01*
X+9186677Y-2609326D01*
X+9188756Y-2610829D01*
X+9190835Y-2611786D01*
X+9192914Y-2612325D01*
X+9194993Y-2612500D01*
X+9195000Y-2612500D01*
X+9207500Y-2600000D02*
X+9207457Y-2601039D01*
X+9207105Y-2603118D01*
X+9206368Y-2605197D01*
X+9205164Y-2607276D01*
X+9203323Y-2609326D01*
X+9201244Y-2610829D01*
X+9199165Y-2611786D01*
X+9197086Y-2612325D01*
X+9195007Y-2612500D01*
X+9195000Y-2612500D01*
D30*
X+9020000Y-2635000D02*
X+9020000Y-2565000D01*
D73*
X+9207500Y-2850000D02*
X+9207457Y-2848961D01*
X+9207105Y-2846882D01*
X+9206368Y-2844803D01*
X+9205164Y-2842724D01*
X+9203323Y-2840674D01*
X+9201244Y-2839171D01*
X+9199165Y-2838214D01*
X+9197086Y-2837675D01*
X+9195007Y-2837500D01*
X+9195000Y-2837500D01*
X+9182500Y-2850000D02*
X+9182543Y-2848961D01*
X+9182895Y-2846882D01*
X+9183632Y-2844803D01*
X+9184836Y-2842724D01*
X+9186677Y-2840674D01*
X+9188756Y-2839171D01*
X+9190835Y-2838214D01*
X+9192914Y-2837675D01*
X+9194993Y-2837500D01*
X+9195000Y-2837500D01*
X+9182500Y-2850000D02*
X+9182543Y-2851039D01*
X+9182895Y-2853118D01*
X+9183632Y-2855197D01*
X+9184836Y-2857276D01*
X+9186677Y-2859326D01*
X+9188756Y-2860829D01*
X+9190835Y-2861786D01*
X+9192914Y-2862325D01*
X+9194993Y-2862500D01*
X+9195000Y-2862500D01*
X+9207500Y-2850000D02*
X+9207457Y-2851039D01*
X+9207105Y-2853118D01*
X+9206368Y-2855197D01*
X+9205164Y-2857276D01*
X+9203323Y-2859326D01*
X+9201244Y-2860829D01*
X+9199165Y-2861786D01*
X+9197086Y-2862325D01*
X+9195007Y-2862500D01*
X+9195000Y-2862500D01*
D30*
X+9020000Y-2885000D02*
X+9020000Y-2815000D01*
D72*
X+8866750Y-3066920D02*
X+8866750Y-2975480D01*
X+8930250Y-2975480D01*
X+8962000Y-3005960D01*
X+8962000Y-3036440D01*
X+8930250Y-3066920D01*
X+8866750Y-3066920D01*
X+9025500Y-3021200D02*
X+9009625Y-3005960D01*
X+9009625Y-2990720D01*
X+9025500Y-2975480D01*
X+9073125Y-2975480D01*
X+9089000Y-2990720D01*
X+9089000Y-3005960D01*
X+9073125Y-3021200D01*
X+9025500Y-3021200D01*
X+9009625Y-3036440D01*
X+9009625Y-3051680D01*
X+9025500Y-3066920D01*
X+9073125Y-3066920D01*
X+9089000Y-3051680D01*
X+9089000Y-3036440D01*
X+9073125Y-3021200D01*
D73*
X+9207500Y-4150000D02*
X+9207457Y-4148961D01*
X+9207105Y-4146882D01*
X+9206368Y-4144803D01*
X+9205164Y-4142724D01*
X+9203323Y-4140674D01*
X+9201244Y-4139171D01*
X+9199165Y-4138214D01*
X+9197086Y-4137675D01*
X+9195007Y-4137500D01*
X+9195000Y-4137500D01*
X+9182500Y-4150000D02*
X+9182543Y-4148961D01*
X+9182895Y-4146882D01*
X+9183632Y-4144803D01*
X+9184836Y-4142724D01*
X+9186677Y-4140674D01*
X+9188756Y-4139171D01*
X+9190835Y-4138214D01*
X+9192914Y-4137675D01*
X+9194993Y-4137500D01*
X+9195000Y-4137500D01*
X+9182500Y-4150000D02*
X+9182543Y-4151039D01*
X+9182895Y-4153118D01*
X+9183632Y-4155197D01*
X+9184836Y-4157276D01*
X+9186677Y-4159326D01*
X+9188756Y-4160829D01*
X+9190835Y-4161786D01*
X+9192914Y-4162325D01*
X+9194993Y-4162500D01*
X+9195000Y-4162500D01*
X+9207500Y-4150000D02*
X+9207457Y-4151039D01*
X+9207105Y-4153118D01*
X+9206368Y-4155197D01*
X+9205164Y-4157276D01*
X+9203323Y-4159326D01*
X+9201244Y-4160829D01*
X+9199165Y-4161786D01*
X+9197086Y-4162325D01*
X+9195007Y-4162500D01*
X+9195000Y-4162500D01*
D30*
X+9020000Y-4185000D02*
X+9020000Y-4115000D01*
D72*
X+8866750Y-4016920D02*
X+8866750Y-3925480D01*
X+8930250Y-3925480D01*
X+8962000Y-3955960D01*
X+8962000Y-3986440D01*
X+8930250Y-4016920D01*
X+8866750Y-4016920D01*
X+9089000Y-3955960D02*
X+9073125Y-3971200D01*
X+9025500Y-3971200D01*
X+9009625Y-3955960D01*
X+9009625Y-3940720D01*
X+9025500Y-3925480D01*
X+9073125Y-3925480D01*
X+9089000Y-3940720D01*
X+9089000Y-4001680D01*
X+9073125Y-4016920D01*
X+9025500Y-4016920D01*
D73*
X+9207500Y-4400000D02*
X+9207457Y-4398961D01*
X+9207105Y-4396882D01*
X+9206368Y-4394803D01*
X+9205164Y-4392724D01*
X+9203323Y-4390674D01*
X+9201244Y-4389171D01*
X+9199165Y-4388214D01*
X+9197086Y-4387675D01*
X+9195007Y-4387500D01*
X+9195000Y-4387500D01*
X+9182500Y-4400000D02*
X+9182543Y-4398961D01*
X+9182895Y-4396882D01*
X+9183632Y-4394803D01*
X+9184836Y-4392724D01*
X+9186677Y-4390674D01*
X+9188756Y-4389171D01*
X+9190835Y-4388214D01*
X+9192914Y-4387675D01*
X+9194993Y-4387500D01*
X+9195000Y-4387500D01*
X+9182500Y-4400000D02*
X+9182543Y-4401039D01*
X+9182895Y-4403118D01*
X+9183632Y-4405197D01*
X+9184836Y-4407276D01*
X+9186677Y-4409326D01*
X+9188756Y-4410829D01*
X+9190835Y-4411786D01*
X+9192914Y-4412325D01*
X+9194993Y-4412500D01*
X+9195000Y-4412500D01*
X+9207500Y-4400000D02*
X+9207457Y-4401039D01*
X+9207105Y-4403118D01*
X+9206368Y-4405197D01*
X+9205164Y-4407276D01*
X+9203323Y-4409326D01*
X+9201244Y-4410829D01*
X+9199165Y-4411786D01*
X+9197086Y-4412325D01*
X+9195007Y-4412500D01*
X+9195000Y-4412500D01*
D30*
X+9020000Y-4435000D02*
X+9020000Y-4365000D01*
D73*
X+9207500Y-4650000D02*
X+9207457Y-4648961D01*
X+9207105Y-4646882D01*
X+9206368Y-4644803D01*
X+9205164Y-4642724D01*
X+9203323Y-4640674D01*
X+9201244Y-4639171D01*
X+9199165Y-4638214D01*
X+9197086Y-4637675D01*
X+9195007Y-4637500D01*
X+9195000Y-4637500D01*
X+9182500Y-4650000D02*
X+9182543Y-4648961D01*
X+9182895Y-4646882D01*
X+9183632Y-4644803D01*
X+9184836Y-4642724D01*
X+9186677Y-4640674D01*
X+9188756Y-4639171D01*
X+9190835Y-4638214D01*
X+9192914Y-4637675D01*
X+9194993Y-4637500D01*
X+9195000Y-4637500D01*
X+9182500Y-4650000D02*
X+9182543Y-4651039D01*
X+9182895Y-4653118D01*
X+9183632Y-4655197D01*
X+9184836Y-4657276D01*
X+9186677Y-4659326D01*
X+9188756Y-4660829D01*
X+9190835Y-4661786D01*
X+9192914Y-4662325D01*
X+9194993Y-4662500D01*
X+9195000Y-4662500D01*
X+9207500Y-4650000D02*
X+9207457Y-4651039D01*
X+9207105Y-4653118D01*
X+9206368Y-4655197D01*
X+9205164Y-4657276D01*
X+9203323Y-4659326D01*
X+9201244Y-4660829D01*
X+9199165Y-4661786D01*
X+9197086Y-4662325D01*
X+9195007Y-4662500D01*
X+9195000Y-4662500D01*
D30*
X+9020000Y-4685000D02*
X+9020000Y-4615000D01*
D73*
X+9207500Y-4900000D02*
X+9207457Y-4898961D01*
X+9207105Y-4896882D01*
X+9206368Y-4894803D01*
X+9205164Y-4892724D01*
X+9203323Y-4890674D01*
X+9201244Y-4889171D01*
X+9199165Y-4888214D01*
X+9197086Y-4887675D01*
X+9195007Y-4887500D01*
X+9195000Y-4887500D01*
X+9182500Y-4900000D02*
X+9182543Y-4898961D01*
X+9182895Y-4896882D01*
X+9183632Y-4894803D01*
X+9184836Y-4892724D01*
X+9186677Y-4890674D01*
X+9188756Y-4889171D01*
X+9190835Y-4888214D01*
X+9192914Y-4887675D01*
X+9194993Y-4887500D01*
X+9195000Y-4887500D01*
X+9182500Y-4900000D02*
X+9182543Y-4901039D01*
X+9182895Y-4903118D01*
X+9183632Y-4905197D01*
X+9184836Y-4907276D01*
X+9186677Y-4909326D01*
X+9188756Y-4910829D01*
X+9190835Y-4911786D01*
X+9192914Y-4912325D01*
X+9194993Y-4912500D01*
X+9195000Y-4912500D01*
X+9207500Y-4900000D02*
X+9207457Y-4901039D01*
X+9207105Y-4903118D01*
X+9206368Y-4905197D01*
X+9205164Y-4907276D01*
X+9203323Y-4909326D01*
X+9201244Y-4910829D01*
X+9199165Y-4911786D01*
X+9197086Y-4912325D01*
X+9195007Y-4912500D01*
X+9195000Y-4912500D01*
D30*
X+9020000Y-4935000D02*
X+9020000Y-4865000D01*
D73*
X+9207500Y-5150000D02*
X+9207457Y-5148961D01*
X+9207105Y-5146882D01*
X+9206368Y-5144803D01*
X+9205164Y-5142724D01*
X+9203323Y-5140674D01*
X+9201244Y-5139171D01*
X+9199165Y-5138214D01*
X+9197086Y-5137675D01*
X+9195007Y-5137500D01*
X+9195000Y-5137500D01*
X+9182500Y-5150000D02*
X+9182543Y-5148961D01*
X+9182895Y-5146882D01*
X+9183632Y-5144803D01*
X+9184836Y-5142724D01*
X+9186677Y-5140674D01*
X+9188756Y-5139171D01*
X+9190835Y-5138214D01*
X+9192914Y-5137675D01*
X+9194993Y-5137500D01*
X+9195000Y-5137500D01*
X+9182500Y-5150000D02*
X+9182543Y-5151039D01*
X+9182895Y-5153118D01*
X+9183632Y-5155197D01*
X+9184836Y-5157276D01*
X+9186677Y-5159326D01*
X+9188756Y-5160829D01*
X+9190835Y-5161786D01*
X+9192914Y-5162325D01*
X+9194993Y-5162500D01*
X+9195000Y-5162500D01*
X+9207500Y-5150000D02*
X+9207457Y-5151039D01*
X+9207105Y-5153118D01*
X+9206368Y-5155197D01*
X+9205164Y-5157276D01*
X+9203323Y-5159326D01*
X+9201244Y-5160829D01*
X+9199165Y-5161786D01*
X+9197086Y-5162325D01*
X+9195007Y-5162500D01*
X+9195000Y-5162500D01*
D30*
X+9020000Y-5185000D02*
X+9020000Y-5115000D01*
D73*
X+9207500Y-5400000D02*
X+9207457Y-5398961D01*
X+9207105Y-5396882D01*
X+9206368Y-5394803D01*
X+9205164Y-5392724D01*
X+9203323Y-5390674D01*
X+9201244Y-5389171D01*
X+9199165Y-5388214D01*
X+9197086Y-5387675D01*
X+9195007Y-5387500D01*
X+9195000Y-5387500D01*
X+9182500Y-5400000D02*
X+9182543Y-5398961D01*
X+9182895Y-5396882D01*
X+9183632Y-5394803D01*
X+9184836Y-5392724D01*
X+9186677Y-5390674D01*
X+9188756Y-5389171D01*
X+9190835Y-5388214D01*
X+9192914Y-5387675D01*
X+9194993Y-5387500D01*
X+9195000Y-5387500D01*
X+9182500Y-5400000D02*
X+9182543Y-5401039D01*
X+9182895Y-5403118D01*
X+9183632Y-5405197D01*
X+9184836Y-5407276D01*
X+9186677Y-5409326D01*
X+9188756Y-5410829D01*
X+9190835Y-5411786D01*
X+9192914Y-5412325D01*
X+9194993Y-5412500D01*
X+9195000Y-5412500D01*
X+9207500Y-5400000D02*
X+9207457Y-5401039D01*
X+9207105Y-5403118D01*
X+9206368Y-5405197D01*
X+9205164Y-5407276D01*
X+9203323Y-5409326D01*
X+9201244Y-5410829D01*
X+9199165Y-5411786D01*
X+9197086Y-5412325D01*
X+9195007Y-5412500D01*
X+9195000Y-5412500D01*
D30*
X+9020000Y-5435000D02*
X+9020000Y-5365000D01*
D73*
X+9207500Y-5650000D02*
X+9207457Y-5648961D01*
X+9207105Y-5646882D01*
X+9206368Y-5644803D01*
X+9205164Y-5642724D01*
X+9203323Y-5640674D01*
X+9201244Y-5639171D01*
X+9199165Y-5638214D01*
X+9197086Y-5637675D01*
X+9195007Y-5637500D01*
X+9195000Y-5637500D01*
X+9182500Y-5650000D02*
X+9182543Y-5648961D01*
X+9182895Y-5646882D01*
X+9183632Y-5644803D01*
X+9184836Y-5642724D01*
X+9186677Y-5640674D01*
X+9188756Y-5639171D01*
X+9190835Y-5638214D01*
X+9192914Y-5637675D01*
X+9194993Y-5637500D01*
X+9195000Y-5637500D01*
X+9182500Y-5650000D02*
X+9182543Y-5651039D01*
X+9182895Y-5653118D01*
X+9183632Y-5655197D01*
X+9184836Y-5657276D01*
X+9186677Y-5659326D01*
X+9188756Y-5660829D01*
X+9190835Y-5661786D01*
X+9192914Y-5662325D01*
X+9194993Y-5662500D01*
X+9195000Y-5662500D01*
X+9207500Y-5650000D02*
X+9207457Y-5651039D01*
X+9207105Y-5653118D01*
X+9206368Y-5655197D01*
X+9205164Y-5657276D01*
X+9203323Y-5659326D01*
X+9201244Y-5660829D01*
X+9199165Y-5661786D01*
X+9197086Y-5662325D01*
X+9195007Y-5662500D01*
X+9195000Y-5662500D01*
D30*
X+9020000Y-5685000D02*
X+9020000Y-5615000D01*
D73*
X+9207500Y-5900000D02*
X+9207457Y-5898961D01*
X+9207105Y-5896882D01*
X+9206368Y-5894803D01*
X+9205164Y-5892724D01*
X+9203323Y-5890674D01*
X+9201244Y-5889171D01*
X+9199165Y-5888214D01*
X+9197086Y-5887675D01*
X+9195007Y-5887500D01*
X+9195000Y-5887500D01*
X+9182500Y-5900000D02*
X+9182543Y-5898961D01*
X+9182895Y-5896882D01*
X+9183632Y-5894803D01*
X+9184836Y-5892724D01*
X+9186677Y-5890674D01*
X+9188756Y-5889171D01*
X+9190835Y-5888214D01*
X+9192914Y-5887675D01*
X+9194993Y-5887500D01*
X+9195000Y-5887500D01*
X+9182500Y-5900000D02*
X+9182543Y-5901039D01*
X+9182895Y-5903118D01*
X+9183632Y-5905197D01*
X+9184836Y-5907276D01*
X+9186677Y-5909326D01*
X+9188756Y-5910829D01*
X+9190835Y-5911786D01*
X+9192914Y-5912325D01*
X+9194993Y-5912500D01*
X+9195000Y-5912500D01*
X+9207500Y-5900000D02*
X+9207457Y-5901039D01*
X+9207105Y-5903118D01*
X+9206368Y-5905197D01*
X+9205164Y-5907276D01*
X+9203323Y-5909326D01*
X+9201244Y-5910829D01*
X+9199165Y-5911786D01*
X+9197086Y-5912325D01*
X+9195007Y-5912500D01*
X+9195000Y-5912500D01*
D30*
X+9020000Y-5935000D02*
X+9020000Y-5865000D01*
D72*
X+8853250Y-6116920D02*
X+8853250Y-6025480D01*
X+8916750Y-6025480D01*
X+8948500Y-6055960D01*
X+8948500Y-6086440D01*
X+8916750Y-6116920D01*
X+8853250Y-6116920D01*
X+9012000Y-6055960D02*
X+9043750Y-6025480D01*
X+9043750Y-6116920D01*
X+9202500Y-6040720D02*
X+9186625Y-6025480D01*
X+9139000Y-6025480D01*
X+9123125Y-6040720D01*
X+9123125Y-6101680D01*
X+9139000Y-6116920D01*
X+9186625Y-6116920D01*
X+9202500Y-6101680D01*
X+9202500Y-6086440D01*
X+9186625Y-6071200D01*
X+9123125Y-6071200D01*
X+8689700Y-1158420D02*
X+8621120Y-1158420D01*
X+8689700Y-1036500D02*
X+8618580Y-1036500D01*
X+8466180Y-990500D02*
X+8466180Y-899060D01*
X+8545555Y-899060D01*
X+8561430Y-914300D01*
X+8561430Y-929540D01*
X+8545555Y-944780D01*
X+8466180Y-944780D01*
X+8545555Y-944780D02*
X+8561430Y-960020D01*
X+8561430Y-990500D01*
X+8624930Y-929540D02*
X+8656680Y-899060D01*
X+8656680Y-990500D01*
X+8815430Y-929540D02*
X+8799555Y-944780D01*
X+8751930Y-944780D01*
X+8736055Y-929540D01*
X+8736055Y-914300D01*
X+8751930Y-899060D01*
X+8799555Y-899060D01*
X+8815430Y-914300D01*
X+8815430Y-975260D01*
X+8799555Y-990500D01*
X+8751930Y-990500D01*
X+8676340Y-1408420D02*
X+8607760Y-1408420D01*
X+8676340Y-1286500D02*
X+8605220Y-1286500D01*
X+8676340Y-1658420D02*
X+8607760Y-1658420D01*
X+8676340Y-1536500D02*
X+8605220Y-1536500D01*
X+8676340Y-1908420D02*
X+8607760Y-1908420D01*
X+8676340Y-1786500D02*
X+8605220Y-1786500D01*
X+8676340Y-2158420D02*
X+8607760Y-2158420D01*
X+8676340Y-2036500D02*
X+8605220Y-2036500D01*
X+8676340Y-2408420D02*
X+8607760Y-2408420D01*
X+8676340Y-2286500D02*
X+8605220Y-2286500D01*
X+8676340Y-2658420D02*
X+8607760Y-2658420D01*
X+8676340Y-2536500D02*
X+8605220Y-2536500D01*
X+8676340Y-2908420D02*
X+8607760Y-2908420D01*
X+8676340Y-2786500D02*
X+8605220Y-2786500D01*
X+8452820Y-3040500D02*
X+8452820Y-2949060D01*
X+8532195Y-2949060D01*
X+8548070Y-2964300D01*
X+8548070Y-2979540D01*
X+8532195Y-2994780D01*
X+8452820Y-2994780D01*
X+8532195Y-2994780D02*
X+8548070Y-3010020D01*
X+8548070Y-3040500D01*
X+8595695Y-2964300D02*
X+8611570Y-2949060D01*
X+8659195Y-2949060D01*
X+8675070Y-2964300D01*
X+8675070Y-2979540D01*
X+8659195Y-2994780D01*
X+8611570Y-2994780D01*
X+8595695Y-3010020D01*
X+8595695Y-3040500D01*
X+8675070Y-3040500D01*
X+8802070Y-2964300D02*
X+8786195Y-2949060D01*
X+8738570Y-2949060D01*
X+8722695Y-2964300D01*
X+8722695Y-3025260D01*
X+8738570Y-3040500D01*
X+8786195Y-3040500D01*
X+8802070Y-3025260D01*
X+8802070Y-3010020D01*
X+8786195Y-2994780D01*
X+8722695Y-2994780D01*
X+8676340Y-4208420D02*
X+8607760Y-4208420D01*
X+8676340Y-4086500D02*
X+8605220Y-4086500D01*
X+8452820Y-4040500D02*
X+8452820Y-3949060D01*
X+8532195Y-3949060D01*
X+8548070Y-3964300D01*
X+8548070Y-3979540D01*
X+8532195Y-3994780D01*
X+8452820Y-3994780D01*
X+8532195Y-3994780D02*
X+8548070Y-4010020D01*
X+8548070Y-4040500D01*
X+8595695Y-3964300D02*
X+8611570Y-3949060D01*
X+8659195Y-3949060D01*
X+8675070Y-3964300D01*
X+8675070Y-3979540D01*
X+8659195Y-3994780D01*
X+8611570Y-3994780D01*
X+8595695Y-4010020D01*
X+8595695Y-4040500D01*
X+8675070Y-4040500D01*
X+8722695Y-3949060D02*
X+8802070Y-3949060D01*
X+8802070Y-3964300D01*
X+8722695Y-4040500D01*
X+8676340Y-4458420D02*
X+8607760Y-4458420D01*
X+8676340Y-4336500D02*
X+8605220Y-4336500D01*
X+8676340Y-4708420D02*
X+8607760Y-4708420D01*
X+8676340Y-4586500D02*
X+8605220Y-4586500D01*
X+8676340Y-4958420D02*
X+8607760Y-4958420D01*
X+8676340Y-4836500D02*
X+8605220Y-4836500D01*
X+8676340Y-5208420D02*
X+8607760Y-5208420D01*
X+8676340Y-5086500D02*
X+8605220Y-5086500D01*
X+8676340Y-5458420D02*
X+8607760Y-5458420D01*
X+8676340Y-5336500D02*
X+8605220Y-5336500D01*
X+8676340Y-5708420D02*
X+8607760Y-5708420D01*
X+8676340Y-5586500D02*
X+8605220Y-5586500D01*
X+8676340Y-5958420D02*
X+8607760Y-5958420D01*
X+8676340Y-5836500D02*
X+8605220Y-5836500D01*
X+8452820Y-6090500D02*
X+8452820Y-5999060D01*
X+8532195Y-5999060D01*
X+8548070Y-6014300D01*
X+8548070Y-6029540D01*
X+8532195Y-6044780D01*
X+8452820Y-6044780D01*
X+8532195Y-6044780D02*
X+8548070Y-6060020D01*
X+8548070Y-6090500D01*
X+8595695Y-6014300D02*
X+8611570Y-5999060D01*
X+8659195Y-5999060D01*
X+8675070Y-6014300D01*
X+8675070Y-6029540D01*
X+8659195Y-6044780D01*
X+8675070Y-6060020D01*
X+8675070Y-6075260D01*
X+8659195Y-6090500D01*
X+8611570Y-6090500D01*
X+8595695Y-6075260D01*
X+8627445Y-6044780D02*
X+8659195Y-6044780D01*
X+8802070Y-6060020D02*
X+8706820Y-6060020D01*
X+8770320Y-5999060D01*
X+8770320Y-6090500D01*
X+3600000Y-4800000D02*
X+3600000Y-4500000D01*
X+4300000Y-4500000D01*
X+4300000Y-4800000D01*
X+3600000Y-4800000D01*
X+3600000Y-4750000D02*
X+3550000Y-4750000D01*
X+3600000Y-4550000D02*
X+3550000Y-4550000D01*
X+3664580Y-4840640D02*
X+3759830Y-4932080D01*
X+3664580Y-4932080D02*
X+3759830Y-4840640D01*
X+3823330Y-4871120D02*
X+3855080Y-4840640D01*
X+3855080Y-4932080D01*
X+3241580Y-6479700D02*
X+3241580Y-6411120D01*
X+3363500Y-6479700D02*
X+3363500Y-6408580D01*
X+3200940Y-6637180D02*
X+3109500Y-6637180D01*
X+3109500Y-6557805D01*
X+3124740Y-6541930D01*
X+3139980Y-6541930D01*
X+3155220Y-6557805D01*
X+3155220Y-6637180D01*
X+3155220Y-6557805D02*
X+3170460Y-6541930D01*
X+3200940Y-6541930D01*
X+3139980Y-6478430D02*
X+3109500Y-6446680D01*
X+3200940Y-6446680D01*
X+3109500Y-6287930D02*
X+3109500Y-6367305D01*
X+3139980Y-6367305D01*
X+3139980Y-6303805D01*
X+3155220Y-6287930D01*
X+3185700Y-6287930D01*
X+3200940Y-6303805D01*
X+3200940Y-6351430D01*
X+3185700Y-6367305D01*
X+3058420Y-6413660D02*
X+3058420Y-6482240D01*
X+2936500Y-6413660D02*
X+2936500Y-6484780D01*
X+2889332Y-6637180D02*
X+2797892Y-6637180D01*
X+2797892Y-6557805D01*
X+2813132Y-6541930D01*
X+2828372Y-6541930D01*
X+2843612Y-6557805D01*
X+2843612Y-6637180D01*
X+2843612Y-6557805D02*
X+2858852Y-6541930D01*
X+2889332Y-6541930D01*
X+2828372Y-6478430D02*
X+2797892Y-6446680D01*
X+2889332Y-6446680D01*
X+2813132Y-6287930D02*
X+2797892Y-6303805D01*
X+2797892Y-6351430D01*
X+2813132Y-6367305D01*
X+2874092Y-6367305D01*
X+2889332Y-6351430D01*
X+2889332Y-6303805D01*
X+2874092Y-6287930D01*
X+2858852Y-6287930D01*
X+2843612Y-6303805D01*
X+2843612Y-6367305D01*
X+2926340Y-5858420D02*
X+2857760Y-5858420D01*
X+2926340Y-5736500D02*
X+2855220Y-5736500D01*
X+2702820Y-5990500D02*
X+2702820Y-5899060D01*
X+2782195Y-5899060D01*
X+2798070Y-5914300D01*
X+2798070Y-5929540D01*
X+2782195Y-5944780D01*
X+2702820Y-5944780D01*
X+2782195Y-5944780D02*
X+2798070Y-5960020D01*
X+2798070Y-5990500D01*
X+2861570Y-5929540D02*
X+2893320Y-5899060D01*
X+2893320Y-5990500D01*
X+2972695Y-5899060D02*
X+3052070Y-5899060D01*
X+3052070Y-5914300D01*
X+2972695Y-5990500D01*
X+6996000Y-52000D02*
X+6996000Y-1068000D01*
X+8012000Y-52000D02*
X+8012000Y-1068000D01*
X+6996000Y-1068000D02*
X+8012000Y-1068000D01*
X+6996000Y-52000D02*
X+8012000Y-52000D01*
X+7286500Y-257880D02*
X+7286500Y-273120D01*
X+7302375Y-288360D01*
X+7365875Y-288360D01*
X+7381750Y-273120D01*
X+7381750Y-196920D01*
X+7508750Y-257880D02*
X+7413500Y-257880D01*
X+7477000Y-196920D01*
X+7477000Y-288360D01*
X+7635750Y-196920D02*
X+7556375Y-196920D01*
X+7556375Y-227400D01*
X+7619875Y-227400D01*
X+7635750Y-242640D01*
X+7635750Y-273120D01*
X+7619875Y-288360D01*
X+7572250Y-288360D01*
X+7556375Y-273120D01*
X+8177000Y-850000D02*
X+8177000Y-697600D01*
X+8126200Y-773800D02*
X+8227800Y-773800D01*
X+8100800Y-494400D02*
X+8100800Y-621400D01*
X+8151600Y-621400D01*
X+8151600Y-519800D01*
X+8177000Y-494400D01*
X+8227800Y-494400D01*
X+8253200Y-519800D01*
X+8253200Y-596000D01*
X+8227800Y-621400D01*
X+8100800Y-443600D02*
X+8177000Y-443600D01*
X+8253200Y-367400D01*
X+8177000Y-291200D01*
X+8100800Y-291200D01*
X+6852400Y-748400D02*
X+6852400Y-697600D01*
X+6903200Y-697600D01*
X+6903200Y-799200D01*
X+6852400Y-850000D01*
X+6801600Y-850000D01*
X+6750800Y-799200D01*
X+6750800Y-723000D01*
X+6776200Y-697600D01*
X+6903200Y-646800D02*
X+6750800Y-646800D01*
X+6903200Y-494400D01*
X+6750800Y-494400D01*
X+6903200Y-443600D02*
X+6750800Y-443600D01*
X+6750800Y-342000D01*
X+6801600Y-291200D01*
X+6852400Y-291200D01*
X+6903200Y-342000D01*
X+6903200Y-443600D01*
X+9011458Y-8830500D02*
X+9773458Y-8830500D01*
X+9773458Y-8576500D01*
X+9011458Y-8576500D01*
X+9011458Y-8830500D01*
X+89770Y-8824188D02*
X+851770Y-8824188D01*
X+851770Y-8570188D01*
X+89770Y-8570188D01*
X+89770Y-8824188D01*
X+163708Y-8374300D02*
X+84333Y-8374300D01*
X+84333Y-8425100D01*
X+147833Y-8425100D01*
X+163708Y-8450500D01*
X+163708Y-8501300D01*
X+147833Y-8526700D01*
X+100208Y-8526700D01*
X+84333Y-8501300D01*
X+195458Y-8374300D02*
X+195458Y-8450500D01*
X+243083Y-8526700D01*
X+290708Y-8450500D01*
X+290708Y-8374300D01*
X+594333Y-8399700D02*
X+610208Y-8374300D01*
X+657833Y-8374300D01*
X+673708Y-8399700D01*
X+673708Y-8425100D01*
X+657833Y-8450500D01*
X+673708Y-8475900D01*
X+673708Y-8501300D01*
X+657833Y-8526700D01*
X+610208Y-8526700D01*
X+594333Y-8501300D01*
X+626083Y-8450500D02*
X+657833Y-8450500D01*
X+705458Y-8374300D02*
X+705458Y-8450500D01*
X+753083Y-8526700D01*
X+800708Y-8450500D01*
X+800708Y-8374300D01*
X+9613708Y-8354300D02*
X+9534333Y-8354300D01*
X+9534333Y-8405100D01*
X+9597833Y-8405100D01*
X+9613708Y-8430500D01*
X+9613708Y-8481300D01*
X+9597833Y-8506700D01*
X+9550208Y-8506700D01*
X+9534333Y-8481300D01*
X+9645458Y-8354300D02*
X+9645458Y-8430500D01*
X+9693083Y-8506700D01*
X+9740708Y-8430500D01*
X+9740708Y-8354300D01*
X+9024333Y-8379700D02*
X+9040208Y-8354300D01*
X+9087833Y-8354300D01*
X+9103708Y-8379700D01*
X+9103708Y-8405100D01*
X+9087833Y-8430500D01*
X+9103708Y-8455900D01*
X+9103708Y-8481300D01*
X+9087833Y-8506700D01*
X+9040208Y-8506700D01*
X+9024333Y-8481300D01*
X+9056083Y-8430500D02*
X+9087833Y-8430500D01*
X+9135458Y-8354300D02*
X+9135458Y-8430500D01*
X+9183083Y-8506700D01*
X+9230708Y-8430500D01*
X+9230708Y-8354300D01*
X+2344333Y-9119700D02*
X+2360208Y-9094300D01*
X+2407833Y-9094300D01*
X+2423708Y-9119700D01*
X+2423708Y-9145100D01*
X+2407833Y-9170500D01*
X+2423708Y-9195900D01*
X+2423708Y-9221300D01*
X+2407833Y-9246700D01*
X+2360208Y-9246700D01*
X+2344333Y-9221300D01*
X+2376083Y-9170500D02*
X+2407833Y-9170500D01*
X+2455458Y-9094300D02*
X+2455458Y-9170500D01*
X+2503083Y-9246700D01*
X+2550708Y-9170500D01*
X+2550708Y-9094300D01*
X+3844333Y-9129700D02*
X+3860208Y-9104300D01*
X+3907833Y-9104300D01*
X+3923708Y-9129700D01*
X+3923708Y-9155100D01*
X+3907833Y-9180500D01*
X+3923708Y-9205900D01*
X+3923708Y-9231300D01*
X+3907833Y-9256700D01*
X+3860208Y-9256700D01*
X+3844333Y-9231300D01*
X+3876083Y-9180500D02*
X+3907833Y-9180500D01*
X+3955458Y-9104300D02*
X+3955458Y-9180500D01*
X+4003083Y-9256700D01*
X+4050708Y-9180500D01*
X+4050708Y-9104300D01*
X+5344333Y-9119700D02*
X+5360208Y-9094300D01*
X+5407833Y-9094300D01*
X+5423708Y-9119700D01*
X+5423708Y-9145100D01*
X+5407833Y-9170500D01*
X+5423708Y-9195900D01*
X+5423708Y-9221300D01*
X+5407833Y-9246700D01*
X+5360208Y-9246700D01*
X+5344333Y-9221300D01*
X+5376083Y-9170500D02*
X+5407833Y-9170500D01*
X+5455458Y-9094300D02*
X+5455458Y-9170500D01*
X+5503083Y-9246700D01*
X+5550708Y-9170500D01*
X+5550708Y-9094300D01*
X+6844333Y-9119700D02*
X+6860208Y-9094300D01*
X+6907833Y-9094300D01*
X+6923708Y-9119700D01*
X+6923708Y-9145100D01*
X+6907833Y-9170500D01*
X+6923708Y-9195900D01*
X+6923708Y-9221300D01*
X+6907833Y-9246700D01*
X+6860208Y-9246700D01*
X+6844333Y-9221300D01*
X+6876083Y-9170500D02*
X+6907833Y-9170500D01*
X+6955458Y-9094300D02*
X+6955458Y-9170500D01*
X+7003083Y-9246700D01*
X+7050708Y-9170500D01*
X+7050708Y-9094300D01*
X+8344333Y-9119700D02*
X+8360208Y-9094300D01*
X+8407833Y-9094300D01*
X+8423708Y-9119700D01*
X+8423708Y-9145100D01*
X+8407833Y-9170500D01*
X+8423708Y-9195900D01*
X+8423708Y-9221300D01*
X+8407833Y-9246700D01*
X+8360208Y-9246700D01*
X+8344333Y-9221300D01*
X+8376083Y-9170500D02*
X+8407833Y-9170500D01*
X+8455458Y-9094300D02*
X+8455458Y-9170500D01*
X+8503083Y-9246700D01*
X+8550708Y-9170500D01*
X+8550708Y-9094300D01*
X+8864333Y-9119700D02*
X+8880208Y-9094300D01*
X+8927833Y-9094300D01*
X+8943708Y-9119700D01*
X+8943708Y-9145100D01*
X+8927833Y-9170500D01*
X+8943708Y-9195900D01*
X+8943708Y-9221300D01*
X+8927833Y-9246700D01*
X+8880208Y-9246700D01*
X+8864333Y-9221300D01*
X+8896083Y-9170500D02*
X+8927833Y-9170500D01*
X+8975458Y-9094300D02*
X+8975458Y-9170500D01*
X+9023083Y-9246700D01*
X+9070708Y-9170500D01*
X+9070708Y-9094300D01*
X+824333Y-9119700D02*
X+840208Y-9094300D01*
X+887833Y-9094300D01*
X+903708Y-9119700D01*
X+903708Y-9145100D01*
X+887833Y-9170500D01*
X+903708Y-9195900D01*
X+903708Y-9221300D01*
X+887833Y-9246700D01*
X+840208Y-9246700D01*
X+824333Y-9221300D01*
X+856083Y-9170500D02*
X+887833Y-9170500D01*
X+935458Y-9094300D02*
X+935458Y-9170500D01*
X+983083Y-9246700D01*
X+1030708Y-9170500D01*
X+1030708Y-9094300D01*
X+954333Y-9420500D02*
X+1033708Y-9420500D01*
X+2414333Y-9410500D02*
X+2493708Y-9410500D01*
X+3904333Y-9410500D02*
X+3983708Y-9410500D01*
X+5414333Y-9410500D02*
X+5493708Y-9410500D01*
X+6914333Y-9410500D02*
X+6993708Y-9410500D01*
X+8404333Y-9410500D02*
X+8483708Y-9410500D01*
X+8874333Y-9410500D02*
X+8953708Y-9410500D01*
X+284333Y-8180500D02*
X+363708Y-8180500D01*
X+267039Y-7931517D02*
X+362289Y-7931517D01*
X+314664Y-7880717D02*
X+314664Y-7982317D01*
X+50458Y-7721300D02*
X+66333Y-7746700D01*
X+129833Y-7746700D01*
X+145708Y-7721300D01*
X+145708Y-7695900D01*
X+129833Y-7670500D01*
X+66333Y-7670500D01*
X+50458Y-7645100D01*
X+50458Y-7619700D01*
X+66333Y-7594300D01*
X+129833Y-7594300D01*
X+145708Y-7619700D01*
X+177458Y-7746700D02*
X+177458Y-7594300D01*
X+240958Y-7594300D01*
X+272708Y-7645100D01*
X+272708Y-7695900D01*
X+240958Y-7746700D01*
X+177458Y-7746700D01*
X+304458Y-7746700D02*
X+304458Y-7645100D01*
X+336208Y-7594300D01*
X+367958Y-7594300D01*
X+399708Y-7645100D01*
X+399708Y-7746700D01*
X+304458Y-7695900D02*
X+399708Y-7695900D01*
X+48458Y-7461300D02*
X+64333Y-7486700D01*
X+127833Y-7486700D01*
X+143708Y-7461300D01*
X+143708Y-7435900D01*
X+127833Y-7410500D01*
X+64333Y-7410500D01*
X+48458Y-7385100D01*
X+48458Y-7359700D01*
X+64333Y-7334300D01*
X+127833Y-7334300D01*
X+143708Y-7359700D01*
X+270708Y-7461300D02*
X+254833Y-7486700D01*
X+207208Y-7486700D01*
X+175458Y-7435900D01*
X+175458Y-7385100D01*
X+207208Y-7334300D01*
X+254833Y-7334300D01*
X+270708Y-7359700D01*
X+302458Y-7334300D02*
X+302458Y-7486700D01*
X+397708Y-7486700D01*
X+4328458Y-7846700D02*
X+4328458Y-7694300D01*
X+4391958Y-7694300D01*
X+4423708Y-7745100D01*
X+4423708Y-7795900D01*
X+4391958Y-7846700D01*
X+4328458Y-7846700D01*
X+4455458Y-7846700D02*
X+4455458Y-7745100D01*
X+4487208Y-7694300D01*
X+4518958Y-7694300D01*
X+4550708Y-7745100D01*
X+4550708Y-7846700D01*
X+4455458Y-7795900D02*
X+4550708Y-7795900D01*
X+4582458Y-7694300D02*
X+4677708Y-7694300D01*
X+4630083Y-7694300D02*
X+4630083Y-7846700D01*
X+4584333Y-8030500D02*
X+4663708Y-8030500D01*
X+4573050Y-7500500D02*
X+4668300Y-7500500D01*
X+4620675Y-7449700D02*
X+4620675Y-7551300D01*
X+1742481Y-8694277D02*
X+1590081Y-8694277D01*
X+1691681Y-8592677D01*
X+1691681Y-8745077D01*
X+3262481Y-8643477D02*
X+3237081Y-8668877D01*
X+3160881Y-8668877D01*
X+3135481Y-8643477D01*
X+3135481Y-8618077D01*
X+3160881Y-8592677D01*
X+3237081Y-8592677D01*
X+3262481Y-8618077D01*
X+3262481Y-8719677D01*
X+3237081Y-8745077D01*
X+3160881Y-8745077D01*
X+4540881Y-8643477D02*
X+4591681Y-8592677D01*
X+4591681Y-8745077D01*
X+4845681Y-8694277D02*
X+4693281Y-8694277D01*
X+4794881Y-8592677D01*
X+4794881Y-8745077D01*
X+6030881Y-8643477D02*
X+6081681Y-8592677D01*
X+6081681Y-8745077D01*
X+6335681Y-8643477D02*
X+6310281Y-8668877D01*
X+6234081Y-8668877D01*
X+6208681Y-8643477D01*
X+6208681Y-8618077D01*
X+6234081Y-8592677D01*
X+6310281Y-8592677D01*
X+6335681Y-8618077D01*
X+6335681Y-8719677D01*
X+6310281Y-8745077D01*
X+6234081Y-8745077D01*
X+7535481Y-8618077D02*
X+7560881Y-8592677D01*
X+7637081Y-8592677D01*
X+7662481Y-8618077D01*
X+7662481Y-8643477D01*
X+7637081Y-8668877D01*
X+7560881Y-8668877D01*
X+7535481Y-8694277D01*
X+7535481Y-8745077D01*
X+7662481Y-8745077D01*
X+7865681Y-8694277D02*
X+7713281Y-8694277D01*
X+7814881Y-8592677D01*
X+7814881Y-8745077D01*
X+9366940Y-6125114D02*
X+9271690Y-6125114D01*
X+9271690Y-6170834D01*
X+9347890Y-6170834D01*
X+9366940Y-6193694D01*
X+9366940Y-6239414D01*
X+9347890Y-6262274D01*
X+9290740Y-6262274D01*
X+9271690Y-6239414D01*
X+9405040Y-6125114D02*
X+9405040Y-6193694D01*
X+9462190Y-6262274D01*
X+9519340Y-6193694D01*
X+9519340Y-6125114D01*
X+9182142Y-6489037D02*
X+9220242Y-6489037D01*
X+9220242Y-6534757D01*
X+9144042Y-6534757D01*
X+9105942Y-6489037D01*
X+9105942Y-6443317D01*
X+9144042Y-6397597D01*
X+9201192Y-6397597D01*
X+9220242Y-6420457D01*
X+9258342Y-6534757D02*
X+9258342Y-6397597D01*
X+9372642Y-6534757D01*
X+9372642Y-6397597D01*
X+9410742Y-6534757D02*
X+9410742Y-6397597D01*
X+9486942Y-6397597D01*
X+9525042Y-6443317D01*
X+9525042Y-6489037D01*
X+9486942Y-6534757D01*
X+9410742Y-6534757D01*
X+9177823Y-3435537D02*
X+9215923Y-3435537D01*
X+9215923Y-3481257D01*
X+9139723Y-3481257D01*
X+9101623Y-3435537D01*
X+9101623Y-3389817D01*
X+9139723Y-3344097D01*
X+9196873Y-3344097D01*
X+9215923Y-3366957D01*
X+9254023Y-3481257D02*
X+9254023Y-3344097D01*
X+9368323Y-3481257D01*
X+9368323Y-3344097D01*
X+9406423Y-3481257D02*
X+9406423Y-3344097D01*
X+9482623Y-3344097D01*
X+9520723Y-3389817D01*
X+9520723Y-3435537D01*
X+9482623Y-3481257D01*
X+9406423Y-3481257D01*
X+9365923Y-3094097D02*
X+9270673Y-3094097D01*
X+9270673Y-3139817D01*
X+9346873Y-3139817D01*
X+9365923Y-3162677D01*
X+9365923Y-3208397D01*
X+9346873Y-3231257D01*
X+9289723Y-3231257D01*
X+9270673Y-3208397D01*
X+9404023Y-3094097D02*
X+9404023Y-3162677D01*
X+9461173Y-3231257D01*
X+9518323Y-3162677D01*
X+9518323Y-3094097D01*
X+9600000Y-50000D02*
X+9671564Y-56964D01*
X+9737744Y-77002D01*
X+9797259Y-108832D01*
X+9848828Y-151172D01*
X+9891168Y-202740D01*
X+9922998Y-262256D01*
X+9943036Y-328436D01*
X+9950000Y-400000D01*
X+400000Y-50000D02*
X+363625Y-52020D01*
X+328436Y-57959D01*
X+294593Y-67633D01*
X+262256Y-80859D01*
X+202741Y-117236D01*
X+151172Y-165625D01*
X+108832Y-224561D01*
X+77002Y-292578D01*
X+56964Y-368213D01*
X+50000Y-450000D01*
X+450000Y-9800000D02*
X+9550000Y-9800000D01*
X+50000Y-9400000D02*
X+52020Y-9441571D01*
X+57959Y-9481787D01*
X+67633Y-9520465D01*
X+80859Y-9557422D01*
X+97455Y-9592474D01*
X+117236Y-9625439D01*
X+165625Y-9684375D01*
X+224561Y-9732764D01*
X+257526Y-9752545D01*
X+292578Y-9769141D01*
X+329535Y-9782367D01*
X+368213Y-9792041D01*
X+408429Y-9797980D01*
X+450000Y-9800000D01*
X+9550000Y-9800000D02*
X+9591571Y-9797980D01*
X+9631787Y-9792041D01*
X+9670465Y-9782367D01*
X+9707422Y-9769141D01*
X+9742474Y-9752545D01*
X+9775439Y-9732764D01*
X+9834375Y-9684375D01*
X+9882764Y-9625439D01*
X+9902545Y-9592474D01*
X+9919141Y-9557422D01*
X+9932367Y-9520465D01*
X+9942041Y-9481787D01*
X+9947980Y-9441571D01*
X+9950000Y-9400000D01*
X+8923050Y-7500500D02*
X+9018300Y-7500500D01*
X+8970675Y-7449700D02*
X+8970675Y-7551300D01*
X+8934333Y-8030500D02*
X+9013708Y-8030500D01*
X+8928458Y-7846700D02*
X+8928458Y-7694300D01*
X+8991958Y-7694300D01*
X+9023708Y-7745100D01*
X+9023708Y-7795900D01*
X+8991958Y-7846700D01*
X+8928458Y-7846700D01*
X+9055458Y-7846700D02*
X+9055458Y-7745100D01*
X+9087208Y-7694300D01*
X+9118958Y-7694300D01*
X+9150708Y-7745100D01*
X+9150708Y-7846700D01*
X+9055458Y-7795900D02*
X+9150708Y-7795900D01*
X+9182458Y-7694300D02*
X+9277708Y-7694300D01*
X+9230083Y-7694300D02*
X+9230083Y-7846700D01*
X+9309458Y-7846700D02*
X+9309458Y-7745100D01*
X+9341208Y-7694300D01*
X+9372958Y-7694300D01*
X+9404708Y-7745100D01*
X+9404708Y-7846700D01*
X+9309458Y-7795900D02*
X+9404708Y-7795900D01*
M02*
