G04 PROTEUS RS274X GERBER FILE*
%FSLAX45Y45*%
%MOMM*%
G01*
%ADD31C,1.778000*%
%ADD32C,6.454000*%
%AMPPAD027*
4,1,48,
-0.952500,1.206500,
0.952500,1.206500,
0.978900,1.205220,
1.004430,1.201450,
1.028990,1.195300,
1.074720,1.176370,
1.115150,1.149340,
1.149340,1.115140,
1.176360,1.074720,
1.195300,1.028990,
1.201450,1.004430,
1.205220,0.978900,
1.206500,0.952500,
1.206500,-0.952500,
1.205220,-0.978900,
1.201450,-1.004430,
1.195300,-1.028990,
1.176360,-1.074720,
1.149340,-1.115140,
1.115150,-1.149340,
1.074720,-1.176370,
1.028990,-1.195300,
1.004430,-1.201450,
0.978900,-1.205220,
0.952500,-1.206500,
-0.952500,-1.206500,
-0.978900,-1.205220,
-1.004430,-1.201450,
-1.028990,-1.195300,
-1.074720,-1.176370,
-1.115150,-1.149340,
-1.149340,-1.115140,
-1.176360,-1.074720,
-1.195300,-1.028990,
-1.201450,-1.004430,
-1.205220,-0.978900,
-1.206500,-0.952500,
-1.206500,0.952500,
-1.205220,0.978900,
-1.201450,1.004430,
-1.195300,1.028990,
-1.176360,1.074720,
-1.149340,1.115140,
-1.115150,1.149340,
-1.074720,1.176370,
-1.028990,1.195300,
-1.004430,1.201450,
-0.978900,1.205220,
-0.952500,1.206500,
0*%
%ADD33PPAD027*%
%ADD34C,2.286000*%
%ADD35C,5.254000*%
%ADD36C,2.254000*%
%AMPPAD031*
4,1,48,
-1.270000,-1.016000,
-1.270000,1.016000,
-1.268720,1.042400,
-1.264950,1.067930,
-1.258800,1.092490,
-1.239870,1.138220,
-1.212840,1.178650,
-1.178640,1.212840,
-1.138220,1.239860,
-1.092490,1.258800,
-1.067930,1.264950,
-1.042400,1.268720,
-1.016000,1.270000,
1.016000,1.270000,
1.042400,1.268720,
1.067930,1.264950,
1.092490,1.258800,
1.138220,1.239860,
1.178640,1.212840,
1.212840,1.178650,
1.239870,1.138220,
1.258800,1.092490,
1.264950,1.067930,
1.268720,1.042400,
1.270000,1.016000,
1.270000,-1.016000,
1.268720,-1.042400,
1.264950,-1.067930,
1.258800,-1.092490,
1.239870,-1.138220,
1.212840,-1.178650,
1.178640,-1.212840,
1.138220,-1.239860,
1.092490,-1.258800,
1.067930,-1.264950,
1.042400,-1.268720,
1.016000,-1.270000,
-1.016000,-1.270000,
-1.042400,-1.268720,
-1.067930,-1.264950,
-1.092490,-1.258800,
-1.138220,-1.239860,
-1.178640,-1.212840,
-1.212840,-1.178650,
-1.239870,-1.138220,
-1.258800,-1.092490,
-1.264950,-1.067930,
-1.268720,-1.042400,
-1.270000,-1.016000,
0*%
%ADD37PPAD031*%
%ADD38C,7.254000*%
%AMPPAD033*
4,1,36,
-0.317500,1.143000,
0.317500,1.143000,
0.343470,1.140470,
0.367480,1.133200,
0.389080,1.121650,
0.407790,1.106290,
0.423150,1.087570,
0.434700,1.065980,
0.441970,1.041970,
0.444500,1.016000,
0.444500,-1.016000,
0.441970,-1.041970,
0.434700,-1.065980,
0.423150,-1.087570,
0.407790,-1.106290,
0.389080,-1.121650,
0.367480,-1.133200,
0.343470,-1.140470,
0.317500,-1.143000,
-0.317500,-1.143000,
-0.343470,-1.140470,
-0.367480,-1.133200,
-0.389080,-1.121650,
-0.407790,-1.106290,
-0.423150,-1.087570,
-0.434700,-1.065980,
-0.441970,-1.041970,
-0.444500,-1.016000,
-0.444500,1.016000,
-0.441970,1.041970,
-0.434700,1.065980,
-0.423150,1.087570,
-0.407790,1.106290,
-0.389080,1.121650,
-0.367480,1.133200,
-0.343470,1.140470,
-0.317500,1.143000,
0*%
%ADD39PPAD033*%
%AMPPAD034*
4,1,36,
-0.677000,-0.200000,
-0.677000,0.200000,
-0.674470,0.225970,
-0.667200,0.249980,
-0.655650,0.271580,
-0.640290,0.290290,
-0.621570,0.305650,
-0.599980,0.317200,
-0.575970,0.324470,
-0.550000,0.327000,
0.550000,0.327000,
0.575970,0.324470,
0.599980,0.317200,
0.621570,0.305650,
0.640290,0.290290,
0.655650,0.271580,
0.667200,0.249980,
0.674470,0.225970,
0.677000,0.200000,
0.677000,-0.200000,
0.674470,-0.225970,
0.667200,-0.249980,
0.655650,-0.271580,
0.640290,-0.290290,
0.621570,-0.305650,
0.599980,-0.317200,
0.575970,-0.324470,
0.550000,-0.327000,
-0.550000,-0.327000,
-0.575970,-0.324470,
-0.599980,-0.317200,
-0.621570,-0.305650,
-0.640290,-0.290290,
-0.655650,-0.271580,
-0.667200,-0.249980,
-0.674470,-0.225970,
-0.677000,-0.200000,
0*%
%ADD40PPAD034*%
%AMPPAD035*
4,1,48,
-0.889000,-0.508000,
-0.889000,0.508000,
-0.887720,0.534400,
-0.883950,0.559930,
-0.877800,0.584490,
-0.858870,0.630220,
-0.831840,0.670650,
-0.797640,0.704840,
-0.757220,0.731860,
-0.711490,0.750800,
-0.686930,0.756950,
-0.661400,0.760720,
-0.635000,0.762000,
0.635000,0.762000,
0.661400,0.760720,
0.686930,0.756950,
0.711490,0.750800,
0.757220,0.731860,
0.797640,0.704840,
0.831840,0.670650,
0.858870,0.630220,
0.877800,0.584490,
0.883950,0.559930,
0.887720,0.534400,
0.889000,0.508000,
0.889000,-0.508000,
0.887720,-0.534400,
0.883950,-0.559930,
0.877800,-0.584490,
0.858870,-0.630220,
0.831840,-0.670650,
0.797640,-0.704840,
0.757220,-0.731860,
0.711490,-0.750800,
0.686930,-0.756950,
0.661400,-0.760720,
0.635000,-0.762000,
-0.635000,-0.762000,
-0.661400,-0.760720,
-0.686930,-0.756950,
-0.711490,-0.750800,
-0.757220,-0.731860,
-0.797640,-0.704840,
-0.831840,-0.670650,
-0.858870,-0.630220,
-0.877800,-0.584490,
-0.883950,-0.559930,
-0.887720,-0.534400,
-0.889000,-0.508000,
0*%
%ADD41PPAD035*%
%AMPPAD036*
4,1,48,
-0.508000,0.889000,
0.508000,0.889000,
0.534400,0.887720,
0.559930,0.883950,
0.584490,0.877800,
0.630220,0.858870,
0.670650,0.831840,
0.704840,0.797640,
0.731860,0.757220,
0.750800,0.711490,
0.756950,0.686930,
0.760720,0.661400,
0.762000,0.635000,
0.762000,-0.635000,
0.760720,-0.661400,
0.756950,-0.686930,
0.750800,-0.711490,
0.731860,-0.757220,
0.704840,-0.797640,
0.670650,-0.831840,
0.630220,-0.858870,
0.584490,-0.877800,
0.559930,-0.883950,
0.534400,-0.887720,
0.508000,-0.889000,
-0.508000,-0.889000,
-0.534400,-0.887720,
-0.559930,-0.883950,
-0.584490,-0.877800,
-0.630220,-0.858870,
-0.670650,-0.831840,
-0.704840,-0.797640,
-0.731860,-0.757220,
-0.750800,-0.711490,
-0.756950,-0.686930,
-0.760720,-0.661400,
-0.762000,-0.635000,
-0.762000,0.635000,
-0.760720,0.661400,
-0.756950,0.686930,
-0.750800,0.711490,
-0.731860,0.757220,
-0.704840,0.797640,
-0.670650,0.831840,
-0.630220,0.858870,
-0.584490,0.877800,
-0.559930,0.883950,
-0.534400,0.887720,
-0.508000,0.889000,
0*%
%ADD42PPAD036*%
%AMPPAD037*
4,1,4,
0.444500,-0.469900,
-0.444500,-0.469900,
-0.444500,0.469900,
0.444500,0.469900,
0.444500,-0.469900,
0*%
%ADD43PPAD037*%
%AMPPAD038*
4,1,48,
-1.524000,-0.508000,
-1.524000,0.508000,
-1.522720,0.534400,
-1.518950,0.559930,
-1.512800,0.584490,
-1.493870,0.630220,
-1.466840,0.670650,
-1.432640,0.704840,
-1.392220,0.731860,
-1.346490,0.750800,
-1.321930,0.756950,
-1.296400,0.760720,
-1.270000,0.762000,
1.270000,0.762000,
1.296400,0.760720,
1.321930,0.756950,
1.346490,0.750800,
1.392220,0.731860,
1.432640,0.704840,
1.466840,0.670650,
1.493870,0.630220,
1.512800,0.584490,
1.518950,0.559930,
1.522720,0.534400,
1.524000,0.508000,
1.524000,-0.508000,
1.522720,-0.534400,
1.518950,-0.559930,
1.512800,-0.584490,
1.493870,-0.630220,
1.466840,-0.670650,
1.432640,-0.704840,
1.392220,-0.731860,
1.346490,-0.750800,
1.321930,-0.756950,
1.296400,-0.760720,
1.270000,-0.762000,
-1.270000,-0.762000,
-1.296400,-0.760720,
-1.321930,-0.756950,
-1.346490,-0.750800,
-1.392220,-0.731860,
-1.432640,-0.704840,
-1.466840,-0.670650,
-1.493870,-0.630220,
-1.512800,-0.584490,
-1.518950,-0.559930,
-1.522720,-0.534400,
-1.524000,-0.508000,
0*%
%ADD44PPAD038*%
%AMPPAD039*
4,1,48,
-3.302000,-1.016000,
-3.302000,1.016000,
-3.300720,1.042400,
-3.296950,1.067930,
-3.290800,1.092490,
-3.271870,1.138220,
-3.244840,1.178650,
-3.210640,1.212840,
-3.170220,1.239860,
-3.124490,1.258800,
-3.099930,1.264950,
-3.074400,1.268720,
-3.048000,1.270000,
3.048000,1.270000,
3.074400,1.268720,
3.099930,1.264950,
3.124490,1.258800,
3.170220,1.239860,
3.210640,1.212840,
3.244840,1.178650,
3.271870,1.138220,
3.290800,1.092490,
3.296950,1.067930,
3.300720,1.042400,
3.302000,1.016000,
3.302000,-1.016000,
3.300720,-1.042400,
3.296950,-1.067930,
3.290800,-1.092490,
3.271870,-1.138220,
3.244840,-1.178650,
3.210640,-1.212840,
3.170220,-1.239860,
3.124490,-1.258800,
3.099930,-1.264950,
3.074400,-1.268720,
3.048000,-1.270000,
-3.048000,-1.270000,
-3.074400,-1.268720,
-3.099930,-1.264950,
-3.124490,-1.258800,
-3.170220,-1.239860,
-3.210640,-1.212840,
-3.244840,-1.178650,
-3.271870,-1.138220,
-3.290800,-1.092490,
-3.296950,-1.067930,
-3.300720,-1.042400,
-3.302000,-1.016000,
0*%
%ADD45PPAD039*%
%AMPPAD040*
4,1,48,
-1.905000,2.286000,
1.905000,2.286000,
1.944600,2.284080,
1.982900,2.278420,
2.054940,2.256610,
2.119730,2.221960,
2.175870,2.175870,
2.221960,2.119730,
2.256610,2.054940,
2.269210,2.019740,
2.278420,1.982900,
2.284080,1.944600,
2.286000,1.905000,
2.286000,-1.905000,
2.284080,-1.944600,
2.278420,-1.982900,
2.269210,-2.019740,
2.256610,-2.054940,
2.221960,-2.119730,
2.175870,-2.175870,
2.119730,-2.221960,
2.054940,-2.256610,
1.982900,-2.278420,
1.944600,-2.284080,
1.905000,-2.286000,
-1.905000,-2.286000,
-1.944600,-2.284080,
-1.982900,-2.278420,
-2.054940,-2.256610,
-2.119730,-2.221960,
-2.175870,-2.175870,
-2.221960,-2.119730,
-2.256610,-2.054940,
-2.269210,-2.019740,
-2.278420,-1.982900,
-2.284080,-1.944600,
-2.286000,-1.905000,
-2.286000,1.905000,
-2.284080,1.944600,
-2.278420,1.982900,
-2.269210,2.019740,
-2.256610,2.054940,
-2.221960,2.119730,
-2.175870,2.175870,
-2.119730,2.221960,
-2.054940,2.256610,
-1.982900,2.278420,
-1.944600,2.284080,
-1.905000,2.286000,
0*%
%ADD46PPAD040*%
%ADD47C,4.572000*%
%AMPPAD042*
4,1,48,
-1.016000,1.270000,
1.016000,1.270000,
1.042400,1.268720,
1.067930,1.264950,
1.092490,1.258800,
1.138220,1.239870,
1.178650,1.212840,
1.212840,1.178640,
1.239860,1.138220,
1.258800,1.092490,
1.264950,1.067930,
1.268720,1.042400,
1.270000,1.016000,
1.270000,-1.016000,
1.268720,-1.042400,
1.264950,-1.067930,
1.258800,-1.092490,
1.239860,-1.138220,
1.212840,-1.178640,
1.178650,-1.212840,
1.138220,-1.239870,
1.092490,-1.258800,
1.067930,-1.264950,
1.042400,-1.268720,
1.016000,-1.270000,
-1.016000,-1.270000,
-1.042400,-1.268720,
-1.067930,-1.264950,
-1.092490,-1.258800,
-1.138220,-1.239870,
-1.178650,-1.212840,
-1.212840,-1.178640,
-1.239860,-1.138220,
-1.258800,-1.092490,
-1.264950,-1.067930,
-1.268720,-1.042400,
-1.270000,-1.016000,
-1.270000,1.016000,
-1.268720,1.042400,
-1.264950,1.067930,
-1.258800,1.092490,
-1.239860,1.138220,
-1.212840,1.178640,
-1.178650,1.212840,
-1.138220,1.239870,
-1.092490,1.258800,
-1.067930,1.264950,
-1.042400,1.268720,
-1.016000,1.270000,
0*%
%ADD48PPAD042*%
%ADD72C,0.203200*%
D31*
X+1665402Y-3660000D03*
D32*
X+500000Y-1500000D03*
X+6300000Y-1500000D03*
X+6300000Y-6300000D03*
X+500000Y-6300000D03*
D33*
X+1000000Y-804000D03*
D31*
X+1254000Y-804000D03*
X+1508000Y-804000D03*
X+1762000Y-804000D03*
X+2016000Y-804000D03*
X+2270000Y-804000D03*
X+2524000Y-804000D03*
X+2778000Y-804000D03*
X+3032000Y-804000D03*
X+3286000Y-804000D03*
X+3540000Y-804000D03*
X+3794000Y-804000D03*
X+4048000Y-804000D03*
X+4302000Y-804000D03*
X+4556000Y-804000D03*
X+4810000Y-804000D03*
X+5064000Y-804000D03*
X+5318000Y-804000D03*
X+5572000Y-804000D03*
X+5826000Y-804000D03*
X+5826000Y-550000D03*
X+5572000Y-550000D03*
X+5318000Y-550000D03*
X+5064000Y-550000D03*
X+4810000Y-550000D03*
X+4556000Y-550000D03*
X+4302000Y-550000D03*
X+4048000Y-550000D03*
X+3794000Y-550000D03*
X+3540000Y-550000D03*
X+3286000Y-550000D03*
X+3032000Y-550000D03*
X+2778000Y-550000D03*
X+2524000Y-550000D03*
X+2270000Y-550000D03*
X+2016000Y-550000D03*
X+1762000Y-550000D03*
X+1508000Y-550000D03*
D34*
X+1254000Y-550000D03*
X+1000000Y-550000D03*
D35*
X+2600000Y-3650000D03*
D36*
X+850000Y-2800000D03*
X+850000Y-4500000D03*
X+2200000Y-3650000D03*
D35*
X+600000Y-3650000D03*
D37*
X+548458Y-8171500D03*
X+548458Y-7917500D03*
X+548458Y-7663500D03*
X+548458Y-7409500D03*
X+1048458Y-8171500D03*
X+1048458Y-7917500D03*
X+1048458Y-7663500D03*
X+1048458Y-7409500D03*
X+1548458Y-8171500D03*
X+1548458Y-7917500D03*
X+1548458Y-7663500D03*
X+1548458Y-7409500D03*
X+2048458Y-8171500D03*
X+2048458Y-7917500D03*
X+2048458Y-7663500D03*
X+2048458Y-7409500D03*
X+2548458Y-8171500D03*
X+2548458Y-7917500D03*
X+2548458Y-7663500D03*
X+2548458Y-7409500D03*
X+3048458Y-8171500D03*
X+3048458Y-7917500D03*
X+3048458Y-7663500D03*
X+3048458Y-7409500D03*
X+3548458Y-8171500D03*
X+3548458Y-7917500D03*
X+3548458Y-7663500D03*
X+3548458Y-7409500D03*
X+4098458Y-8171500D03*
X+4098458Y-7917500D03*
X+4098458Y-7663500D03*
X+4098458Y-7409500D03*
X+4848458Y-8021500D03*
X+4848458Y-7767500D03*
X+4848458Y-7513500D03*
X+5348458Y-8021500D03*
X+5348458Y-7767500D03*
X+5348458Y-7513500D03*
X+5848458Y-8021500D03*
X+5848458Y-7767500D03*
X+5848458Y-7513500D03*
X+6348458Y-8021500D03*
X+6348458Y-7767500D03*
X+6348458Y-7513500D03*
X+6848458Y-8021500D03*
X+6848458Y-7767500D03*
X+6848458Y-7513500D03*
X+7348458Y-8021500D03*
X+7348458Y-7767500D03*
X+7348458Y-7513500D03*
X+7848458Y-8021500D03*
X+7848458Y-7767500D03*
X+7848458Y-7513500D03*
X+8398458Y-8021500D03*
X+8398458Y-7767500D03*
X+8398458Y-7513500D03*
X+1198458Y-9413500D03*
X+1198458Y-9159500D03*
X+1198458Y-8905500D03*
X+1448458Y-9413500D03*
X+1448458Y-9159500D03*
X+1448458Y-8905500D03*
X+1698458Y-9413500D03*
X+1698458Y-9159500D03*
X+1698458Y-8905500D03*
X+1948458Y-9413500D03*
X+1948458Y-9159500D03*
X+1948458Y-8905500D03*
X+2198458Y-9413500D03*
X+2198458Y-9159500D03*
X+2198458Y-8905500D03*
X+2698458Y-9413500D03*
X+2698458Y-9159500D03*
X+2698458Y-8905500D03*
X+2948458Y-9413500D03*
X+2948458Y-9159500D03*
X+2948458Y-8905500D03*
X+3198458Y-9413500D03*
X+3198458Y-9159500D03*
X+3198458Y-8905500D03*
X+3448458Y-9413500D03*
X+3448458Y-9159500D03*
X+3448458Y-8905500D03*
X+3698458Y-9413500D03*
X+3698458Y-9159500D03*
X+3698458Y-8905500D03*
X+4198458Y-9413500D03*
X+4198458Y-9159500D03*
X+4198458Y-8905500D03*
X+4448458Y-9413500D03*
X+4448458Y-9159500D03*
X+4448458Y-8905500D03*
X+4698458Y-9413500D03*
X+4698458Y-9159500D03*
X+4698458Y-8905500D03*
X+4948458Y-9413500D03*
X+4948458Y-9159500D03*
X+4948458Y-8905500D03*
X+5198458Y-9413500D03*
X+5198458Y-9159500D03*
X+5198458Y-8905500D03*
X+5698458Y-9413500D03*
X+5698458Y-9159500D03*
X+5698458Y-8905500D03*
X+5948458Y-9413500D03*
X+5948458Y-9159500D03*
X+5948458Y-8905500D03*
X+6198458Y-9413500D03*
X+6198458Y-9159500D03*
X+6198458Y-8905500D03*
X+6448458Y-9413500D03*
X+6448458Y-9159500D03*
X+6448458Y-8905500D03*
X+6698458Y-9413500D03*
X+6698458Y-9159500D03*
X+6698458Y-8905500D03*
X+7198458Y-9413500D03*
X+7198458Y-9159500D03*
X+7198458Y-8905500D03*
X+7448458Y-9413500D03*
X+7448458Y-9159500D03*
X+7448458Y-8905500D03*
X+7698458Y-9413500D03*
X+7698458Y-9159500D03*
X+7698458Y-8905500D03*
X+7948458Y-9413500D03*
X+7948458Y-9159500D03*
X+7948458Y-8905500D03*
X+8198458Y-9413500D03*
X+8198458Y-9159500D03*
X+8198458Y-8905500D03*
X+8698458Y-9413500D03*
X+8698458Y-9159500D03*
X+8698458Y-8905500D03*
X+9700000Y-3400000D03*
X+9700000Y-3146000D03*
X+9700000Y-2892000D03*
X+9700000Y-2638000D03*
X+9700000Y-2384000D03*
X+9700000Y-2130000D03*
X+9700000Y-1876000D03*
X+9700000Y-1622000D03*
X+9700000Y-1368000D03*
X+9700000Y-1114000D03*
X+9700000Y-6450000D03*
X+9700000Y-6196000D03*
X+9700000Y-5942000D03*
X+9700000Y-5688000D03*
X+9700000Y-5434000D03*
X+9700000Y-5180000D03*
X+9700000Y-4926000D03*
X+9700000Y-4672000D03*
X+9700000Y-4418000D03*
X+9700000Y-4164000D03*
D38*
X+450000Y-450000D03*
X+9550000Y-450000D03*
X+9550000Y-9400000D03*
X+450000Y-9400000D03*
D39*
X+2940500Y-4389650D03*
X+2813500Y-4389650D03*
X+2686500Y-4389650D03*
X+2559500Y-4389650D03*
X+2559500Y-4910350D03*
X+2686500Y-4910350D03*
X+2813500Y-4910350D03*
X+2940500Y-4910350D03*
D40*
X+7150000Y-2200000D03*
X+7150000Y-2265000D03*
X+7150000Y-2330000D03*
X+7150000Y-2395000D03*
X+7150000Y-2460000D03*
X+7150000Y-2525000D03*
X+7150000Y-2590000D03*
X+7150000Y-2655000D03*
X+7150000Y-2720000D03*
X+7150000Y-2785000D03*
X+7850000Y-2785000D03*
X+7850000Y-2720000D03*
X+7850000Y-2655000D03*
X+7850000Y-2590000D03*
X+7850000Y-2525000D03*
X+7850000Y-2460000D03*
X+7850000Y-2395000D03*
X+7850000Y-2330000D03*
X+7850000Y-2265000D03*
X+7850000Y-2200000D03*
X+7150000Y-4200000D03*
X+7150000Y-4265000D03*
X+7150000Y-4330000D03*
X+7150000Y-4395000D03*
X+7150000Y-4460000D03*
X+7150000Y-4525000D03*
X+7150000Y-4590000D03*
X+7150000Y-4655000D03*
X+7150000Y-4720000D03*
X+7150000Y-4785000D03*
X+7850000Y-4785000D03*
X+7850000Y-4720000D03*
X+7850000Y-4655000D03*
X+7850000Y-4590000D03*
X+7850000Y-4525000D03*
X+7850000Y-4460000D03*
X+7850000Y-4395000D03*
X+7850000Y-4330000D03*
X+7850000Y-4265000D03*
X+7850000Y-4200000D03*
D41*
X+8748458Y-7713500D03*
X+8748458Y-7500140D03*
X+6350000Y-4250000D03*
X+6350000Y-4463360D03*
X+6750000Y-4250000D03*
X+6750000Y-4463360D03*
X+6550000Y-4250000D03*
X+6550000Y-4463360D03*
X+6350000Y-4800000D03*
X+6350000Y-4586640D03*
X+6750000Y-4800000D03*
X+6750000Y-4586640D03*
X+6550000Y-4800000D03*
X+6550000Y-4586640D03*
X+6350000Y-2250000D03*
X+6350000Y-2463360D03*
X+6750000Y-2250000D03*
X+6750000Y-2463360D03*
X+6550000Y-2250000D03*
X+6550000Y-2463360D03*
X+6350000Y-2800000D03*
X+6350000Y-2586640D03*
X+6750000Y-2800000D03*
X+6750000Y-2586640D03*
X+6550000Y-2800000D03*
X+6550000Y-2586640D03*
D42*
X+6950000Y-1950000D03*
X+7163360Y-1950000D03*
X+6950000Y-3950000D03*
X+7163360Y-3950000D03*
D43*
X+8940000Y-1100000D03*
X+9100000Y-1100000D03*
X+8940000Y-1350000D03*
X+9100000Y-1350000D03*
X+8940000Y-1600000D03*
X+9100000Y-1600000D03*
X+8940000Y-1850000D03*
X+9100000Y-1850000D03*
X+8940000Y-2100000D03*
X+9100000Y-2100000D03*
X+8940000Y-2350000D03*
X+9100000Y-2350000D03*
X+8940000Y-2600000D03*
X+9100000Y-2600000D03*
X+8940000Y-2850000D03*
X+9100000Y-2850000D03*
X+8940000Y-4150000D03*
X+9100000Y-4150000D03*
X+8940000Y-4400000D03*
X+9100000Y-4400000D03*
X+8940000Y-4650000D03*
X+9100000Y-4650000D03*
X+8940000Y-4900000D03*
X+9100000Y-4900000D03*
X+8940000Y-5150000D03*
X+9100000Y-5150000D03*
X+8940000Y-5400000D03*
X+9100000Y-5400000D03*
X+8940000Y-5650000D03*
X+9100000Y-5650000D03*
X+8940000Y-5900000D03*
X+9100000Y-5900000D03*
D42*
X+8763360Y-1100000D03*
X+8550000Y-1100000D03*
X+8750000Y-1350000D03*
X+8536640Y-1350000D03*
X+8750000Y-1600000D03*
X+8536640Y-1600000D03*
X+8750000Y-1850000D03*
X+8536640Y-1850000D03*
X+8750000Y-2100000D03*
X+8536640Y-2100000D03*
X+8750000Y-2350000D03*
X+8536640Y-2350000D03*
X+8750000Y-2600000D03*
X+8536640Y-2600000D03*
X+8750000Y-2850000D03*
X+8536640Y-2850000D03*
X+8750000Y-4150000D03*
X+8536640Y-4150000D03*
X+8750000Y-4400000D03*
X+8536640Y-4400000D03*
X+8750000Y-4650000D03*
X+8536640Y-4650000D03*
X+8750000Y-4900000D03*
X+8536640Y-4900000D03*
X+8750000Y-5150000D03*
X+8536640Y-5150000D03*
X+8750000Y-5400000D03*
X+8536640Y-5400000D03*
X+8750000Y-5650000D03*
X+8536640Y-5650000D03*
X+8750000Y-5900000D03*
X+8536640Y-5900000D03*
D44*
X+3400000Y-4750000D03*
X+3400000Y-4550000D03*
D45*
X+3950000Y-4650000D03*
D41*
X+3300000Y-6553360D03*
X+3300000Y-6340000D03*
X+3000000Y-6340000D03*
X+3000000Y-6553360D03*
D42*
X+3000000Y-5800000D03*
X+2786640Y-5800000D03*
D46*
X+7250000Y-560000D03*
D47*
X+7758000Y-560000D03*
D48*
X+9138458Y-8703500D03*
X+9392458Y-8703500D03*
X+9646458Y-8703500D03*
X+724770Y-8697188D03*
X+470770Y-8697188D03*
X+216770Y-8697188D03*
D72*
X+400000Y-50000D02*
X+9600000Y-50000D01*
X+9950000Y-400000D02*
X+9950000Y-9400000D01*
X+50000Y-9400000D02*
X+50000Y-450000D01*
X+9600000Y-50000D02*
X+9671564Y-56964D01*
X+9737744Y-77002D01*
X+9797259Y-108832D01*
X+9848828Y-151172D01*
X+9891168Y-202740D01*
X+9922998Y-262256D01*
X+9943036Y-328436D01*
X+9950000Y-400000D01*
X+400000Y-50000D02*
X+363625Y-52020D01*
X+328436Y-57959D01*
X+294593Y-67633D01*
X+262256Y-80859D01*
X+202741Y-117236D01*
X+151172Y-165625D01*
X+108832Y-224561D01*
X+77002Y-292578D01*
X+56964Y-368213D01*
X+50000Y-450000D01*
X+450000Y-9800000D02*
X+9550000Y-9800000D01*
X+50000Y-9400000D02*
X+52020Y-9441571D01*
X+57959Y-9481787D01*
X+67633Y-9520465D01*
X+80859Y-9557422D01*
X+97455Y-9592474D01*
X+117236Y-9625439D01*
X+165625Y-9684375D01*
X+224561Y-9732764D01*
X+257526Y-9752545D01*
X+292578Y-9769141D01*
X+329535Y-9782367D01*
X+368213Y-9792041D01*
X+408429Y-9797980D01*
X+450000Y-9800000D01*
X+9550000Y-9800000D02*
X+9591571Y-9797980D01*
X+9631787Y-9792041D01*
X+9670465Y-9782367D01*
X+9707422Y-9769141D01*
X+9742474Y-9752545D01*
X+9775439Y-9732764D01*
X+9834375Y-9684375D01*
X+9882764Y-9625439D01*
X+9902545Y-9592474D01*
X+9919141Y-9557422D01*
X+9932367Y-9520465D01*
X+9942041Y-9481787D01*
X+9947980Y-9441571D01*
X+9950000Y-9400000D01*
M02*
